<?xml version="1.0" standalone="no"?>
<!DOCTYPE svg PUBLIC "-//W3C//DTD SVG 20010904//EN"
 "http://www.w3.org/TR/2001/REC-SVG-20010904/DTD/svg10.dtd">
<svg version="1.0" xmlns="http://www.w3.org/2000/svg"
 width="700.000000pt" height="700.000000pt" viewBox="0 0 700.000000 700.000000"
 preserveAspectRatio="xMidYMid meet">
<metadata>
Created by potrace 1.14, written by Peter Selinger 2001-2017
</metadata>
<g transform="translate(0.000000,700.000000) scale(0.100000,-0.100000)"
fill="#000000" stroke="none">
<path d="M3245 6113 c-148 -18 -260 -38 -362 -63 -947 -231 -1690 -967 -1927
-1909 -61 -243 -71 -333 -71 -641 0 -308 10 -398 71 -641 116 -462 340 -857
682 -1203 399 -404 899 -660 1467 -752 134 -22 522 -30 668 -14 499 53 983
253 1372 567 122 98 310 287 405 406 286 358 474 787 547 1252 25 157 25 613
0 770 -90 568 -343 1068 -743 1469 -417 416 -953 679 -1534 751 -113 14 -487
19 -575 8z m575 -478 c619 -98 1149 -440 1491 -963 388 -594 455 -1361 175
-2013 -502 -1172 -1894 -1661 -3009 -1057 -602 326 -1007 905 -1114 1589 -24
156 -24 462 0 617 157 1007 953 1754 1967 1846 93 8 389 -3 490 -19z"/>
<path d="M2600 4763 c-168 -29 -289 -129 -342 -282 l-23 -66 0 -915 0 -915 23
-67 c44 -127 135 -218 261 -260 l66 -23 875 -3 c909 -3 947 -2 1056 39 72 27
162 110 198 184 48 99 56 162 56 478 l0 287 -235 0 -235 0 0 -260 0 -260 -800
0 -800 0 0 800 0 800 800 0 800 0 0 -260 0 -260 236 0 235 0 -3 318 c-4 294
-6 322 -26 383 -41 122 -125 209 -250 258 l-67 26 -900 1 c-495 1 -911 0 -925
-3z"/>
<path d="M3265 3727 c-3 -7 -4 -114 -3 -237 l3 -225 235 0 235 0 0 235 0 235
-233 3 c-183 2 -234 0 -237 -11z"/>
</g>
</svg>
