<svg width="120" height="120" viewBox="0 0 120 120" fill="none" xmlns="http://www.w3.org/2000/svg">
<rect width="120" height="120" rx="35" fill="white"/>
<path d="M60 15C35.1861 15 15 35.1861 15 60C15 84.8139 35.1861 105 60 105C84.8139 105 105 84.8139 105 60C105 35.1861 84.8073 15 60 15ZM60 97.0024C39.5954 97.0024 22.991 80.398 22.991 59.9934C22.991 39.5888 39.5954 22.9844 60 22.9844C80.4046 22.9844 97.009 39.5888 97.009 59.9934C97.009 80.398 80.4046 97.0024 60 97.0024Z" fill="#18453B"/>
<path d="M64.0388 55.9551H55.9551V64.0388H64.0388V55.9551Z" fill="#18453B"/>
<path d="M81.788 55.1601V46.6792C81.788 41.1312 78.8551 38.1982 73.3071 38.1982H46.6792C41.1312 38.1982 38.1982 41.1312 38.1982 46.6792V73.3071C38.1982 78.8552 41.1312 81.7881 46.6792 81.7881H73.3071C78.8551 81.7881 81.788 78.8552 81.788 73.3071V64.8262H73.7044V73.7044H46.2819V46.282H73.7044V55.1601H81.788V55.1601Z" fill="#18453B"/>
</svg>
