<svg width="138" height="113" viewBox="0 0 138 113" fill="none" xmlns="http://www.w3.org/2000/svg">
<path d="M123.199 85.777C122.216 83.9065 120.929 82.2134 119.389 80.7682L114.375 83.7319C113.172 82.8204 111.836 82.1016 110.412 81.6039L109.923 75.8168C107.866 75.4 105.758 75.3029 103.671 75.53L102.917 81.2701C101.47 81.6188 100.091 82.2138 98.8444 83.0293L93.9757 79.6538C92.3776 80.9822 91.0264 82.583 89.984 84.3819L94.0551 88.6807C93.4652 90.0436 93.0858 91.4876 92.9296 92.9642L87.3198 94.6319C87.4066 96.7424 87.8386 98.8234 88.5991 100.793L94.4147 100.36C95.1083 101.692 96.0155 102.902 97.1001 103.94L94.9967 109.366C96.6862 110.643 98.5735 111.635 100.583 112.301L103.795 107.45C105.262 107.764 106.771 107.833 108.261 107.656L111.201 112.78C113.227 112.278 115.153 111.43 116.893 110.274L115.016 104.717C116.17 103.794 117.131 102.652 117.844 101.358L123.639 102.323C124.491 100.403 125.017 98.3528 125.193 96.2586L119.679 94.1352C119.637 92.6414 119.327 91.1674 118.764 89.7834L123.199 85.777ZM110.785 100.191C109.207 101.338 107.241 101.816 105.313 101.521C103.386 101.226 101.652 100.181 100.488 98.6139C99.9044 97.8556 99.4763 96.9882 99.231 96.0624C98.9844 95.1363 98.9253 94.1707 99.0566 93.2216C99.1865 92.2723 99.5051 91.3586 99.9923 90.5343C100.479 89.7104 101.125 88.9914 101.892 88.4195C102.684 87.8476 103.581 87.4371 104.532 87.213C105.482 86.9881 106.467 86.9536 107.431 87.1097C108.394 87.2672 109.318 87.6122 110.148 88.1274C110.979 88.6421 111.7 89.3159 112.271 90.1096C112.838 90.8677 113.25 91.7313 113.483 92.6494C113.715 93.568 113.764 94.5235 113.626 95.4606C113.488 96.3989 113.165 97.2998 112.678 98.1118C112.191 98.9232 111.548 99.6311 110.786 100.192L110.785 100.191Z" fill="#107969"/>
<path d="M85.5977 26.5016C84.0579 24.8553 82.687 23.087 81.2186 21.3026C82.6249 18.72 84.03 16.1372 85.5232 13.318C83.4238 11.7346 81.4208 10.1658 79.3627 8.63932C73.3195 14.1328 72.984 15.499 71.0031 14.1296C67.5547 11.7459 64.7477 12.9092 65.3809 8.88414C65.4806 8.21402 65.538 7.5378 65.5521 6.86029C65.7034 2.1869 65.7779 2.23875 61.1776 1.31156C60.2607 1.12338 59.2687 1.06041 58.1558 0.834161C57.3143 3.00493 56.3819 5.16263 55.6886 7.30573C55.211 8.78333 54.5089 9.72308 52.837 9.21196C51.5779 9.01304 48.2371 9.87407 46.6157 8.72955C45.226 7.74899 44.8902 5.22025 44.1099 3.37646C43.7728 2.579 43.3648 1.75612 43.0419 0.953806C40.5469 1.56116 38.1092 2.1278 35.6563 2.79159C36.5253 15.1412 36.6236 10.7756 30.6806 14.726C29.3405 15.6161 28.6043 15.2838 27.6415 14.3461C26.011 12.7592 24.1659 11.3433 22.1942 9.57965C20.4704 11.0097 18.7067 12.2712 17.0783 13.8295C16.8997 14.1378 16.7998 14.4853 16.7875 14.8413C16.7751 15.1974 16.8503 15.5511 17.0068 15.871C17.8994 17.6806 18.9088 19.4301 20.029 21.1079C21.3479 23.1085 19.4186 23.5815 18.8741 24.6308C17.0274 28.7454 13.9921 29.1782 10.3035 27.3327C9.23453 26.9238 8.12493 26.6308 6.99368 26.4587C5.70881 28.7191 4.58773 31.069 3.63899 33.4903C6.21093 35.2486 8.69994 36.8942 11.1897 38.5393C10.94 39.5033 10.6817 40.3619 10.4678 41.2294C10.0649 42.8636 10.2684 45.2364 9.21119 46.0385C7.68715 47.1956 3.5365 47.4095 0.45527 48.0109C0.205665 55.8357 0.396988 55.0706 0.523872 55.8349C3.01834 56.1785 5.55259 56.6015 8.06466 56.8251C10.5461 57.0464 9.68517 58.9387 10.1746 59.6128C12.2232 63.7421 10.7483 66.4697 6.80928 68.2953C5.83473 68.848 4.91392 69.4906 4.05877 70.2149C4.27843 71.5337 4.76506 71.7418 7.52017 77.122C17.8267 74.1228 15.34 73.5166 21.2922 80.75C19.8858 83.3326 18.4802 85.9147 16.987 88.7338C19.087 90.3179 21.0894 91.886 23.148 93.4132C32.6259 84.325 28.5975 87.9372 34.9471 89.5681C37.9907 90.3502 37.0249 92.3714 37.0492 94.9609C36.8382 99.5996 36.2447 100.288 44.4161 101.183C45.2576 99.012 46.113 96.8881 46.8838 94.7119C47.3895 93.2853 48.0642 92.2941 49.7354 92.8057C50.9945 93.0046 54.3353 92.1436 55.9561 93.2874C57.3464 94.2687 57.6816 96.7967 58.4617 98.6417C58.7991 99.4379 59.2063 100.261 59.5713 101.12C62.0656 100.513 64.5033 99.9466 66.9569 99.2823C66.7712 96.6486 66.4879 94.057 66.4825 91.4951C66.4781 89.1526 69.7322 88.8831 71.7628 87.4718C73.197 86.475 74.1025 86.8916 75.1922 87.9133C76.8009 89.4212 78.5277 90.8429 80.4562 92.5532C82.1812 91.1233 83.9971 89.8171 85.5726 88.3041C85.7508 87.9954 85.8507 87.6478 85.8629 87.2915C85.875 86.9352 85.8003 86.5821 85.6443 86.2613C82.3114 79.39 81.4972 81.6336 83.4755 77.8062C85.4814 73.3152 88.8094 72.9293 92.7761 74.9183C93.7392 75.2761 94.7357 75.5324 95.7514 75.6832C96.8189 73.3477 97.9272 71.0684 99.0507 68.692C96.3811 66.9189 93.9477 65.2317 91.4579 63.5866C91.7077 62.6226 92.3799 56.889 93.4372 56.0868C94.868 55.001 97.1546 54.9892 102.137 54.1554C102.387 46.3313 102.196 47.0964 102.068 46.3327C99.5739 45.9878 97.0402 45.5655 94.5281 45.3419C93.2454 45.2272 92.5257 42.8221 92.4181 42.5542C90.369 38.4242 91.8439 35.6966 95.783 33.871C96.7575 33.3188 97.6786 32.676 98.5335 31.9514C98.3138 30.6326 97.8277 30.4252 95.0726 25.045C89.4326 26.2689 86.9096 27.9031 85.5977 26.5016ZM72.6863 45.6983C73.7196 49.9322 73.4775 54.3777 71.9895 58.4735C70.5014 62.5693 67.8351 66.1309 64.3272 68.7082C60.8199 71.285 56.628 72.7623 52.2829 72.9522C47.9376 73.1423 43.6336 72.0368 39.9152 69.7757C36.1968 67.5147 33.231 64.1994 31.3927 60.2491C29.5544 56.2989 28.9263 51.8912 29.5876 47.5833C30.249 43.2753 32.1706 39.2603 35.1085 36.0467C38.0464 32.8331 41.8698 30.5643 46.0943 29.528C48.8996 28.8398 51.8131 28.712 54.6684 29.1519C57.5229 29.5923 60.2637 30.5914 62.7329 32.0931C65.2021 33.5948 67.3524 35.569 69.0598 37.9037C70.768 40.2378 72.0001 42.8865 72.6863 45.6983Z" fill="#86ACD1"/>
<path d="M134.057 50.4312C117.711 53.3465 116.319 53.7079 116.715 54.2527C116.962 54.593 116.739 54.287 134.203 51.1072C134.737 50.7177 134.386 50.3267 134.057 50.4312Z" fill="#2F3850"/>
<path d="M132.141 58.4928C121.843 58.7022 120.837 58.3835 121.393 59.1489C121.576 59.4016 137.395 59.16 137.494 59.0877C137.556 59.0458 137.603 58.9847 137.628 58.9142C137.653 58.8425 137.654 58.7657 137.631 58.6942C137.608 58.6227 137.563 58.5606 137.501 58.5172C137.44 58.4734 137.367 58.4508 137.292 58.4531C136.149 58.4252 134.249 58.447 132.141 58.4928Z" fill="#2F3850"/>
<path d="M121.749 64.5092C117.529 63.1184 117.629 63.1012 117.452 63.2298C117.399 63.2674 117.357 63.3195 117.331 63.3795C117.306 63.4402 117.299 63.5062 117.31 63.5707C117.32 63.6357 117.349 63.6959 117.393 63.7448C117.436 63.7936 117.493 63.8291 117.555 63.8474C117.645 63.8938 128.547 67.4408 131.493 68.3059C131.537 68.3199 131.583 68.3253 131.63 68.3216C131.676 68.3172 131.72 68.3041 131.76 68.2821C131.801 68.2614 131.837 68.2308 131.866 68.1953C131.895 68.1592 131.917 68.118 131.929 68.0741C132.025 67.4556 131.991 67.8938 121.749 64.5092Z" fill="#2F3850"/>
</svg>
