<svg width="45" height="46" viewBox="0 0 45 46" fill="none" xmlns="http://www.w3.org/2000/svg">
<rect y="0.5" width="45" height="45" rx="22.5" fill="#356DEE"/>
<g clip-path="url(#clip0_24541_85251)">
<path d="M26.502 36.1209C26.7019 36.1209 26.9218 36.061 27.1217 35.961C27.9014 35.6011 28.2213 34.7215 27.8415 33.9418C27.8415 33.9418 24.9825 27.4043 24.4627 25.0052C24.2628 24.1655 24.1429 21.9463 24.1029 20.9067C24.1029 20.5469 24.3028 20.227 24.6227 20.127L31.0202 18.2078C31.7999 18.0078 32.2598 17.1082 32.0599 16.3285C31.8599 15.5488 30.9603 15.089 30.1806 15.2889C30.1806 15.2889 24.2628 17.2082 22.1236 17.2082C20.0444 17.2082 14.1667 15.3289 14.1667 15.3289C13.387 15.1289 12.5073 15.4888 12.2474 16.2685C11.9875 17.1082 12.4473 17.9879 13.287 18.1878L19.6846 20.107C20.0044 20.207 20.2643 20.5269 20.2044 20.8867C20.1444 21.9264 20.0444 24.1655 19.8445 24.9852C19.3247 27.3843 16.4658 33.9218 16.4658 33.9218C16.1059 34.7015 16.4658 35.5812 17.1855 35.941C17.3854 36.041 17.6054 36.101 17.8053 36.101C18.3851 36.101 18.9448 35.7811 19.1648 35.2213L22.2236 28.9837L25.1425 35.2613C25.4024 35.8011 25.9222 36.1209 26.502 36.1209Z" fill="#F8FBFF"/>
<path d="M22.2438 15.7128C23.8559 15.7128 25.1627 14.4059 25.1627 12.7939C25.1627 11.1818 23.8559 9.875 22.2438 9.875C20.6318 9.875 19.325 11.1818 19.325 12.7939C19.325 14.4059 20.6318 15.7128 22.2438 15.7128Z" fill="#F8FBFF"/>
</g>
<defs>
<clipPath id="clip0_24541_85251">
<rect width="19.9924" height="26.25" fill="white" transform="translate(12.1875 9.875)"/>
</clipPath>
</defs>
</svg>
