<svg width="20" height="20" viewBox="0 0 20 20" fill="none" xmlns="http://www.w3.org/2000/svg">
<g clip-path="url(#clip0)">
<path d="M5.83333 0H3.33333C2.44928 0 1.60143 0.35119 0.976311 0.976311C0.35119 1.60143 0 2.44928 0 3.33333L0 5.83333C0 6.71739 0.35119 7.56524 0.976311 8.19036C1.60143 8.81548 2.44928 9.16667 3.33333 9.16667H5.83333C6.71739 9.16667 7.56524 8.81548 8.19036 8.19036C8.81548 7.56524 9.16667 6.71739 9.16667 5.83333V3.33333C9.16667 2.44928 8.81548 1.60143 8.19036 0.976311C7.56524 0.35119 6.71739 0 5.83333 0V0ZM7.5 5.83333C7.5 6.27536 7.32441 6.69928 7.01184 7.01184C6.69928 7.32441 6.27536 7.5 5.83333 7.5H3.33333C2.89131 7.5 2.46738 7.32441 2.15482 7.01184C1.84226 6.69928 1.66667 6.27536 1.66667 5.83333V3.33333C1.66667 2.89131 1.84226 2.46738 2.15482 2.15482C2.46738 1.84226 2.89131 1.66667 3.33333 1.66667H5.83333C6.27536 1.66667 6.69928 1.84226 7.01184 2.15482C7.32441 2.46738 7.5 2.89131 7.5 3.33333V5.83333Z" fill="#0E0E0E"/>
<path d="M5.83333 10.833H3.33333C2.44928 10.833 1.60143 11.1842 0.976311 11.8093C0.35119 12.4344 0 13.2823 0 14.1663L0 16.6663C0 17.5504 0.35119 18.3982 0.976311 19.0234C1.60143 19.6485 2.44928 19.9997 3.33333 19.9997H5.83333C6.71739 19.9997 7.56524 19.6485 8.19036 19.0234C8.81548 18.3982 9.16667 17.5504 9.16667 16.6663V14.1663C9.16667 13.2823 8.81548 12.4344 8.19036 11.8093C7.56524 11.1842 6.71739 10.833 5.83333 10.833ZM7.5 16.6663C7.5 17.1084 7.32441 17.5323 7.01184 17.8449C6.69928 18.1574 6.27536 18.333 5.83333 18.333H3.33333C2.89131 18.333 2.46738 18.1574 2.15482 17.8449C1.84226 17.5323 1.66667 17.1084 1.66667 16.6663V14.1663C1.66667 13.7243 1.84226 13.3004 2.15482 12.9878C2.46738 12.6753 2.89131 12.4997 3.33333 12.4997H5.83333C6.27536 12.4997 6.69928 12.6753 7.01184 12.9878C7.32441 13.3004 7.5 13.7243 7.5 14.1663V16.6663Z" fill="#0E0E0E"/>
<path d="M16.6668 10.833H14.1668C13.2828 10.833 12.4349 11.1842 11.8098 11.8093C11.1847 12.4344 10.8335 13.2823 10.8335 14.1663V16.6663C10.8335 17.5504 11.1847 18.3982 11.8098 19.0234C12.4349 19.6485 13.2828 19.9997 14.1668 19.9997H16.6668C17.5509 19.9997 18.3987 19.6485 19.0239 19.0234C19.649 18.3982 20.0002 17.5504 20.0002 16.6663V14.1663C20.0002 13.2823 19.649 12.4344 19.0239 11.8093C18.3987 11.1842 17.5509 10.833 16.6668 10.833ZM18.3335 16.6663C18.3335 17.1084 18.1579 17.5323 17.8453 17.8449C17.5328 18.1574 17.1089 18.333 16.6668 18.333H14.1668C13.7248 18.333 13.3009 18.1574 12.9883 17.8449C12.6758 17.5323 12.5002 17.1084 12.5002 16.6663V14.1663C12.5002 13.7243 12.6758 13.3004 12.9883 12.9878C13.3009 12.6753 13.7248 12.4997 14.1668 12.4997H16.6668C17.1089 12.4997 17.5328 12.6753 17.8453 12.9878C18.1579 13.3004 18.3335 13.7243 18.3335 14.1663V16.6663Z" fill="#0E0E0E"/>
<path d="M11.6668 5.83301H14.1668V8.33301C14.1668 8.55402 14.2546 8.76598 14.4109 8.92226C14.5672 9.07854 14.7791 9.16634 15.0002 9.16634C15.2212 9.16634 15.4331 9.07854 15.5894 8.92226C15.7457 8.76598 15.8335 8.55402 15.8335 8.33301V5.83301H18.3335C18.5545 5.83301 18.7665 5.74521 18.9228 5.58893C19.079 5.43265 19.1668 5.22069 19.1668 4.99967C19.1668 4.77866 19.079 4.5667 18.9228 4.41042C18.7665 4.25414 18.5545 4.16634 18.3335 4.16634H15.8335V1.66634C15.8335 1.44533 15.7457 1.23337 15.5894 1.07709C15.4331 0.920805 15.2212 0.833008 15.0002 0.833008C14.7791 0.833008 14.5672 0.920805 14.4109 1.07709C14.2546 1.23337 14.1668 1.44533 14.1668 1.66634V4.16634H11.6668C11.4458 4.16634 11.2339 4.25414 11.0776 4.41042C10.9213 4.5667 10.8335 4.77866 10.8335 4.99967C10.8335 5.22069 10.9213 5.43265 11.0776 5.58893C11.2339 5.74521 11.4458 5.83301 11.6668 5.83301Z" fill="#0E0E0E"/>
</g>
<defs>
<clipPath id="clip0">
<rect width="20" height="20" fill="white"/>
</clipPath>
</defs>
</svg>
