<svg width="24" height="24" viewBox="0 0 24 24" fill="none" xmlns="http://www.w3.org/2000/svg">
<path d="M4 6C4 5.44772 4.44772 5 5 5H19C19.5523 5 20 5.44772 20 6C20 6.55228 19.5523 7 19 7H5C4.44772 7 4 6.55228 4 6Z" fill="#8C94A6"/>
<path fill-rule="evenodd" clip-rule="evenodd" d="M6 8C5.44772 8 5 8.44772 5 9V19C5 19.5523 5.44772 20 6 20H18C18.5523 20 19 19.5523 19 19V9C19 8.44772 18.5523 8 18 8H6ZM10 10C9.44772 10 9 10.4477 9 11C9 11.5523 9.44772 12 10 12H14C14.5523 12 15 11.5523 15 11C15 10.4477 14.5523 10 14 10H10Z" fill="#8C94A6"/>
</svg>
