<svg width="15" height="15" viewBox="0 0 15 15" fill="none" xmlns="http://www.w3.org/2000/svg">
<path d="M14.2608 2.14042L13.1604 0.810417C12.9467 0.54125 12.6221 0.375 12.25 0.375H2.75C2.37792 0.375 2.05333 0.54125 1.83167 0.810417L0.739167 2.14042C0.509583 2.40958 0.375 2.76583 0.375 3.14583V13.0417C0.375 13.9125 1.0875 14.625 1.95833 14.625H13.0417C13.9125 14.625 14.625 13.9125 14.625 13.0417V3.14583C14.625 2.76583 14.4904 2.40958 14.2608 2.14042ZM7.5 11.8542L3.14583 7.5H5.91667V5.91667H9.08333V7.5H11.8542L7.5 11.8542ZM2.05333 1.95833L2.69458 1.16667H12.1946L12.9388 1.95833H2.05333Z" fill="#BDC7D6"/>
</svg>
