<svg width="16" height="16" viewBox="0 0 16 16" fill="none" xmlns="http://www.w3.org/2000/svg">
<path d="M14.3333 1.66699H1.66666C1.31304 1.66699 0.973901 1.80747 0.723853 2.05752C0.473804 2.30756 0.333328 2.6467 0.333328 3.00033V5.00033C0.333328 5.17714 0.403566 5.34671 0.52859 5.47173C0.653615 5.59675 0.823184 5.66699 0.999995 5.66699H15C15.1768 5.66699 15.3464 5.59675 15.4714 5.47173C15.5964 5.34671 15.6667 5.17714 15.6667 5.00033V3.00033C15.6667 2.6467 15.5262 2.30756 15.2761 2.05752C15.0261 1.80747 14.687 1.66699 14.3333 1.66699Z" fill="#DD533C"/>
<path d="M14.3333 6.66699H1.66667C1.48986 6.66699 1.32029 6.73723 1.19526 6.86225C1.07024 6.98728 1 7.15685 1 7.33366V13.0003C1 13.3539 1.14048 13.6931 1.39052 13.9431C1.64057 14.1932 1.97971 14.3337 2.33333 14.3337H13.6667C14.0203 14.3337 14.3594 14.1932 14.6095 13.9431C14.8595 13.6931 15 13.3539 15 13.0003V7.33366C15 7.15685 14.9298 6.98728 14.8047 6.86225C14.6797 6.73723 14.5101 6.66699 14.3333 6.66699ZM10.1667 9.00033C10.1667 9.22134 10.0789 9.4333 9.92259 9.58958C9.76631 9.74586 9.55435 9.83366 9.33333 9.83366H6.66667C6.44565 9.83366 6.23369 9.74586 6.07741 9.58958C5.92113 9.4333 5.83333 9.22134 5.83333 9.00033C5.83333 8.77931 5.92113 8.56735 6.07741 8.41107C6.23369 8.25479 6.44565 8.16699 6.66667 8.16699H9.33333C9.55435 8.16699 9.76631 8.25479 9.92259 8.41107C10.0789 8.56735 10.1667 8.77931 10.1667 9.00033Z" fill="#DD533C"/>
</svg>
