<svg width="13" height="8" viewBox="0 0 13 8" fill="none" xmlns="http://www.w3.org/2000/svg">
<path d="M6.52859 0.234617C6.69213 0.234414 6.85384 0.269096 7.00291 0.336349C7.15199 0.403601 7.28501 0.501877 7.39309 0.624617L12.2986 6.20062C12.4536 6.38539 12.5302 6.62349 12.512 6.86401C12.4938 7.10453 12.3822 7.32837 12.2011 7.48767C12.0199 7.64697 11.7837 7.72909 11.5428 7.71647C11.3019 7.70384 11.0756 7.59748 10.9121 7.42012L6.62259 2.54412C6.61085 2.53073 6.5964 2.52001 6.58019 2.51266C6.56398 2.50531 6.54639 2.50151 6.52859 2.50151C6.51079 2.50151 6.4932 2.50531 6.47698 2.51266C6.46077 2.52001 6.44632 2.53073 6.43459 2.54412L2.14509 7.42012C2.06597 7.5144 1.9688 7.59192 1.8593 7.64812C1.74979 7.70432 1.63016 7.73806 1.50742 7.74736C1.38469 7.75666 1.26134 7.74133 1.14462 7.70228C1.02789 7.66322 0.920153 7.60123 0.827731 7.51994C0.73531 7.43865 0.660071 7.3397 0.606437 7.22892C0.552802 7.11814 0.521854 6.99775 0.515412 6.87483C0.50897 6.75192 0.527165 6.62895 0.568925 6.51317C0.610685 6.39739 0.675168 6.29112 0.758586 6.20062L5.66259 0.626617C5.77086 0.503574 5.90408 0.404982 6.05339 0.337395C6.2027 0.269808 6.36469 0.234772 6.52859 0.234617Z" fill="#ADB5C7"/>
</svg>
