<svg width="18" height="18" viewBox="0 0 18 18" fill="none" xmlns="http://www.w3.org/2000/svg">
<g clip-path="url(#clip0)">
<path d="M8.98351 -3.79074e-06C6.85959 -0.00851796 4.80084 0.733089 3.17024 2.09407C1.53964 3.45506 0.441888 5.34802 0.0705106 7.43925C0.0616272 7.49333 0.0647061 7.5487 0.0795306 7.60146C0.0943551 7.65423 0.120565 7.7031 0.156315 7.74464C0.192064 7.78618 0.236485 7.81938 0.28645 7.8419C0.336415 7.86442 0.390709 7.87572 0.445511 7.875H6.68551C6.78497 7.875 6.88035 7.83549 6.95068 7.76516C7.021 7.69484 7.06051 7.59945 7.06051 7.5V4.8C7.06046 4.65867 7.10034 4.52021 7.17555 4.40056C7.25076 4.28092 7.35825 4.18495 7.48562 4.12373C7.613 4.06252 7.75508 4.03853 7.8955 4.05455C8.03591 4.07056 8.16894 4.12592 8.27926 4.21425L13.5293 8.41425C13.6171 8.48451 13.6881 8.57364 13.7368 8.67503C13.7856 8.77643 13.8109 8.88749 13.8109 9C13.8109 9.1125 13.7856 9.22356 13.7368 9.32496C13.6881 9.42635 13.6171 9.51548 13.5293 9.58575L8.27926 13.7857C8.1462 13.8921 7.98088 13.9501 7.81051 13.95C7.61214 13.9482 7.4224 13.8687 7.28213 13.7284C7.14186 13.5881 7.06227 13.3984 7.06051 13.2V10.5C7.06051 10.4005 7.021 10.3052 6.95068 10.2348C6.88035 10.1645 6.78497 10.125 6.68551 10.125H0.450011C0.395298 10.125 0.341235 10.1368 0.291526 10.1597C0.241818 10.1826 0.197641 10.2159 0.162023 10.2574C0.126404 10.299 0.100187 10.3477 0.0851687 10.4003C0.07015 10.4529 0.0666848 10.5082 0.0750106 10.5622C0.480639 12.8014 1.71939 14.8037 3.54192 16.1662C5.36445 17.5288 7.63547 18.1503 9.89785 17.9059C12.1602 17.6614 14.246 16.569 15.7354 14.8485C17.2247 13.1281 18.0071 10.9073 17.925 8.63325C17.8105 6.32748 16.8225 4.15179 15.1617 2.54823C13.5009 0.944679 11.2919 0.033558 8.98351 -3.79074e-06Z" fill="#BDC7D6"/>
</g>
<defs>
<clipPath id="clip0">
<rect width="18" height="18" fill="white"/>
</clipPath>
</defs>
</svg>
