<svg width="20" height="11" viewBox="0 0 20 11" fill="none" xmlns="http://www.w3.org/2000/svg">
  <path d="M10.585 0.276991C10.4973 0.189185 10.3932 0.119526 10.2786 0.0719987C10.164 0.0244714 10.0411 7.72695e-06 9.917 7.7161e-06C9.79292 7.70525e-06 9.67005 0.0244713 9.55543 0.0719987C9.44081 0.119526 9.33668 0.189185 9.249 0.276991L0.277001 9.24899C0.144781 9.38101 0.0547162 9.54931 0.0182096 9.73256C-0.0182971 9.9158 0.000400609 10.1058 0.07193 10.2784C0.143459 10.451 0.264606 10.5985 0.420027 10.7022C0.575447 10.8059 0.758152 10.8612 0.945 10.861L2.361 10.861C2.48502 10.8611 2.60784 10.8368 2.72246 10.7895C2.83708 10.7421 2.94124 10.6726 3.029 10.585L9.563 4.04999C9.60945 4.00343 9.66462 3.96649 9.72537 3.94128C9.78611 3.91607 9.85123 3.9031 9.917 3.9031C9.98277 3.9031 10.0479 3.91607 10.1086 3.94128C10.1694 3.96649 10.2246 4.00343 10.271 4.04999L16.805 10.585C16.8928 10.6726 16.9969 10.7421 17.1115 10.7895C17.2262 10.8368 17.349 10.8611 17.473 10.861L18.889 10.861C19.0758 10.8612 19.2586 10.8059 19.414 10.7022C19.5694 10.5985 19.6905 10.451 19.7621 10.2784C19.8336 10.1058 19.8523 9.9158 19.8158 9.73256C19.7793 9.54931 19.6892 9.38102 19.557 9.24899L10.585 0.276991Z" fill="#C766EA"/>
</svg>
