<svg width="13" height="8" viewBox="0 0 13 8" fill="none" xmlns="http://www.w3.org/2000/svg">
<path d="M6.50022 7.74976C6.33668 7.74996 6.17497 7.71528 6.0259 7.64803C5.87682 7.58077 5.7438 7.4825 5.63572 7.35976L0.730222 1.78376C0.575177 1.59898 0.498577 1.36088 0.516802 1.12036C0.535027 0.879847 0.64663 0.656006 0.827747 0.496704C1.00886 0.337401 1.24512 0.255283 1.486 0.267907C1.72687 0.280531 1.95325 0.386896 2.11672 0.564258L6.40622 5.44026C6.41795 5.45364 6.43241 5.46437 6.44862 5.47171C6.46483 5.47906 6.48242 5.48286 6.50022 5.48286C6.51802 5.48286 6.53561 5.47906 6.55182 5.47171C6.56804 5.46437 6.58249 5.45364 6.59422 5.44026L10.8837 0.564258C10.9628 0.469971 11.06 0.39245 11.1695 0.336253C11.279 0.280055 11.3987 0.246315 11.5214 0.237015C11.6441 0.227715 11.7675 0.243043 11.8842 0.282098C12.0009 0.321154 12.1087 0.383148 12.2011 0.464437C12.2935 0.545727 12.3687 0.644671 12.4224 0.755455C12.476 0.866238 12.507 0.986626 12.5134 1.10954C12.5198 1.23246 12.5016 1.35542 12.4599 1.4712C12.4181 1.58699 12.3536 1.69325 12.2702 1.78376L7.36622 7.35776C7.25795 7.4808 7.12473 7.57939 6.97542 7.64698C6.82611 7.71457 6.66412 7.7496 6.50022 7.74976Z" fill="#ADB5C7"/>
</svg>
