<svg width="24" height="24" viewBox="0 0 24 24" fill="none" xmlns="http://www.w3.org/2000/svg">
<circle opacity="0.2" cx="12" cy="12" r="12" fill="#C866EA"/>
<path d="M5.43431 11.4343C5.1219 11.7467 5.1219 12.2533 5.43431 12.5657L10.5255 17.6569C10.8379 17.9693 11.3444 17.9693 11.6569 17.6569C11.9693 17.3444 11.9693 16.8379 11.6569 16.5255L7.13137 12L11.6569 7.47452C11.9693 7.1621 11.9693 6.65557 11.6569 6.34315C11.3444 6.03073 10.8379 6.03073 10.5255 6.34315L5.43431 11.4343ZM18 12.8C18.4418 12.8 18.8 12.4418 18.8 12C18.8 11.5582 18.4418 11.2 18 11.2V12.8ZM6 12.8H18V11.2H6V12.8Z" fill="#C866EA"/>
</svg>
