<svg width="12" height="13" viewBox="0 0 12 13" fill="none" xmlns="http://www.w3.org/2000/svg">
<g clip-path="url(#clip0_16694_77641)">
<path d="M6.02859 2.73462C6.19213 2.73441 6.35384 2.7691 6.50291 2.83635C6.65199 2.9036 6.78501 3.00188 6.89309 3.12462L11.7986 8.70062C11.9536 8.88539 12.0302 9.12349 12.012 9.36401C11.9938 9.60453 11.8822 9.82837 11.7011 9.98767C11.5199 10.147 11.2837 10.2291 11.0428 10.2165C10.8019 10.2038 10.5756 10.0975 10.4121 9.92012L6.12259 5.04412C6.11085 5.03073 6.0964 5.02001 6.08019 5.01266C6.06398 5.00531 6.04639 5.00151 6.02859 5.00151C6.01079 5.00151 5.9932 5.00531 5.97698 5.01266C5.96077 5.02001 5.94632 5.03073 5.93459 5.04412L1.64509 9.92012C1.56597 10.0144 1.4688 10.0919 1.3593 10.1481C1.24979 10.2043 1.13016 10.2381 1.00742 10.2474C0.884691 10.2567 0.761338 10.2413 0.644615 10.2023C0.527892 10.1632 0.420153 10.1012 0.327731 10.0199C0.23531 9.93865 0.160071 9.8397 0.106437 9.72892C0.0528021 9.61814 0.0218545 9.49775 0.0154124 9.37483C0.00897035 9.25192 0.0271646 9.12895 0.068925 9.01317C0.110685 8.89739 0.175168 8.79112 0.258586 8.70062L5.16259 3.12662C5.27086 3.00357 5.40408 2.90498 5.55339 2.8374C5.7027 2.76981 5.86469 2.73477 6.02859 2.73462Z" fill="#ADB5C7"/>
</g>
<defs>
<clipPath id="clip0_16694_77641">
<rect width="12" height="12" fill="white" transform="translate(0 0.5)"/>
</clipPath>
</defs>
</svg>
