<svg width="12" height="13" viewBox="0 0 12 13" fill="none" xmlns="http://www.w3.org/2000/svg">
<g clip-path="url(#clip0_16772_77699)">
<path d="M5.97141 10.2654C5.80787 10.2656 5.64616 10.2309 5.49709 10.1637C5.34801 10.0964 5.21499 9.99812 5.10691 9.87538L0.201414 4.29938C0.0463682 4.11461 -0.0302316 3.87651 -0.0120068 3.63599C0.00621811 3.39547 0.117821 3.17163 0.298938 3.01233C0.480056 2.85303 0.716311 2.77091 0.957187 2.78353C1.19806 2.79616 1.42444 2.90252 1.58791 3.07988L5.87741 7.95588C5.88915 7.96927 5.9036 7.97999 5.91981 7.98734C5.93602 7.99469 5.95361 7.99849 5.97141 7.99849C5.98921 7.99849 6.0068 7.99469 6.02302 7.98734C6.03923 7.97999 6.05368 7.96927 6.06541 7.95588L10.3549 3.07988C10.434 2.9856 10.5312 2.90808 10.6407 2.85188C10.7502 2.79568 10.8698 2.76194 10.9926 2.75264C11.1153 2.74334 11.2387 2.75867 11.3554 2.79772C11.4721 2.83678 11.5798 2.89877 11.6723 2.98006C11.7647 3.06135 11.8399 3.1603 11.8936 3.27108C11.9472 3.38186 11.9781 3.50225 11.9846 3.62517C11.991 3.74808 11.9728 3.87105 11.9311 3.98683C11.8893 4.10261 11.8248 4.20888 11.7414 4.29938L6.83741 9.87338C6.72914 9.99643 6.59592 10.095 6.44661 10.1626C6.2973 10.2302 6.13531 10.2652 5.97141 10.2654Z" fill="#ADB5C7"/>
</g>
<defs>
<clipPath id="clip0_16772_77699">
<rect width="12" height="12" fill="white" transform="translate(12 12.5) rotate(-180)"/>
</clipPath>
</defs>
</svg>
