<svg width="17" height="17" viewBox="0 0 17 17" fill="none" xmlns="http://www.w3.org/2000/svg">
<g clip-path="url(#clip0_25632_87837)">
<path d="M13.9989 5.5H3.99886C3.91046 5.5 3.82567 5.53512 3.76316 5.59763C3.70065 5.66014 3.66553 5.74493 3.66553 5.83333V15.1667C3.66553 15.5203 3.806 15.8594 4.05605 16.1095C4.3061 16.3595 4.64524 16.5 4.99886 16.5H12.9989C13.3525 16.5 13.6916 16.3595 13.9417 16.1095C14.1917 15.8594 14.3322 15.5203 14.3322 15.1667V5.83333C14.3322 5.74493 14.2971 5.66014 14.2346 5.59763C14.1721 5.53512 14.0873 5.5 13.9989 5.5ZM7.83219 14.1667C7.83219 14.2993 7.77952 14.4265 7.68575 14.5202C7.59198 14.614 7.4648 14.6667 7.33219 14.6667C7.19959 14.6667 7.07241 14.614 6.97864 14.5202C6.88487 14.4265 6.83219 14.2993 6.83219 14.1667V8.16667C6.83219 8.03406 6.88487 7.90688 6.97864 7.81311C7.07241 7.71935 7.19959 7.66667 7.33219 7.66667C7.4648 7.66667 7.59198 7.71935 7.68575 7.81311C7.77952 7.90688 7.83219 8.03406 7.83219 8.16667V14.1667ZM11.1655 14.1667C11.1655 14.2993 11.1128 14.4265 11.0191 14.5202C10.9253 14.614 10.7981 14.6667 10.6655 14.6667C10.5329 14.6667 10.4057 14.614 10.312 14.5202C10.2182 14.4265 10.1655 14.2993 10.1655 14.1667V8.16667C10.1655 8.03406 10.2182 7.90688 10.312 7.81311C10.4057 7.71935 10.5329 7.66667 10.6655 7.66667C10.7981 7.66667 10.9253 7.71935 11.0191 7.81311C11.1128 7.90688 11.1655 8.03406 11.1655 8.16667V14.1667Z" fill="white"/>
<path d="M15.6655 3.16667H12.4989C12.4547 3.16667 12.4123 3.14911 12.381 3.11785C12.3498 3.0866 12.3322 3.0442 12.3322 3V2.16667C12.3322 1.72464 12.1566 1.30072 11.844 0.988155C11.5315 0.675595 11.1076 0.5 10.6655 0.5L7.33219 0.5C6.89017 0.5 6.46624 0.675595 6.15368 0.988155C5.84112 1.30072 5.66553 1.72464 5.66553 2.16667V3C5.66553 3.0442 5.64797 3.0866 5.61671 3.11785C5.58546 3.14911 5.54306 3.16667 5.49886 3.16667H2.33219C2.15538 3.16667 1.98581 3.2369 1.86079 3.36193C1.73577 3.48695 1.66553 3.65652 1.66553 3.83333C1.66553 4.01014 1.73577 4.17971 1.86079 4.30474C1.98581 4.42976 2.15538 4.5 2.33219 4.5H15.6655C15.8423 4.5 16.0119 4.42976 16.1369 4.30474C16.262 4.17971 16.3322 4.01014 16.3322 3.83333C16.3322 3.65652 16.262 3.48695 16.1369 3.36193C16.0119 3.2369 15.8423 3.16667 15.6655 3.16667ZM6.99886 3V2.16667C6.99886 2.07826 7.03398 1.99348 7.09649 1.93096C7.159 1.86845 7.24379 1.83333 7.33219 1.83333H10.6655C10.7539 1.83333 10.8387 1.86845 10.9012 1.93096C10.9637 1.99348 10.9989 2.07826 10.9989 2.16667V3C10.9989 3.0442 10.9813 3.0866 10.95 3.11785C10.9188 3.14911 10.8764 3.16667 10.8322 3.16667H7.16553C7.12132 3.16667 7.07893 3.14911 7.04768 3.11785C7.01642 3.0866 6.99886 3.0442 6.99886 3Z" fill="white"/>
</g>
<defs>
<clipPath id="clip0_25632_87837">
<rect width="16" height="16" fill="white" transform="translate(0.998779 0.5)"/>
</clipPath>
</defs>
</svg>
