<svg width="20" height="20" viewBox="0 0 20 20" fill="none" xmlns="http://www.w3.org/2000/svg">
<g clip-path="url(#clip0)">
<path d="M16.2497 6.25H3.74967C3.63917 6.25 3.53319 6.2939 3.45505 6.37204C3.37691 6.45018 3.33301 6.55616 3.33301 6.66667V18.3333C3.33301 18.7754 3.5086 19.1993 3.82116 19.5118C4.13372 19.8244 4.55765 20 4.99967 20H14.9997C15.4417 20 15.8656 19.8244 16.1782 19.5118C16.4907 19.1993 16.6663 18.7754 16.6663 18.3333V6.66667C16.6663 6.55616 16.6224 6.45018 16.5443 6.37204C16.4662 6.2939 16.3602 6.25 16.2497 6.25ZM8.54134 17.0833C8.54134 17.2491 8.47549 17.4081 8.35828 17.5253C8.24107 17.6425 8.0821 17.7083 7.91634 17.7083C7.75058 17.7083 7.59161 17.6425 7.4744 17.5253C7.35719 17.4081 7.29134 17.2491 7.29134 17.0833V9.58333C7.29134 9.41757 7.35719 9.2586 7.4744 9.14139C7.59161 9.02418 7.75058 8.95833 7.91634 8.95833C8.0821 8.95833 8.24107 9.02418 8.35828 9.14139C8.47549 9.2586 8.54134 9.41757 8.54134 9.58333V17.0833ZM12.708 17.0833C12.708 17.2491 12.6422 17.4081 12.5249 17.5253C12.4077 17.6425 12.2488 17.7083 12.083 17.7083C11.9172 17.7083 11.7583 17.6425 11.6411 17.5253C11.5239 17.4081 11.458 17.2491 11.458 17.0833V9.58333C11.458 9.41757 11.5239 9.2586 11.6411 9.14139C11.7583 9.02418 11.9172 8.95833 12.083 8.95833C12.2488 8.95833 12.4077 9.02418 12.5249 9.14139C12.6422 9.2586 12.708 9.41757 12.708 9.58333V17.0833Z" fill="#BDC7D6"/>
<path d="M18.333 3.33333H14.3747C14.3194 3.33333 14.2664 3.31138 14.2274 3.27231C14.1883 3.23324 14.1663 3.18025 14.1663 3.125V2.08333C14.1663 1.5308 13.9468 1.0009 13.5561 0.610194C13.1654 0.219493 12.6355 0 12.083 0L7.91634 0C7.36381 0 6.8339 0.219493 6.4432 0.610194C6.0525 1.0009 5.83301 1.5308 5.83301 2.08333V3.125C5.83301 3.18025 5.81106 3.23324 5.77199 3.27231C5.73292 3.31138 5.67993 3.33333 5.62467 3.33333H1.66634C1.44533 3.33333 1.23337 3.42113 1.07709 3.57741C0.920805 3.73369 0.833008 3.94565 0.833008 4.16667C0.833008 4.38768 0.920805 4.59964 1.07709 4.75592C1.23337 4.9122 1.44533 5 1.66634 5H18.333C18.554 5 18.766 4.9122 18.9223 4.75592C19.0785 4.59964 19.1663 4.38768 19.1663 4.16667C19.1663 3.94565 19.0785 3.73369 18.9223 3.57741C18.766 3.42113 18.554 3.33333 18.333 3.33333ZM7.49967 3.125V2.08333C7.49967 1.97283 7.54357 1.86685 7.62171 1.78871C7.69985 1.71057 7.80583 1.66667 7.91634 1.66667H12.083C12.1935 1.66667 12.2995 1.71057 12.3776 1.78871C12.4558 1.86685 12.4997 1.97283 12.4997 2.08333V3.125C12.4997 3.18025 12.4777 3.23324 12.4387 3.27231C12.3996 3.31138 12.3466 3.33333 12.2913 3.33333H7.70801C7.65275 3.33333 7.59976 3.31138 7.56069 3.27231C7.52162 3.23324 7.49967 3.18025 7.49967 3.125Z" fill="#BDC7D6"/>
</g>
<defs>
<clipPath id="clip0">
<rect width="20" height="20" fill="white"/>
</clipPath>
</defs>
</svg>
