<svg width="35" height="35" viewBox="0 0 35 35" fill="none" xmlns="http://www.w3.org/2000/svg">
<rect width="35" height="35" rx="5" fill="#c4c8dd"/>
<g>
<path d="M24.25 13.25H11.75C11.6395 13.25 11.5336 13.2939 11.4554 13.372C11.3773 13.4502 11.3334 13.5562 11.3334 13.6667V25.3333C11.3334 25.7754 11.509 26.1993 11.8215 26.5118C12.1341 26.8244 12.558 27 13 27H23C23.4421 27 23.866 26.8244 24.1786 26.5118C24.4911 26.1993 24.6667 25.7754 24.6667 25.3333V13.6667C24.6667 13.5562 24.6228 13.4502 24.5447 13.372C24.4665 13.2939 24.3605 13.25 24.25 13.25ZM16.5417 24.0833C16.5417 24.2491 16.4759 24.4081 16.3586 24.5253C16.2414 24.6425 16.0825 24.7083 15.9167 24.7083C15.7509 24.7083 15.592 24.6425 15.4748 24.5253C15.3576 24.4081 15.2917 24.2491 15.2917 24.0833V16.5833C15.2917 16.4176 15.3576 16.2586 15.4748 16.1414C15.592 16.0242 15.7509 15.9583 15.9167 15.9583C16.0825 15.9583 16.2414 16.0242 16.3586 16.1414C16.4759 16.2586 16.5417 16.4176 16.5417 16.5833V24.0833ZM20.7084 24.0833C20.7084 24.2491 20.6425 24.4081 20.5253 24.5253C20.4081 24.6425 20.2491 24.7083 20.0834 24.7083C19.9176 24.7083 19.7586 24.6425 19.6414 24.5253C19.5242 24.4081 19.4584 24.2491 19.4584 24.0833V16.5833C19.4584 16.4176 19.5242 16.2586 19.6414 16.1414C19.7586 16.0242 19.9176 15.9583 20.0834 15.9583C20.2491 15.9583 20.4081 16.0242 20.5253 16.1414C20.6425 16.2586 20.7084 16.4176 20.7084 16.5833V24.0833Z" fill="white"/>
<path d="M26.3334 10.3333H22.375C22.3198 10.3333 22.2668 10.3114 22.2277 10.2723C22.1887 10.2332 22.1667 10.1803 22.1667 10.125V9.08333C22.1667 8.5308 21.9472 8.0009 21.5565 7.61019C21.1658 7.21949 20.6359 7 20.0834 7H15.9167C15.3642 7 14.8343 7.21949 14.4436 7.61019C14.0529 8.0009 13.8334 8.5308 13.8334 9.08333V10.125C13.8334 10.1803 13.8114 10.2332 13.7724 10.2723C13.7333 10.3114 13.6803 10.3333 13.625 10.3333H9.66671C9.44569 10.3333 9.23373 10.4211 9.07745 10.5774C8.92117 10.7337 8.83337 10.9457 8.83337 11.1667C8.83337 11.3877 8.92117 11.5996 9.07745 11.7559C9.23373 11.9122 9.44569 12 9.66671 12H26.3334C26.5544 12 26.7663 11.9122 26.9226 11.7559C27.0789 11.5996 27.1667 11.3877 27.1667 11.1667C27.1667 10.9457 27.0789 10.7337 26.9226 10.5774C26.7663 10.4211 26.5544 10.3333 26.3334 10.3333ZM15.5 10.125V9.08333C15.5 8.97283 15.5439 8.86685 15.6221 8.78871C15.7002 8.71057 15.8062 8.66667 15.9167 8.66667H20.0834C20.1939 8.66667 20.2999 8.71057 20.378 8.78871C20.4561 8.86685 20.5 8.97283 20.5 9.08333V10.125C20.5 10.1803 20.4781 10.2332 20.439 10.2723C20.4 10.3114 20.347 10.3333 20.2917 10.3333H15.7084C15.6531 10.3333 15.6001 10.3114 15.5611 10.2723C15.522 10.2332 15.5 10.1803 15.5 10.125Z" fill="white"/>
</g>
<defs>
<clipPath>
<rect x="8" y="7" width="20" height="20" fill="white"/>
</clipPath>
</defs>
</svg>
