<svg width="20" height="21" viewBox="0 0 20 21" fill="none" xmlns="http://www.w3.org/2000/svg">
<g clip-path="url(#clip0_25606_88136)">
<path d="M16.2499 6.75H3.74992C3.63941 6.75 3.53343 6.7939 3.45529 6.87204C3.37715 6.95018 3.33325 7.05616 3.33325 7.16667V18.8333C3.33325 19.2754 3.50885 19.6993 3.82141 20.0118C4.13397 20.3244 4.55789 20.5 4.99992 20.5H14.9999C15.4419 20.5 15.8659 20.3244 16.1784 20.0118C16.491 19.6993 16.6666 19.2754 16.6666 18.8333V7.16667C16.6666 7.05616 16.6227 6.95018 16.5445 6.87204C16.4664 6.7939 16.3604 6.75 16.2499 6.75ZM8.54158 17.5833C8.54158 17.7491 8.47574 17.9081 8.35853 18.0253C8.24132 18.1425 8.08235 18.2083 7.91658 18.2083C7.75082 18.2083 7.59185 18.1425 7.47464 18.0253C7.35743 17.9081 7.29159 17.7491 7.29159 17.5833V10.0833C7.29159 9.91757 7.35743 9.7586 7.47464 9.64139C7.59185 9.52418 7.75082 9.45833 7.91658 9.45833C8.08235 9.45833 8.24132 9.52418 8.35853 9.64139C8.47574 9.7586 8.54158 9.91757 8.54158 10.0833V17.5833ZM12.7083 17.5833C12.7083 17.7491 12.6424 17.9081 12.5252 18.0253C12.408 18.1425 12.249 18.2083 12.0833 18.2083C11.9175 18.2083 11.7585 18.1425 11.6413 18.0253C11.5241 17.9081 11.4583 17.7491 11.4583 17.5833V10.0833C11.4583 9.91757 11.5241 9.7586 11.6413 9.64139C11.7585 9.52418 11.9175 9.45833 12.0833 9.45833C12.249 9.45833 12.408 9.52418 12.5252 9.64139C12.6424 9.7586 12.7083 9.91757 12.7083 10.0833V17.5833Z" fill="#DD533C"/>
<path d="M18.3333 3.83333H14.3749C14.3197 3.83333 14.2667 3.81138 14.2276 3.77231C14.1885 3.73324 14.1666 3.68025 14.1666 3.625V2.58333C14.1666 2.0308 13.9471 1.5009 13.5564 1.11019C13.1657 0.719493 12.6358 0.5 12.0833 0.5L7.91658 0.5C7.36405 0.5 6.83415 0.719493 6.44345 1.11019C6.05274 1.5009 5.83325 2.0308 5.83325 2.58333V3.625C5.83325 3.68025 5.8113 3.73324 5.77223 3.77231C5.73316 3.81138 5.68017 3.83333 5.62492 3.83333H1.66659C1.44557 3.83333 1.23361 3.92113 1.07733 4.07741C0.921049 4.23369 0.833252 4.44565 0.833252 4.66667C0.833252 4.88768 0.921049 5.09964 1.07733 5.25592C1.23361 5.4122 1.44557 5.5 1.66659 5.5H18.3333C18.5543 5.5 18.7662 5.4122 18.9225 5.25592C19.0788 5.09964 19.1666 4.88768 19.1666 4.66667C19.1666 4.44565 19.0788 4.23369 18.9225 4.07741C18.7662 3.92113 18.5543 3.83333 18.3333 3.83333ZM7.49992 3.625V2.58333C7.49992 2.47283 7.54382 2.36685 7.62196 2.28871C7.7001 2.21057 7.80608 2.16667 7.91658 2.16667H12.0833C12.1938 2.16667 12.2997 2.21057 12.3779 2.28871C12.456 2.36685 12.4999 2.47283 12.4999 2.58333V3.625C12.4999 3.68025 12.478 3.73324 12.4389 3.77231C12.3998 3.81138 12.3468 3.83333 12.2916 3.83333H7.70825C7.653 3.83333 7.60001 3.81138 7.56094 3.77231C7.52187 3.73324 7.49992 3.68025 7.49992 3.625Z" fill="#DD533C"/>
</g>
<defs>
<clipPath id="clip0_25606_88136">
<rect width="20" height="20" fill="white" transform="translate(0 0.5)"/>
</clipPath>
</defs>
</svg>
