<?xml version="1.0" encoding="utf-8"?>
<!-- Generator: Adobe Illustrator 26.3.1, SVG Export Plug-In . SVG Version: 6.00 Build 0)  -->
<svg version="1.1" id="Layer_1" xmlns="http://www.w3.org/2000/svg" xmlns:xlink="http://www.w3.org/1999/xlink" x="0px" y="0px"
     width="72" height="72" viewBox="0 0 72 72" style="enable-background:new 0 0 72 72;" xml:space="preserve">
<style type="text/css">
	.st0{fill-rule:evenodd;clip-rule:evenodd;fill:#107969;fill-opacity:0.1;}
	.st1{fill:#FFFFFF;}
	.st2{fill-rule:evenodd;clip-rule:evenodd;fill:#E9F1FB;}
	.st3{fill:#C0C0C0;}
	.st4{fill:#D4D4D4;}
	.st5{fill:#747474;}
	.st6{fill:#8C94A6;}
	.st7{fill-rule:evenodd;clip-rule:evenodd;fill:#F8FBFF;}
	.st8{fill:#86ACD1;}
</style>
<path class="st0" d="M36,71c19.3,0,35-15.7,35-35S55.3,1,36,1S1,16.7,1,36S16.7,71,36,71z M36,72c19.9,0,36-16.1,36-36S55.9,0,36,0
	S0,16.1,0,36S16.1,72,36,72z"/>
<path class="st1" d="M36,4L36,4c17.7,0,32,14.3,32,32l0,0c0,17.7-14.3,32-32,32l0,0C18.3,68,4,53.7,4,36l0,0C4,18.3,18.3,4,36,4z"/>
<path class="st2" d="M36,64c15.5,0,28-12.5,28-28S51.5,8,36,8S8,20.5,8,36S20.5,64,36,64z M36,68c17.7,0,32-14.3,32-32S53.7,4,36,4
	S4,18.3,4,36S18.3,68,36,68z"/>
<path class="st3" d="M44.9,30.7l-0.1,3L34.4,23.4c-0.8-0.9-2.2-1-3.2-0.3c-1,0.8-1.1,2.2-0.3,3.2c0.1,0.1,0.1,0.1,0.2,0.2L29.6,25
	c-0.9-1-2.4-1-3.5-0.2c-1,0.9-1.1,2.5-0.2,3.5l0.1,0.1l0,0c-0.7-0.7-1.8-0.9-2.8-0.4c-1.1,0.6-1.5,2-0.9,3.1
	c0.1,0.2,0.2,0.3,0.4,0.5l2.8,2.8c-0.8-0.8-2.1-0.8-2.8,0l-0.1,0.1c-0.6,0.8-0.5,2,0.2,2.8l11.5,11.6c3.4,3.4,8.8,3.4,12.2,0
	l0.1-0.1c2.5-2.7,3.9-6.2,3.7-9.9L50,27.8c0-0.5-0.5-0.9-1-0.9C46.8,26.8,45,28.5,44.9,30.7L44.9,30.7z"/>
<path class="st4" d="M44.7,33.7L34.4,23.4c-0.8-0.9-2.2-1-3.2-0.3c-1,0.8-1.1,2.2-0.3,3.2l0,0c0.1-0.1,0.2-0.2,0.3-0.3
	c1-0.7,2.3-0.6,3.2,0.2l8.9,8.9L44.7,33.7z"/>
<path class="st4" d="M50,30.6l-0.1-2.9c0-0.5-0.5-0.9-1-0.9c-2.2,0-4,1.7-4.1,3.9l-0.1,3l0.1-0.1c0.1-2.2,1.9-3.9,4.1-3.9
	C49.5,29.6,49.9,30,50,30.6z"/>
<path class="st5" d="M50.6,38.7l-0.3-11.2c0-0.7-0.6-1.3-1.4-1.3c-1.2,0-2.3,0.5-3.1,1.2c-0.8,0.8-1.3,1.8-1.4,3l-0.1,1.9l-9.5-9.6
	c-1-1-2.6-1.2-3.8-0.3c-0.6,0.5-1,1.3-1,2c-1.1-1.1-2.9-1.2-4.1-0.2C25.1,25,24.8,26,25,27c-0.6-0.1-1.3,0-1.9,0.3
	c-1.3,0.8-1.8,2.5-1,3.8c0.1,0.2,0.2,0.4,0.4,0.6l1.4,1.4c-0.6,0-1.1,0.3-1.5,0.7c-0.1,0.1-0.1,0.1-0.2,0.2
	c-0.7,1.1-0.6,2.5,0.3,3.4L34,49.1c1.7,1.8,4.1,2.7,6.4,2.7c2.4,0,4.7-0.9,6.3-2.7l0.1-0.1C49.4,46.2,50.8,42.5,50.6,38.7z
	 M46.4,48.4L46.4,48.4c-1.7,1.7-3.7,2.5-5.9,2.5s-4.3-0.9-5.8-2.4L23.2,36.9c-0.6-0.5-0.7-1.5-0.2-2.1l0.1-0.1
	c0.3-0.3,0.7-0.5,1.1-0.5c0.2,0,0.5,0,0.6,0.1l6,5.9c0.1,0.1,0.2,0.1,0.3,0.1c0.1,0,0.2,0,0.3-0.1c0.2-0.2,0.2-0.5,0-0.6L25.8,34
	l-0.5-0.5L23,31.2c-0.1-0.1-0.2-0.3-0.3-0.4c-0.5-0.9-0.2-2,0.7-2.5c0.7-0.4,1.5-0.3,2.1,0.2c0.1,0.1,0.1,0.1,0.1,0.1l0.1,0.1
	c0,0,0,0,0.1,0l8.3,8.2c0.1,0.1,0.2,0.2,0.4,0.2c0.1,0,0.3,0,0.4-0.2c0.2-0.2,0.2-0.5,0-0.7L26.5,28c0-0.1-0.1-0.1-0.1-0.1l-0.1-0.1
	c-0.7-0.8-0.6-2,0.2-2.7c0.8-0.7,2-0.6,2.8,0.2l1.5,1.5l5.9,6.2c0.1,0.1,0.2,0.1,0.3,0.1s0.2,0,0.3-0.1c0.2-0.2,0.2-0.4,0-0.6
	l-6-6.3L31.2,26c-0.3-0.3-0.5-0.8-0.4-1.3s0.3-0.9,0.7-1.2c0.8-0.6,1.9-0.5,2.6,0.2l10.1,9.9c-1.1,0.8-3.8,3.1-4.3,6.2
	c-0.3,1.8,0.2,3.5,1.5,5.1c0.1,0.1,0.2,0.2,0.4,0.2c0.1,0,0.2,0,0.3-0.1c0.2-0.2,0.2-0.5,0.1-0.7c-1.1-1.4-1.5-2.9-1.3-4.4
	c0.5-3.3,4.2-5.8,4.3-5.8s0.1-0.1,0.1-0.2l0,0c0.1-0.1,0.1-0.1,0.1-0.2l0.1-3c0-1,0.5-1.9,1.1-2.5s1.5-1,2.5-1
	c0.2,0,0.5,0.2,0.5,0.5l0.3,11.1C50.1,42.4,48.8,45.8,46.4,48.4z"/>
<path class="st5" d="M42.7,27c-0.2,0-0.4-0.1-0.4-0.3c-0.5-1.3-1.3-2.5-2.4-3.5c-1.1-0.9-2.4-1.5-3.7-1.7c-0.2,0-0.4-0.3-0.4-0.5
	c0-0.3,0.3-0.4,0.5-0.4c1.5,0.3,3,0.9,4.2,1.9c1.2,1.1,2.1,2.4,2.6,3.9C43.2,26.6,43.1,26.9,42.7,27C42.8,27,42.8,27,42.7,27
	L42.7,27z"/>
<path class="st5" d="M44.7,25.8c-0.2,0-0.4-0.1-0.4-0.3c-0.6-1.7-1.6-3.2-2.9-4.3c-1.3-1.1-2.9-1.8-4.6-2.1c-0.2,0-0.4-0.3-0.4-0.5
	s0.3-0.4,0.5-0.4c1.9,0.3,3.6,1.1,5.1,2.3c1.5,1.3,2.6,2.9,3.2,4.7c0.1,0.2,0,0.5-0.3,0.6C44.8,25.8,44.8,25.8,44.7,25.8z"/>
<path class="st5" d="M22.1,43.3c-0.1,0-0.2,0-0.3-0.1c-1.3-0.9-2.4-2.1-3.1-3.5s-0.9-3-0.8-4.5c0-0.3,0.3-0.4,0.5-0.4
	c0.3,0,0.4,0.2,0.4,0.5c-0.1,1.4,0.1,2.8,0.7,4c0.6,1.3,1.6,2.3,2.8,3.1c0.2,0.1,0.3,0.4,0.1,0.6C22.3,43.3,22.2,43.3,22.1,43.3
	L22.1,43.3z"/>
<path class="st5" d="M20.4,45c-0.1,0-0.2,0-0.3-0.1c-1.6-1.1-2.9-2.6-3.7-4.3c-0.8-1.7-1.1-3.6-1-5.5c0-0.3,0.3-0.4,0.5-0.4
	c0.3,0,0.4,0.2,0.4,0.5c-0.2,1.7,0.1,3.5,0.9,5.1s2,2.9,3.4,3.9c0.2,0.1,0.3,0.4,0.1,0.6C20.7,44.9,20.6,45,20.4,45z"/>
<path class="st6" d="M20,12c0,4.4-3.6,8-8,8s-8-3.6-8-8s3.6-8,8-8S20,7.6,20,12z"/>
<path class="st7" d="M24,12c0,6.6-5.4,12-12,12S0,18.6,0,12S5.4,0,12,0S24,5.4,24,12z M12,20c4.4,0,8-3.6,8-8s-3.6-8-8-8s-8,3.6-8,8
	S7.6,20,12,20z"/>
<path class="st8" d="M49.6,27.9"/>
</svg>
