<svg width="108" height="108" viewBox="0 0 108 108" fill="none" xmlns="http://www.w3.org/2000/svg">
<rect x="20.5" y="16.5" width="71" height="71" rx="35.5" stroke="#107969" stroke-opacity="0.1"/>
<g filter="url(#filter0_d_13108_68651)">
<rect x="24" y="20" width="64" height="64" rx="32" fill="white" shape-rendering="crispEdges"/>
<rect x="26" y="22" width="60" height="60" rx="30" stroke="#E9F1FB" stroke-width="4" shape-rendering="crispEdges"/>
<path d="M64.8578 46.6963L64.7387 49.688L54.4427 39.3827C53.6112 38.5037 52.2523 38.3889 51.286 39.1166C50.3049 39.9104 50.1535 41.3493 50.9473 42.3301C50.9987 42.3936 51.0537 42.4542 51.1114 42.5119L49.6525 41.0527C48.7283 40.091 47.2181 40.0066 46.1929 40.8602C45.188 41.7668 45.1083 43.3158 46.0149 44.3207C46.0433 44.3517 46.0717 44.3822 46.1013 44.4114L46.0827 44.3656C45.3605 43.6286 44.2391 43.457 43.3299 43.9435C42.2288 44.5712 41.8452 45.9715 42.4729 47.0726C42.5747 47.2507 42.6993 47.4139 42.8434 47.5588L45.5965 50.3119C44.8108 49.5274 43.5381 49.5283 42.7544 50.3137C42.7086 50.3595 42.6645 50.4082 42.6234 50.4586C41.9948 51.3012 42.0893 52.4794 42.8434 53.2118L54.3418 64.8107C57.6985 68.1839 63.1548 68.197 66.5272 64.8391L66.6107 64.7556C69.1554 62.0999 70.4841 58.5084 70.2811 54.8359L69.9416 43.7049C69.9031 43.1862 69.4708 42.7853 68.9507 42.7873C66.7574 42.7798 64.9515 44.506 64.8578 46.6963V46.6963Z" fill="#86ACD1"/>
<path d="M64.7387 49.688L54.4426 39.3827C53.6111 38.5037 52.2523 38.3889 51.286 39.1166C50.3104 39.9095 50.1616 41.342 50.9546 42.3182L50.9554 42.3191C51.0491 42.1906 51.1601 42.0761 51.286 41.9796C52.2476 41.2475 53.6065 41.3539 54.4426 42.2275L63.307 51.1011L64.7387 49.688Z" fill="#AEC7E0"/>
<path d="M70.0243 46.5677L69.9417 43.7047C69.9032 43.1861 69.4709 42.7851 68.9508 42.7871C66.7511 42.7851 64.946 44.5261 64.8672 46.7237L64.7477 49.7151L64.8672 49.5867C64.9507 47.3908 66.7537 45.6539 68.9508 45.6501C69.4874 45.6446 69.9463 46.0363 70.0243 46.5677Z" fill="#AEC7E0"/>
<path d="M60.4487 67.8038C58.1168 67.8038 55.787 66.9137 54.0159 65.1353L42.5178 53.5352C41.6075 52.6515 41.4918 51.2089 42.2552 50.1849C42.3204 50.1051 42.3737 50.0463 42.4297 49.9903C42.8333 49.5856 43.3537 49.3389 43.9144 49.28L42.5187 47.8843C42.3442 47.7098 42.1937 47.5135 42.0737 47.2999C41.3219 45.981 41.7838 44.2971 43.1023 43.5456C43.6932 43.229 44.3623 43.1447 44.9862 43.2722C44.7845 42.294 45.0909 41.2358 45.8847 40.5191C47.1033 39.5044 48.8973 39.6044 49.9828 40.7348L49.9845 40.7369C50.0268 39.9906 50.371 39.2649 50.9969 38.7593C52.1633 37.88 53.7828 38.0159 54.7758 39.0666L64.3212 48.6222L64.398 46.6785V46.6777C64.5027 44.2365 66.495 42.3297 68.9359 42.3297H68.9553C69.7068 42.3297 70.3417 42.9188 70.3977 43.6723L70.738 54.8228C70.9474 58.597 69.5636 62.3364 66.9401 65.0736L66.8493 65.1655C65.0837 66.9247 62.7646 67.8038 60.4487 67.8038ZM44.1759 50.184H44.175C43.761 50.184 43.3719 50.3455 43.0794 50.6392C43.0426 50.6757 43.0087 50.7134 42.9765 50.7528C42.5022 51.3898 42.5764 52.3138 43.1638 52.8838L54.6673 64.4891C56.2036 66.0326 58.2499 66.8862 60.4284 66.8905H60.4475C62.6196 66.8905 64.6624 66.0474 66.2022 64.5149L66.2793 64.4369C68.7257 61.885 70.017 58.394 69.8213 54.861L69.4809 43.719C69.4618 43.4621 69.2296 43.2464 68.9524 43.2464C68.9515 43.2464 68.9507 43.2464 68.9507 43.2464C68.946 43.2464 68.9423 43.2464 68.9376 43.2464C66.9867 43.2464 65.3982 44.768 65.3148 46.7162L65.1956 49.7068C65.1872 49.8886 65.0735 50.0501 64.9036 50.1162C64.7366 50.1831 64.5412 50.1425 64.4128 50.0132L54.1168 39.7079C53.4369 38.9886 52.3413 38.8967 51.5602 39.4841C51.1941 39.7816 50.9563 40.2173 50.9059 40.7027C50.8554 41.1874 50.9958 41.6635 51.3034 42.0427C51.3411 42.0894 51.3814 42.1343 51.4234 42.1766L51.4344 42.1876C51.6136 42.3665 51.6136 42.6565 51.4344 42.8362C51.2564 43.0154 50.9665 43.0162 50.7867 42.8382L50.7859 42.8374C50.7821 42.8336 50.7783 42.8298 50.7748 42.8263L49.3275 41.3791C48.5668 40.5873 47.3216 40.5183 46.4857 41.215C45.7186 41.9076 45.6258 43.0951 46.2671 43.9109C46.3158 43.9541 46.3637 43.9991 46.4095 44.0458C46.4518 44.089 46.4857 44.1411 46.5078 44.1971C46.5884 44.4 46.5251 44.6543 46.3425 44.7735C46.1607 44.8938 45.9296 44.8909 45.7754 44.7378C45.7699 44.7323 45.678 44.6349 45.6725 44.6285C45.6505 44.6036 45.6284 44.5789 45.6075 44.5531C45.032 44.0806 44.2119 43.9936 43.5445 44.3487C42.6764 44.8442 42.3682 45.9665 42.8701 46.8455C42.951 46.9879 43.051 47.1181 43.1664 47.2346L45.9195 49.9874C46.0984 50.1666 46.0984 50.4574 45.9195 50.6363C45.7406 50.8152 45.4495 50.8152 45.2707 50.6363C44.979 50.3446 44.5899 50.184 44.1759 50.184V50.184Z" fill="#2F3850"/>
<path d="M51.038 56.3042C50.9206 56.3042 50.8032 56.2592 50.7142 56.1702L45.1532 50.6194C44.9734 50.4405 44.9734 50.1497 45.1523 49.9705C45.3312 49.7908 45.6231 49.7917 45.8011 49.9697L51.3619 55.5214C51.5419 55.6994 51.5419 55.9914 51.363 56.1702C51.2729 56.2592 51.1554 56.3042 51.038 56.3042Z" fill="#2F3850"/>
<path d="M54.2774 53.0562C54.16 53.0562 54.0425 53.0113 53.9527 52.9223L45.7754 44.7459C45.5965 44.567 45.5965 44.2759 45.7754 44.0971C45.9543 43.9182 46.2451 43.9182 46.4242 44.0971L54.6012 52.2735C54.7804 52.4523 54.7804 52.7431 54.6012 52.9223C54.5122 53.0113 54.3948 53.0562 54.2774 53.0562V53.0562Z" fill="#2F3850"/>
<path d="M57.7277 49.6159C57.6103 49.6159 57.4929 49.571 57.403 49.482L50.7858 42.8558C50.6066 42.6758 50.6066 42.3859 50.7858 42.2061C50.9647 42.0281 51.2555 42.0272 51.4355 42.2061L58.0516 48.8314C58.2304 49.0112 58.2304 49.3014 58.0516 49.4811C57.9626 49.571 57.8451 49.6159 57.7277 49.6159Z" fill="#2F3850"/>
<path d="M61.4616 61.2133C61.3323 61.2133 61.2065 61.1582 61.1184 61.059C58.8088 58.731 58.8161 54.9585 61.1378 52.6388L64.4136 49.3627C64.5925 49.1838 64.8836 49.1838 65.0625 49.3627C65.2414 49.5416 65.2414 49.8326 65.0625 50.0115L61.7863 53.2874C59.8172 55.2551 59.8172 58.4567 61.7829 60.425C61.7956 60.4377 61.8066 60.4508 61.8177 60.4644C61.8388 60.4902 61.858 60.5195 61.8727 60.5488C61.9855 60.7755 61.8939 61.0509 61.6672 61.1646C61.6011 61.1985 61.5303 61.2133 61.4616 61.2133V61.2133Z" fill="#2F3850"/>
<path d="M62.7107 43.027C62.5225 43.027 62.3463 42.9105 62.2784 42.7223C61.8003 41.3852 60.9883 40.1811 59.9274 39.2406C58.8692 38.3497 57.5764 37.7495 56.1999 37.5147C55.9503 37.4724 55.7824 37.2346 55.8244 36.985C55.8676 36.7345 56.11 36.5684 56.3541 36.6099C57.8922 36.8722 59.3345 37.542 60.5276 38.546C61.7113 39.5975 62.6124 40.932 63.1418 42.4129C63.2273 42.6516 63.1032 42.9139 62.8638 42.9995C62.8133 43.0186 62.7611 43.027 62.7107 43.027V43.027Z" fill="#2F3850"/>
<path d="M64.7386 41.8149C64.5496 41.8149 64.3733 41.6972 64.3055 41.5094C63.7164 39.8438 62.7051 38.3451 61.379 37.1762C60.0549 36.073 58.4427 35.3398 56.7292 35.0647C56.4796 35.0241 56.3091 34.7892 56.3486 34.5388C56.3889 34.2891 56.6266 34.1158 56.8742 34.159C58.7509 34.4608 60.5156 35.2638 61.9774 36.4795C63.4291 37.7607 64.5302 39.3903 65.1718 41.2038C65.2562 41.4424 65.1303 41.7048 64.8917 41.7891C64.8404 41.8065 64.7891 41.8149 64.7386 41.8149Z" fill="#2F3850"/>
<path d="M42.0534 59.3415C41.9644 59.3415 41.8736 59.3157 41.7945 59.2606C40.4979 58.3726 39.4409 57.1613 38.7352 55.7581C38.0745 54.332 37.8101 52.7684 37.9634 51.2214C37.9881 50.9697 38.2203 50.7891 38.4653 50.8103C38.7178 50.8349 38.9022 51.0596 38.8764 51.3121C38.739 52.6968 38.9756 54.0963 39.5612 55.3597C40.1906 56.6116 41.1439 57.7043 42.3132 58.5054C42.5222 58.6478 42.5755 58.9342 42.4323 59.1424C42.3433 59.2717 42.2001 59.3415 42.0534 59.3415V59.3415Z" fill="#2F3850"/>
<path d="M40.4199 61.0118C40.3301 61.0118 40.2393 60.9863 40.1602 60.9312C38.5792 59.8411 37.2862 58.3573 36.4228 56.6392C35.6069 54.9031 35.2756 52.9899 35.4582 51.0938C35.482 50.8416 35.7087 50.6627 35.9583 50.681C36.2108 50.7047 36.3961 50.9297 36.3712 51.1811C36.2042 52.9137 36.5071 54.6616 37.2476 56.2373C38.0368 57.8064 39.2252 59.1719 40.6806 60.1742C40.8899 60.318 40.9421 60.6044 40.798 60.8117C40.709 60.9431 40.5658 61.0118 40.4199 61.0118Z" fill="#2F3850"/>
<rect x="22" y="18" width="20" height="20" rx="10" fill="#107969"/>
<rect x="22" y="18" width="20" height="20" rx="10" stroke="#F8FBFF" stroke-width="4"/>
</g>
<defs>
<filter id="filter0_d_13108_68651" x="0" y="0" width="108" height="108" filterUnits="userSpaceOnUse" color-interpolation-filters="sRGB">
<feFlood flood-opacity="0" result="BackgroundImageFix"/>
<feColorMatrix in="SourceAlpha" type="matrix" values="0 0 0 0 0 0 0 0 0 0 0 0 0 0 0 0 0 0 127 0" result="hardAlpha"/>
<feOffset dy="4"/>
<feGaussianBlur stdDeviation="10"/>
<feComposite in2="hardAlpha" operator="out"/>
<feColorMatrix type="matrix" values="0 0 0 0 0.890196 0 0 0 0 0.933333 0 0 0 0 0.984314 0 0 0 0.2 0"/>
<feBlend mode="normal" in2="BackgroundImageFix" result="effect1_dropShadow_13108_68651"/>
<feBlend mode="normal" in="SourceGraphic" in2="effect1_dropShadow_13108_68651" result="shape"/>
</filter>
</defs>
</svg>