<svg width="108" height="108" viewBox="0 0 108 108" fill="none" xmlns="http://www.w3.org/2000/svg">
<rect x="20.5" y="16.5" width="71" height="71" rx="35.5" stroke="#107969" stroke-opacity="0.1"/>
<g filter="url(#filter0_d_13798_72303)">
<rect x="24" y="20" width="64" height="64" rx="32" fill="white" shape-rendering="crispEdges"/>
<rect x="26" y="22" width="60" height="60" rx="30" stroke="#E9F1FB" stroke-width="4" fill="white" shape-rendering="crispEdges"/>
<g style="mix-blend-mode:luminosity" opacity="0.7">
<path d="M64.8577 46.6963L64.7386 49.688L54.4425 39.3827C53.611 38.5037 52.2522 38.3889 51.2858 39.1166C50.3048 39.9104 50.1534 41.3493 50.9472 42.3301C50.9985 42.3936 51.0536 42.4542 51.1113 42.5119L49.6524 41.0527C48.7282 40.091 47.2179 40.0066 46.1928 40.8602C45.1879 41.7668 45.1082 43.3158 46.0148 44.3207C46.0432 44.3517 46.0716 44.3822 46.1012 44.4114L46.0826 44.3656C45.3604 43.6286 44.239 43.457 43.3298 43.9435C42.2287 44.5712 41.8451 45.9715 42.4728 47.0726C42.5745 47.2507 42.6992 47.4139 42.8433 47.5588L45.5964 50.3119C44.8107 49.5274 43.538 49.5283 42.7543 50.3137C42.7085 50.3595 42.6644 50.4082 42.6232 50.4586C41.9947 51.3012 42.0892 52.4794 42.8433 53.2118L54.3416 64.8107C57.6984 68.1839 63.1547 68.197 66.5271 64.8391L66.6106 64.7556C69.1552 62.0999 70.484 58.5084 70.281 54.8359L69.9415 43.7049C69.903 43.1862 69.4707 42.7853 68.9506 42.7873C66.7573 42.7798 64.9514 44.506 64.8577 46.6963Z" fill="#86ACD1"/>
<path d="M64.7386 49.688L54.4426 39.3827C53.6111 38.5037 52.2522 38.3889 51.2859 39.1166C50.3103 39.9095 50.1616 41.342 50.9545 42.3182L50.9554 42.3191C51.049 42.1906 51.1601 42.0761 51.2859 41.9796C52.2476 41.2475 53.6064 41.3539 54.4426 42.2275L63.307 51.1011L64.7386 49.688Z" fill="#AEC7E0"/>
<path d="M70.0244 46.5677L69.9418 43.7047C69.9032 43.1861 69.4709 42.7851 68.9508 42.7871C66.7512 42.7851 64.9461 44.5261 64.8673 46.7237L64.7478 49.7151L64.8673 49.5867C64.9507 47.3908 66.7538 45.6539 68.9508 45.6501C69.4875 45.6446 69.9464 46.0363 70.0244 46.5677Z" fill="#AEC7E0"/>
<path d="M60.4488 67.8038C58.117 67.8038 55.7871 66.9137 54.016 65.1353L42.518 53.5352C41.6076 52.6515 41.4919 51.2089 42.2553 50.1849C42.3205 50.1051 42.3739 50.0463 42.4298 49.9903C42.8334 49.5856 43.3538 49.3389 43.9145 49.28L42.5188 47.8843C42.3443 47.7098 42.1938 47.5135 42.0738 47.2999C41.322 45.981 41.7839 44.2971 43.1024 43.5456C43.6933 43.229 44.3624 43.1447 44.9864 43.2722C44.7846 42.294 45.091 41.2358 45.8848 40.5191C47.1034 39.5044 48.8974 39.6044 49.9829 40.7348L49.9846 40.7369C50.027 39.9906 50.3711 39.2649 50.997 38.7593C52.1634 37.88 53.7829 38.0159 54.7759 39.0666L64.3213 48.6222L64.3981 46.6785V46.6777C64.5028 44.2365 66.4951 42.3297 68.936 42.3297H68.9554C69.7069 42.3297 70.3418 42.9188 70.3978 43.6723L70.7382 54.8228C70.9475 58.597 69.5637 62.3364 66.9402 65.0736L66.8494 65.1655C65.0838 66.9247 62.7647 67.8038 60.4488 67.8038ZM44.176 50.184H44.1752C43.7611 50.184 43.3721 50.3455 43.0795 50.6392C43.0427 50.6757 43.0088 50.7134 42.9766 50.7528C42.5023 51.3898 42.5765 52.3138 43.1639 52.8838L54.6675 64.4891C56.2038 66.0326 58.25 66.8862 60.4285 66.8905H60.4477C62.6198 66.8905 64.6625 66.0474 66.2023 64.5149L66.2794 64.4369C68.7258 61.885 70.0171 58.394 69.8214 54.861L69.4811 43.719C69.4619 43.4621 69.2297 43.2464 68.9525 43.2464C68.9517 43.2464 68.9508 43.2464 68.9508 43.2464C68.9462 43.2464 68.9424 43.2464 68.9377 43.2464C66.9869 43.2464 65.3984 44.768 65.3149 46.7162L65.1957 49.7068C65.1873 49.8886 65.0737 50.0501 64.9038 50.1162C64.7368 50.1831 64.5414 50.1425 64.4129 50.0132L54.1169 39.7079C53.437 38.9886 52.3414 38.8967 51.5604 39.4841C51.1942 39.7816 50.9565 40.2173 50.906 40.7027C50.8556 41.1874 50.9959 41.6635 51.3035 42.0427C51.3412 42.0894 51.3815 42.1343 51.4235 42.1766L51.4345 42.1876C51.6137 42.3665 51.6137 42.6565 51.4345 42.8362C51.2565 43.0154 50.9666 43.0162 50.7868 42.8382L50.786 42.8374C50.7822 42.8336 50.7784 42.8298 50.775 42.8263L49.3277 41.3791C48.5669 40.5873 47.3217 40.5183 46.4858 41.215C45.7187 41.9076 45.6259 43.0951 46.2672 43.9109C46.3159 43.9541 46.3638 43.9991 46.4096 44.0458C46.4519 44.089 46.4858 44.1411 46.5079 44.1971C46.5885 44.4 46.5253 44.6543 46.3426 44.7735C46.1608 44.8938 45.9298 44.8909 45.7755 44.7378C45.77 44.7323 45.6781 44.6349 45.6726 44.6285C45.6506 44.6036 45.6285 44.5789 45.6077 44.5531C45.0322 44.0806 44.212 43.9936 43.5446 44.3487C42.6765 44.8442 42.3684 45.9665 42.8702 46.8455C42.9511 46.9879 43.0511 47.1181 43.1665 47.2346L45.9196 49.9874C46.0985 50.1666 46.0985 50.4574 45.9196 50.6363C45.7407 50.8152 45.4497 50.8152 45.2708 50.6363C44.9791 50.3446 44.59 50.184 44.176 50.184Z" fill="#2F3850"/>
<path d="M51.0381 56.3042C50.9207 56.3042 50.8032 56.2592 50.7142 56.1702L45.1532 50.6194C44.9735 50.4405 44.9735 50.1497 45.1524 49.9705C45.3312 49.7908 45.6232 49.7917 45.8012 49.9697L51.3619 55.5214C51.542 55.6994 51.542 55.9914 51.3631 56.1702C51.2729 56.2592 51.1555 56.3042 51.0381 56.3042Z" fill="#2F3850"/>
<path d="M54.2775 53.0562C54.1601 53.0562 54.0427 53.0113 53.9528 52.9223L45.7755 44.7459C45.5966 44.567 45.5966 44.2759 45.7755 44.0971C45.9544 43.9182 46.2452 43.9182 46.4244 44.0971L54.6014 52.2735C54.7805 52.4523 54.7805 52.7431 54.6014 52.9223C54.5123 53.0113 54.3949 53.0562 54.2775 53.0562Z" fill="#2F3850"/>
<path d="M57.7279 49.6159C57.6105 49.6159 57.4931 49.571 57.4032 49.482L50.786 42.8558C50.6068 42.6758 50.6068 42.3859 50.786 42.2061C50.9649 42.0281 51.2557 42.0272 51.4357 42.2061L58.0517 48.8314C58.2306 49.0112 58.2306 49.3014 58.0517 49.4811C57.9627 49.571 57.8453 49.6159 57.7279 49.6159Z" fill="#2F3850"/>
<path d="M61.4616 61.2133C61.3323 61.2133 61.2065 61.1582 61.1184 61.059C58.8088 58.731 58.8161 54.9585 61.1378 52.6388L64.4136 49.3627C64.5925 49.1838 64.8836 49.1838 65.0625 49.3627C65.2414 49.5416 65.2414 49.8326 65.0625 50.0115L61.7863 53.2874C59.8172 55.2551 59.8172 58.4567 61.7829 60.425C61.7956 60.4377 61.8066 60.4508 61.8177 60.4644C61.8388 60.4902 61.858 60.5195 61.8727 60.5488C61.9855 60.7755 61.8939 61.0509 61.6672 61.1646C61.6011 61.1985 61.5303 61.2133 61.4616 61.2133Z" fill="#2F3850"/>
<path d="M62.7108 43.027C62.5227 43.027 62.3464 42.9105 62.2785 42.7223C61.8005 41.3852 60.9884 40.1811 59.9276 39.2406C58.8693 38.3497 57.5766 37.7495 56.2 37.5147C55.9504 37.4724 55.7825 37.2346 55.8246 36.985C55.8678 36.7345 56.1101 36.5684 56.3543 36.6099C57.8923 36.8722 59.3347 37.542 60.5277 38.546C61.7114 39.5975 62.6125 40.932 63.1419 42.4129C63.2275 42.6516 63.1034 42.9139 62.8639 42.9995C62.8134 43.0186 62.7613 43.027 62.7108 43.027Z" fill="#2F3850"/>
<path d="M64.7388 41.8149C64.5497 41.8149 64.3735 41.6972 64.3056 41.5094C63.7165 39.8438 62.7052 38.3451 61.3791 37.1762C60.0551 36.073 58.4428 35.3398 56.7294 35.0647C56.4797 35.0241 56.3093 34.7892 56.3487 34.5388C56.389 34.2891 56.6267 34.1158 56.8743 34.159C58.751 34.4608 60.5157 35.2638 61.9775 36.4795C63.4292 37.7607 64.5303 39.3903 65.1719 41.2038C65.2563 41.4424 65.1305 41.7048 64.8918 41.7891C64.8405 41.8065 64.7892 41.8149 64.7388 41.8149Z" fill="#2F3850"/>
<path d="M42.0534 59.3415C41.9644 59.3415 41.8737 59.3157 41.7945 59.2606C40.498 58.3726 39.4409 57.1613 38.7353 55.7581C38.0745 54.332 37.8101 52.7684 37.9635 51.2214C37.9881 50.9697 38.2204 50.7891 38.4654 50.8103C38.7179 50.8349 38.9023 51.0596 38.8765 51.3121C38.739 52.6968 38.9756 54.0963 39.5613 55.3597C40.1907 56.6116 41.144 57.7043 42.3132 58.5054C42.5222 58.6478 42.5756 58.9342 42.4324 59.1424C42.3434 59.2717 42.2001 59.3415 42.0534 59.3415Z" fill="#2F3850"/>
<path d="M40.42 61.0118C40.3301 61.0118 40.2394 60.9863 40.1602 60.9312C38.5793 59.8411 37.2862 58.3573 36.4228 56.6392C35.607 54.9031 35.2756 52.9899 35.4583 51.0938C35.482 50.8416 35.7088 50.6627 35.9584 50.681C36.2109 50.7047 36.3962 50.9297 36.3712 51.1811C36.2042 52.9137 36.5072 54.6616 37.2477 56.2373C38.0368 57.8064 39.2252 59.1719 40.6806 60.1742C40.89 60.318 40.9422 60.6044 40.7981 60.8117C40.7091 60.9431 40.5658 61.0118 40.42 61.0118Z" fill="#2F3850"/>
</g>
<rect x="22" y="18" width="20" height="20" rx="10" fill="#8C94A6"/>
<rect x="22" y="18" width="20" height="20" rx="10" stroke="#F8FBFF" stroke-width="4"/>
</g>
<defs>
<filter id="filter0_d_13798_72303" x="0" y="0" width="108" height="108" filterUnits="userSpaceOnUse" color-interpolation-filters="sRGB">
<feFlood flood-opacity="0" result="BackgroundImageFix"/>
<feColorMatrix in="SourceAlpha" type="matrix" values="0 0 0 0 0 0 0 0 0 0 0 0 0 0 0 0 0 0 127 0" result="hardAlpha"/>
<feOffset dy="4"/>
<feGaussianBlur stdDeviation="10"/>
<feComposite in2="hardAlpha" operator="out"/>
<feColorMatrix type="matrix" values="0 0 0 0 0.890196 0 0 0 0 0.933333 0 0 0 0 0.984314 0 0 0 0.2 0"/>
<feBlend mode="normal" in2="BackgroundImageFix" result="effect1_dropShadow_13798_72303"/>
<feBlend mode="normal" in="SourceGraphic" in2="effect1_dropShadow_13798_72303" result="shape"/>
</filter>
</defs>
</svg>