<svg width="13" height="13" viewBox="0 0 13 13" fill="none" xmlns="http://www.w3.org/2000/svg">
  <path d="M6.5 0C5.21442 0 3.95772 0.381218 2.8888 1.09545C1.81988 1.80968 0.986756 2.82484 0.494786 4.01256C0.00281635 5.20028 -0.125905 6.50721 0.124899 7.76809C0.375703 9.02896 0.994768 10.1872 1.90381 11.0962C2.81285 12.0052 3.97104 12.6243 5.23192 12.8751C6.49279 13.1259 7.79973 12.9972 8.98745 12.5052C10.1752 12.0132 11.1903 11.1801 11.9046 10.1112C12.6188 9.04229 13 7.78558 13 6.5C12.9979 4.77674 12.3124 3.12467 11.0939 1.90614C9.87533 0.687616 8.22326 0.00211703 6.5 0ZM5.773 9.675C5.736 9.675 5.698 9.675 5.661 9.675C5.46454 9.67436 5.27015 9.63479 5.08907 9.55858C4.90799 9.48237 4.7438 9.37103 4.606 9.231L3.439 7.5C3.3674 7.43078 3.3103 7.34799 3.27104 7.25647C3.23178 7.16495 3.21113 7.06653 3.21032 6.96694C3.2095 6.86736 3.22852 6.76861 3.26628 6.67645C3.30403 6.5843 3.35976 6.50059 3.43021 6.4302C3.50066 6.35982 3.58443 6.30417 3.67662 6.2665C3.76881 6.22883 3.86758 6.2099 3.96716 6.21081C4.06674 6.21173 4.16515 6.23246 4.25663 6.27181C4.34812 6.31116 4.43085 6.36833 4.5 6.44L5.467 7.971C5.49243 7.9962 5.52295 8.01567 5.55652 8.02811C5.59009 8.04054 5.62593 8.04565 5.66163 8.04309C5.69734 8.04054 5.73209 8.03037 5.76354 8.01328C5.79499 7.99619 5.82243 7.97257 5.844 7.944L8.573 4.3C8.69235 4.14087 8.87003 4.03567 9.06694 4.00754C9.26385 3.97941 9.46387 4.03065 9.623 4.15C9.78213 4.26935 9.88734 4.44702 9.91547 4.64393C9.9436 4.84085 9.89235 5.04087 9.773 5.2L6.873 9.074C6.74374 9.2474 6.57852 9.39079 6.38865 9.49436C6.19879 9.59792 5.98877 9.6602 5.773 9.675Z" fill="#107969"/>
</svg>
