<svg width="22" height="22" viewBox="0 0 22 22" fill="none" xmlns="http://www.w3.org/2000/svg">
<rect width="22" height="22" rx="3" fill="#C866EA"/>
<path fill-rule="evenodd" clip-rule="evenodd" d="M15.5004 6.19829C16.0221 6.55352 16.1571 7.26443 15.8018 7.78615L10.7645 15.1844C10.4402 15.6727 9.87863 16.0218 9.21861 15.9989C8.56222 15.9762 8.02928 15.5934 7.73591 15.0944L6.16606 12.5082C5.83855 11.9686 6.01044 11.2657 6.55 10.9382C7.08955 10.6107 7.79244 10.7826 8.11995 11.3221L9.30255 13.2704L13.9125 6.49975C14.2678 5.97803 14.9787 5.84306 15.5004 6.19829ZM8.85906 13.9221C8.8601 13.9205 8.86116 13.9189 8.86226 13.9173L8.85906 13.9221ZM9.70464 13.9332C9.7058 13.9351 9.70692 13.937 9.70799 13.9389L9.70464 13.9332Z" fill="white"/>
</svg>
