<svg width="24" height="24" viewBox="0 0 24 24" fill="none" xmlns="http://www.w3.org/2000/svg">
<path d="M5 10.249H11.5C11.6989 10.249 11.8897 10.17 12.0303 10.0294C12.171 9.8887 12.25 9.69794 12.25 9.49902C12.25 9.30011 12.171 9.10935 12.0303 8.96869C11.8897 8.82804 11.6989 8.74902 11.5 8.74902H5C4.80109 8.74902 4.61032 8.82804 4.46967 8.96869C4.32902 9.10935 4.25 9.30011 4.25 9.49902C4.25 9.69794 4.32902 9.8887 4.46967 10.0294C4.61032 10.17 4.80109 10.249 5 10.249Z" fill="#2F3850"/>
<path d="M5 13.749H8C8.19891 13.749 8.38968 13.67 8.53033 13.5294C8.67098 13.3887 8.75 13.1979 8.75 12.999C8.75 12.8001 8.67098 12.6093 8.53033 12.4687C8.38968 12.328 8.19891 12.249 8 12.249H5C4.80109 12.249 4.61032 12.328 4.46967 12.4687C4.32902 12.6093 4.25 12.8001 4.25 12.999C4.25 13.1979 4.32902 13.3887 4.46967 13.5294C4.61032 13.67 4.80109 13.749 5 13.749Z" fill="#2F3850"/>
<path d="M5 17.25H7.75C7.94891 17.25 8.13968 17.171 8.28033 17.0303C8.42098 16.8897 8.5 16.6989 8.5 16.5C8.5 16.3011 8.42098 16.1103 8.28033 15.9697C8.13968 15.829 7.94891 15.75 7.75 15.75H5C4.80109 15.75 4.61032 15.829 4.46967 15.9697C4.32902 16.1103 4.25 16.3011 4.25 16.5C4.25 16.6989 4.32902 16.8897 4.46967 17.0303C4.61032 17.171 4.80109 17.25 5 17.25Z" fill="#2F3850"/>
<path d="M5.25 6.24902H13.75C13.8161 6.24902 13.8796 6.22282 13.9264 6.17615C13.9733 6.12948 13.9997 6.06615 14 6.00002V3.00002C13.9997 2.93379 13.9733 2.87036 13.9265 2.82353C13.8797 2.7767 13.8162 2.75028 13.75 2.75002H12V2.50002C11.9988 2.11403 11.9085 1.73353 11.7363 1.38811C11.564 1.0427 11.3143 0.741687 11.0068 0.508502C10.6992 0.275316 10.3419 0.116244 9.96282 0.0436606C9.58371 -0.0289226 9.19297 -0.0130589 8.821 0.0900172C8.28668 0.250675 7.81955 0.581626 7.49079 1.03243C7.16203 1.48323 6.98967 2.02916 7 2.58702V2.74902H5.25C5.1836 2.74928 5.12002 2.77584 5.07316 2.82289C5.02631 2.86993 5 2.93362 5 3.00002V6.00002C5.00026 6.06615 5.02672 6.12948 5.07358 6.17615C5.12043 6.22282 5.18387 6.24902 5.25 6.24902ZM10.25 2.24902C10.2502 2.3974 10.2064 2.5425 10.1241 2.66597C10.0418 2.78944 9.92473 2.88572 9.78771 2.94264C9.65068 2.99956 9.49985 3.01455 9.3543 2.98573C9.20875 2.9569 9.07501 2.88555 8.97002 2.7807C8.86503 2.67585 8.79351 2.54222 8.76449 2.3967C8.73547 2.25119 8.75026 2.10034 8.807 1.96324C8.86373 1.82613 8.95986 1.70894 9.08322 1.62648C9.20658 1.54403 9.35162 1.50002 9.5 1.50002C9.69874 1.50002 9.88935 1.5789 10.03 1.71933C10.1706 1.85977 10.2497 2.05028 10.25 2.24902Z" fill="#2F3850"/>
<path d="M9.052 23L9.192 22.3C9.19935 22.2639 9.19859 22.2266 9.18977 22.1908C9.18095 22.155 9.1643 22.1216 9.141 22.093C9.11753 22.0641 9.08797 22.0408 9.05442 22.0248C9.02088 22.0087 8.9842 22.0002 8.947 22H2.5C2.36739 22 2.24021 21.9473 2.14645 21.8536C2.05268 21.7598 2 21.6326 2 21.5V5.249C2 5.11639 2.05268 4.98921 2.14645 4.89545C2.24021 4.80168 2.36739 4.749 2.5 4.749H3.25C3.31613 4.749 3.37957 4.7228 3.42642 4.67613C3.47328 4.62946 3.49974 4.56613 3.5 4.5V3C3.49974 2.93378 3.47331 2.87034 3.42649 2.82351C3.37966 2.77669 3.31622 2.75026 3.25 2.75H2C1.46957 2.75 0.960859 2.96071 0.585786 3.33579C0.210714 3.71086 0 4.21957 0 4.75L0 22C0 22.5304 0.210714 23.0391 0.585786 23.4142C0.960859 23.7893 1.46957 24 2 24H8.776C8.81119 24.0002 8.84604 23.993 8.87823 23.9788C8.91042 23.9645 8.93923 23.9436 8.96276 23.9175C8.98629 23.8913 9.004 23.8604 9.01473 23.8269C9.02546 23.7934 9.02896 23.758 9.025 23.723C8.99635 23.4821 9.00546 23.2381 9.052 23Z" fill="#2F3850"/>
<path d="M18.884 9.74702C18.9195 9.72423 18.9488 9.69288 18.9691 9.65584C18.9893 9.61879 19 9.57725 19 9.53502V4.74902C19 4.21859 18.7893 3.70988 18.4142 3.33481C18.0391 2.95974 17.5304 2.74902 17 2.74902H15.75C15.6836 2.74929 15.62 2.77585 15.5732 2.82289C15.5263 2.86994 15.5 2.93363 15.5 3.00002V4.50002C15.5 4.56633 15.5263 4.62992 15.5732 4.6768C15.6201 4.72368 15.6837 4.75002 15.75 4.75002H16.5C16.6326 4.75002 16.7598 4.8027 16.8536 4.89647C16.9473 4.99024 17 5.11742 17 5.25002V10.862C16.9999 10.9115 17.0145 10.96 17.042 11.0012C17.0695 11.0423 17.1085 11.0745 17.1543 11.0934C17.2 11.1124 17.2503 11.1173 17.2989 11.1076C17.3474 11.098 17.392 11.0741 17.427 11.039L18.115 10.351C18.348 10.1216 18.6059 9.91904 18.884 9.74702Z" fill="#2F3850"/>
<path d="M12.7392 20.044C12.6776 19.9825 12.6009 19.9382 12.5169 19.9154C12.4329 19.8926 12.3444 19.8922 12.2602 19.9141C12.1759 19.936 12.0988 19.9795 12.0366 20.0404C11.9743 20.1012 11.929 20.1773 11.9052 20.261L11.0192 23.361C10.9947 23.4467 10.9936 23.5374 11.016 23.6237C11.0384 23.71 11.0834 23.7887 11.1464 23.8517C11.2095 23.9148 11.2882 23.9598 11.3745 23.9822C11.4608 24.0046 11.5515 24.0035 11.6372 23.979L14.7372 23.093C14.8211 23.0692 14.8973 23.024 14.9583 22.9616C15.0193 22.8993 15.063 22.8221 15.0849 22.7377C15.1069 22.6533 15.1063 22.5646 15.0834 22.4804C15.0605 22.3963 15.0159 22.3196 14.9542 22.258L12.7392 20.044Z" fill="#2F3850"/>
<path d="M18.7711 13.228C18.6774 13.1343 18.5502 13.0816 18.4176 13.0816C18.285 13.0816 18.1579 13.1343 18.0641 13.228L13.0541 18.237C13.0076 18.2834 12.9706 18.3386 12.9454 18.3994C12.9202 18.4601 12.9072 18.5252 12.9072 18.591C12.9072 18.6568 12.9202 18.7219 12.9454 18.7826C12.9706 18.8434 13.0076 18.8986 13.0541 18.945L16.0541 21.945C16.1479 22.0387 16.275 22.0914 16.4076 22.0914C16.5402 22.0914 16.6674 22.0387 16.7611 21.945L21.7711 16.935C21.8649 16.8412 21.9175 16.7141 21.9175 16.5815C21.9175 16.4489 21.8649 16.3218 21.7711 16.228L18.7711 13.228Z" fill="#2F3850"/>
<path d="M19.4784 11.814C19.3847 11.9077 19.332 12.0349 19.332 12.1675C19.332 12.3001 19.3847 12.4272 19.4784 12.521L22.4784 15.521C22.5219 15.5624 22.5733 15.5948 22.6294 15.6163C22.6855 15.6377 22.7454 15.6478 22.8054 15.646C22.9643 15.6456 23.1169 15.584 23.2314 15.474C23.4749 15.2306 23.668 14.9416 23.7997 14.6236C23.9315 14.3056 23.9993 13.9647 23.9993 13.6205C23.9993 13.2762 23.9315 12.9354 23.7997 12.6173C23.668 12.2993 23.4749 12.0104 23.2314 11.767C22.7275 11.2755 22.049 11.0044 21.3452 11.0132C20.6414 11.022 19.9699 11.3101 19.4784 11.814Z" fill="#2F3850"/>
</svg>
