<svg width="18" height="18" viewBox="0 0 18 18" fill="none" xmlns="http://www.w3.org/2000/svg">
<g clip-path="url(#clip0)">
<path d="M5.625 6.75C6.29251 6.75 6.94503 6.55206 7.50005 6.18121C8.05507 5.81036 8.48765 5.28326 8.74309 4.66656C8.99854 4.04986 9.06538 3.37126 8.93515 2.71657C8.80493 2.06189 8.48349 1.46052 8.01149 0.988516C7.53948 0.516514 6.93812 0.195076 6.28343 0.0648512C5.62874 -0.0653739 4.95014 0.00146234 4.33344 0.256908C3.71674 0.512354 3.18964 0.944936 2.81879 1.49995C2.44794 2.05497 2.25 2.70749 2.25 3.375C2.25099 4.2698 2.60689 5.12767 3.23961 5.76039C3.87233 6.39311 4.7302 6.74901 5.625 6.75ZM4.125 2.8125H4.6875C4.78696 2.8125 4.88234 2.77299 4.95266 2.70267C5.02299 2.63234 5.0625 2.53696 5.0625 2.4375V1.875C5.0625 1.72582 5.12176 1.58274 5.22725 1.47725C5.33274 1.37176 5.47582 1.3125 5.625 1.3125C5.77418 1.3125 5.91726 1.37176 6.02275 1.47725C6.12824 1.58274 6.1875 1.72582 6.1875 1.875V2.4375C6.1875 2.53696 6.22701 2.63234 6.29733 2.70267C6.36766 2.77299 6.46304 2.8125 6.5625 2.8125H7.125C7.27418 2.8125 7.41726 2.87176 7.52275 2.97725C7.62824 3.08274 7.6875 3.22582 7.6875 3.375C7.6875 3.52419 7.62824 3.66726 7.52275 3.77275C7.41726 3.87824 7.27418 3.9375 7.125 3.9375H6.5625C6.46304 3.9375 6.36766 3.97701 6.29733 4.04734C6.22701 4.11766 6.1875 4.21305 6.1875 4.3125V4.875C6.1875 5.02419 6.12824 5.16726 6.02275 5.27275C5.91726 5.37824 5.77418 5.4375 5.625 5.4375C5.47582 5.4375 5.33274 5.37824 5.22725 5.27275C5.12176 5.16726 5.0625 5.02419 5.0625 4.875V4.3125C5.0625 4.21305 5.02299 4.11766 4.95266 4.04734C4.88234 3.97701 4.78696 3.9375 4.6875 3.9375H4.125C3.97582 3.9375 3.83274 3.87824 3.72725 3.77275C3.62176 3.66726 3.5625 3.52419 3.5625 3.375C3.5625 3.22582 3.62176 3.08274 3.72725 2.97725C3.83274 2.87176 3.97582 2.8125 4.125 2.8125Z" fill="#B3C1E1"/>
<path d="M8.62507 9.75014H10.8751C10.9745 9.75014 11.0699 9.71063 11.1402 9.6403C11.2106 9.56998 11.2501 9.47459 11.2501 9.37514V5.25014C11.2528 5.01109 11.1776 4.77766 11.0357 4.58521C10.8939 4.39276 10.6932 4.25179 10.4641 4.18364C10.4152 4.16858 10.3638 4.16366 10.313 4.16919C10.2622 4.17472 10.213 4.19058 10.1686 4.2158C10.1241 4.24102 10.0853 4.27505 10.0545 4.31583C10.0236 4.3566 10.0015 4.40324 9.98932 4.45289C9.74948 5.42925 9.18917 6.29698 8.39799 6.91733C7.60681 7.53768 6.63046 7.87481 5.62507 7.87481C4.61969 7.87481 3.64334 7.53768 2.85216 6.91733C2.06098 6.29698 1.50067 5.42925 1.26082 4.45289C1.24868 4.40324 1.22651 4.3566 1.19568 4.31583C1.16486 4.27505 1.12602 4.24102 1.08156 4.2158C1.0371 4.19058 0.987952 4.17472 0.937138 4.16919C0.886325 4.16366 0.834917 4.16858 0.786073 4.18364C0.556927 4.25179 0.356235 4.39276 0.214404 4.58521C0.0725721 4.77766 -0.00267147 5.01109 7.247e-05 5.25014V17.2501C7.247e-05 17.4491 0.0790901 17.6398 0.219742 17.7805C0.360395 17.9211 0.55116 18.0001 0.750073 18.0001H6.03157C6.08623 18.0002 6.14024 17.9883 6.18981 17.9652C6.23938 17.9422 6.28331 17.9086 6.31853 17.8668C6.35376 17.825 6.37942 17.776 6.39372 17.7233C6.40802 17.6705 6.41061 17.6153 6.40132 17.5614C6.3838 17.4586 6.37502 17.3544 6.37507 17.2501V12.0001C6.37507 11.4034 6.61213 10.8311 7.03408 10.4091C7.45604 9.98719 8.02834 9.75014 8.62507 9.75014ZM4.50007 15.5626H2.25007C2.10089 15.5626 1.95781 15.5034 1.85232 15.3979C1.74684 15.2924 1.68757 15.1493 1.68757 15.0001C1.68757 14.851 1.74684 14.7079 1.85232 14.6024C1.95781 14.4969 2.10089 14.4376 2.25007 14.4376H4.50007C4.64926 14.4376 4.79233 14.4969 4.89782 14.6024C5.00331 14.7079 5.06257 14.851 5.06257 15.0001C5.06257 15.1493 5.00331 15.2924 4.89782 15.3979C4.79233 15.5034 4.64926 15.5626 4.50007 15.5626ZM4.50007 12.9376H2.25007C2.10089 12.9376 1.95781 12.8784 1.85232 12.7729C1.74684 12.6674 1.68757 12.5243 1.68757 12.3751C1.68757 12.226 1.74684 12.0829 1.85232 11.9774C1.95781 11.8719 2.10089 11.8126 2.25007 11.8126H4.50007C4.64926 11.8126 4.79233 11.8719 4.89782 11.9774C5.00331 12.0829 5.06257 12.226 5.06257 12.3751C5.06257 12.5243 5.00331 12.6674 4.89782 12.7729C4.79233 12.8784 4.64926 12.9376 4.50007 12.9376ZM4.87507 10.3126H2.25007C2.10089 10.3126 1.95781 10.2534 1.85232 10.1479C1.74684 10.0424 1.68757 9.89932 1.68757 9.75014C1.68757 9.60095 1.74684 9.45788 1.85232 9.35239C1.95781 9.2469 2.10089 9.18764 2.25007 9.18764H4.87507C5.02426 9.18764 5.16733 9.2469 5.27282 9.35239C5.37831 9.45788 5.43757 9.60095 5.43757 9.75014C5.43757 9.89932 5.37831 10.0424 5.27282 10.1479C5.16733 10.2534 5.02426 10.3126 4.87507 10.3126Z" fill="#B3C1E1"/>
<path d="M16.875 10.875H8.625C8.32663 10.875 8.04048 10.9935 7.8295 11.2045C7.61853 11.4155 7.5 11.7016 7.5 12V17.25C7.5 17.4489 7.57902 17.6397 7.71967 17.7803C7.86032 17.921 8.05109 18 8.25 18H10.875C10.9745 18 11.0698 17.9605 11.1402 17.8902C11.2105 17.8198 11.25 17.7245 11.25 17.625V16.875C11.25 16.4772 11.408 16.0956 11.6893 15.8143C11.9706 15.533 12.3522 15.375 12.75 15.375C13.1478 15.375 13.5294 15.533 13.8107 15.8143C14.092 16.0956 14.25 16.4772 14.25 16.875V17.625C14.25 17.7245 14.2895 17.8198 14.3598 17.8902C14.4302 17.9605 14.5255 18 14.625 18H17.25C17.4489 18 17.6397 17.921 17.7803 17.7803C17.921 17.6397 18 17.4489 18 17.25V12C18 11.7016 17.8815 11.4155 17.6705 11.2045C17.4595 10.9935 17.1734 10.875 16.875 10.875ZM11.625 13.6875H9.75C9.60082 13.6875 9.45774 13.6282 9.35225 13.5227C9.24676 13.4173 9.1875 13.2742 9.1875 13.125C9.1875 12.9758 9.24676 12.8327 9.35225 12.7273C9.45774 12.6218 9.60082 12.5625 9.75 12.5625H11.625C11.7742 12.5625 11.9173 12.6218 12.0227 12.7273C12.1282 12.8327 12.1875 12.9758 12.1875 13.125C12.1875 13.2742 12.1282 13.4173 12.0227 13.5227C11.9173 13.6282 11.7742 13.6875 11.625 13.6875ZM15.75 13.6875H13.875C13.7258 13.6875 13.5827 13.6282 13.4773 13.5227C13.3718 13.4173 13.3125 13.2742 13.3125 13.125C13.3125 12.9758 13.3718 12.8327 13.4773 12.7273C13.5827 12.6218 13.7258 12.5625 13.875 12.5625H15.75C15.8992 12.5625 16.0423 12.6218 16.1477 12.7273C16.2532 12.8327 16.3125 12.9758 16.3125 13.125C16.3125 13.2742 16.2532 13.4173 16.1477 13.5227C16.0423 13.6282 15.8992 13.6875 15.75 13.6875Z" fill="#B3C1E1"/>
</g>
<defs>
<clipPath id="clip0">
<rect width="18" height="18" fill="white"/>
</clipPath>
</defs>
</svg>
