<?xml version="1.0" encoding="utf-8"?>
<!-- Generator: Adobe Illustrator 25.3.1, SVG Export Plug-In . SVG Version: 6.00 Build 0)  -->
<svg version="1.0" id="Warstwa_1" xmlns="http://www.w3.org/2000/svg" xmlns:xlink="http://www.w3.org/1999/xlink" x="0px" y="0px"
	 viewBox="0 0 20 20" enable-background="new 0 0 20 20" xml:space="preserve">
<path fill="#9BA1B4" d="M16.8,2H3.2C1.4,2,0,3.4,0,5.2v6.6c0,1.7,1.3,3.1,3,3.2v3l5-3h8.8c1.8,0,3.2-1.4,3.2-3.2V5.2
	C20,3.4,18.6,2,16.8,2z M9.3,10.8c-0.5,0.6-1.3,0.9-2.1,0.9C5.4,11.7,4,10.3,4,8.5s1.4-3.2,3.2-3.2c0.6,0,1.2,0.2,1.8,0.6
	c0.3,0.2,0.3,0.5,0.1,0.8C8.9,7,8.6,7.1,8.3,6.9C8,6.7,7.6,6.6,7.2,6.6c-1,0-1.9,0.9-1.9,1.9s0.8,1.9,1.9,1.9c0.4,0,0.8-0.2,1.1-0.5
	c0.2-0.2,0.6-0.3,0.9,0C9.5,10.1,9.5,10.5,9.3,10.8z M15.9,10.9c-0.5,0.6-1.3,0.9-2.1,0.9c-1.8,0-3.2-1.4-3.2-3.2
	c0-1.8,1.4-3.2,3.2-3.2c0.7,0,1.3,0.1,1.8,0.5c0.3,0.2,0.4,0.6,0.2,0.9S15.2,7.2,14.9,7c-0.3-0.2-0.7-0.3-1.1-0.3
	c-1,0-1.9,0.9-1.9,1.9s0.8,1.9,1.9,1.9c0.4,0,0.8-0.2,1.1-0.5c0.2-0.3,0.6-0.3,0.9-0.1C16,10.1,16.1,10.5,15.9,10.9z"/>
</svg>
