<svg width="16" height="17" viewBox="0 0 16 17" fill="none" xmlns="http://www.w3.org/2000/svg">
<path d="M14.1543 9.52857V7.47143L15.0686 6.31829C15.223 6.125 15.3156 5.88962 15.3341 5.64292C15.3527 5.39621 15.2964 5.14964 15.1726 4.93543L14.672 4.06914C14.5486 3.85475 14.3633 3.68257 14.1404 3.57512C13.9176 3.46767 13.6675 3.42994 13.4229 3.46686L11.9634 3.68857L10.1783 2.66L9.64572 1.28171C9.55589 1.05163 9.39878 0.85397 9.19491 0.714522C8.99104 0.575074 8.74987 0.500315 8.50287 0.5L7.49944 0.5C7.25244 0.500315 7.01127 0.575074 6.8074 0.714522C6.60353 0.85397 6.44642 1.05163 6.35658 1.28171L5.8183 2.65314L4.03315 3.68171L2.57144 3.46457C2.3268 3.42766 2.07672 3.46539 1.85387 3.57284C1.63102 3.68029 1.44576 3.85246 1.3223 4.06686L0.821725 4.93314C0.697941 5.14735 0.641648 5.39392 0.660202 5.64063C0.678756 5.88734 0.771294 6.12271 0.925725 6.316L1.84572 7.47143V9.52857L0.925725 10.684C0.771294 10.8773 0.678756 11.1127 0.660202 11.3594C0.641648 11.6061 0.697941 11.8526 0.821725 12.0669L1.3223 12.9331C1.44576 13.1475 1.63102 13.3197 1.85387 13.4272C2.07672 13.5346 2.3268 13.5723 2.57144 13.5354L4.03087 13.3137L5.81601 14.3423L6.3543 15.7137C6.44414 15.9438 6.60124 16.1415 6.80511 16.2809C7.00898 16.4204 7.25015 16.4951 7.49715 16.4954H8.4983C8.7453 16.4951 8.98647 16.4204 9.19034 16.2809C9.39421 16.1415 9.55131 15.9438 9.64115 15.7137L10.1794 14.3423L11.9646 13.3137L13.424 13.5354C13.6686 13.5723 13.9187 13.5346 14.1416 13.4272C14.3644 13.3197 14.5497 13.1475 14.6732 12.9331L15.1737 12.0669C15.2975 11.8526 15.3538 11.6061 15.3352 11.3594C15.3167 11.1127 15.2242 10.8773 15.0697 10.684L14.1543 9.52857ZM8.00001 11.0714C7.49143 11.0714 6.99427 10.9206 6.5714 10.6381C6.14853 10.3555 5.81895 9.95391 5.62432 9.48404C5.42969 9.01418 5.37877 8.49715 5.47799 7.99834C5.57721 7.49953 5.82212 7.04135 6.18174 6.68173C6.54136 6.3221 6.99954 6.0772 7.49835 5.97798C7.99716 5.87876 8.51419 5.92968 8.98405 6.12431C9.45392 6.31893 9.85552 6.64852 10.1381 7.07139C10.4206 7.49426 10.5714 7.99142 10.5714 8.5C10.5714 9.18199 10.3005 9.83604 9.81829 10.3183C9.33605 10.8005 8.682 11.0714 8.00001 11.0714Z" fill="#B727EA"/>
</svg>
