<svg width="36" height="36" viewBox="0 0 36 36" fill="none" xmlns="http://www.w3.org/2000/svg">
<circle cx="18" cy="18" r="18" fill="#107969"/>
<g clip-path="url(#clip0_25678_90271)">
<path fill-rule="evenodd" clip-rule="evenodd" d="M19 14.5C19 16.1568 17.6569 17.5 16 17.5C14.3432 17.5 13 16.1568 13 14.5C13 12.8432 14.3432 11.5 16 11.5C17.6569 11.5 19 12.8432 19 14.5ZM16 18.5C13.2386 18.5 11 20.7386 11 23.5C11 23.7761 11.2239 24 11.5 24H20.5C20.7761 24 21 23.7761 21 23.5C21 20.7386 18.7614 18.5 16 18.5ZM24.5001 24H22.1776C22.2248 23.8416 22.2501 23.6737 22.2501 23.5C22.2501 21.4589 21.2717 19.6463 19.7583 18.5057C19.8384 18.5019 19.919 18.5 20.0001 18.5C22.7615 18.5 25.0001 20.7386 25.0001 23.5C25.0001 23.7761 24.7762 24 24.5001 24ZM20.0001 17.5C19.6984 17.5 19.407 17.4555 19.1323 17.3726C19.8264 16.6161 20.2501 15.6076 20.2501 14.5C20.2501 13.3924 19.8264 12.3838 19.1323 11.6274C19.407 11.5445 19.6984 11.5 20.0001 11.5C21.6569 11.5 23.0001 12.8432 23.0001 14.5C23.0001 16.1568 21.6569 17.5 20.0001 17.5Z" fill="white"/>
</g>
<defs>
<clipPath id="clip0_25678_90271">
<rect width="14" height="13" fill="white" transform="translate(11 11)"/>
</clipPath>
</defs>
</svg>
