<svg width="16" height="15" viewBox="0 0 16 15" fill="none" xmlns="http://www.w3.org/2000/svg">
<path fill-rule="evenodd" clip-rule="evenodd" d="M9.14286 4.14341C9.14286 6.03696 7.60783 7.57199 5.71429 7.57199C3.82074 7.57199 2.28571 6.03696 2.28571 4.14341C2.28571 2.24987 3.82074 0.714844 5.71429 0.714844C7.60783 0.714844 9.14286 2.24987 9.14286 4.14341ZM5.71429 8.71481C2.55838 8.71481 0 11.2732 0 14.4291C0 14.7446 0.255838 15.0005 0.571429 15.0005H10.8571C11.1727 15.0005 11.4286 14.7446 11.4286 14.4291C11.4286 11.2732 8.87019 8.71481 5.71429 8.71481ZM15.4287 15.0005H12.7744C12.8283 14.8195 12.8573 14.6276 12.8573 14.4291C12.8573 12.0964 11.7391 10.0249 10.0095 8.72137C10.1011 8.71702 10.1932 8.71481 10.2858 8.71481C13.4417 8.71481 16.0001 11.2732 16.0001 14.4291C16.0001 14.7446 15.7442 15.0005 15.4287 15.0005ZM10.2858 7.57199C9.94097 7.57199 9.60804 7.52107 9.29409 7.42636C10.0873 6.56187 10.5715 5.40919 10.5715 4.14341C10.5715 2.87764 10.0873 1.72496 9.29408 0.860455C9.60804 0.765747 9.94097 0.714844 10.2858 0.714844C12.1793 0.714844 13.7144 2.24987 13.7144 4.14341C13.7144 6.03696 12.1793 7.57199 10.2858 7.57199Z" fill="#8C94A6"/>
</svg>
