<svg width="20" height="20" viewBox="0 0 20 20" fill="none" xmlns="http://www.w3.org/2000/svg">
<path d="M9.3056 15.9474C7.48326 15.9474 6 14.4418 6 12.592V4.5H4.63894C3.45903 4.5 2.5 5.47331 2.5 6.67096V17.3289C2.5 18.5266 3.45903 19.5 4.63894 19.5H14.3611C15.541 19.5 16.5 18.5266 16.5 17.3289V15.9474H9.3056Z" fill="#BDC7D6"/>
<path d="M19.5 2.63894C19.5 1.45746 18.5767 0.5 17.4376 0.5H9.56255C8.42327 0.5 7.5 1.45746 7.5 2.63894V12.3611C7.5 13.5425 8.42327 14.5 9.56255 14.5H17.4376C18.5767 14.5 19.5 13.5425 19.5 12.3611V2.63894Z" fill="#BDC7D6"/>
</svg>
