<svg width="18" height="18" viewBox="0 0 18 18" fill="none" xmlns="http://www.w3.org/2000/svg">
<g id="Frame" clip-path="url(#clip0_26073_89364)">
<path id="Vector" fill-rule="evenodd" clip-rule="evenodd" d="M2.625 1.5C2.52554 1.5 2.43016 1.53951 2.35984 1.60984C2.28951 1.68016 2.25 1.77554 2.25 1.875V12.375C2.25 12.4745 2.28951 12.5698 2.35984 12.6402C2.43017 12.7105 2.52554 12.75 2.625 12.75H5.25V5.625C5.25 5.12772 5.44754 4.6508 5.79917 4.29917C6.1508 3.94754 6.62772 3.75 7.125 3.75H11.1269L8.98657 1.60975C8.91637 1.53964 8.82097 1.50006 8.72175 1.5H2.625ZM12.7292 3.75C12.67 3.35592 12.4862 2.98818 12.2011 2.70292L10.0469 0.54875C9.6954 0.197477 9.2187 0.000106126 8.72175 0H2.625C2.12772 0 1.6508 0.197544 1.29917 0.549175C0.947542 0.900802 0.75 1.37772 0.75 1.875V12.375C0.75 12.8722 0.947542 13.3492 1.29917 13.7008C1.6508 14.0524 2.12772 14.25 2.625 14.25H5.25V16.125C5.25 16.6222 5.44754 17.0992 5.79917 17.4508C6.1508 17.8025 6.62772 18 7.125 18H15.375C15.8722 18 16.3492 17.8025 16.7008 17.4508C17.0525 17.0992 17.25 16.6222 17.25 16.125V7.7781C17.2499 7.28116 17.0524 6.80442 16.7011 6.45292L14.5469 4.29875C14.1954 3.94747 13.7187 3.7501 13.2218 3.75H12.7292ZM12 5.25H7.125C7.02554 5.25 6.93016 5.28951 6.85984 5.35984C6.78951 5.43016 6.75 5.52554 6.75 5.625V13.5V16.125C6.75 16.2244 6.78951 16.3198 6.85984 16.3902C6.93016 16.4605 7.02554 16.5 7.125 16.5H15.375C15.4745 16.5 15.5698 16.4605 15.6402 16.3902C15.7105 16.3198 15.75 16.2244 15.75 16.125V7.7784C15.7499 7.67917 15.7106 7.58385 15.6404 7.51357L13.4866 5.35975C13.4163 5.28953 13.321 5.25006 13.2218 5.25H12Z" fill="#B727EA"/>
<path id="Vector_2" fill-rule="evenodd" clip-rule="evenodd" d="M8.25 8.25C8.25 7.83578 8.58578 7.5 9 7.5H11.625C12.0392 7.5 12.375 7.83578 12.375 8.25C12.375 8.66422 12.0392 9 11.625 9H9C8.58578 9 8.25 8.66422 8.25 8.25Z" fill="#B727EA"/>
<path id="Vector_3" fill-rule="evenodd" clip-rule="evenodd" d="M8.25 11.25C8.25 10.8358 8.58578 10.5 9 10.5H13.5C13.9142 10.5 14.25 10.8358 14.25 11.25C14.25 11.6642 13.9142 12 13.5 12H9C8.58578 12 8.25 11.6642 8.25 11.25Z" fill="#B727EA"/>
<path id="Vector_4" fill-rule="evenodd" clip-rule="evenodd" d="M8.25 14.25C8.25 13.8358 8.58578 13.5 9 13.5H13.5C13.9142 13.5 14.25 13.8358 14.25 14.25C14.25 14.6642 13.9142 15 13.5 15H9C8.58578 15 8.25 14.6642 8.25 14.25Z" fill="#B727EA"/>
</g>
<defs>
<clipPath id="clip0_26073_89364">
<rect width="18" height="18" fill="white"/>
</clipPath>
</defs>
</svg>
