<svg width="18" height="18" viewBox="0 0 18 18" fill="none" xmlns="http://www.w3.org/2000/svg">
<g>
<path d="M15 14.25V7.5C15 7.30109 14.921 7.11032 14.7803 6.96967C14.6397 6.82902 14.4489 6.75 14.25 6.75H0.75C0.551088 6.75 0.360322 6.82902 0.21967 6.96967C0.0790176 7.11032 0 7.30109 0 7.5L0 14.25C0 14.4489 0.0790176 14.6397 0.21967 14.7803C0.360322 14.921 0.551088 15 0.75 15H14.25C14.4489 15 14.6397 14.921 14.7803 14.7803C14.921 14.6397 15 14.4489 15 14.25ZM4.875 12.657C4.99932 12.657 5.11855 12.7064 5.20646 12.7943C5.29436 12.8822 5.34375 13.0014 5.34375 13.1257C5.34375 13.2501 5.29436 13.3693 5.20646 13.4572C5.11855 13.5451 4.99932 13.5945 4.875 13.5945C4.15394 13.5945 3.46242 13.3081 2.95255 12.7982C2.44269 12.2883 2.15625 11.5968 2.15625 10.8758C2.15625 10.1547 2.44269 9.46317 2.95255 8.9533C3.46242 8.44344 4.15394 8.157 4.875 8.157C4.99932 8.157 5.11855 8.20639 5.20646 8.29429C5.29436 8.3822 5.34375 8.50143 5.34375 8.62575C5.34375 8.75007 5.29436 8.8693 5.20646 8.95721C5.11855 9.04511 4.99932 9.0945 4.875 9.0945C4.40258 9.0945 3.94952 9.28217 3.61547 9.61622C3.28142 9.95026 3.09375 10.4033 3.09375 10.8758C3.09375 11.3482 3.28142 11.8012 3.61547 12.1353C3.94952 12.4693 4.40258 12.657 4.875 12.657ZM7.07025 10.026L8.45025 10.9455C8.70844 11.1177 8.90438 11.3684 9.00911 11.6605C9.11384 11.9527 9.1218 12.2707 9.03183 12.5677C8.94185 12.8648 8.7587 13.1249 8.50946 13.3098C8.26021 13.4947 7.95809 13.5945 7.64775 13.5945H6.375C6.25068 13.5945 6.13145 13.5451 6.04354 13.4572C5.95564 13.3693 5.90625 13.2501 5.90625 13.1257C5.90625 13.0014 5.95564 12.8822 6.04354 12.7943C6.13145 12.7064 6.25068 12.657 6.375 12.657H7.65C7.7591 12.657 7.8653 12.6218 7.9529 12.5568C8.0405 12.4917 8.10486 12.4003 8.13648 12.2958C8.16809 12.1914 8.16528 12.0796 8.12846 11.9769C8.09164 11.8742 8.02276 11.7861 7.932 11.7255L6.552 10.806C6.29413 10.634 6.09834 10.3837 5.99351 10.092C5.88868 9.80035 5.88036 9.48269 5.96976 9.18591C6.05917 8.88912 6.24157 8.62892 6.49008 8.44367C6.73859 8.25842 7.04004 8.15792 7.35 8.157H8.625C8.74932 8.157 8.86855 8.20639 8.95646 8.29429C9.04436 8.3822 9.09375 8.50143 9.09375 8.62575C9.09375 8.75007 9.04436 8.8693 8.95646 8.95721C8.86855 9.04511 8.74932 9.0945 8.625 9.0945H7.35C7.2409 9.09455 7.1347 9.12968 7.0471 9.19472C6.9595 9.25975 6.89514 9.35124 6.86352 9.45566C6.83191 9.56008 6.83472 9.67191 6.87154 9.77461C6.90836 9.87731 6.97724 9.96545 7.068 10.026H7.07025ZM12.8453 9.75075C12.842 11.069 12.4141 12.351 11.625 13.407C11.5813 13.4652 11.5247 13.5125 11.4596 13.545C11.3945 13.5776 11.3228 13.5945 11.25 13.5945C11.1772 13.5945 11.1055 13.5776 11.0404 13.545C10.9753 13.5125 10.9187 13.4652 10.875 13.407C10.0863 12.3507 9.65894 11.0683 9.65625 9.75V8.625C9.65625 8.50068 9.70564 8.38145 9.79354 8.29354C9.88145 8.20564 10.0007 8.15625 10.125 8.15625C10.2493 8.15625 10.3685 8.20564 10.4565 8.29354C10.5444 8.38145 10.5938 8.50068 10.5938 8.625V9.75C10.5954 10.5196 10.768 11.2791 11.0992 11.9738C11.1159 11.9977 11.1379 12.0174 11.1634 12.0313C11.189 12.0453 11.2175 12.0531 11.2466 12.0541C11.2757 12.0551 11.3047 12.0493 11.3312 12.0372C11.3577 12.0251 11.381 12.0069 11.3993 11.9843C11.7328 11.2866 11.906 10.5232 11.9062 9.75V8.625C11.9062 8.50068 11.9556 8.38145 12.0435 8.29354C12.1315 8.20564 12.2507 8.15625 12.375 8.15625C12.4993 8.15625 12.6185 8.20564 12.7065 8.29354C12.7944 8.38145 12.8438 8.50068 12.8438 8.625L12.8453 9.75075Z" fill="#C866EA"/>
<path d="M17.7803 4.281L13.7197 0.2205C13.6502 0.150716 13.5675 0.0953235 13.4766 0.0574891C13.3856 0.0196546 13.288 0.000119481 13.1895 0L4.5 0C4.10218 0 3.72064 0.158035 3.43934 0.43934C3.15804 0.720644 3 1.10218 3 1.5V5.8125C3 5.86223 3.01975 5.90992 3.05492 5.94508C3.09008 5.98025 3.13777 6 3.1875 6H4.3125C4.3621 6 4.40968 5.98035 4.44482 5.94535C4.47996 5.91035 4.4998 5.86285 4.5 5.81325V1.875C4.5 1.77554 4.53951 1.68016 4.60984 1.60984C4.68016 1.53951 4.77554 1.5 4.875 1.5H12.5625C12.6122 1.5 12.6599 1.51975 12.6951 1.55492C12.7302 1.59008 12.75 1.63777 12.75 1.6875V3.75C12.75 4.14782 12.908 4.52936 13.1893 4.81066C13.4706 5.09196 13.8522 5.25 14.25 5.25H16.3125C16.3622 5.25 16.4099 5.26975 16.4451 5.30492C16.4802 5.34008 16.5 5.38777 16.5 5.4375V16.125C16.5 16.2245 16.4605 16.3198 16.3902 16.3902C16.3198 16.4605 16.2245 16.5 16.125 16.5H4.6875C4.63777 16.5 4.59008 16.4802 4.55492 16.4451C4.51975 16.4099 4.5 16.3622 4.5 16.3125V15.9375C4.5 15.8878 4.48025 15.8401 4.44508 15.8049C4.40992 15.7698 4.36223 15.75 4.3125 15.75H3.1875C3.13777 15.75 3.09008 15.7698 3.05492 15.8049C3.01975 15.8401 3 15.8878 3 15.9375V16.5C3 16.8978 3.15804 17.2794 3.43934 17.5607C3.72064 17.842 4.10218 18 4.5 18H16.5C16.8978 18 17.2794 17.842 17.5607 17.5607C17.842 17.2794 18 16.8978 18 16.5V4.81125C18 4.61235 17.9209 4.42162 17.7803 4.281Z" fill="#C866EA"/>
</g>
<defs>
<clipPath>
<rect width="18" height="18" fill="white"/>
</clipPath>
</defs>
</svg>
