<svg width="16" height="16" viewBox="0 0 16 16" fill="none" xmlns="http://www.w3.org/2000/svg">
<path d="M13.3333 12.6667V6.66667C13.3333 6.48986 13.2631 6.32029 13.1381 6.19526C13.013 6.07024 12.8435 6 12.6667 6H0.666667C0.489856 6 0.320286 6.07024 0.195262 6.19526C0.0702379 6.32029 0 6.48986 0 6.66667L0 12.6667C0 12.8435 0.0702379 13.013 0.195262 13.1381C0.320286 13.2631 0.489856 13.3333 0.666667 13.3333H12.6667C12.8435 13.3333 13.013 13.2631 13.1381 13.1381C13.2631 13.013 13.3333 12.8435 13.3333 12.6667ZM4.33333 11.2507C4.44384 11.2507 4.54982 11.2946 4.62796 11.3727C4.7061 11.4508 4.75 11.5568 4.75 11.6673C4.75 11.7778 4.7061 11.8838 4.62796 11.962C4.54982 12.0401 4.44384 12.084 4.33333 12.084C3.69239 12.084 3.0777 11.8294 2.62449 11.3762C2.17128 10.923 1.91667 10.3083 1.91667 9.66733C1.91667 9.02639 2.17128 8.4117 2.62449 7.95849C3.0777 7.50528 3.69239 7.25067 4.33333 7.25067C4.44384 7.25067 4.54982 7.29457 4.62796 7.37271C4.7061 7.45085 4.75 7.55683 4.75 7.66733C4.75 7.77784 4.7061 7.88382 4.62796 7.96196C4.54982 8.0401 4.44384 8.084 4.33333 8.084C3.91341 8.084 3.51068 8.25081 3.21375 8.54775C2.91681 8.84468 2.75 9.24741 2.75 9.66733C2.75 10.0873 2.91681 10.49 3.21375 10.7869C3.51068 11.0839 3.91341 11.2507 4.33333 11.2507ZM6.28467 8.912L7.51133 9.72933C7.74083 9.88239 7.915 10.1052 8.0081 10.3649C8.10119 10.6246 8.10827 10.9073 8.02829 11.1713C7.94831 11.4353 7.78551 11.6666 7.56396 11.831C7.34241 11.9953 7.07386 12.084 6.798 12.084H5.66667C5.55616 12.084 5.45018 12.0401 5.37204 11.962C5.2939 11.8838 5.25 11.7778 5.25 11.6673C5.25 11.5568 5.2939 11.4508 5.37204 11.3727C5.45018 11.2946 5.55616 11.2507 5.66667 11.2507H6.8C6.89698 11.2506 6.99138 11.2194 7.06924 11.1616C7.14711 11.1038 7.20432 11.0225 7.23242 10.9296C7.26052 10.8368 7.25802 10.7374 7.22529 10.6461C7.19256 10.5548 7.13134 10.4765 7.05067 10.4227L5.824 9.60533C5.59478 9.45246 5.42075 9.22999 5.32757 8.9707C5.23439 8.71142 5.22698 8.42906 5.30646 8.16525C5.38593 7.90144 5.54806 7.67015 5.76896 7.50548C5.98985 7.34082 6.25782 7.25149 6.53333 7.25067H7.66667C7.77717 7.25067 7.88315 7.29457 7.96129 7.37271C8.03943 7.45085 8.08333 7.55683 8.08333 7.66733C8.08333 7.77784 8.03943 7.88382 7.96129 7.96196C7.88315 8.0401 7.77717 8.084 7.66667 8.084H6.53333C6.43635 8.08404 6.34196 8.11527 6.26409 8.17308C6.18622 8.23089 6.12901 8.31221 6.10091 8.40503C6.07281 8.49785 6.07531 8.59725 6.10804 8.68854C6.14077 8.77983 6.20199 8.85818 6.28267 8.912H6.28467ZM11.418 8.66733C11.4151 9.83908 11.0347 10.9787 10.3333 11.9173C10.2945 11.9691 10.2442 12.0111 10.1863 12.04C10.1285 12.0689 10.0647 12.084 10 12.084C9.93531 12.084 9.87152 12.0689 9.81366 12.04C9.7558 12.0111 9.70548 11.9691 9.66667 11.9173C8.9656 10.9784 8.58572 9.83849 8.58333 8.66667V7.66667C8.58333 7.55616 8.62723 7.45018 8.70537 7.37204C8.78351 7.2939 8.88949 7.25 9 7.25C9.11051 7.25 9.21649 7.2939 9.29463 7.37204C9.37277 7.45018 9.41667 7.55616 9.41667 7.66667V8.66667C9.41811 9.35071 9.57159 10.0259 9.866 10.6433C9.88079 10.6646 9.90032 10.6821 9.92306 10.6945C9.9458 10.7069 9.97112 10.7138 9.997 10.7147C10.0229 10.7156 10.0486 10.7105 10.0722 10.6997C10.0957 10.689 10.1164 10.6728 10.1327 10.6527C10.4291 10.0326 10.5831 9.35399 10.5833 8.66667V7.66667C10.5833 7.55616 10.6272 7.45018 10.7054 7.37204C10.7835 7.2939 10.8895 7.25 11 7.25C11.1105 7.25 11.2165 7.2939 11.2946 7.37204C11.3728 7.45018 11.4167 7.55616 11.4167 7.66667L11.418 8.66733Z" fill="#BDC7D6"/>
<path d="M15.8046 3.80533L12.1953 0.196C12.1335 0.133969 12.06 0.084732 11.9791 0.0511014C11.8983 0.0174708 11.8115 0.000106206 11.724 0L3.99996 0C3.64634 0 3.3072 0.140476 3.05715 0.390524C2.8071 0.640573 2.66663 0.979711 2.66663 1.33333V5.16667C2.66663 5.21087 2.68419 5.25326 2.71544 5.28452C2.7467 5.31577 2.78909 5.33333 2.83329 5.33333H3.83329C3.87738 5.33333 3.91967 5.31587 3.95091 5.28475C3.98215 5.25364 3.99978 5.21142 3.99996 5.16733V1.66667C3.99996 1.57826 4.03508 1.49348 4.09759 1.43096C4.1601 1.36845 4.24489 1.33333 4.33329 1.33333H11.1666C11.2108 1.33333 11.2532 1.35089 11.2845 1.38215C11.3157 1.41341 11.3333 1.4558 11.3333 1.5V3.33333C11.3333 3.68696 11.4738 4.02609 11.7238 4.27614C11.9739 4.52619 12.313 4.66667 12.6666 4.66667H14.5C14.5442 4.66667 14.5866 4.68423 14.6178 4.71548C14.6491 4.74674 14.6666 4.78913 14.6666 4.83333V14.3333C14.6666 14.4217 14.6315 14.5065 14.569 14.569C14.5065 14.6315 14.4217 14.6667 14.3333 14.6667H4.16663C4.12242 14.6667 4.08003 14.6491 4.04877 14.6179C4.01752 14.5866 3.99996 14.5442 3.99996 14.5V14.1667C3.99996 14.1225 3.9824 14.0801 3.95114 14.0488C3.91989 14.0176 3.8775 14 3.83329 14H2.83329C2.78909 14 2.7467 14.0176 2.71544 14.0488C2.68419 14.0801 2.66663 14.1225 2.66663 14.1667V14.6667C2.66663 15.0203 2.8071 15.3594 3.05715 15.6095C3.3072 15.8595 3.64634 16 3.99996 16H14.6666C15.0202 16 15.3594 15.8595 15.6094 15.6095C15.8595 15.3594 16 15.0203 16 14.6667V4.27667C15.9999 4.09987 15.9297 3.93033 15.8046 3.80533Z" fill="#BDC7D6"/>
</svg>
