<svg width="18" height="19" viewBox="0 0 18 19" fill="none" xmlns="http://www.w3.org/2000/svg">
<g>
<path d="M15.366 3.13627C14.1076 1.87907 12.5048 1.02316 10.76 0.676752C9.01531 0.33034 7.20705 0.508972 5.56383 1.19007C3.9206 1.87116 2.51619 3.02414 1.52813 4.50326C0.54006 5.98238 0.0126953 7.72124 0.0126953 9.50002C0.0126953 11.2788 0.54006 13.0177 1.52813 14.4968C2.51619 15.9759 3.9206 17.1289 5.56383 17.81C7.20705 18.4911 9.01531 18.6697 10.76 18.3233C12.5048 17.9769 14.1076 17.121 15.366 15.8638C17.0511 14.1746 17.9975 11.886 17.9975 9.50002C17.9975 7.11403 17.0511 4.82544 15.366 3.13627ZM12.5318 11.9593C12.6598 12.1019 12.7284 12.2881 12.7234 12.4797C12.7185 12.6713 12.6404 12.8537 12.5051 12.9895C12.3699 13.1253 12.1878 13.2042 11.9962 13.21C11.8047 13.2157 11.6182 13.148 11.475 13.0205L9.1425 10.688C9.10713 10.6531 9.05944 10.6336 9.00975 10.6336C8.96006 10.6336 8.91237 10.6531 8.877 10.688L6.54525 13.0205C6.4028 13.158 6.21257 13.2348 6.01463 13.2348C5.81668 13.2348 5.62646 13.158 5.484 13.0205C5.41427 12.9509 5.35895 12.8681 5.32121 12.7771C5.28346 12.6861 5.26404 12.5885 5.26404 12.4899C5.26404 12.3913 5.28346 12.2937 5.32121 12.2027C5.35895 12.1116 5.41427 12.0289 5.484 11.9593L7.8165 9.62752C7.83394 9.61017 7.84778 9.58954 7.85722 9.56682C7.86666 9.54411 7.87152 9.51975 7.87152 9.49515C7.87152 9.47054 7.86666 9.44619 7.85722 9.42347C7.84778 9.40075 7.83394 9.38012 7.8165 9.36277L5.484 7.03027C5.35447 6.88783 5.28468 6.70104 5.28908 6.50856C5.29347 6.31608 5.37172 6.13267 5.50761 5.99629C5.64351 5.85991 5.82664 5.78102 6.0191 5.77594C6.21156 5.77087 6.39861 5.84 6.5415 5.96902L8.87325 8.30152C8.89067 8.31898 8.91136 8.33284 8.93414 8.34229C8.95692 8.35174 8.98134 8.35661 9.006 8.35661C9.03066 8.35661 9.05509 8.35174 9.07786 8.34229C9.10064 8.33284 9.12134 8.31898 9.13875 8.30152L11.4713 5.96902C11.612 5.82839 11.8028 5.74942 12.0018 5.74949C12.2007 5.74956 12.3915 5.82866 12.5321 5.9694C12.6728 6.11013 12.7517 6.30096 12.7517 6.49991C12.7516 6.69886 12.6725 6.88964 12.5318 7.03027L10.1993 9.36277C10.1642 9.39792 10.1445 9.44552 10.1445 9.49515C10.1445 9.54477 10.1642 9.59237 10.1993 9.62752L12.5318 11.9593Z" fill="#BDC7D6"/>
</g>
<defs>
<clipPath>
<rect width="18" height="18" fill="white" transform="translate(0 0.5)"/>
</clipPath>
</defs>
</svg>
