<svg width="24" height="24" viewBox="0 0 24 24" fill="none" xmlns="http://www.w3.org/2000/svg">
<g>
<path d="M23.5 2C23.5 1.46957 23.2893 0.960859 22.9142 0.585786C22.5391 0.210714 22.0304 0 21.5 0L2.5 0C1.96957 0 1.46086 0.210714 1.08579 0.585786C0.710714 0.960859 0.5 1.46957 0.5 2V14C0.5 14.5304 0.710714 15.0391 1.08579 15.4142C1.46086 15.7893 1.96957 16 2.5 16H21.5C22.0304 16 22.5391 15.7893 22.9142 15.4142C23.2893 15.0391 23.5 14.5304 23.5 14V2ZM21.5 13.5C21.5 13.6326 21.4473 13.7598 21.3536 13.8536C21.2598 13.9473 21.1326 14 21 14H3C2.86739 14 2.74021 13.9473 2.64645 13.8536C2.55268 13.7598 2.5 13.6326 2.5 13.5V2.5C2.5 2.36739 2.55268 2.24021 2.64645 2.14645C2.74021 2.05268 2.86739 2 3 2H21C21.1326 2 21.2598 2.05268 21.3536 2.14645C21.4473 2.24021 21.5 2.36739 21.5 2.5V13.5Z" fill="#ABBBD1"/>
<path d="M22.3271 22.746L21.0801 18.258C21.0259 18.0417 20.9011 17.8498 20.7253 17.7126C20.5496 17.5755 20.333 17.501 20.1101 17.501H3.8911C3.67011 17.5007 3.45526 17.5737 3.28013 17.7085C3.105 17.8433 2.97945 18.0323 2.9231 18.246L1.6701 22.759C1.6335 22.9064 1.63095 23.0602 1.66265 23.2087C1.69435 23.3572 1.75946 23.4966 1.85305 23.6162C1.94664 23.7358 2.06624 23.8325 2.20279 23.899C2.33933 23.9655 2.48923 24 2.6411 24H21.3601C21.512 23.9992 21.6617 23.9642 21.7981 23.8976C21.9346 23.8309 22.0542 23.7343 22.1481 23.615C22.2419 23.4955 22.3071 23.3562 22.3386 23.2076C22.3702 23.0591 22.3672 22.9052 22.3301 22.758L22.3271 22.746ZM16.5001 21.751C16.5001 21.8836 16.4474 22.0108 16.3537 22.1045C16.2599 22.1983 16.1327 22.251 16.0001 22.251H8.0001C7.86749 22.251 7.74031 22.1983 7.64655 22.1045C7.55278 22.0108 7.5001 21.8836 7.5001 21.751C7.5001 21.6184 7.55278 21.4912 7.64655 21.3974C7.74031 21.3037 7.86749 21.251 8.0001 21.251H16.0001C16.1327 21.251 16.2599 21.3037 16.3537 21.3974C16.4474 21.4912 16.5001 21.6184 16.5001 21.751Z" fill="#ABBBD1"/>
</g>
<defs>
<clipPath>
<rect width="24" height="24" fill="white"/>
</clipPath>
</defs>
</svg>
