<svg width="14" height="14" viewBox="0 0 14 14" fill="none" xmlns="http://www.w3.org/2000/svg">
<path d="M9.625 2.875C9.625 3.27282 9.78304 3.65436 10.0643 3.93566C10.3456 4.21696 10.7272 4.375 11.125 4.375C11.5228 4.375 11.9044 4.21696 12.1857 3.93566C12.467 3.65436 12.625 3.27282 12.625 2.875C12.625 2.47718 12.467 2.09564 12.1857 1.81434C11.9044 1.53304 11.5228 1.375 11.125 1.375C10.7272 1.375 10.3456 1.53304 10.0643 1.81434C9.78304 2.09564 9.625 2.47718 9.625 2.875V2.875Z" stroke="#BFC7D5" stroke-linecap="round" stroke-linejoin="round"/>
<path d="M3.40767 1.50928C3.42811 1.46903 3.4593 1.43522 3.49778 1.4116C3.53626 1.38799 3.58052 1.37549 3.62567 1.37549C3.67082 1.37549 3.71508 1.38799 3.75356 1.4116C3.79204 1.43522 3.82323 1.46903 3.84367 1.50928L4.35067 2.53028C4.3682 2.56531 4.39397 2.59557 4.42575 2.61847C4.45753 2.64137 4.49439 2.65623 4.53317 2.66178L5.66967 2.82578C5.71403 2.83215 5.75575 2.85072 5.79018 2.87941C5.82461 2.9081 5.8504 2.94579 5.86467 2.98828C5.87858 3.0306 5.88029 3.07599 5.86959 3.11923C5.85889 3.16248 5.83621 3.20183 5.80417 3.23278L4.97917 4.03278C4.95146 4.05964 4.93071 4.09284 4.91869 4.12951C4.90666 4.16618 4.90374 4.20523 4.91017 4.24328L5.10467 5.37078C5.11223 5.41496 5.10713 5.46038 5.08997 5.50179C5.0728 5.5432 5.04427 5.57891 5.00767 5.60478C4.97079 5.6309 4.92741 5.64632 4.88232 5.64932C4.83722 5.65232 4.79218 5.64279 4.75217 5.62178L3.73917 5.09278C3.70419 5.0743 3.66523 5.06464 3.62567 5.06464C3.58611 5.06464 3.54715 5.0743 3.51217 5.09278L2.50067 5.62178C2.46066 5.64279 2.41561 5.65232 2.37052 5.64932C2.32543 5.64632 2.28205 5.6309 2.24517 5.60478C2.20857 5.57891 2.18003 5.5432 2.16287 5.50179C2.1457 5.46038 2.14061 5.41496 2.14817 5.37078L2.34267 4.24328C2.34909 4.20523 2.34617 4.16618 2.33415 4.12951C2.32213 4.09284 2.30137 4.05964 2.27367 4.03278L1.45067 3.23278C1.41862 3.20183 1.39595 3.16248 1.38525 3.11923C1.37455 3.07599 1.37625 3.0306 1.39017 2.98828C1.40439 2.94576 1.43016 2.90804 1.4646 2.87934C1.49904 2.85064 1.54079 2.8321 1.58517 2.82578L2.72117 2.66178C2.75941 2.65578 2.79566 2.64071 2.82689 2.61783C2.85812 2.59496 2.88342 2.56494 2.90067 2.53028L3.40767 1.50928Z" stroke="#BFC7D5" stroke-linecap="round" stroke-linejoin="round"/>
<path d="M11.125 1.375H5.875" stroke="#BFC7D5" stroke-linecap="round" stroke-linejoin="round"/>
<path d="M9.625 2.875V10.375C9.625 10.9717 9.38795 11.544 8.96599 11.966C8.54403 12.3879 7.97174 12.625 7.375 12.625H1.375C1.97174 12.625 2.54403 12.3879 2.96599 11.966C3.38795 11.544 3.625 10.9717 3.625 10.375V7.375" stroke="#BFC7D5" stroke-linecap="round" stroke-linejoin="round"/>
<path d="M5.125 9.625H8.125" stroke="#BFC7D5" stroke-linecap="round" stroke-linejoin="round"/>
<path d="M5.125 8.125H8.125" stroke="#BFC7D5" stroke-linecap="round" stroke-linejoin="round"/>
<path d="M6.625 6.625H8.125" stroke="#BFC7D5" stroke-linecap="round" stroke-linejoin="round"/>
<path d="M6.625 5.125H8.125" stroke="#BFC7D5" stroke-linecap="round" stroke-linejoin="round"/>
</svg>
