<svg width="16" height="12" viewBox="0 0 16 12" fill="none" xmlns="http://www.w3.org/2000/svg">
<path d="M14.3568 6.0082C14.3836 5.87381 14.3981 5.73724 14.4 5.6002C14.3998 5.03234 14.1983 4.48295 13.8312 4.04967C13.4641 3.6164 12.9553 3.32731 12.3952 3.2338C11.9415 2.11827 11.1138 1.19531 10.0542 0.623112C8.9945 0.0509184 7.7688 -0.134868 6.58717 0.0975994C5.40554 0.330067 4.34157 0.96631 3.57763 1.89727C2.81369 2.82823 2.39736 3.99593 2.4 5.2002C2.40012 5.36542 2.40973 5.53049 2.4288 5.6946C1.67049 5.88299 1.00731 6.34232 0.564317 6.98596C0.121324 7.62961 -0.0708643 8.4131 0.0239924 9.18868C0.118849 9.96426 0.494196 10.6783 1.07925 11.1963C1.66431 11.7142 2.41864 12.0001 3.2 12.0002H12.8C13.5074 11.9987 14.1944 11.7628 14.7536 11.3294C15.3127 10.8961 15.7125 10.2896 15.8904 9.6049C16.0683 8.92019 16.0143 8.19583 15.7368 7.54508C15.4593 6.89433 14.974 6.35387 14.3568 6.0082ZM10.1664 7.7602L8.5664 9.3602C8.49209 9.4347 8.40381 9.49381 8.30661 9.53414C8.20942 9.57447 8.10523 9.59523 8 9.59523C7.89477 9.59523 7.79058 9.57447 7.69339 9.53414C7.59619 9.49381 7.50791 9.4347 7.4336 9.3602L5.8336 7.7602C5.72361 7.64799 5.64909 7.50588 5.61936 7.35159C5.58962 7.1973 5.60598 7.03767 5.66639 6.89262C5.7268 6.74757 5.82858 6.62352 5.95905 6.53595C6.08951 6.44838 6.24288 6.40117 6.4 6.4002H7.2V3.2002C7.2 2.98803 7.28429 2.78455 7.43432 2.63452C7.58434 2.48449 7.78783 2.4002 8 2.4002C8.21217 2.4002 8.41566 2.48449 8.56569 2.63452C8.71571 2.78455 8.8 2.98803 8.8 3.2002V6.4002H9.6C9.75843 6.39992 9.91338 6.44669 10.0452 6.53457C10.177 6.62246 10.2798 6.7475 10.3405 6.89386C10.4011 7.04022 10.417 7.2013 10.386 7.35667C10.355 7.51204 10.2786 7.65472 10.1664 7.7666V7.7602Z" fill="#107969"/>
</svg>
