<svg width="17" height="17" viewBox="0 0 17 17" fill="none" xmlns="http://www.w3.org/2000/svg">
<path d="M8.55567 0.737305C6.97342 0.737305 5.4267 1.20699 4.11111 2.08698C2.79551 2.96696 1.77013 4.21771 1.16463 5.68107C0.55913 7.14443 0.400704 8.75466 0.709385 10.3082C1.01807 11.8616 1.77999 13.2886 2.89881 14.4086C4.01763 15.5286 5.4431 16.2914 6.99495 16.6004C8.54679 16.9094 10.1553 16.7508 11.6171 16.1446C13.0789 15.5385 14.3284 14.512 15.2074 13.1951C16.0865 11.8781 16.5557 10.3297 16.5557 8.74578C16.5534 6.62251 15.7098 4.58685 14.21 3.08547C12.7102 1.58409 10.6767 0.739601 8.55567 0.737305V0.737305ZM11.721 10.5237L9.05433 13.5268C8.99177 13.5979 8.91483 13.6547 8.82863 13.6937C8.74242 13.7326 8.64892 13.7528 8.55433 13.7528C8.45975 13.7528 8.36625 13.7326 8.28004 13.6937C8.19384 13.6547 8.1169 13.5979 8.05433 13.5268L5.38767 10.5237C5.30219 10.4273 5.2464 10.3082 5.22706 10.1808C5.20771 10.0534 5.22563 9.92312 5.27864 9.80568C5.33166 9.68825 5.4175 9.58869 5.52582 9.51903C5.63413 9.44938 5.76027 9.4126 5.889 9.41315H7.389C7.4332 9.41315 7.4756 9.39558 7.50685 9.36429C7.53811 9.333 7.55567 9.29056 7.55567 9.24631V4.40786C7.55567 4.14236 7.66102 3.88774 7.84856 3.7C8.0361 3.51226 8.29045 3.4068 8.55567 3.4068C8.82088 3.4068 9.07524 3.51226 9.26278 3.7C9.45031 3.88774 9.55567 4.14236 9.55567 4.40786V9.24631C9.55567 9.29056 9.57323 9.333 9.60448 9.36429C9.63574 9.39558 9.67813 9.41315 9.72233 9.41315H11.2223C11.3508 9.41312 11.4766 9.45027 11.5845 9.52012C11.6924 9.58998 11.7779 9.68957 11.8306 9.8069C11.8833 9.92424 11.9009 10.0543 11.8815 10.1815C11.8621 10.3086 11.8063 10.4275 11.721 10.5237Z" fill="#C866EA"/>
</svg>
