<svg width="18" height="18" viewBox="0 0 18 18" fill="none" xmlns="http://www.w3.org/2000/svg">
<g clip-path="url(#clip0)">
<path d="M9 6.375H14.25C14.4489 6.375 14.6397 6.29598 14.7803 6.15533C14.921 6.01468 15 5.82391 15 5.625C15 5.42609 14.921 5.23532 14.7803 5.09467C14.6397 4.95402 14.4489 4.875 14.25 4.875H9C8.80109 4.875 8.61032 4.95402 8.46967 5.09467C8.32902 5.23532 8.25 5.42609 8.25 5.625C8.25 5.82391 8.32902 6.01468 8.46967 6.15533C8.61032 6.29598 8.80109 6.375 9 6.375Z" fill="#C866EA"/>
<path d="M18 3.31125C18.0001 3.11416 17.9613 2.91898 17.8859 2.73689C17.8105 2.55479 17.6999 2.38934 17.5605 2.25L15.75 0.43875C15.4686 0.157701 15.0872 -0.000113921 14.6895 6.17003e-08H6.00001C5.60218 6.17003e-08 5.22065 0.158035 4.93935 0.43934C4.65804 0.720644 4.50001 1.10218 4.50001 1.5V6.95625C4.4996 7.00507 4.5184 7.05209 4.55236 7.08717C4.58631 7.12225 4.6327 7.14257 4.68151 7.14375C4.95601 7.14825 5.46001 7.16925 5.79526 7.206C5.82126 7.20887 5.84757 7.20619 5.87246 7.19811C5.89734 7.19004 5.92022 7.17677 5.93958 7.15918C5.95895 7.14159 5.97435 7.12009 5.98477 7.09609C5.99518 7.07209 6.00038 7.04616 6.00001 7.02V1.875C6.00001 1.77554 6.03952 1.68016 6.10984 1.60984C6.18017 1.53951 6.27555 1.5 6.37501 1.5H14.5343C14.6335 1.50002 14.7287 1.5394 14.799 1.6095L16.3905 3.201C16.4606 3.27128 16.5 3.36649 16.5 3.46575V13.5C16.5 13.5995 16.4605 13.6948 16.3902 13.7652C16.3198 13.8355 16.2245 13.875 16.125 13.875H10.9815C10.9375 13.8753 10.8951 13.8913 10.8619 13.9202C10.8287 13.9491 10.807 13.989 10.8008 14.0325C10.7445 14.4048 10.6531 14.7709 10.5278 15.126C10.5172 15.1537 10.5135 15.1836 10.517 15.213C10.5206 15.2425 10.5312 15.2706 10.548 15.2951C10.5648 15.3195 10.5874 15.3395 10.6136 15.3533C10.6399 15.367 10.6691 15.3743 10.6988 15.3743H16.5C16.8978 15.3743 17.2794 15.2162 17.5607 14.9349C17.842 14.6536 18 14.2721 18 13.8743V3.31125Z" fill="#C866EA"/>
<path d="M13.1257 9C13.1257 8.80109 13.0467 8.61032 12.906 8.46967C12.7654 8.32902 12.5746 8.25 12.3757 8.25H9.3757C9.28074 8.25045 9.18681 8.26977 9.09938 8.30685C9.01196 8.34394 8.93278 8.39803 8.86645 8.466C8.8533 8.47846 8.84291 8.49356 8.83598 8.5103C8.82905 8.52704 8.82572 8.54506 8.82622 8.56317C8.82672 8.58129 8.83102 8.59909 8.83886 8.61543C8.84669 8.63177 8.85788 8.64627 8.8717 8.658C9.21142 8.96102 9.51585 9.30143 9.7792 9.67275C9.79624 9.69649 9.8188 9.71572 9.84493 9.72879C9.87107 9.74185 9.89999 9.74836 9.9292 9.74775H12.3757C12.5742 9.74775 12.7646 9.66904 12.9052 9.52888C13.0458 9.38871 13.1251 9.19852 13.1257 9Z" fill="#C866EA"/>
<path d="M4.875 18C5.83918 18 6.78171 17.7141 7.5834 17.1784C8.38509 16.6427 9.00994 15.8814 9.37891 14.9906C9.74789 14.0998 9.84443 13.1196 9.65633 12.1739C9.46823 11.2283 9.00393 10.3596 8.32215 9.67786C7.64036 8.99608 6.77172 8.53178 5.82607 8.34367C4.88041 8.15557 3.90021 8.25211 3.00942 8.62109C2.11863 8.99007 1.35726 9.61491 0.821586 10.4166C0.285914 11.2183 0 12.1608 0 13.125C0.00158777 14.4174 0.515712 15.6565 1.42961 16.5704C2.3435 17.4843 3.58256 17.9984 4.875 18ZM3.08175 13.734C3.03768 13.6788 3.01009 13.6123 3.00216 13.5421C2.99422 13.4719 3.00627 13.4009 3.03691 13.3373C3.06756 13.2737 3.11555 13.22 3.17536 13.1824C3.23517 13.1449 3.30437 13.125 3.375 13.125H3.9375C3.98723 13.125 4.03492 13.1052 4.07008 13.0701C4.10525 13.0349 4.125 12.9872 4.125 12.9375V10.875C4.125 10.6761 4.20402 10.4853 4.34467 10.3447C4.48532 10.204 4.67609 10.125 4.875 10.125C5.07391 10.125 5.26468 10.204 5.40533 10.3447C5.54598 10.4853 5.625 10.6761 5.625 10.875V12.9375C5.625 12.9872 5.64475 13.0349 5.67992 13.0701C5.71508 13.1052 5.76277 13.125 5.8125 13.125H6.375C6.44563 13.125 6.51483 13.1449 6.57464 13.1824C6.63445 13.22 6.68244 13.2737 6.71309 13.3373C6.74373 13.4009 6.75578 13.4719 6.74784 13.5421C6.73991 13.6123 6.71232 13.6788 6.66825 13.734L5.16825 15.609C5.13185 15.6511 5.08682 15.6848 5.03622 15.708C4.98562 15.7311 4.93064 15.7431 4.875 15.7431C4.81936 15.7431 4.76438 15.7311 4.71378 15.708C4.66318 15.6848 4.61815 15.6511 4.58175 15.609L3.08175 13.734Z" fill="#C866EA"/>
</g>
<defs>
<clipPath id="clip0">
<rect width="18" height="18" fill="white"/>
</clipPath>
</defs>
</svg>
