<svg width="16" height="16" viewBox="0 0 16 16" fill="none" xmlns="http://www.w3.org/2000/svg">
<path d="M14.357 8.0082C14.3838 7.87381 14.3983 7.73724 14.4002 7.6002C14.4 7.03234 14.1984 6.48295 13.8314 6.04967C13.4643 5.6164 12.9555 5.32731 12.3954 5.2338C11.9416 4.11827 11.114 3.19531 10.0543 2.62311C8.99467 2.05092 7.76897 1.86513 6.58734 2.0976C5.40571 2.33007 4.34174 2.96631 3.5778 3.89727C2.81386 4.82823 2.39753 5.99593 2.40017 7.2002C2.40029 7.36542 2.40991 7.53049 2.42897 7.6946C1.67066 7.88299 1.00748 8.34232 0.564488 8.98596C0.121496 9.62961 -0.0706927 10.4131 0.0241641 11.1887C0.119021 11.9643 0.494367 12.6783 1.07942 13.1963C1.66448 13.7142 2.41881 14.0001 3.20017 14.0002H12.8002C13.5076 13.9987 14.1946 13.7628 14.7538 13.3294C15.3129 12.8961 15.7127 12.2896 15.8906 11.6049C16.0685 10.9202 16.0145 10.1958 15.737 9.54508C15.4595 8.89433 14.9742 8.35387 14.357 8.0082ZM10.1666 9.7602L8.56657 11.3602C8.49226 11.4347 8.40398 11.4938 8.30679 11.5341C8.20959 11.5745 8.1054 11.5952 8.00017 11.5952C7.89494 11.5952 7.79075 11.5745 7.69356 11.5341C7.59637 11.4938 7.50808 11.4347 7.43377 11.3602L5.83377 9.7602C5.72378 9.64799 5.64927 9.50588 5.61953 9.35159C5.58979 9.1973 5.60615 9.03767 5.66656 8.89262C5.72697 8.74757 5.82876 8.62352 5.95922 8.53595C6.08968 8.44838 6.24305 8.40117 6.40017 8.4002H7.20017V5.2002C7.20017 4.98803 7.28446 4.78455 7.43449 4.63452C7.58452 4.48449 7.788 4.4002 8.00017 4.4002C8.21235 4.4002 8.41583 4.48449 8.56586 4.63452C8.71589 4.78455 8.80017 4.98803 8.80017 5.2002V8.4002H9.60017C9.75861 8.39992 9.91355 8.44669 10.0454 8.53457C10.1772 8.62246 10.28 8.7475 10.3406 8.89386C10.4013 9.04022 10.4171 9.2013 10.3862 9.35667C10.3552 9.51204 10.2787 9.65472 10.1666 9.7666V9.7602Z" fill="#BDC7D6"/>
</svg>
