<svg width="18" height="18" viewBox="0 0 18 18" fill="none" xmlns="http://www.w3.org/2000/svg">
<g clip-path="url(#clip0_18824_79210)">
<path d="M18 16.875C18 17.4963 17.4963 18 16.875 18H1.125C0.503684 18 0 17.4963 0 16.875C0 16.2537 0.503684 15.75 1.125 15.75H16.875C17.4963 15.75 18 16.2537 18 16.875ZM8.20452 13.3111C8.42421 13.5308 8.71207 13.6407 9 13.6407C9.28786 13.6407 9.57586 13.5308 9.79548 13.3111L13.7814 9.32523C14.2208 8.88588 14.2208 8.17358 13.7814 7.73423C13.3421 7.29489 12.6298 7.29489 12.1904 7.73423L10.125 9.79966V1.125C10.125 0.503684 9.62132 0 9 0C8.37868 0 7.875 0.503684 7.875 1.125V9.79966L5.80957 7.73423C5.37022 7.29489 4.65792 7.29489 4.21857 7.73423C3.77923 8.17358 3.77923 8.88588 4.21857 9.32523L8.20452 13.3111Z" fill="#B0BAC9"/>
</g>
<defs>
<clipPath id="clip0_18824_79210">
<rect width="18" height="18" fill="white"/>
</clipPath>
</defs>
</svg>
