<svg width="18" height="18" viewBox="0 0 18 18" fill="none" xmlns="http://www.w3.org/2000/svg">
<path d="M2.76929 15.9222V1.38371L4.1539 0.691406H10.3847L15.2308 5.53756V15.9222L13.8462 17.3068H4.1539L2.76929 15.9222Z" fill="#B0BAC9"/>
<path d="M14.0303 2.91254C13.8614 2.74638 13.6883 2.57746 13.518 2.40577C13.3463 2.23546 13.1774 2.06238 13.0112 1.89346C11.826 0.684 11.1205 0 10.3846 0H4.84613C3.3196 0 2.0769 1.24269 2.0769 2.76923V15.2308C2.0769 16.7573 3.3196 18 4.84613 18H13.1538C14.6804 18 15.9231 16.7573 15.9231 15.2308V5.53846C15.9231 4.80323 15.2391 4.09708 14.0303 2.91254ZM14.5384 15.2308C14.5384 15.9951 13.9181 16.6154 13.1538 16.6154H4.84613C4.08183 16.6154 3.46152 15.9951 3.46152 15.2308V2.76923C3.46152 2.00492 4.08183 1.38462 4.84613 1.38462L9.89237 1.38185C10.3915 1.50923 10.3846 2.12262 10.3846 2.73669V4.84615C10.3846 5.22762 10.6954 5.53846 11.0769 5.53846H13.1538C13.8447 5.53846 14.5384 5.54192 14.5384 6.23077V15.2308Z" fill="#B0BAC9"/>
<path d="M12.2774 10.1585C12.3286 10.2235 12.3536 10.3004 12.3536 10.3786C12.3536 10.4568 12.3286 10.5344 12.2774 10.5981C12.2276 10.6611 10.9738 12.1371 9.56634 13.0828C9.45765 13.1555 9.31711 13.1624 9.20219 13.1008C9.08726 13.0392 9.01457 12.9187 9.01457 12.7878V11.5528C8.24126 11.4226 6.07365 11.3845 5.94765 11.2945C5.76073 11.163 5.63403 10.7352 5.63403 10.3793C5.63403 10.0242 5.76073 9.64685 5.94765 9.51531C6.07434 9.426 8.24126 9.336 9.01457 9.20654V7.96731C9.01457 7.83716 9.08657 7.7167 9.20219 7.65508C9.3178 7.59346 9.45834 7.60039 9.56634 7.67308C10.9745 8.62016 12.2276 10.0962 12.2774 10.1585Z" fill="white"/>
</svg>
