<svg width="18" height="18" viewBox="0 0 18 18" fill="none" xmlns="http://www.w3.org/2000/svg">
<g clip-path="url(#clip0)">
<path d="M15 8.61597C14.8011 8.61597 14.6103 8.69498 14.4697 8.83564C14.329 8.97629 14.25 9.16705 14.25 9.36597V15.741C14.25 15.9399 14.171 16.1306 14.0303 16.2713C13.8897 16.4119 13.6989 16.491 13.5 16.491H2.25C2.05109 16.491 1.86032 16.4119 1.71967 16.2713C1.57902 16.1306 1.5 15.9399 1.5 15.741V2.99097C1.5 2.79205 1.57902 2.60129 1.71967 2.46064C1.86032 2.31998 2.05109 2.24097 2.25 2.24097H9.75C9.94891 2.24097 10.1397 2.16195 10.2803 2.0213C10.421 1.88064 10.5 1.68988 10.5 1.49097C10.5 1.29205 10.421 1.10129 10.2803 0.960637C10.1397 0.819984 9.94891 0.740967 9.75 0.740967H2.25C1.65326 0.740967 1.08097 0.97802 0.65901 1.39998C0.237053 1.82193 0 2.39423 0 2.99097L0 15.741C0 16.3377 0.237053 16.91 0.65901 17.332C1.08097 17.7539 1.65326 17.991 2.25 17.991H13.5C14.0967 17.991 14.669 17.7539 15.091 17.332C15.5129 16.91 15.75 16.3377 15.75 15.741V9.36597C15.75 9.16705 15.671 8.97629 15.5303 8.83564C15.3897 8.69498 15.1989 8.61597 15 8.61597Z" fill="#8C94A6"/>
<path d="M17.5617 0.433403C17.276 0.160699 16.8962 0.00854492 16.5012 0.00854492C16.1062 0.00854492 15.7264 0.160699 15.4407 0.433403L14.645 1.22915C14.5746 1.29948 14.5352 1.39484 14.5352 1.49428C14.5352 1.59371 14.5746 1.68908 14.645 1.7594L16.2357 3.35015C16.306 3.42045 16.4014 3.45995 16.5008 3.45995C16.6003 3.45995 16.6956 3.42045 16.766 3.35015L17.5617 2.5544C17.8429 2.27311 18.0009 1.89165 18.0009 1.4939C18.0009 1.09616 17.8429 0.714695 17.5617 0.433403Z" fill="#8C94A6"/>
<path d="M8.51898 7.88542L10.1097 9.47617C10.18 9.54647 10.2754 9.58596 10.3748 9.58596C10.4743 9.58596 10.5697 9.54647 10.64 9.47617L15.413 4.70317C15.4479 4.66833 15.4756 4.62695 15.4945 4.58139C15.5134 4.53583 15.5231 4.48699 15.5231 4.43767C15.5231 4.38834 15.5134 4.3395 15.4945 4.29394C15.4756 4.24838 15.4479 4.207 15.413 4.17217L13.8215 2.58067C13.7497 2.51317 13.6549 2.47559 13.5564 2.47559C13.4578 2.47559 13.363 2.51317 13.2912 2.58067L8.51898 7.35517C8.44867 7.42549 8.40918 7.52086 8.40918 7.62029C8.40918 7.71973 8.44867 7.81509 8.51898 7.88542Z" fill="#8C94A6"/>
<path d="M7.76144 8.42636C7.70108 8.43888 7.64468 8.4659 7.59711 8.50511C7.54955 8.54431 7.51225 8.59451 7.48843 8.65136L6.57944 10.9276C6.55225 10.9958 6.54564 11.0704 6.56044 11.1422C6.57524 11.2141 6.61079 11.28 6.66269 11.3319C6.71594 11.3815 6.78183 11.4155 6.85313 11.4302C6.92443 11.4449 6.9984 11.4397 7.06694 11.4151L9.33944 10.5061C9.39709 10.4831 9.44813 10.4461 9.48796 10.3985C9.5278 10.3509 9.55519 10.2941 9.56768 10.2333C9.58017 10.1725 9.57737 10.1095 9.55952 10.0501C9.54168 9.9906 9.50935 9.9365 9.46544 9.89261L8.09969 8.52911C8.0561 8.4855 8.00243 8.4533 7.94343 8.43538C7.88443 8.41746 7.82192 8.41436 7.76144 8.42636Z" fill="#8C94A6"/>
</g>
<defs>
<clipPath id="clip0">
<rect width="18" height="18" fill="white"/>
</clipPath>
</defs>
</svg>
