<svg width="36" height="36" viewBox="0 0 36 36" fill="none" xmlns="http://www.w3.org/2000/svg">
<circle cx="18" cy="18" r="18" fill="#107969"/>
<g clip-path="url(#clip0_25674_89662)">
<path fill-rule="evenodd" clip-rule="evenodd" d="M20.615 11.7635C21.5929 10.7828 23.2094 10.7088 24.2612 11.7635C25.252 12.757 25.2372 14.3681 24.2716 15.4055C24.2675 15.4099 24.2633 15.4142 24.259 15.4184L23.7437 15.9281L20.0977 12.2822L20.615 11.7635ZM19.2739 13.1083L12.1754 20.2264C12.1205 20.2814 12.0813 20.35 12.0618 20.4252L11.0141 24.4524C10.975 24.6026 11.0185 24.7624 11.1284 24.8721C11.2382 24.9818 11.398 25.0251 11.5482 24.9858L15.5643 23.9352C15.6387 23.9158 15.7066 23.8771 15.7612 23.823L16.1042 23.4839V18.4153C16.1042 17.155 17.1551 16.1042 18.4153 16.1042H22.2698L19.2739 13.1083ZM19.672 19.2793C19.3499 19.2793 19.0887 19.5405 19.0887 19.8626C19.0887 20.1848 19.3499 20.446 19.672 20.446H22.2751C22.5973 20.446 22.8585 20.1848 22.8585 19.8626C22.8585 19.5405 22.5973 19.2793 22.2751 19.2793H19.672ZM19.0887 22.0845C19.0887 21.7623 19.3499 21.5012 19.672 21.5012H20.6699C20.992 21.5012 21.2533 21.7623 21.2533 22.0845C21.2533 22.4066 20.992 22.6678 20.6699 22.6678H19.672C19.3499 22.6678 19.0887 22.4066 19.0887 22.0845ZM18.1458 18.4153C18.1458 18.2826 18.2826 18.1458 18.4153 18.1458H23.5319C23.6645 18.1458 23.8013 18.2826 23.8013 18.4153V23.5319C23.8013 23.6286 23.7668 23.6893 23.7261 23.7282C23.6813 23.7709 23.6136 23.8013 23.5319 23.8013H18.4153C18.2826 23.8013 18.1458 23.6645 18.1458 23.5319V18.4153ZM18.4153 16.9792C17.6383 16.9792 16.9792 17.6383 16.9792 18.4153V23.5319C16.9792 24.3088 17.6383 24.968 18.4153 24.968H23.5319C24.283 24.968 24.968 24.3909 24.968 23.5319V18.4153C24.968 17.6383 24.3089 16.9792 23.5319 16.9792H18.4153Z" fill="white"/>
</g>
<defs>
<clipPath id="clip0_25674_89662">
<rect width="14" height="14" fill="white" transform="translate(11 11)"/>
</clipPath>
</defs>
</svg>
