<svg width="14" height="14" viewBox="0 0 14 14" fill="none" xmlns="http://www.w3.org/2000/svg">
<g id="Empty-icon">
<path id="Data cleared" d="M11.6112 10.5596C11.7368 10.404 11.8565 10.2364 11.9641 10.0688C12.0718 9.88928 12.1735 9.70974 12.2632 9.51823C12.6461 8.71628 12.8554 7.81259 12.8315 6.84906C12.7537 3.83277 10.2713 1.30723 7.26252 1.16959C6.68828 1.14565 6.13198 1.19951 5.59961 1.33117C5.06724 1.46284 4.88779 2.13312 5.2766 2.52213C5.48596 2.73159 5.77906 2.82735 6.06618 2.76151C6.80193 2.59993 7.62741 2.62387 8.4469 2.89916C9.27238 3.17446 10.0081 3.7071 10.5106 4.41927C11.3779 5.6581 11.5335 7.15428 11.1088 8.3572C11.0489 8.56666 10.9652 8.76416 10.8635 8.95567C10.7738 9.14119 10.6661 9.32073 10.5465 9.48831L4.51094 3.45574L3.44022 2.38448L2.50109 1.44488C2.35753 1.30125 2.16612 1.22345 1.9747 1.22345C1.78329 1.22345 1.59187 1.30125 1.44233 1.44488C1.15521 1.73813 1.15521 2.21092 1.44233 2.50417L2.38146 3.44377C2.26182 3.59937 2.14219 3.76694 2.03452 3.9405C1.92685 4.11405 1.82516 4.29958 1.73543 4.48511C1.35859 5.27508 1.15521 6.14885 1.16717 7.07648C1.20306 9.88928 3.32058 12.343 6.09609 12.7619C6.86773 12.8816 7.62143 12.8397 8.32727 12.6781C8.88955 12.5465 9.069 11.8283 8.66224 11.4214C8.48279 11.2478 8.23156 11.164 7.98631 11.2239C7.66928 11.3017 7.33431 11.3376 6.99933 11.3376C4.60665 11.3376 2.6626 9.39255 2.6626 7.00466C2.6626 6.52589 2.74036 6.07105 2.8899 5.64015C2.94972 5.43069 3.03346 5.23319 3.13515 5.04168C3.22488 4.85616 3.33255 4.6826 3.45218 4.51503L9.48772 10.5476L10.5584 11.6189L11.4976 12.5585C11.6411 12.7081 11.8325 12.7799 12.024 12.7799C12.2154 12.7799 12.4068 12.7081 12.5563 12.5585C12.8435 12.2652 12.8435 11.7924 12.5563 11.5051L11.6112 10.5596Z" fill="#2F3850"/>
</g>
</svg>
