<svg width="56" height="56" viewBox="0 0 56 56" fill="none" xmlns="http://www.w3.org/2000/svg">
<rect width="56" height="56" rx="14.1167" fill="#DD533C"/>
<g clip-path="url(#clip0_20637_80670)">
<path d="M28.0005 42.1162C30.7925 42.1162 33.5218 41.2882 35.8433 39.7371C38.1647 38.1859 39.9741 35.9812 41.0426 33.4017C42.111 30.8222 42.3906 27.9838 41.8459 25.2455C41.3012 22.5071 39.9567 19.9917 37.9825 18.0175C36.0082 16.0432 33.4928 14.6988 30.7545 14.1541C28.0161 13.6094 25.1777 13.8889 22.5982 14.9574C20.0188 16.0258 17.814 17.8352 16.2629 20.1567C14.7117 22.4782 13.8838 25.2075 13.8838 27.9995C13.8878 31.7422 15.3764 35.3305 18.0229 37.977C20.6694 40.6235 24.2577 42.1121 28.0005 42.1162ZM26.8241 20.9412C26.8241 20.6292 26.948 20.3299 27.1686 20.1093C27.3892 19.8887 27.6885 19.7648 28.0005 19.7648C28.3125 19.7648 28.6117 19.8887 28.8323 20.1093C29.0529 20.3299 29.1768 20.6292 29.1768 20.9412V30.3523C29.1768 30.6643 29.0529 30.9635 28.8323 31.1841C28.6117 31.4047 28.3125 31.5287 28.0005 31.5287C27.6885 31.5287 27.3892 31.4047 27.1686 31.1841C26.948 30.9635 26.8241 30.6643 26.8241 30.3523V20.9412ZM28.0005 35.0578C28.2331 35.0578 28.4606 35.1268 28.654 35.2561C28.8475 35.3853 28.9983 35.5691 29.0873 35.784C29.1763 35.999 29.1996 36.2355 29.1542 36.4637C29.1089 36.6919 28.9968 36.9015 28.8323 37.066C28.6678 37.2306 28.4582 37.3426 28.23 37.388C28.0018 37.4334 27.7652 37.4101 27.5503 37.3211C27.3353 37.232 27.1516 37.0812 27.0223 36.8878C26.8931 36.6943 26.8241 36.4669 26.8241 36.2342C26.8241 35.9222 26.948 35.623 27.1686 35.4024C27.3892 35.1818 27.6885 35.0578 28.0005 35.0578Z" fill="white"/>
</g>
<defs>
<clipPath id="clip0_20637_80670">
<rect width="28.2333" height="28.2333" fill="white" transform="translate(13.8838 13.8828)"/>
</clipPath>
</defs>
</svg>
