<svg width="16" height="16" viewBox="0 0 16 16" fill="none" xmlns="http://www.w3.org/2000/svg">
<path d="M15.3942 6.44332C13.6415 4.51332 11.0622 2.79999 8.38887 2.67466C8.25887 2.66666 8.13287 2.66666 7.99953 2.66666C5.1642 2.68932 2.58353 4.31332 0.704868 6.33332C0.671535 6.36932 0.638201 6.40599 0.604868 6.44266C0.215798 6.86759 0 7.42284 0 7.99899C0 8.57514 0.215798 9.13039 0.604868 9.55532C1.4082 10.4413 4.31353 13.3333 7.9142 13.3333H8.08487C11.6849 13.3333 14.5909 10.4413 15.3955 9.55532C15.7844 9.13033 15.9999 8.5751 15.9997 7.99906C15.9994 7.42303 15.7834 6.86798 15.3942 6.44332ZM14.4089 8.65799C12.9622 10.25 10.8622 11.7613 8.64754 11.97C8.43231 11.9926 8.21593 12.0026 7.99953 12C5.57953 11.9433 3.43953 10.5933 1.80887 8.89466C1.73465 8.81732 1.66153 8.73888 1.58953 8.65932C1.42632 8.47851 1.33597 8.24358 1.33597 7.99999C1.33597 7.7564 1.42632 7.52147 1.58953 7.34066C3.16753 5.59999 5.5542 3.94332 7.99953 3.99999C8.85876 3.99905 9.70901 4.17468 10.4975 4.51599C11.3068 4.85564 12.0687 5.29865 12.7642 5.83399C13.3584 6.2836 13.9096 6.78731 14.4109 7.33866C14.574 7.51976 14.6641 7.75497 14.6637 7.99871C14.6634 8.24245 14.5725 8.47738 14.4089 8.65799Z" fill="#C866EA"/>
<path d="M7.99967 5.33334C7.91239 5.3334 7.82517 5.33785 7.73834 5.34668C7.7099 5.34952 7.68267 5.35966 7.6593 5.37611C7.63593 5.39257 7.6172 5.41478 7.60493 5.44059C7.59266 5.46641 7.58726 5.49495 7.58926 5.52347C7.59126 5.55198 7.60059 5.57949 7.61634 5.60334C7.79179 5.86857 7.86635 6.18791 7.82649 6.50341C7.78662 6.81892 7.63497 7.10967 7.39906 7.32292C7.16314 7.53617 6.8586 7.65778 6.54069 7.66569C6.22277 7.67359 5.91256 7.56727 5.66634 7.36601C5.64442 7.34836 5.61839 7.33656 5.59067 7.33169C5.56295 7.32682 5.53445 7.32905 5.50783 7.33817C5.48121 7.34728 5.45733 7.363 5.43841 7.38383C5.4195 7.40467 5.40617 7.42996 5.39967 7.45734C5.35676 7.63509 5.33439 7.81717 5.33301 8.00001C5.33301 8.52743 5.48941 9.043 5.78242 9.48153C6.07544 9.92006 6.49192 10.2619 6.97918 10.4637C7.46645 10.6655 8.00263 10.7183 8.51992 10.6154C9.0372 10.5125 9.51235 10.2586 9.88529 9.88563C10.2582 9.51269 10.5122 9.03753 10.6151 8.52025C10.718 8.00297 10.6652 7.46679 10.4634 6.97952C10.2615 6.49225 9.91973 6.07578 9.48119 5.78276C9.04266 5.48974 8.52709 5.33334 7.99967 5.33334Z" fill="#C866EA"/>
</svg>
