<svg width="20" height="20" viewBox="0 0 20 20" fill="none" xmlns="http://www.w3.org/2000/svg">
<path d="M12.767 1.79167L16.542 5.56667C16.6154 5.63691 16.6599 5.73199 16.667 5.83333V17.9167C16.667 18.0272 16.6231 18.1332 16.545 18.2113C16.4668 18.2894 16.3608 18.3333 16.2503 18.3333H3.75033C3.63982 18.3333 3.53384 18.2894 3.4557 18.2113C3.37756 18.1332 3.33366 18.0272 3.33366 17.9167V2.08333C3.33366 1.97283 3.37756 1.86685 3.4557 1.78871C3.53384 1.71057 3.63982 1.66667 3.75033 1.66667H12.5003C12.6017 1.67371 12.6967 1.71828 12.767 1.79167ZM12.992 0H3.33366C2.89163 0 2.46771 0.175595 2.15515 0.488155C1.84259 0.800716 1.66699 1.22464 1.66699 1.66667V18.3333C1.66699 18.7754 1.84259 19.1993 2.15515 19.5118C2.46771 19.8244 2.89163 20 3.33366 20H16.667C17.109 20 17.5329 19.8244 17.8455 19.5118C18.1581 19.1993 18.3337 18.7754 18.3337 18.3333V5.34167C18.3327 5.12305 18.2459 4.91355 18.092 4.75833L13.5753 0.241667C13.4201 0.0877132 13.2106 0.000920518 12.992 0Z" fill="#8C94A6"/>
<path d="M13.3333 9.16667H5.83333C5.61232 9.16667 5.40036 9.07887 5.24408 8.92259C5.0878 8.76631 5 8.55435 5 8.33333C5 8.11232 5.0878 7.90036 5.24408 7.74408C5.40036 7.5878 5.61232 7.5 5.83333 7.5H13.3333C13.5543 7.5 13.7663 7.5878 13.9226 7.74408C14.0789 7.90036 14.1667 8.11232 14.1667 8.33333C14.1667 8.55435 14.0789 8.76631 13.9226 8.92259C13.7663 9.07887 13.5543 9.16667 13.3333 9.16667Z" fill="#8C94A6"/>
<path d="M13.3333 12.4997H5.83333C5.61232 12.4997 5.40036 12.4119 5.24408 12.2556C5.0878 12.0993 5 11.8874 5 11.6663C5 11.4453 5.0878 11.2334 5.24408 11.0771C5.40036 10.9208 5.61232 10.833 5.83333 10.833H13.3333C13.5543 10.833 13.7663 10.9208 13.9226 11.0771C14.0789 11.2334 14.1667 11.4453 14.1667 11.6663C14.1667 11.8874 14.0789 12.0993 13.9226 12.2556C13.7663 12.4119 13.5543 12.4997 13.3333 12.4997Z" fill="#8C94A6"/>
<path d="M9.58333 15.8337H5.83333C5.61232 15.8337 5.40036 15.7459 5.24408 15.5896C5.0878 15.4333 5 15.2213 5 15.0003C5 14.7793 5.0878 14.5673 5.24408 14.4111C5.40036 14.2548 5.61232 14.167 5.83333 14.167H9.58333C9.80435 14.167 10.0163 14.2548 10.1726 14.4111C10.3289 14.5673 10.4167 14.7793 10.4167 15.0003C10.4167 15.2213 10.3289 15.4333 10.1726 15.5896C10.0163 15.7459 9.80435 15.8337 9.58333 15.8337Z" fill="#8C94A6"/>
</svg>
