<svg width="16" height="19" viewBox="0 0 16 19" fill="none" xmlns="http://www.w3.org/2000/svg">
<path d="M2 18.5H14C14.3978 18.5 14.7794 18.342 15.0607 18.0607C15.342 17.7794 15.5 17.3978 15.5 17V5.24675C15.5001 5.04966 15.4613 4.85448 15.3859 4.67239C15.3104 4.49029 15.1999 4.32484 15.0605 4.1855L11.8145 0.9395C11.5333 0.658176 11.1518 0.500085 10.754 0.5L2 0.5C1.60218 0.5 1.22064 0.658035 0.93934 0.93934C0.658035 1.22064 0.5 1.60218 0.5 2V17C0.5 17.3978 0.658035 17.7794 0.93934 18.0607C1.22064 18.342 1.60218 18.5 2 18.5ZM9.5 9.5C9.5 9.40054 9.53951 9.30516 9.60983 9.23483C9.68016 9.16451 9.77554 9.125 9.875 9.125H10.625C10.7245 9.125 10.8198 9.16451 10.8902 9.23483C10.9605 9.30516 11 9.40054 11 9.5V13.25C11 13.3495 10.9605 13.4448 10.8902 13.5152C10.8198 13.5855 10.7245 13.625 10.625 13.625H9.875C9.77554 13.625 9.68016 13.5855 9.60983 13.5152C9.53951 13.4448 9.5 13.3495 9.5 13.25V9.5ZM6.875 8C6.875 7.90054 6.91451 7.80516 6.98483 7.73483C7.05516 7.66451 7.15054 7.625 7.25 7.625H8C8.09946 7.625 8.19484 7.66451 8.26517 7.73483C8.33549 7.80516 8.375 7.90054 8.375 8V13.25C8.375 13.3495 8.33549 13.4448 8.26517 13.5152C8.19484 13.5855 8.09946 13.625 8 13.625H7.25C7.15054 13.625 7.05516 13.5855 6.98483 13.5152C6.91451 13.4448 6.875 13.3495 6.875 13.25V8ZM4.25 11.375C4.25 11.2755 4.28951 11.1802 4.35984 11.1098C4.43016 11.0395 4.52554 11 4.625 11H5.375C5.47446 11 5.56984 11.0395 5.64017 11.1098C5.71049 11.1802 5.75 11.2755 5.75 11.375V13.25C5.75 13.3495 5.71049 13.4448 5.64017 13.5152C5.56984 13.5855 5.47446 13.625 5.375 13.625H4.625C4.52554 13.625 4.43016 13.5855 4.35984 13.5152C4.28951 13.4448 4.25 13.3495 4.25 13.25V11.375Z" fill="#B3C1E1"/>
</svg>
