<svg width="18" height="18" viewBox="0 0 18 18" fill="none" xmlns="http://www.w3.org/2000/svg">
<g>
<path d="M14.25 6.375C14.4489 6.375 14.6397 6.29598 14.7803 6.15533C14.921 6.01468 15 5.82391 15 5.625C15 5.42609 14.921 5.23532 14.7803 5.09467C14.6397 4.95402 14.4489 4.875 14.25 4.875H9C8.80109 4.875 8.61032 4.95402 8.46967 5.09467C8.32902 5.23532 8.25 5.42609 8.25 5.625C8.25 5.82391 8.32902 6.01468 8.46967 6.15533C8.61032 6.29598 8.80109 6.375 9 6.375H14.25Z" fill="#C866EA"/>
<path d="M17.5605 2.25L15.75 0.43875C15.4686 0.157701 15.0872 -0.000113921 14.6895 6.17003e-08H6C5.60218 6.17003e-08 5.22064 0.158035 4.93934 0.43934C4.65804 0.720644 4.5 1.10218 4.5 1.5V9.01125C4.49993 9.05288 4.51371 9.09335 4.53918 9.12628C4.56465 9.1592 4.60035 9.18272 4.64066 9.19312C4.68097 9.20352 4.72359 9.20021 4.76181 9.18371C4.80003 9.16721 4.83167 9.13847 4.85175 9.102C5.10412 8.58978 5.44167 8.12416 5.85 7.725C5.89548 7.69007 5.93256 7.6454 5.95852 7.59426C5.98447 7.54313 5.99865 7.48683 6 7.4295V1.875C6 1.77554 6.03951 1.68016 6.10984 1.60984C6.18016 1.53951 6.27554 1.5 6.375 1.5H14.5343C14.6335 1.50002 14.7287 1.5394 14.799 1.6095L16.3898 3.201C16.4601 3.27116 16.4998 3.36638 16.5 3.46575V13.5C16.5 13.5995 16.4605 13.6948 16.3902 13.7652C16.3198 13.8355 16.2245 13.875 16.125 13.875H10.4858C10.4524 13.8746 10.4195 13.8831 10.3907 13.8998C10.3618 13.9165 10.3379 13.9407 10.3216 13.9698C10.3054 13.9989 10.2972 14.0319 10.2981 14.0652C10.299 14.0986 10.3089 14.1311 10.3268 14.1593C10.5176 14.4426 10.6617 14.7549 10.7535 15.084C10.7735 15.1655 10.8198 15.2382 10.8853 15.2907C10.9508 15.3431 11.0318 15.3725 11.1158 15.3743H16.5C16.8978 15.3743 17.2794 15.2162 17.5607 14.9349C17.842 14.6536 18 14.2721 18 13.8743V3.31125C18.0001 3.11416 17.9613 2.91898 17.8859 2.73689C17.8104 2.55479 17.6999 2.38934 17.5605 2.25Z" fill="#C866EA"/>
<path d="M10.788 9.60374C10.7959 9.64547 10.818 9.68318 10.8505 9.71051C10.8831 9.73784 10.924 9.75311 10.9665 9.75374H12.375C12.5739 9.75374 12.7647 9.67472 12.9053 9.53407C13.046 9.39342 13.125 9.20265 13.125 9.00374C13.125 8.80483 13.046 8.61406 12.9053 8.47341C12.7647 8.33276 12.5739 8.25374 12.375 8.25374H10.4752C10.4417 8.25326 10.4087 8.26189 10.3797 8.27871C10.3507 8.29552 10.3268 8.31989 10.3105 8.34922C10.2943 8.37855 10.2863 8.41174 10.2875 8.44525C10.2886 8.47876 10.2988 8.51133 10.317 8.53949C10.5391 8.86171 10.6988 9.22269 10.788 9.60374Z" fill="#C866EA"/>
<path d="M6.33144 12C6.36202 11.9821 6.39713 11.9734 6.43252 11.975C6.46792 11.9766 6.5021 11.9884 6.53094 12.009C6.79529 12.1914 7.09869 12.3092 7.41681 12.3531C7.73494 12.3971 8.05893 12.3658 8.36279 12.2619C8.66665 12.158 8.94193 11.9843 9.16655 11.7548C9.39117 11.5253 9.55886 11.2463 9.65619 10.9403C9.75374 10.6307 9.77709 10.3026 9.72435 9.98236C9.67162 9.66214 9.54427 9.35881 9.35261 9.09692C9.16095 8.83502 8.91035 8.62189 8.62108 8.47476C8.33181 8.32764 8.01198 8.25064 7.68744 8.25C7.40034 8.25856 7.11803 8.32575 6.85785 8.44745C6.59768 8.56915 6.36516 8.74278 6.17457 8.95767C5.98399 9.17256 5.83938 9.42417 5.74963 9.69702C5.65988 9.96986 5.62689 10.2582 5.65269 10.5443C5.65445 10.5771 5.64738 10.6098 5.63221 10.6389C5.61704 10.6681 5.59433 10.6926 5.56644 10.71L3.41844 12C3.38786 12.0179 3.35276 12.0266 3.31736 12.025C3.28197 12.0234 3.24779 12.0116 3.21894 11.991C2.95932 11.8099 2.66098 11.6919 2.34769 11.6464C2.0344 11.601 1.71483 11.6293 1.41444 11.7293C1.1034 11.8284 0.820863 12.0011 0.590807 12.2327C0.36075 12.4643 0.189965 12.748 0.0929423 13.0598C-0.00445732 13.3693 -0.0276709 13.6975 0.0251769 14.0177C0.0780248 14.3379 0.205452 14.6412 0.397164 14.9031C0.588877 15.165 0.839498 15.3781 1.12878 15.5252C1.41806 15.6723 1.7379 15.7493 2.06244 15.75C2.59013 15.7493 3.09716 15.5448 3.47769 15.1793C3.50283 15.1547 3.53452 15.1378 3.56897 15.1308C3.60342 15.1237 3.63917 15.1268 3.67194 15.1395C3.67194 15.1395 5.11494 15.7253 5.52069 15.8895C5.5514 15.9037 5.57748 15.9264 5.59592 15.9547C5.61436 15.9831 5.62442 16.0162 5.62494 16.05C5.64167 16.3436 5.72094 16.6303 5.85743 16.8908C5.99392 17.1513 6.18449 17.3796 6.41638 17.5605C6.64826 17.7414 6.91612 17.8707 7.20201 17.9397C7.4879 18.0087 7.78523 18.0158 8.0741 17.9605C8.36296 17.9053 8.63669 17.789 8.87697 17.6194C9.11725 17.4498 9.31852 17.2309 9.46732 16.9772C9.61612 16.7235 9.70901 16.441 9.73977 16.1485C9.77053 15.856 9.73846 15.5603 9.64569 15.2813C9.54846 14.9757 9.37955 14.6978 9.15305 14.4708C8.92656 14.2437 8.64905 14.0742 8.34369 13.9763C7.98807 13.8574 7.60671 13.8381 7.24091 13.9205C6.87511 14.0028 6.53881 14.1837 6.26844 14.4435C6.24358 14.4683 6.21201 14.4852 6.17763 14.4923C6.14325 14.4994 6.10756 14.4962 6.07494 14.4833L4.16469 13.725C4.15276 13.7188 4.14247 13.7098 4.13465 13.6989C4.12683 13.6879 4.12171 13.6753 4.11969 13.662L4.09719 13.3973C4.09724 13.3822 4.10113 13.3674 4.10847 13.3543C4.11582 13.3412 4.1264 13.3302 4.13919 13.3223L6.33144 12Z" fill="#C866EA"/>
</g>
<defs>
<clipPath>
<rect width="18" height="18" fill="white"/>
</clipPath>
</defs>
</svg>
