<svg width="18" height="19" viewBox="0 0 18 19" fill="none" xmlns="http://www.w3.org/2000/svg">
<g>
<path d="M18 7.12501C18 6.82664 17.8815 6.54049 17.6705 6.32951C17.4595 6.11853 17.1734 6.00001 16.875 6.00001H4.875C4.57663 6.00001 4.29048 6.11853 4.0795 6.32951C3.86853 6.54049 3.75 6.82664 3.75 7.12501V14.625C3.75 14.9234 3.63147 15.2095 3.4205 15.4205C3.20952 15.6315 2.92337 15.75 2.625 15.75C2.32663 15.75 2.04048 15.6315 1.8295 15.4205C1.61853 15.2095 1.5 14.9234 1.5 14.625V3.37501C1.5 3.27555 1.53951 3.18017 1.60984 3.10984C1.68016 3.03951 1.77554 3.00001 1.875 3.00001H4.9395L6.375 4.43551C6.51391 4.57527 6.67917 4.68608 6.86121 4.76153C7.04325 4.83697 7.23845 4.87554 7.4355 4.87501H15.375C15.5739 4.87501 15.7647 4.79599 15.9053 4.65534C16.046 4.51468 16.125 4.32392 16.125 4.12501C16.125 3.92609 16.046 3.73533 15.9053 3.59468C15.7647 3.45402 15.5739 3.37501 15.375 3.37501H7.4355L6 1.93951C5.86109 1.79974 5.69583 1.68893 5.51379 1.61349C5.33175 1.53804 5.13655 1.49947 4.9395 1.50001H1.125C0.826631 1.50001 0.540483 1.61853 0.329505 1.82951C0.118526 2.04049 0 2.32664 0 2.62501L0 14.625C0 15.3212 0.276562 15.9889 0.768845 16.4812C1.26113 16.9734 1.92881 17.25 2.625 17.25H15C15.7956 17.25 16.5587 16.9339 17.1213 16.3713C17.6839 15.8087 18 15.0457 18 14.25V7.12501ZM13.875 12.375C13.875 12.4745 13.8355 12.5698 13.7652 12.6402C13.6948 12.7105 13.5995 12.75 13.5 12.75H12.375C12.2755 12.75 12.1802 12.7895 12.1098 12.8598C12.0395 12.9302 12 13.0255 12 13.125V14.25C12 14.3495 11.9605 14.4448 11.8902 14.5152C11.8198 14.5855 11.7245 14.625 11.625 14.625H10.125C10.0255 14.625 9.93016 14.5855 9.85983 14.5152C9.78951 14.4448 9.75 14.3495 9.75 14.25V13.125C9.75 13.0255 9.71049 12.9302 9.64017 12.8598C9.56984 12.7895 9.47446 12.75 9.375 12.75H8.25C8.15054 12.75 8.05516 12.7105 7.98483 12.6402C7.91451 12.5698 7.875 12.4745 7.875 12.375V10.875C7.875 10.7755 7.91451 10.6802 7.98483 10.6098C8.05516 10.5395 8.15054 10.5 8.25 10.5H9.375C9.47446 10.5 9.56984 10.4605 9.64017 10.3902C9.71049 10.3198 9.75 10.2245 9.75 10.125V9.00001C9.75 8.90055 9.78951 8.80517 9.85983 8.73484C9.93016 8.66451 10.0255 8.62501 10.125 8.62501H11.625C11.7245 8.62501 11.8198 8.66451 11.8902 8.73484C11.9605 8.80517 12 8.90055 12 9.00001V10.125C12 10.2245 12.0395 10.3198 12.1098 10.3902C12.1802 10.4605 12.2755 10.5 12.375 10.5H13.5C13.5995 10.5 13.6948 10.5395 13.7652 10.6098C13.8355 10.6802 13.875 10.7755 13.875 10.875V12.375Z" fill="#B3C1E1"/>
</g>
<defs>
<clipPath>
<rect width="18" height="18" fill="white" transform="translate(0 0.5)"/>
</clipPath>
</defs>
</svg>
