<svg width="20" height="20" viewBox="0 0 20 20" fill="none" xmlns="http://www.w3.org/2000/svg">
<path d="M17.692 11.288V8.712L18.842 7.27C19.0356 7.02876 19.1516 6.73458 19.1748 6.42615C19.198 6.11772 19.1273 5.80949 18.972 5.542L18.348 4.458C18.1934 4.19014 17.9617 3.97511 17.683 3.84096C17.4044 3.70681 17.0918 3.65977 16.786 3.706L14.962 3.982L12.73 2.694L12.058 0.978C11.9451 0.690032 11.7481 0.442725 11.4927 0.268286C11.2373 0.0938466 10.9353 0.000359749 10.626 0L9.37398 0C9.06468 0.000359749 8.76266 0.0938466 8.50724 0.268286C8.25183 0.442725 8.05485 0.690032 7.94198 0.978L7.26998 2.694L5.03798 3.982L3.21398 3.706C2.90819 3.65977 2.59558 3.70681 2.31693 3.84096C2.03828 3.97511 1.80655 4.19014 1.65197 4.458L1.02797 5.542C0.872674 5.80949 0.801976 6.11772 0.82518 6.42615C0.848383 6.73458 0.964402 7.02876 1.15797 7.27L2.30798 8.712V11.288L1.15797 12.73C0.964402 12.9712 0.848383 13.2654 0.82518 13.5739C0.801976 13.8823 0.872674 14.1905 1.02797 14.458L1.65197 15.542C1.80655 15.8099 2.03828 16.0249 2.31693 16.159C2.59558 16.2932 2.90819 16.3402 3.21398 16.294L5.03798 16.018L7.26998 17.306L7.94198 19.022C8.05485 19.31 8.25183 19.5573 8.50724 19.7317C8.76266 19.9062 9.06468 19.9996 9.37398 20H10.626C10.9353 19.9996 11.2373 19.9062 11.4927 19.7317C11.7481 19.5573 11.9451 19.31 12.058 19.022L12.73 17.306L14.962 16.018L16.786 16.294C17.0918 16.3402 17.4044 16.2932 17.683 16.159C17.9617 16.0249 18.1934 15.8099 18.348 15.542L18.972 14.458C19.1273 14.1905 19.198 13.8823 19.1748 13.5739C19.1516 13.2654 19.0356 12.9712 18.842 12.73L17.692 11.288ZM9.99998 13C9.40664 13 8.82662 12.8241 8.33327 12.4944C7.83992 12.1648 7.45541 11.6962 7.22834 11.1481C7.00128 10.5999 6.94187 9.99667 7.05762 9.41473C7.17338 8.83279 7.4591 8.29824 7.87866 7.87868C8.29822 7.45912 8.83277 7.1734 9.41471 7.05764C9.99666 6.94189 10.5999 7.0013 11.148 7.22836C11.6962 7.45542 12.1647 7.83994 12.4944 8.33329C12.824 8.82664 13 9.40666 13 10C13 10.7956 12.6839 11.5587 12.1213 12.1213C11.5587 12.6839 10.7956 13 9.99998 13Z" fill="#8C94A6"/>
</svg>
