<svg width="28" height="28" viewBox="0 0 28 28" fill="none" xmlns="http://www.w3.org/2000/svg">
  <rect width="28" height="28" rx="4" fill="#C866EA"/>
  <path d="M20.2675 12.549H19.186C19.0785 12.1773 18.9298 11.8189 18.7428 11.4803L19.5078 10.7159C19.5887 10.635 19.6529 10.5389 19.6968 10.4332C19.7406 10.3275 19.7631 10.2141 19.7631 10.0997C19.7631 9.98522 19.7406 9.87188 19.6968 9.76614C19.6529 9.66041 19.5887 9.56434 19.5078 9.48343L18.6859 8.66275C18.5225 8.49942 18.301 8.40767 18.07 8.40767C17.8389 8.40767 17.6174 8.49942 17.454 8.66275L16.6885 9.42767C16.3503 9.24054 15.9923 9.09189 15.621 8.98452V7.90247C15.621 7.67141 15.5292 7.44981 15.3658 7.28642C15.2024 7.12304 14.9808 7.03125 14.7498 7.03125H13.5881C13.3571 7.03125 13.1355 7.12304 12.9721 7.28642C12.8087 7.44981 12.7169 7.67141 12.7169 7.90247V8.98452C12.3455 9.09214 11.9873 9.24077 11.6488 9.42767L10.8833 8.66275C10.7199 8.49942 10.4984 8.40767 10.2673 8.40767C10.0363 8.40767 9.81478 8.49942 9.6514 8.66275L8.82955 9.48401C8.74859 9.56492 8.68437 9.66099 8.64055 9.76672C8.59674 9.87246 8.57418 9.9858 8.57418 10.1003C8.57418 10.2147 8.59674 10.328 8.64055 10.4338C8.68437 10.5395 8.74859 10.6356 8.82955 10.7165L9.59506 11.4814C9.4078 11.8195 9.25915 12.1776 9.1519 12.549H8.07043C7.83937 12.549 7.61778 12.6407 7.45439 12.8041C7.29101 12.9675 7.19922 13.1891 7.19922 13.4202V14.5818C7.19922 14.8128 7.29101 15.0344 7.45439 15.1978C7.61778 15.3612 7.83937 15.453 8.07043 15.453H9.1519C9.25911 15.8245 9.40776 16.1828 9.59506 16.5211L8.82897 17.2872C8.66565 17.4506 8.57389 17.6721 8.57389 17.9032C8.57389 18.1342 8.66565 18.3557 8.82897 18.5191L9.65024 19.3404C9.81682 19.4977 10.0373 19.5854 10.2665 19.5854C10.4956 19.5854 10.7161 19.4977 10.8827 19.3404L11.6482 18.5754C11.9869 18.7625 12.3453 18.9114 12.7169 19.0192V20.0995C12.7169 20.3305 12.8087 20.5521 12.9721 20.7155C13.1355 20.8789 13.3571 20.9707 13.5881 20.9707H14.7498C14.9808 20.9707 15.2024 20.8789 15.3658 20.7155C15.5292 20.5521 15.621 20.3305 15.621 20.0995V19.0192C15.9924 18.9116 16.3506 18.7629 16.6891 18.576L17.4546 19.3409C17.618 19.5043 17.8395 19.596 18.0705 19.596C18.3016 19.596 18.5231 19.5043 18.6865 19.3409L19.5078 18.5197C19.6711 18.3563 19.7628 18.1347 19.7628 17.9037C19.7628 17.6727 19.6711 17.4512 19.5078 17.2878L18.7428 16.5229C18.93 16.1843 19.0787 15.8258 19.186 15.4542H20.2675C20.382 15.4542 20.4953 15.4316 20.6011 15.3877C20.7069 15.3439 20.803 15.2796 20.8839 15.1986C20.9648 15.1176 21.029 15.0214 21.0727 14.9155C21.1164 14.8097 21.1388 14.6963 21.1387 14.5818V13.4202C21.1387 13.1891 21.0469 12.9675 20.8835 12.8041C20.7201 12.6407 20.4985 12.549 20.2675 12.549ZM14.1689 16.905C13.5946 16.905 13.0331 16.7347 12.5555 16.4156C12.078 16.0965 11.7058 15.643 11.4859 15.1123C11.2661 14.5817 11.2086 13.9978 11.3207 13.4344C11.4327 12.8711 11.7093 12.3536 12.1155 11.9475C12.5216 11.5414 13.0391 11.2648 13.6024 11.1527C14.1657 11.0407 14.7496 11.0982 15.2803 11.318C15.8109 11.5378 16.2645 11.91 16.5836 12.3876C16.9027 12.8651 17.073 13.4266 17.073 14.001C17.0721 14.7709 16.7658 15.509 16.2214 16.0534C15.677 16.5978 14.9389 16.9041 14.1689 16.905Z" fill="white"/>
</svg>
