<svg width="24" height="24" viewBox="0 0 24 24" fill="none" xmlns="http://www.w3.org/2000/svg">
<rect width="23.9395" height="23.9395" rx="11.9697" fill="#C866EA" fill-opacity="0.2"/>
<path d="M18.0682 10.5177H16.9868C16.8793 10.1461 16.7306 9.78765 16.5436 9.44901L17.3085 8.68466C17.3895 8.60375 17.4537 8.50769 17.4975 8.40195C17.5414 8.29621 17.5639 8.18288 17.5639 8.06842C17.5639 7.95397 17.5414 7.84063 17.4975 7.73489C17.4537 7.62916 17.3895 7.53309 17.3085 7.45218L16.4867 6.6315C16.3233 6.46817 16.1018 6.37642 15.8707 6.37642C15.6397 6.37642 15.4182 6.46817 15.2548 6.6315L14.4893 7.39642C14.1511 7.20929 13.793 7.06064 13.4218 6.95327V5.87122C13.4218 5.64016 13.33 5.41856 13.1666 5.25517C13.0032 5.09179 12.7816 5 12.5505 5H11.3889C11.1579 5 10.9363 5.09179 10.7729 5.25517C10.6095 5.41856 10.5177 5.64016 10.5177 5.87122V6.95327C10.1463 7.06089 9.78808 7.20952 9.44959 7.39642L8.68408 6.6315C8.5207 6.46817 8.29915 6.37642 8.06813 6.37642C7.83712 6.37642 7.61556 6.46817 7.45218 6.6315L6.63033 7.45276C6.54938 7.53367 6.48515 7.62974 6.44134 7.73547C6.39752 7.84121 6.37496 7.95455 6.37496 8.069C6.37496 8.18346 6.39752 8.29679 6.44134 8.40253C6.48515 8.50827 6.54938 8.60434 6.63033 8.68524L7.39584 9.45017C7.20858 9.78828 7.05993 10.1464 6.95268 10.5177H5.87122C5.64015 10.5177 5.41856 10.6095 5.25517 10.7729C5.09179 10.9363 5 11.1579 5 11.3889V12.5505C5 12.7816 5.09179 13.0032 5.25517 13.1666C5.41856 13.33 5.64015 13.4218 5.87122 13.4218H6.95268C7.05989 13.7933 7.20854 14.1516 7.39584 14.4899L6.62975 15.256C6.46643 15.4193 6.37467 15.6409 6.37467 15.8719C6.37467 16.1029 6.46643 16.3245 6.62975 16.4879L7.45102 17.3091C7.61761 17.4665 7.83809 17.5542 8.06726 17.5542C8.29643 17.5542 8.51691 17.4665 8.6835 17.3091L9.44901 16.5442C9.78767 16.7313 10.1461 16.8801 10.5177 16.9879V18.0682C10.5177 18.2993 10.6095 18.5209 10.7729 18.6843C10.9363 18.8477 11.1579 18.9395 11.3889 18.9395H12.5505C12.7816 18.9395 13.0032 18.8477 13.1666 18.6843C13.33 18.5209 13.4218 18.2993 13.4218 18.0682V16.9879C13.7931 16.8803 14.1514 16.7317 14.4899 16.5448L15.2554 17.3097C15.4187 17.473 15.6403 17.5648 15.8713 17.5648C16.1023 17.5648 16.3239 17.473 16.4873 17.3097L17.3085 16.4884C17.4719 16.3251 17.5636 16.1035 17.5636 15.8725C17.5636 15.6415 17.4719 15.4199 17.3085 15.2565L16.5436 14.4916C16.7308 14.1531 16.8795 13.7946 16.9868 13.4229H18.0682C18.1827 13.4229 18.2961 13.4003 18.4019 13.3565C18.5077 13.3126 18.6038 13.2484 18.6847 13.1673C18.7656 13.0863 18.8298 12.9901 18.8735 12.8843C18.9172 12.7785 18.9396 12.665 18.9395 12.5505V11.3889C18.9395 11.1579 18.8477 10.9363 18.6843 10.7729C18.5209 10.6095 18.2993 10.5177 18.0682 10.5177ZM11.9697 14.8738C11.3954 14.8738 10.8339 14.7035 10.3563 14.3844C9.87875 14.0653 9.50653 13.6117 9.28673 13.0811C9.06693 12.5504 9.00942 11.9665 9.12147 11.4032C9.23353 10.8398 9.51011 10.3224 9.91625 9.91625C10.3224 9.51011 10.8398 9.23353 11.4032 9.12147C11.9665 9.00942 12.5504 9.06693 13.0811 9.28673C13.6117 9.50653 14.0653 9.87875 14.3844 10.3563C14.7035 10.8339 14.8738 11.3954 14.8738 11.9697C14.8729 12.7396 14.5666 13.4778 14.0222 14.0222C13.4778 14.5666 12.7396 14.8729 11.9697 14.8738Z" fill="#C866EA"/>
</svg>
