<svg width="18" height="18" viewBox="0 0 18 18" fill="none" xmlns="http://www.w3.org/2000/svg">
<g clip-path="url(#clip0)">
<path d="M16.875 7.125H15.4785C15.3397 6.64515 15.1477 6.18229 14.9062 5.745L15.894 4.758C15.9985 4.65352 16.0815 4.52947 16.1381 4.39294C16.1946 4.2564 16.2238 4.11005 16.2238 3.96225C16.2238 3.81445 16.1946 3.6681 16.1381 3.53156C16.0815 3.39503 15.9985 3.27098 15.894 3.1665L14.8327 2.10675C14.6218 1.89585 14.3357 1.77737 14.0374 1.77737C13.7391 1.77737 13.453 1.89585 13.242 2.10675L12.2535 3.0945C11.8168 2.85285 11.3544 2.6609 10.875 2.52225V1.125C10.875 0.826631 10.7565 0.540483 10.5455 0.329505C10.3345 0.118526 10.0484 0 9.75 0L8.25 0C7.95163 0 7.66548 0.118526 7.4545 0.329505C7.24353 0.540483 7.125 0.826631 7.125 1.125V2.52225C6.64544 2.66122 6.18284 2.85315 5.74575 3.0945L4.75725 2.10675C4.54628 1.89585 4.26018 1.77737 3.96187 1.77737C3.66356 1.77737 3.37747 1.89585 3.1665 2.10675L2.10525 3.16725C2.00071 3.27173 1.91778 3.39578 1.86119 3.53231C1.80461 3.66885 1.77549 3.8152 1.77549 3.963C1.77549 4.1108 1.80461 4.25715 1.86119 4.39369C1.91778 4.53022 2.00071 4.65427 2.10525 4.75875L3.09375 5.7465C2.85194 6.1831 2.65998 6.64551 2.5215 7.125H1.125C0.826631 7.125 0.540483 7.24353 0.329505 7.4545C0.118526 7.66548 0 7.95163 0 8.25L0 9.75C0 10.0484 0.118526 10.3345 0.329505 10.5455C0.540483 10.7565 0.826631 10.875 1.125 10.875H2.5215C2.65993 11.3548 2.85189 11.8174 3.09375 12.2543L2.1045 13.2435C1.89359 13.4545 1.77512 13.7406 1.77512 14.0389C1.77512 14.3372 1.89359 14.6233 2.1045 14.8342L3.165 15.8948C3.38011 16.098 3.66482 16.2112 3.96075 16.2112C4.25668 16.2112 4.54139 16.098 4.7565 15.8948L5.745 14.907C6.18231 15.1486 6.64516 15.3408 7.125 15.48V16.875C7.125 17.1734 7.24353 17.4595 7.4545 17.6705C7.66548 17.8815 7.95163 18 8.25 18H9.75C10.0484 18 10.3345 17.8815 10.5455 17.6705C10.7565 17.4595 10.875 17.1734 10.875 16.875V15.48C11.3546 15.3411 11.8172 15.1491 12.2542 14.9078L13.2427 15.8955C13.4537 16.1064 13.7398 16.2249 14.0381 16.2249C14.3364 16.2249 14.6225 16.1064 14.8335 15.8955L15.894 14.835C16.1049 14.624 16.2234 14.3379 16.2234 14.0396C16.2234 13.7413 16.1049 13.4552 15.894 13.2443L14.9062 12.2565C15.148 11.8193 15.3399 11.3564 15.4785 10.8765H16.875C17.0229 10.8765 17.1693 10.8474 17.3059 10.7907C17.4425 10.7341 17.5665 10.6511 17.671 10.5465C17.7755 10.4418 17.8583 10.3176 17.9148 10.181C17.9712 10.0443 18.0002 9.89786 18 9.75V8.25C18 7.95163 17.8815 7.66548 17.6705 7.4545C17.4595 7.24353 17.1734 7.125 16.875 7.125ZM9 12.75C8.25832 12.75 7.5333 12.5301 6.91661 12.118C6.29993 11.706 5.81928 11.1203 5.53545 10.4351C5.25162 9.74984 5.17736 8.99584 5.32205 8.26841C5.46675 7.54098 5.8239 6.8728 6.34835 6.34835C6.8728 5.8239 7.54098 5.46675 8.26841 5.32206C8.99584 5.17736 9.74984 5.25162 10.4351 5.53545C11.1203 5.81928 11.706 6.29993 12.118 6.91661C12.5301 7.5333 12.75 8.25832 12.75 9C12.7488 9.9942 12.3533 10.9473 11.6503 11.6503C10.9473 12.3533 9.9942 12.7488 9 12.75Z" fill="#BDC8D6"/>
</g>
<defs>
<clipPath id="clip0">
<rect width="18" height="18" fill="white"/>
</clipPath>
</defs>
</svg>
