<svg width="20" height="20" viewBox="0 0 20 20" fill="none" xmlns="http://www.w3.org/2000/svg">
<path fill-rule="evenodd" clip-rule="evenodd" d="M10 0C4.47715 0 0 4.47715 0 10C0 15.5228 4.47715 20 10 20C15.5228 20 20 15.5228 20 10C19.994 4.47963 15.5204 0.00597071 10 0ZM10 15.8333C9.30964 15.8333 8.75 15.2737 8.75 14.5833C8.75 13.893 9.30964 13.3333 10 13.3333C10.6904 13.3333 11.25 13.893 11.25 14.5833C11.25 15.2737 10.6904 15.8333 10 15.8333ZM10.8333 11.5308C10.8332 11.1993 11.0295 10.8993 11.3333 10.7667V10.7675C12.8592 10.1016 13.6597 8.41194 13.2087 6.80938C12.7576 5.20681 11.1933 4.18276 9.54416 4.41043C7.89497 4.6381 6.66664 6.04767 6.66667 7.7125C6.66667 8.17273 7.03976 8.54583 7.5 8.54583C7.96024 8.54583 8.33333 8.17273 8.33333 7.7125C8.3329 6.87998 8.94687 6.17483 9.77153 6.06071C10.5962 5.94658 11.3786 6.45849 11.6043 7.25984C11.8299 8.06118 11.4297 8.90616 10.6667 9.23916C9.75547 9.63684 9.16652 10.5366 9.16667 11.5308C9.16667 11.9911 9.53976 12.3642 10 12.3642C10.4602 12.3642 10.8333 11.9911 10.8333 11.5308Z" fill="#107969"/>
</svg>
