<svg width="27" height="26" viewBox="0 0 27 26" fill="none" xmlns="http://www.w3.org/2000/svg">
<rect x="0.5" width="26" height="26.0004" rx="4" fill="#107969" fill-opacity="0.1"/>
<path d="M15.3909 19.4573C16.0521 19.8805 16.8381 20.065 17.6185 19.9802C18.399 19.8955 19.127 19.5466 19.682 18.9913L20.164 18.5103C20.3791 18.2951 20.5 18.0032 20.5 17.6988C20.5 17.3945 20.3791 17.1026 20.164 16.8873L18.135 14.8583C18.0285 14.7515 17.902 14.6668 17.7628 14.609C17.6235 14.5512 17.4742 14.5214 17.3235 14.5214C17.1727 14.5214 17.0234 14.5512 16.8841 14.609C16.7449 14.6668 16.6184 14.7515 16.5119 14.8583C16.2967 15.0734 16.0048 15.1942 15.7004 15.1942C15.3961 15.1942 15.1042 15.0734 14.8889 14.8583L11.6418 11.6112C11.4267 11.3959 11.3058 11.104 11.3058 10.7997C11.3058 10.4953 11.4267 10.2034 11.6418 9.98815C11.7486 9.88169 11.8333 9.75521 11.8911 9.61595C11.9489 9.4767 11.9787 9.32741 11.9787 9.17664C11.9787 9.02586 11.9489 8.87657 11.8911 8.73732C11.8333 8.59806 11.7486 8.47158 11.6418 8.36512L9.61379 6.33608C9.39835 6.12088 9.10629 6 8.80177 6C8.49726 6 8.2052 6.12088 7.98976 6.33608L7.50875 6.81809C6.95368 7.37315 6.60489 8.10118 6.52014 8.88157C6.43539 9.66197 6.61977 10.4479 7.04274 11.1092C9.26665 14.3996 12.1005 17.2334 15.3909 19.4573Z" fill="#107969"/>
</svg>
