<svg width="27" height="26" viewBox="0 0 27 26" fill="none" xmlns="http://www.w3.org/2000/svg">
<rect x="0.5" width="26" height="26" rx="4" fill="#107969" fill-opacity="0.1"/>
<g clip-path="url(#clip0_13798_72025)">
<path d="M12.9808 14.493C13.1191 14.6274 13.3043 14.7025 13.4971 14.7025C13.6899 14.7025 13.8751 14.6274 14.0133 14.493L19.6658 8.84051C19.7039 8.80225 19.7306 8.75418 19.7429 8.70166C19.7553 8.64914 19.7528 8.59422 19.7358 8.54301C19.7186 8.4919 19.6878 8.44645 19.6467 8.41151C19.6056 8.37658 19.5557 8.35347 19.5025 8.34467L19.3333 8.33301H7.66667H7.4975C7.44405 8.34119 7.39392 8.36406 7.35271 8.39909C7.31151 8.43411 7.28085 8.4799 7.26417 8.53134C7.24576 8.58238 7.24257 8.63767 7.255 8.69048C7.26743 8.7433 7.29493 8.79137 7.33417 8.82884L12.9808 14.493Z" fill="#107969"/>
<path d="M20.4358 9.40051C20.4186 9.38897 20.3983 9.38281 20.3775 9.38281C20.3567 9.38281 20.3364 9.38897 20.3192 9.40051L16.7025 13.0172C16.6876 13.0303 16.6757 13.0465 16.6675 13.0646C16.6593 13.0827 16.6551 13.1023 16.6551 13.1222C16.6551 13.142 16.6593 13.1617 16.6675 13.1798C16.6757 13.1979 16.6876 13.214 16.7025 13.2272L19.6192 16.1438C19.6964 16.2268 19.7385 16.3365 19.7365 16.4498C19.7345 16.5632 19.6886 16.6713 19.6084 16.7515C19.5283 16.8316 19.4201 16.8775 19.3068 16.8795C19.1935 16.8815 19.0838 16.8395 19.0008 16.7622L16.0842 13.8455C16.0706 13.8314 16.0543 13.8202 16.0362 13.8125C16.0182 13.8048 15.9988 13.8009 15.9792 13.8009C15.9596 13.8009 15.9402 13.8048 15.9221 13.8125C15.9041 13.8202 15.8878 13.8314 15.8742 13.8455L14.6317 15.088C14.3301 15.3876 13.9222 15.5557 13.4971 15.5557C13.072 15.5557 12.6641 15.3876 12.3625 15.088L11.1258 13.8688C11.1127 13.8539 11.0965 13.842 11.0784 13.8338C11.0603 13.8257 11.0407 13.8214 11.0208 13.8214C11.001 13.8214 10.9813 13.8257 10.9632 13.8338C10.9451 13.842 10.929 13.8539 10.9158 13.8688L7.99917 16.7855C7.91623 16.8628 7.80654 16.9049 7.6932 16.9029C7.57985 16.9009 7.47171 16.8549 7.39155 16.7748C7.3114 16.6946 7.26548 16.5865 7.26348 16.4731C7.26148 16.3598 7.30355 16.2501 7.38083 16.1672L10.2975 13.2505C10.3124 13.2374 10.3243 13.2212 10.3325 13.2031C10.3407 13.185 10.3449 13.1654 10.3449 13.1455C10.3449 13.1256 10.3407 13.106 10.3325 13.0879C10.3243 13.0698 10.3124 13.0536 10.2975 13.0405L6.68083 9.42384C6.66357 9.4123 6.64327 9.40615 6.6225 9.40615C6.60173 9.40615 6.58143 9.4123 6.56417 9.42384C6.54804 9.4302 6.53374 9.44046 6.52255 9.45369C6.51135 9.46692 6.50361 9.48272 6.5 9.49967V16.4997C6.5 16.8091 6.62292 17.1058 6.84171 17.3246C7.0605 17.5434 7.35725 17.6663 7.66667 17.6663H19.3333C19.6428 17.6663 19.9395 17.5434 20.1583 17.3246C20.3771 17.1058 20.5 16.8091 20.5 16.4997V9.49967C20.5005 9.47862 20.4946 9.4579 20.4832 9.44021C20.4717 9.42253 20.4552 9.40869 20.4358 9.40051Z" fill="#107969"/>
</g>
<defs>
<clipPath id="clip0_13798_72025">
<rect width="14" height="14" fill="white" transform="translate(6.5 6)"/>
</clipPath>
</defs>
</svg>
