<svg width="32" height="32" viewBox="0 0 32 32" fill="none" xmlns="http://www.w3.org/2000/svg">
<rect width="32" height="32" rx="6" fill="#107969" fill-opacity="0.2"/>
<path d="M18.4796 9.43333L21.4996 12.4533C21.5583 12.5095 21.594 12.5856 21.5996 12.6667V22.3333C21.5996 22.4217 21.5645 22.5065 21.502 22.569C21.4395 22.6315 21.3547 22.6667 21.2663 22.6667H11.2663C11.1779 22.6667 11.0931 22.6315 11.0306 22.569C10.9681 22.5065 10.9329 22.4217 10.9329 22.3333V9.66667C10.9329 9.57826 10.9681 9.49348 11.0306 9.43096C11.0931 9.36845 11.1779 9.33333 11.2663 9.33333H18.2663C18.3474 9.33897 18.4234 9.37462 18.4796 9.43333ZM18.6596 8H10.9329C10.5793 8 10.2402 8.14048 9.99013 8.39052C9.74009 8.64057 9.59961 8.97971 9.59961 9.33333V22.6667C9.59961 23.0203 9.74009 23.3594 9.99013 23.6095C10.2402 23.8595 10.5793 24 10.9329 24H21.5996C21.9532 24 22.2924 23.8595 22.5424 23.6095C22.7925 23.3594 22.9329 23.0203 22.9329 22.6667V12.2733C22.9322 12.0984 22.8628 11.9308 22.7396 11.8067L19.1263 8.19333C19.0021 8.07017 18.8345 8.00074 18.6596 8Z" fill="#107969"/>
<path d="M18.9333 15.3333H12.9333C12.7565 15.3333 12.5869 15.2631 12.4619 15.1381C12.3368 15.013 12.2666 14.8435 12.2666 14.6667C12.2666 14.4899 12.3368 14.3203 12.4619 14.1953C12.5869 14.0702 12.7565 14 12.9333 14H18.9333C19.1101 14 19.2796 14.0702 19.4047 14.1953C19.5297 14.3203 19.5999 14.4899 19.5999 14.6667C19.5999 14.8435 19.5297 15.013 19.4047 15.1381C19.2796 15.2631 19.1101 15.3333 18.9333 15.3333Z" fill="#107969"/>
<path d="M18.9333 18.0013H12.9333C12.7565 18.0013 12.5869 17.9311 12.4619 17.806C12.3368 17.681 12.2666 17.5114 12.2666 17.3346C12.2666 17.1578 12.3368 16.9883 12.4619 16.8632C12.5869 16.7382 12.7565 16.668 12.9333 16.668H18.9333C19.1101 16.668 19.2796 16.7382 19.4047 16.8632C19.5297 16.9883 19.5999 17.1578 19.5999 17.3346C19.5999 17.5114 19.5297 17.681 19.4047 17.806C19.2796 17.9311 19.1101 18.0013 18.9333 18.0013Z" fill="#107969"/>
<path d="M15.9333 20.6654H12.9333C12.7565 20.6654 12.5869 20.5951 12.4619 20.4701C12.3368 20.3451 12.2666 20.1755 12.2666 19.9987C12.2666 19.8219 12.3368 19.6523 12.4619 19.5273C12.5869 19.4023 12.7565 19.332 12.9333 19.332H15.9333C16.1101 19.332 16.2796 19.4023 16.4047 19.5273C16.5297 19.6523 16.5999 19.8219 16.5999 19.9987C16.5999 20.1755 16.5297 20.3451 16.4047 20.4701C16.2796 20.5951 16.1101 20.6654 15.9333 20.6654Z" fill="#107969"/>
</svg>
