<svg width="24" height="24" viewBox="0 0 24 24" fill="none" xmlns="http://www.w3.org/2000/svg">
<g clip-path="url(#clip0_20067_78968)">
<path d="M21.379 16.913C19.867 15.635 19 13.767 19 11.788V9C19 5.481 16.386 2.568 13 2.08V1C13 0.447 12.552 0 12 0C11.448 0 11 0.447 11 1V2.08C7.613 2.568 5 5.481 5 9V11.788C5 13.767 4.133 15.635 2.612 16.921C2.223 17.254 2 17.738 2 18.25C2 19.215 2.785 20 3.75 20H20.25C21.215 20 22 19.215 22 18.25C22 17.738 21.777 17.254 21.379 16.913Z" fill="#B3C1E1"/>
<path d="M11.9999 24C13.8109 24 15.3259 22.709 15.6739 21H8.32593C8.67393 22.709 10.1889 24 11.9999 24Z" fill="#B3C1E1"/>
</g>
<defs>
<clipPath id="clip0_20067_78968">
<rect width="24" height="24" fill="white"/>
</clipPath>
</defs>
</svg>
