<svg width="18" height="18" viewBox="0 0 18 18" fill="none" xmlns="http://www.w3.org/2000/svg">
<path d="M17.625 6.75C17.625 6.15326 17.3879 5.58097 16.966 5.15901C16.544 4.73705 15.9717 4.5 15.375 4.5H15.18C15.1327 4.50012 15.0872 4.48231 15.0525 4.45016C15.0178 4.418 14.9967 4.3739 14.9932 4.32675C14.9496 3.7617 14.6943 3.23393 14.2785 2.84892C13.8626 2.46391 13.3167 2.25002 12.75 2.25H12.555C12.5077 2.25012 12.4622 2.23231 12.4275 2.20016C12.3928 2.16801 12.3717 2.1239 12.3682 2.07675C12.3246 1.5117 12.0693 0.983927 11.6535 0.598916C11.2376 0.213906 10.6917 1.76214e-05 10.125 0L2.625 0C2.02826 0 1.45597 0.237053 1.03401 0.65901C0.612053 1.08097 0.375 1.65326 0.375 2.25V11.25C0.375 11.8467 0.612053 12.419 1.03401 12.841C1.45597 13.2629 2.02826 13.5 2.625 13.5H2.82C2.86723 13.5001 2.91269 13.5179 2.94731 13.55C2.98193 13.5822 3.00316 13.6262 3.00675 13.6733C3.05039 14.2383 3.30566 14.7661 3.72153 15.1511C4.13741 15.5361 4.68327 15.75 5.25 15.75H5.445C5.49217 15.7502 5.53754 15.7682 5.57213 15.8002C5.60671 15.8323 5.62799 15.8762 5.63175 15.9233C5.67539 16.4883 5.93066 17.0161 6.34653 17.4011C6.76241 17.7861 7.30827 18 7.875 18H15.375C15.9717 18 16.544 17.7629 16.966 17.341C17.3879 16.919 17.625 16.3467 17.625 15.75V6.75ZM2.625 12C2.42609 12 2.23532 11.921 2.09467 11.7803C1.95402 11.6397 1.875 11.4489 1.875 11.25V2.25C1.875 2.05109 1.95402 1.86032 2.09467 1.71967C2.23532 1.57902 2.42609 1.5 2.625 1.5H10.125C10.2802 1.49999 10.4315 1.54809 10.5582 1.63769C10.6848 1.72728 10.7806 1.85395 10.8322 2.00025C10.8422 2.02853 10.8452 2.05879 10.8411 2.08849C10.8369 2.11819 10.8257 2.14645 10.8084 2.17092C10.791 2.19538 10.7681 2.21533 10.7414 2.22909C10.7148 2.24285 10.6852 2.25002 10.6552 2.25H5.25C4.65326 2.25 4.08097 2.48705 3.65901 2.90901C3.23705 3.33097 3 3.90326 3 4.5V11.8125C3.0001 11.8372 2.99532 11.8616 2.98593 11.8844C2.97654 11.9072 2.96273 11.9279 2.9453 11.9453C2.92787 11.9627 2.90716 11.9765 2.88437 11.9859C2.86158 11.9953 2.83715 12.0001 2.8125 12H2.625ZM5.25 14.25C5.05109 14.25 4.86032 14.171 4.71967 14.0303C4.57902 13.8897 4.5 13.6989 4.5 13.5V4.5C4.5 4.30109 4.57902 4.11032 4.71967 3.96967C4.86032 3.82902 5.05109 3.75 5.25 3.75H12.75C12.9052 3.74999 13.0565 3.79809 13.1832 3.88769C13.3098 3.97728 13.4056 4.10395 13.4573 4.25025C13.4672 4.27853 13.4702 4.30879 13.4661 4.33849C13.4619 4.36819 13.4507 4.39645 13.4334 4.42092C13.416 4.44538 13.3931 4.46533 13.3664 4.47909C13.3398 4.49285 13.3102 4.50002 13.2803 4.5H7.875C7.27826 4.5 6.70597 4.73705 6.28401 5.15901C5.86205 5.58097 5.625 6.15326 5.625 6.75V14.0625C5.6251 14.0872 5.62032 14.1116 5.61093 14.1344C5.60154 14.1572 5.58773 14.1779 5.5703 14.1953C5.55287 14.2127 5.53216 14.2265 5.50937 14.2359C5.48658 14.2453 5.46215 14.2501 5.4375 14.25H5.25ZM16.125 15.75C16.125 15.9489 16.046 16.1397 15.9053 16.2803C15.7647 16.421 15.5739 16.5 15.375 16.5H7.875C7.67609 16.5 7.48532 16.421 7.34467 16.2803C7.20402 16.1397 7.125 15.9489 7.125 15.75V6.75C7.125 6.55109 7.20402 6.36032 7.34467 6.21967C7.48532 6.07902 7.67609 6 7.875 6H15.375C15.5739 6 15.7647 6.07902 15.9053 6.21967C16.046 6.36032 16.125 6.55109 16.125 6.75V15.75Z" fill="#C866EA"/>
</svg>
