<svg width="18" height="19" viewBox="0 0 18 19" fill="none" xmlns="http://www.w3.org/2000/svg">
<g clip-path="url(#clip0)">
<path d="M16.125 4.90035H12.9375C12.838 4.90035 12.7427 4.86084 12.6723 4.79052C12.602 4.72019 12.5625 4.62481 12.5625 4.52535V3.41235C12.5621 2.86547 12.3447 2.34109 11.958 1.95438C11.5713 1.56768 11.0469 1.35025 10.5 1.34985H7.5C6.95311 1.35025 6.42874 1.56768 6.04203 1.95438C5.65532 2.34109 5.4379 2.86547 5.4375 3.41235V4.52535C5.4375 4.62481 5.39799 4.72019 5.32766 4.79052C5.25734 4.86084 5.16196 4.90035 5.0625 4.90035H1.875C1.37772 4.90035 0.900805 5.0979 0.549175 5.44953C0.197544 5.80116 0 6.27807 0 6.77535L0 15.7754C0 16.2726 0.197544 16.7495 0.549175 17.1012C0.900805 17.4528 1.37772 17.6504 1.875 17.6504H16.125C16.3712 17.6504 16.615 17.6019 16.8425 17.5076C17.07 17.4134 17.2767 17.2753 17.4508 17.1012C17.6249 16.9271 17.763 16.7204 17.8573 16.4929C17.9515 16.2654 18 16.0216 18 15.7754V6.77535C18 6.52912 17.9515 6.28531 17.8573 6.05782C17.763 5.83034 17.6249 5.62364 17.4508 5.44953C17.2767 5.27542 17.07 5.13731 16.8425 5.04308C16.615 4.94885 16.3712 4.90035 16.125 4.90035ZM7.3125 3.41235C7.31308 3.36281 7.33303 3.31545 7.36806 3.28042C7.4031 3.24538 7.45045 3.22544 7.5 3.22485H10.5C10.5495 3.22544 10.5969 3.24538 10.6319 3.28042C10.667 3.31545 10.6869 3.36281 10.6875 3.41235V4.52535C10.6875 4.62481 10.648 4.72019 10.5777 4.79052C10.5073 4.86084 10.412 4.90035 10.3125 4.90035H7.6875C7.58804 4.90035 7.49266 4.86084 7.42233 4.79052C7.35201 4.72019 7.3125 4.62481 7.3125 4.52535V3.41235ZM12.375 12.4004C12.375 12.4998 12.3355 12.5952 12.2652 12.6655C12.1948 12.7358 12.0995 12.7754 12 12.7754H10.5C10.4005 12.7754 10.3052 12.8149 10.2348 12.8852C10.1645 12.9555 10.125 13.0509 10.125 13.1504V14.6504C10.125 14.7498 10.0855 14.8452 10.0152 14.9155C9.94484 14.9858 9.84946 15.0254 9.75 15.0254H8.25C8.15054 15.0254 8.05516 14.9858 7.98483 14.9155C7.91451 14.8452 7.875 14.7498 7.875 14.6504V13.1504C7.875 13.0509 7.83549 12.9555 7.76517 12.8852C7.69484 12.8149 7.59946 12.7754 7.5 12.7754H6C5.90054 12.7754 5.80516 12.7358 5.73484 12.6655C5.66451 12.5952 5.625 12.4998 5.625 12.4004V10.9004C5.625 10.8009 5.66451 10.7055 5.73484 10.6352C5.80516 10.5649 5.90054 10.5254 6 10.5254H7.5C7.59946 10.5254 7.69484 10.4858 7.76517 10.4155C7.83549 10.3452 7.875 10.2498 7.875 10.1504V8.65035C7.875 8.5509 7.91451 8.45551 7.98483 8.38519C8.05516 8.31486 8.15054 8.27535 8.25 8.27535H9.75C9.84946 8.27535 9.94484 8.31486 10.0152 8.38519C10.0855 8.45551 10.125 8.5509 10.125 8.65035V10.1504C10.125 10.2498 10.1645 10.3452 10.2348 10.4155C10.3052 10.4858 10.4005 10.5254 10.5 10.5254H12C12.0995 10.5254 12.1948 10.5649 12.2652 10.6352C12.3355 10.7055 12.375 10.8009 12.375 10.9004V12.4004Z" fill="#B3C1E1"/>
</g>
<defs>
<clipPath id="clip0">
<rect width="18" height="18" fill="white" transform="translate(0 0.5)"/>
</clipPath>
</defs>
</svg>
