<svg width="36" height="36" viewBox="0 0 36 36" fill="none" xmlns="http://www.w3.org/2000/svg">
<path d="M32.5605 8.5605L24.4395 0.4395C24.1583 0.158176 23.7768 8.49561e-05 23.379 0H6C5.20435 0 4.44129 0.316071 3.87868 0.87868C3.31607 1.44129 3 2.20435 3 3V33C3 33.7957 3.31607 34.5587 3.87868 35.1213C4.44129 35.6839 5.20435 36 6 36H30C30.7956 36 31.5587 35.6839 32.1213 35.1213C32.6839 34.5587 33 33.7957 33 33V9.621C32.9999 9.22321 32.8418 8.84174 32.5605 8.5605ZM30 32.25C30 32.4489 29.921 32.6397 29.7803 32.7803C29.6397 32.921 29.4489 33 29.25 33H6.75C6.55109 33 6.36032 32.921 6.21967 32.7803C6.07902 32.6397 6 32.4489 6 32.25V3.75C6 3.55109 6.07902 3.36032 6.21967 3.21967C6.36032 3.07902 6.55109 3 6.75 3H22.4475C22.646 3.00004 22.8364 3.0788 22.977 3.219L29.781 10.023C29.9212 10.1636 30 10.354 30 10.5525V32.25Z" fill="black"/>
<path d="M13.1992 15C14.8561 15 16.1992 13.6569 16.1992 12C16.1992 10.3431 14.8561 9 13.1992 9C11.5424 9 10.1992 10.3431 10.1992 12C10.1992 13.6569 11.5424 15 13.1992 15Z" fill="black"/>
<path d="M21.335 16.0166C21.2676 15.9087 21.1738 15.8197 21.0625 15.7581C20.9513 15.6964 20.8262 15.6641 20.699 15.6641C20.5718 15.6641 20.4467 15.6964 20.3354 15.7581C20.2241 15.8197 20.1304 15.9087 20.063 16.0166L16.424 21.8396C16.39 21.8932 16.343 21.9373 16.2874 21.9679C16.2318 21.9985 16.1694 22.0145 16.106 22.0145C16.0425 22.0145 15.9801 21.9985 15.9245 21.9679C15.8689 21.9373 15.8219 21.8932 15.788 21.8396L14.492 19.7666C14.4246 19.6587 14.3308 19.5697 14.2195 19.5081C14.1083 19.4464 13.9832 19.4141 13.856 19.4141C13.7288 19.4141 13.6037 19.4464 13.4924 19.5081C13.3811 19.5697 13.2874 19.6587 13.22 19.7666L9.05747 26.4251C9.0218 26.4818 9.002 26.5471 9.00014 26.6142C8.99829 26.6812 9.01443 26.7475 9.04691 26.8062C9.07938 26.8648 9.12699 26.9137 9.18478 26.9477C9.24257 26.9818 9.30842 26.9996 9.37547 26.9996H27.5255C27.5925 26.9996 27.6584 26.9818 27.7162 26.9477C27.7739 26.9137 27.8216 26.8648 27.854 26.8062C27.8865 26.7475 27.9027 26.6812 27.9008 26.6142C27.8989 26.5471 27.8791 26.4818 27.8435 26.4251L21.335 16.0166Z" fill="black"/>
</svg>
