<svg width="20" height="18" viewBox="0 0 20 18" fill="none" xmlns="http://www.w3.org/2000/svg">
<path fill-rule="evenodd" clip-rule="evenodd" d="M5.00909 0.875C4.20077 0.875 3.51001 1.40299 3.24729 2.12697H16.7854C16.5224 1.40299 15.8307 0.875 15.0224 0.875H5.00909ZM2.50516 3.38016C1.4756 3.38016 0.623535 4.231 0.623535 5.26056V15.2739C0.623535 16.3034 1.4756 17.1555 2.50516 17.1555H17.5276C18.5571 17.1555 19.4031 16.3034 19.4031 15.2739V5.26056C19.4031 4.231 18.5571 3.38016 17.5276 3.38016H2.50516ZM10.0047 5.87554C10.3596 5.86887 10.6484 6.15761 10.6417 6.51253V12.5119L12.0795 11.0778C12.1357 11.0123 12.2047 10.9591 12.2824 10.9215C12.3601 10.8839 12.4447 10.8628 12.5309 10.8595C12.6171 10.8562 12.703 10.8707 12.7834 10.9022C12.8637 10.9337 12.9367 10.9814 12.9977 11.0424C13.0587 11.1034 13.1064 11.1764 13.1379 11.2567C13.1694 11.337 13.1839 11.423 13.1806 11.5092C13.1772 11.5954 13.1561 11.68 13.1186 11.7577C13.081 11.8354 13.0278 11.9044 12.9623 11.9605L10.4571 14.4657C10.3398 14.5823 10.1811 14.6478 10.0157 14.6478C9.85035 14.6478 9.69167 14.5823 9.57438 14.4657L7.07044 11.9605C6.9848 11.8774 6.9247 11.7716 6.89722 11.6554C6.86974 11.5393 6.87603 11.4177 6.91534 11.305C6.95466 11.1924 7.02537 11.0933 7.11913 11.0194C7.21289 10.9456 7.3258 10.9001 7.44456 10.8883C7.53813 10.8797 7.63243 10.8923 7.72047 10.9251C7.80852 10.9579 7.88805 11.0101 7.95318 11.0778L9.38976 12.5156V6.51253C9.38327 6.16668 9.65889 5.88264 10.0047 5.87554Z" fill="#B727EA"/>
</svg>
