<svg width="32" height="32" viewBox="0 0 32 32" fill="none" xmlns="http://www.w3.org/2000/svg">
  <rect width="32" height="32" rx="5" fill="#E9F1FB"/>
  <path d="M21.6663 9.33344H18.333C18.3049 9.33333 18.2772 9.32581 18.2529 9.31165C18.2285 9.2975 18.2084 9.27719 18.1943 9.25278C17.9687 8.87121 17.6475 8.55503 17.2624 8.33539C16.8773 8.11575 16.4417 8.00024 15.9983 8.00024C15.555 8.00024 15.1194 8.11575 14.7343 8.33539C14.3492 8.55503 14.028 8.87121 13.8023 9.25278C13.7886 9.27681 13.7688 9.29686 13.745 9.311C13.7211 9.32513 13.694 9.33286 13.6663 9.33344H10.333C10.0678 9.33344 9.81344 9.4388 9.6259 9.62634C9.43836 9.81387 9.33301 10.0682 9.33301 10.3334V23.0001C9.33301 23.2653 9.43836 23.5197 9.6259 23.7072C9.81344 23.8948 10.0678 24.0001 10.333 24.0001H21.6663C21.9316 24.0001 22.1859 23.8948 22.3734 23.7072C22.561 23.5197 22.6663 23.2653 22.6663 23.0001V10.3334C22.6663 10.0682 22.561 9.81387 22.3734 9.62634C22.1859 9.4388 21.9316 9.33344 21.6663 9.33344ZM20.6663 18.8401C20.6665 19.2376 20.5247 19.622 20.2663 19.9241L18.987 21.4174C18.8304 21.6001 18.6361 21.7468 18.4174 21.8472C18.1988 21.9477 17.961 21.9996 17.7203 21.9994H11.6663C11.5779 21.9994 11.4932 21.9643 11.4306 21.9018C11.3681 21.8393 11.333 21.7545 11.333 21.6661V11.6668C11.333 11.5784 11.3681 11.4936 11.4306 11.4311C11.4932 11.3686 11.5779 11.3334 11.6663 11.3334H20.333C20.4214 11.3334 20.5062 11.3686 20.5687 11.4311C20.6312 11.4936 20.6663 11.5784 20.6663 11.6668V18.8401Z" fill="#8C94A6"/>
  <path d="M18.6663 13.4993H13.333C13.2004 13.4993 13.0732 13.5519 12.9795 13.6457C12.8857 13.7395 12.833 13.8667 12.833 13.9993C12.833 14.1319 12.8857 14.2591 12.9795 14.3528C13.0732 14.4466 13.2004 14.4993 13.333 14.4993H18.6663C18.7989 14.4993 18.9261 14.4466 19.0199 14.3528C19.1137 14.2591 19.1663 14.1319 19.1663 13.9993C19.1663 13.8667 19.1137 13.7395 19.0199 13.6457C18.9261 13.5519 18.7989 13.4993 18.6663 13.4993Z" fill="#8C94A6"/>
  <path d="M18.6663 15.8328H13.333C13.2004 15.8328 13.0732 15.8854 12.9795 15.9792C12.8857 16.073 12.833 16.2002 12.833 16.3328C12.833 16.4654 12.8857 16.5925 12.9795 16.6863C13.0732 16.7801 13.2004 16.8328 13.333 16.8328H18.6663C18.7989 16.8328 18.9261 16.7801 19.0199 16.6863C19.1137 16.5925 19.1663 16.4654 19.1663 16.3328C19.1663 16.2002 19.1137 16.073 19.0199 15.9792C18.9261 15.8854 18.7989 15.8328 18.6663 15.8328Z" fill="#8C94A6"/>
  <path d="M16.333 18.166H13.333C13.2004 18.166 13.0732 18.2187 12.9795 18.3125C12.8857 18.4062 12.833 18.5334 12.833 18.666C12.833 18.7986 12.8857 18.9258 12.9795 19.0196C13.0732 19.1133 13.2004 19.166 13.333 19.166H16.333C16.4656 19.166 16.5928 19.1133 16.6866 19.0196C16.7803 18.9258 16.833 18.7986 16.833 18.666C16.833 18.5334 16.7803 18.4062 16.6866 18.3125C16.5928 18.2187 16.4656 18.166 16.333 18.166Z" fill="#8C94A6"/>
</svg>
