<svg width="18" height="19" viewBox="0 0 18 19" fill="none" xmlns="http://www.w3.org/2000/svg">
<path fill-rule="evenodd" clip-rule="evenodd" d="M10.2857 4.44308C10.2857 6.57332 8.55881 8.30022 6.42857 8.30022C4.29834 8.30022 2.57143 6.57332 2.57143 4.44308C2.57143 2.31284 4.29834 0.585938 6.42857 0.585938C8.55881 0.585938 10.2857 2.31284 10.2857 4.44308ZM13.8214 10.2288C14.354 10.2288 14.7857 10.6605 14.7857 11.1931V13.4431H17.0357C17.5683 13.4431 18 13.8748 18 14.4074C18 14.9399 17.5683 15.3717 17.0357 15.3717H14.7857V17.6217C14.7857 18.1542 14.354 18.5859 13.8214 18.5859C13.2889 18.5859 12.8571 18.1542 12.8571 17.6217V15.3717H10.6071C10.0746 15.3717 9.64286 14.9399 9.64286 14.4074C9.64286 13.8748 10.0746 13.4431 10.6071 13.4431H12.8571V11.1931C12.8571 10.6605 13.2889 10.2288 13.8214 10.2288ZM6.42857 9.5859C8.34862 9.5859 10.0721 10.4276 11.25 11.7623V11.8359H10.6071C9.18698 11.8359 8.03571 12.9872 8.03571 14.4074C8.03571 15.3755 8.57073 16.2187 9.36122 16.6574H0.642857C0.287817 16.6574 0 16.3695 0 16.0145C0 12.4641 2.87817 9.5859 6.42857 9.5859Z" fill="black"/>
</svg>
