<svg width="120" height="120" viewBox="0 0 120 120" fill="none" xmlns="http://www.w3.org/2000/svg">
<rect width="120" height="120" rx="10" fill="white"/>
<path d="M60 20C37.9432 20 20 37.9432 20 60C20 82.0568 37.9432 100 60 100C82.0568 100 100 82.0568 100 60C100 37.9432 82.0509 20 60 20ZM60 92.891C41.8626 92.891 27.1031 78.1315 27.1031 59.9941C27.1031 41.8567 41.8626 27.0972 60 27.0972C78.1374 27.0972 92.8969 41.8567 92.8969 59.9941C92.8969 78.1315 78.1374 92.891 60 92.891Z" fill="#18453B"/>
<path d="M63.5898 56.4043H56.4043V63.5898H63.5898V56.4043Z" fill="#18453B"/>
<path d="M79.3671 55.6983V48.1597C79.3671 43.2281 76.7601 40.6211 71.8285 40.6211H48.1592C43.2276 40.6211 40.6206 43.2281 40.6206 48.1597V71.829C40.6206 76.7606 43.2276 79.3676 48.1592 79.3676H71.8285C76.7601 79.3676 79.3671 76.7606 79.3671 71.829V64.2904H72.1816V72.1821H47.8061V47.8066H72.1816V55.6983H79.3671V55.6983Z" fill="#18453B"/>
</svg>
