<svg width="99" height="36" viewBox="0 0 99 36" fill="none" xmlns="http://www.w3.org/2000/svg">
<path d="M18.5814 0C8.6558 0 0.58136 8.07444 0.58136 18C0.58136 27.9256 8.6558 36 18.5814 36C28.5069 36 36.5814 27.9256 36.5814 18C36.5814 8.07444 28.5069 0 18.5814 0ZM18.5814 32.801C10.4195 32.801 3.77776 26.1592 3.77776 17.9974C3.77776 9.83551 10.4195 3.19375 18.5814 3.19375C26.7432 3.19375 33.385 9.83551 33.385 17.9974C33.385 26.1592 26.7432 32.801 18.5814 32.801Z" fill="#18453B"/>
<path d="M20.1997 16.3818H16.9662V19.6153H20.1997V16.3818Z" fill="#18453B"/>
<path d="M27.2993 16.0641V12.6717C27.2993 10.4525 26.1261 9.2793 23.9069 9.2793H13.2558C11.0365 9.2793 9.86337 10.4525 9.86337 12.6717V23.3229C9.86337 25.5421 11.0365 26.7153 13.2558 26.7153H23.9069C26.1261 26.7153 27.2993 25.5421 27.2993 23.3229V19.9305H24.0658V23.4817H13.0968V12.5128H24.0658V16.0641H27.2993Z" fill="#18453B"/>
<path d="M50.7469 13.9933C51.4513 13.604 52.2458 13.4107 53.133 13.4107C54.5418 13.4107 55.7362 13.9615 56.716 15.0606L58.7287 13.1882C58.0587 12.3964 57.2324 11.7874 56.2526 11.3557C55.2727 10.9267 54.179 10.7122 52.9714 10.7122C51.5228 10.7122 50.2199 11.0273 49.0679 11.6576C47.9133 12.2879 47.005 13.1565 46.3402 14.2634C45.6755 15.3704 45.3445 16.6151 45.3445 17.9974C45.3445 19.3798 45.6755 20.6245 46.3402 21.7314C47.005 22.8384 47.9133 23.707 49.0679 24.3373C50.2225 24.9676 51.5175 25.2827 52.9529 25.2827C54.1869 25.2827 55.2913 25.0682 56.2632 24.6392C57.2351 24.2102 58.0587 23.5931 58.7287 22.7881L56.716 20.9158C55.7362 22.0307 54.5418 22.5868 53.133 22.5868C52.2485 22.5868 51.4513 22.3935 50.7469 22.0042C50.0425 21.6149 49.4943 21.0747 49.105 20.3835C48.7157 19.6923 48.5224 18.8978 48.5224 17.9974C48.5224 17.0997 48.7157 16.3026 49.105 15.6114C49.4943 14.9228 50.0425 14.3826 50.7469 13.9933Z" fill="#18453B"/>
<path d="M65.9742 10.9558H62.8334V25.0444H65.9742V10.9558Z" fill="#18453B"/>
<path d="M75.7328 10.9558L69.4539 25.0444H72.7138L73.9929 21.9857H80.6002L81.8741 25.0444H85.1737L78.8736 10.9558H75.7328ZM74.9939 19.589L77.3032 14.0622L79.6045 19.589H74.9939Z" fill="#18453B"/>
<path d="M98.2347 18.6939C97.7368 18.1378 97.1463 17.7326 96.463 17.4757C95.7798 17.2215 94.9005 16.9726 93.8254 16.7316C93.0997 16.5833 92.541 16.4456 92.1437 16.3185C91.7465 16.1914 91.4181 16.0139 91.1586 15.7862C90.8964 15.5584 90.7667 15.2698 90.7667 14.9202C90.7667 14.425 90.9917 14.0251 91.4419 13.7232C91.8921 13.4213 92.578 13.2704 93.5049 13.2704C94.1352 13.2704 94.784 13.363 95.4461 13.5511C96.1108 13.7391 96.7649 14.0066 97.4084 14.3561L98.3935 11.9621C97.7633 11.5596 97.0165 11.2497 96.1585 11.0352C95.3004 10.8207 94.4212 10.7122 93.5208 10.7122C92.247 10.7122 91.1666 10.9055 90.2794 11.2948C89.3949 11.684 88.7302 12.2084 88.2879 12.8652C87.8457 13.5219 87.6232 14.2608 87.6232 15.0791C87.6232 16.0192 87.8721 16.7687 88.3674 17.3327C88.8626 17.8968 89.4505 18.3046 90.1284 18.5615C90.8064 18.8157 91.6882 19.0647 92.774 19.3056C93.4864 19.4672 94.0425 19.6182 94.4451 19.7585C94.8476 19.8989 95.1786 20.0816 95.4408 20.3014C95.703 20.5212 95.8327 20.8072 95.8327 21.1568C95.8327 21.6547 95.6076 22.0386 95.1601 22.3141C94.7099 22.5895 94.016 22.7272 93.0759 22.7272C92.2311 22.7272 91.3916 22.5895 90.5601 22.3141C89.7286 22.0386 89.0162 21.6811 88.4256 21.2362L87.3398 23.6302C87.9701 24.1281 88.8017 24.5253 89.8345 24.8272C90.8673 25.1291 91.9425 25.2801 93.0547 25.2801C94.3444 25.2801 95.4302 25.0841 96.3147 24.6975C97.1992 24.3108 97.8639 23.7865 98.3062 23.1271C98.7484 22.4703 98.9709 21.7394 98.9709 20.9343C98.9788 19.9995 98.7299 19.25 98.2347 18.6939Z" fill="#18453B"/>
</svg>
