<svg width="246" height="217" viewBox="0 0 246 217" fill="none" xmlns="http://www.w3.org/2000/svg">
<path d="M139.845 195.624C132.144 202.909 123.529 209.061 115.254 215.643C112.927 217.494 111.529 216.686 109.632 215.25C97.5409 206.106 85.7748 196.569 74.5603 186.375C50.9826 164.951 28.6972 142.363 12.7596 114.402C4.71141 100.286 -0.918511 85.4063 0.124348 68.6828C1.96824 39.052 28.6594 15.8144 58.2826 17.2427C83.6966 18.4669 101.44 29.9761 111.347 53.4556C111.688 54.2642 112.217 54.9972 112.904 56.1836C121.806 34.5481 136.21 20.2277 160.241 18.0664C160.611 18.7616 160.649 19.5098 160.271 20.1521C155.472 28.2229 154.037 37.2308 153.115 46.3369C152.684 50.6444 149.427 51.8837 146.351 53.4178C134.51 59.2971 127.852 68.9171 125.532 81.8092C122.041 101.223 136.096 119.564 152.986 124.347C168.297 128.685 184.688 123.131 194.028 110.699C203.943 97.4974 204.895 81.0309 195.985 67.1034C188.836 55.9342 178.264 50.0474 165.032 49.0121C156.818 48.3697 155.956 47.4024 157.785 39.1276C159.825 29.8779 163.143 21.3008 172.075 16.2981C198.902 16.3132 221.898 37.2837 225.956 62.7355C228.042 75.8166 226.054 88.4896 220.916 100.754C213.993 117.274 203.92 131.783 192.6 145.446C178.959 161.898 164.019 177.125 147.455 190.697C144.364 191.884 141.742 190.531 139.195 189.073C129.741 183.677 123.96 175.183 119.66 165.525C118.187 162.223 118.33 158.807 119.97 155.474C122.668 149.996 122.177 144.532 119.69 139.129C115.632 130.295 110.153 122.375 103.942 114.939C92.9765 97.9433 80.9761 81.8017 66.3912 67.64C59.6126 61.0579 52.0632 57.3247 42.5415 57.6119C40.1535 57.6799 36.2617 58.6245 35.8385 55.8965C35.3699 52.851 39.5036 52.6545 41.8311 51.5134C42.481 51.196 43.2141 51.06 43.9168 50.9013C46.7734 50.5461 49.6223 50.1456 52.4109 49.3975C54.882 48.7325 55.5545 47.1909 54.557 44.9011C53.5293 42.5509 51.829 42.1504 49.7735 43.5333C47.6878 44.9313 45.4736 46.1782 43.743 48.0599C39.3222 51.2943 34.2137 53.4707 29.9592 56.9469C25.9691 60.2039 22.4022 63.8086 20.3241 68.6752C18.9336 71.9247 16.7874 74.6301 13.8478 76.6554C11.354 77.8343 9.57809 79.9124 7.68885 81.8017C5.82229 83.6682 6.63844 85.4743 8.53523 86.7364C10.4169 87.9832 12.0416 87.3031 12.9258 85.3383C14.0367 82.8899 15.0266 80.3885 16.0771 77.9098C18.3744 75.4765 19.6137 76.9123 20.188 79.2399C24.6617 97.4974 37.9846 109.906 49.3276 123.637C55.0256 130.529 61.8268 136.416 67.23 143.565C73.4721 153.434 81.8678 161.21 91.1931 168.034C94.8431 170.702 99.2488 170.838 103.284 169.364C109.194 167.218 113.577 169.341 117.605 173.286C121.119 176.732 124.708 180.11 127.61 184.138C130.92 188.755 136.044 191.491 139.845 195.624Z" fill="#FFC50D"/>
<path d="M104.962 114.357C112.209 122.163 118.02 130.944 121.897 140.837C124.021 146.255 123.998 151.923 120.605 157.099C119.766 158.384 119.509 159.691 119.706 161.24C121.066 172.228 135.908 188.158 146.759 190.191C158.669 191.355 166.717 184.123 174.289 176.777C198.54 153.275 218.581 126.697 230.505 94.7845C236.997 77.4186 240.141 59.4633 234.08 41.1982C229.75 28.1474 221.21 18.1873 208.923 12.1115C198.713 7.06347 188.323 8.62776 178.446 13.9327C176.367 15.0436 174.576 16.7288 172.09 16.9857C163.649 23.5527 159.992 32.5984 158.488 42.8607C157.913 46.7677 159.175 47.7425 163.082 47.7576C182.814 47.8105 198.592 60.6498 202.749 79.6479C207.313 100.52 192.721 122.481 171.66 126.433C149.329 130.627 127.912 116.352 124.277 94.845C121.111 76.0886 130.172 58.7983 147.576 51.1507C150.742 49.7602 151.739 48.2413 151.951 44.8558C152.548 35.3264 154.702 26.1448 160.226 18.0739C166.37 11.0687 173.738 5.88459 182.655 3.02806C198.487 -2.04265 212.354 2.15146 224.188 12.905C243.964 30.8754 248.71 53.6294 243.216 78.9074C236.211 111.13 218.951 138.018 198.2 162.933C190.824 171.79 182.549 179.747 173.881 187.365C163.861 196.168 153.077 200.642 139.837 195.624C134.17 193.146 129.9 189.042 126.046 184.304C123.061 180.631 119.811 177.148 116.448 173.815C112.882 170.286 108.808 168.503 103.609 170.656C100.156 172.092 96.2034 172.387 92.9842 170.414C82.1626 163.802 73.185 155.187 66.4895 144.32C67.3737 142.514 69.2931 142.25 70.8272 141.388C74.976 141.592 77.1977 144.675 79.4194 147.472C82.4876 151.341 85.9033 154.855 89.5155 158.172C95.017 163.213 101.788 163.795 107.524 159.971C114.34 155.429 116.705 148.922 114.121 141.57C111.861 135.154 107.977 129.637 104.259 124.022C102.786 121.801 100.692 119.79 100.927 116.753C101.826 115.226 103.178 114.433 104.962 114.357Z" fill="#005B4E"/>
<path d="M104.962 114.357C104.372 115.755 103.118 116.201 101.811 116.571C97.8357 114.848 96.4604 110.82 94.1933 107.677C84.5582 94.3386 74.4016 81.4616 62.2803 70.2622C55.6377 64.126 48.3226 59.5313 38.6119 62.1989C34.4858 63.3325 30.9341 65.5391 27.5561 68.0631C24.4351 70.3982 23.6416 73.353 24.488 77.2297C27.0045 88.7163 33.7755 97.7468 41.0302 106.475C49.4184 116.571 57.9955 126.509 67.0865 135.993C68.7112 137.693 70.3813 139.438 70.6987 141.97C70.2075 144.388 68.341 144.343 66.4895 144.328C56.2347 133.28 45.8515 122.352 36.4355 110.571C28.7274 100.936 20.8833 91.331 18.6767 78.6051C18.45 77.2977 17.5961 77.4186 16.7724 78.2272C14.8076 78.6806 14.0367 77.6076 13.7949 75.877C16.4928 72.2875 18.8959 68.5619 21.0723 64.5869C25.8331 55.8965 34.5614 51.9291 42.9572 47.7274C45.194 48.4151 45.5039 49.8207 44.4535 51.7326C41.6876 52.9568 38.9142 54.181 36.035 55.4506C36.4809 55.8813 36.7151 56.2743 36.8889 56.2441C51.5192 54.1961 62.507 60.4986 71.9758 70.9877C84.203 84.5297 95.6291 98.6385 104.962 114.357Z" fill="#FFFEFC"/>
<path d="M44.4457 51.725C43.947 50.3874 43.4482 49.0574 42.9495 47.7198C44.4533 43.8809 48.262 42.6189 51.3906 41.1755C55.033 39.4979 55.4033 43.4804 56.5595 45.7475C57.8518 48.2791 56.227 49.9945 54.3756 50.2665C51.0732 50.7426 47.9597 52.783 44.4457 51.725Z" fill="#005E4E"/>
<path d="M13.795 75.877C14.7849 76.6629 15.7825 77.4489 16.7724 78.2272C17.1956 82.0661 14.6791 84.8622 13.0166 87.8245C11.7622 90.0614 9.54042 89.7667 7.49249 87.9832C5.66371 86.3963 3.02634 84.5524 5.18762 82.3987C7.67386 79.92 9.44974 76.0433 13.795 75.877Z" fill="#005D4E"/>
<path d="M70.6988 141.97C58.4641 128.897 46.4335 115.634 35.4003 101.525C29.5286 94.0137 24.6695 85.9051 22.9238 76.2549C22.2588 72.5897 23.3168 69.9902 26.0146 67.5417C36.3374 58.1862 48.2849 57.4985 59.3256 65.9925C67.933 72.6124 74.9232 80.8419 81.7093 89.2226C88.8355 98.0189 95.7274 107.004 101.811 116.564C102.695 120.425 105.574 123.123 107.569 126.335C110.637 131.277 113.894 136.113 115.595 141.758C118.081 150.003 115.784 156.245 108.521 161.029C101.592 165.593 95.1758 165.162 88.6693 159.253C85.1779 156.079 82.1778 152.376 78.8452 149.021C76.3136 146.474 74.3186 143.277 70.6988 141.97Z" fill="#FFC50D"/>
<path d="M131.706 84.1972C132.053 74.7435 137.736 65.456 148.686 59.3273C151.135 57.9519 152.125 57.8688 152.971 61.2317C154.294 66.4535 154.339 69.9977 149.351 73.9651C142.384 79.5119 141.862 90.3712 146.601 97.9735C151.324 105.546 160.883 109.075 169.528 106.445C178.06 103.845 183.834 95.5326 183.441 86.4114C183.055 77.6604 176.707 70.1791 167.979 68.2067C162.999 67.0807 159.455 62.6599 159.636 57.7252C159.742 54.6873 162.168 55.6773 163.694 55.6622C182.609 55.4959 197.935 72.9827 195.328 91.6408C192.962 108.538 178.015 120.44 160.83 119.095C144.167 117.78 131.638 104.102 131.706 84.1972Z" fill="#FEFFFF"/>
</svg>
