<svg width="42" height="42" viewBox="0 0 42 42" fill="none" xmlns="http://www.w3.org/2000/svg">
<circle cx="21" cy="21" r="20" stroke="#B727EA" stroke-opacity="0.15"/>
<rect x="5" y="5" width="32" height="32" rx="16" fill="#B727EA" fill-opacity="0.1"/>
<g clip-path="url(#clip0_13798_72093)">
<path d="M29.0001 19.3335C28.9995 19.0586 28.914 18.7907 28.7552 18.5664C28.5965 18.342 28.3724 18.1722 28.1134 18.0801C28.0625 18.0636 28.0086 18.0586 27.9556 18.0655C27.9025 18.0724 27.8517 18.0911 27.8067 18.1201C27.764 18.1519 27.7291 18.193 27.7048 18.2405C27.6806 18.2879 27.6675 18.3402 27.6667 18.3935V20.9468C27.6675 21.0001 27.6806 21.0524 27.7048 21.0998C27.7291 21.1472 27.764 21.1884 27.8067 21.2201C27.8515 21.2496 27.9023 21.2685 27.9555 21.2755C28.0086 21.2824 28.0626 21.2772 28.1134 21.2601C28.3734 21.1677 28.5984 20.9968 28.7572 20.7712C28.916 20.5455 29.0008 20.2761 29.0001 20.0001V19.3335Z" fill="#B727EA"/>
<path d="M26.6668 15.333C26.6664 15.165 26.6234 14.9998 26.5418 14.8529C26.4602 14.7059 26.3426 14.5821 26.2001 14.493C25.6468 14.1397 25.2201 14.433 24.3868 14.8397C22.3185 15.9564 20.0165 16.5708 17.6668 16.633C17.6201 16.6328 17.5738 16.6424 17.531 16.6612C17.4883 16.68 17.4499 16.7076 17.4185 16.7421C17.387 16.7767 17.3632 16.8175 17.3486 16.8619C17.3339 16.9063 17.3288 16.9532 17.3335 16.9997V22.7264C17.346 23.745 17.6388 24.7404 18.1797 25.6036C18.7207 26.4668 19.4889 27.1643 20.4001 27.6197C20.5593 27.6984 20.7431 27.7106 20.9113 27.6537C21.0794 27.5969 21.2181 27.4755 21.2968 27.3164C21.3755 27.1572 21.3877 26.9734 21.3308 26.8052C21.2739 26.6371 21.1526 26.4984 20.9935 26.4197C20.3161 26.0836 19.7426 25.57 19.334 24.9337C18.9255 24.2974 18.6972 23.5622 18.6735 22.8064C20.6658 22.9612 22.6055 23.5216 24.3735 24.453C25.2935 24.8864 25.6668 25.1197 26.2135 24.793C26.354 24.7013 26.4692 24.5756 26.5484 24.4277C26.6276 24.2797 26.6684 24.1142 26.6668 23.9464V15.333Z" fill="#B727EA"/>
<path d="M16.3333 16.9994C16.334 16.9546 16.3255 16.9103 16.3082 16.869C16.291 16.8277 16.2656 16.7904 16.2333 16.7594C16.1707 16.699 16.087 16.6655 16 16.666H15.3333C15.0267 16.6651 14.7229 16.7249 14.4394 16.8418C14.1559 16.9588 13.8983 17.1306 13.6815 17.3475C13.4646 17.5643 13.2928 17.8219 13.1758 18.1054C13.0589 18.3889 12.9991 18.6927 13 18.9994V20.3327C13.0009 20.6397 13.0623 20.9435 13.1808 21.2267C13.2993 21.5099 13.4725 21.7669 13.6905 21.983C13.9085 22.1992 14.167 22.3702 14.4512 22.4862C14.7354 22.6023 15.0397 22.6611 15.3467 22.6594H16.0133C16.0983 22.656 16.1787 22.6203 16.2382 22.5595C16.2977 22.4988 16.3317 22.4177 16.3333 22.3327V16.9994Z" fill="#B727EA"/>
</g>
<rect x="5.5" y="5.5" width="31" height="31" rx="15.5" stroke="#B727EA" stroke-opacity="0.1"/>
<defs>
<clipPath id="clip0_13798_72093">
<rect width="16" height="16" fill="white" transform="translate(13 13)"/>
</clipPath>
</defs>
</svg>
