<svg width="26" height="26" viewBox="0 0 26 26" fill="none" xmlns="http://www.w3.org/2000/svg">
<rect width="26" height="26" rx="4" fill="#107969" fill-opacity="0.1"/>
<g clip-path="url(#clip0_25342_85373)">
<path d="M17.9069 6.36133H8.09157C6.89971 6.36133 5.98828 7.27275 5.98828 8.46461V18.981C5.98828 19.2615 6.1285 19.4718 6.33883 19.612C6.47905 19.6821 6.54916 19.6821 6.68938 19.6821C6.8296 19.6821 6.96981 19.6821 7.03992 19.612L10.1949 17.649C10.3351 17.5789 10.4753 17.5789 10.6155 17.5789H17.9069C19.0988 17.5789 20.0102 16.6674 20.0102 15.4756V8.46461C20.0102 7.27275 19.0988 6.36133 17.9069 6.36133ZM10.1949 12.6712C9.7742 12.6712 9.49376 12.3907 9.49376 11.9701C9.49376 11.5494 9.7742 11.269 10.1949 11.269C10.6155 11.269 10.8959 11.5494 10.8959 11.9701C10.8959 12.3907 10.6155 12.6712 10.1949 12.6712ZM12.9992 12.6712C12.5786 12.6712 12.2981 12.3907 12.2981 11.9701C12.2981 11.5494 12.5786 11.269 12.9992 11.269C13.4199 11.269 13.7003 11.5494 13.7003 11.9701C13.7003 12.3907 13.4199 12.6712 12.9992 12.6712ZM15.8036 12.6712C15.383 12.6712 15.1025 12.3907 15.1025 11.9701C15.1025 11.5494 15.383 11.269 15.8036 11.269C16.2243 11.269 16.5047 11.5494 16.5047 11.9701C16.5047 12.3907 16.2243 12.6712 15.8036 12.6712Z" fill="#107969"/>
</g>
<defs>
<clipPath id="clip0_25342_85373">
<rect width="14" height="14" fill="white" transform="translate(6 6)"/>
</clipPath>
</defs>
</svg>
