<svg width="42" height="42" viewBox="0 0 42 42" fill="none" xmlns="http://www.w3.org/2000/svg">
<circle cx="21" cy="21" r="20" stroke="#B727EA" stroke-opacity="0.15"/>
<rect x="5" y="5" width="32" height="32" rx="16" fill="#B727EA" fill-opacity="0.1"/>
<g clip-path="url(#clip0_24160_84436)">
<path d="M21 13.4004C16.5888 13.4004 13 16.6303 13 20.6004C13 21.9881 13.439 23.3324 14.2715 24.4948C14.1139 26.238 13.6915 27.5321 13.0782 28.1452C12.9971 28.2263 12.9768 28.3503 13.028 28.4527C13.0734 28.5441 13.1667 28.6004 13.2667 28.6004C13.279 28.6004 13.2912 28.5996 13.3038 28.5977C13.4118 28.5825 15.9206 28.2215 17.7352 27.174C18.7656 27.5897 19.8632 27.8004 21 27.8004C25.4112 27.8004 29 24.5705 29 20.6004C29 16.6303 25.4112 13.4004 21 13.4004ZM17.2667 21.6671C16.6784 21.6671 16.2 21.1887 16.2 20.6004C16.2 20.0121 16.6784 19.5337 17.2667 19.5337C17.855 19.5337 18.3334 20.0121 18.3334 20.6004C18.3334 21.1887 17.855 21.6671 17.2667 21.6671ZM21 21.6671C20.4118 21.6671 19.9334 21.1887 19.9334 20.6004C19.9334 20.0121 20.4118 19.5337 21 19.5337C21.5883 19.5337 22.0667 20.0121 22.0667 20.6004C22.0667 21.1887 21.5883 21.6671 21 21.6671ZM24.7334 21.6671C24.1451 21.6671 23.6667 21.1887 23.6667 20.6004C23.6667 20.0121 24.1451 19.5337 24.7334 19.5337C25.3216 19.5337 25.8 20.0121 25.8 20.6004C25.8 21.1887 25.3216 21.6671 24.7334 21.6671Z" fill="#B727EA"/>
</g>
<rect x="5.5" y="5.5" width="31" height="31" rx="15.5" stroke="#B727EA" stroke-opacity="0.1"/>
<defs>
<clipPath id="clip0_24160_84436">
<rect width="16" height="16" fill="white" transform="translate(13 13)"/>
</clipPath>
</defs>
</svg>
