<svg width="24" height="24" viewBox="0 0 24 24" fill="none" xmlns="http://www.w3.org/2000/svg">
<path d="M17 0.0339355H7C6.20435 0.0339355 5.44129 0.350006 4.87868 0.912615C4.31607 1.47522 4 2.23829 4 3.03394V20.9659C4 21.7616 4.31607 22.5246 4.87868 23.0873C5.44129 23.6499 6.20435 23.9659 7 23.9659H17C17.7956 23.9659 18.5587 23.6499 19.1213 23.0873C19.6839 22.5246 20 21.7616 20 20.9659V3.03394C20 2.23829 19.6839 1.47522 19.1213 0.912615C18.5587 0.350006 17.7956 0.0339355 17 0.0339355ZM12 22.4659C11.8022 22.4659 11.6089 22.4073 11.4444 22.2974C11.28 22.1875 11.1518 22.0313 11.0761 21.8486C11.0004 21.6659 10.9806 21.4648 11.0192 21.2708C11.0578 21.0769 11.153 20.8987 11.2929 20.7588C11.4327 20.619 11.6109 20.5237 11.8049 20.4851C11.9989 20.4466 12.2 20.4664 12.3827 20.5421C12.5654 20.6177 12.7216 20.7459 12.8315 20.9104C12.9414 21.0748 13 21.2682 13 21.4659C13 21.7312 12.8946 21.9855 12.7071 22.173C12.5196 22.3606 12.2652 22.4659 12 22.4659ZM18 17.9659C18 18.2312 17.8946 18.4855 17.7071 18.673C17.5196 18.8606 17.2652 18.9659 17 18.9659H7C6.73478 18.9659 6.48043 18.8606 6.29289 18.673C6.10536 18.4855 6 18.2312 6 17.9659V3.53394C6 3.26872 6.10536 3.01437 6.29289 2.82683C6.48043 2.63929 6.73478 2.53394 7 2.53394H17C17.2652 2.53394 17.5196 2.63929 17.7071 2.82683C17.8946 3.01437 18 3.26872 18 3.53394V17.9659Z" fill="#ABBBD1"/>
</svg>
