<svg width="56" height="56" viewBox="0 0 56 56" fill="none" xmlns="http://www.w3.org/2000/svg">
<rect width="56" height="56" rx="14.1167" fill="#3686F0"/>
<g clip-path="url(#clip0_16070_81274)">
<path d="M28 42.1162C30.792 42.1162 33.5213 41.2882 35.8428 39.7371C38.1642 38.1859 39.9736 35.9812 41.0421 33.4017C42.1105 30.8222 42.3901 27.9838 41.8454 25.2455C41.3007 22.5071 39.9562 19.9917 37.982 18.0175C36.0077 16.0432 33.4924 14.6988 30.754 14.1541C28.0156 13.6094 25.1772 13.8889 22.5978 14.9574C20.0183 16.0258 17.8135 17.8352 16.2624 20.1567C14.7112 22.4782 13.8833 25.2075 13.8833 27.9995C13.8873 31.7422 15.3759 35.3305 18.0224 37.977C20.669 40.6235 24.2572 42.1121 28 42.1162V42.1162ZM26.8236 20.9412C26.8236 20.6292 26.9475 20.3299 27.1681 20.1093C27.3888 19.8887 27.688 19.7648 28 19.7648C28.312 19.7648 28.6112 19.8887 28.8318 20.1093C29.0524 20.3299 29.1764 20.6292 29.1764 20.9412V30.3523C29.1764 30.6643 29.0524 30.9635 28.8318 31.1841C28.6112 31.4047 28.312 31.5287 28 31.5287C27.688 31.5287 27.3888 31.4047 27.1681 31.1841C26.9475 30.9635 26.8236 30.6643 26.8236 30.3523V20.9412ZM28 35.0578C28.2326 35.0578 28.4601 35.1268 28.6535 35.2561C28.847 35.3853 28.9978 35.5691 29.0868 35.784C29.1758 35.999 29.1991 36.2355 29.1538 36.4637C29.1084 36.6919 28.9963 36.9015 28.8318 37.066C28.6673 37.2306 28.4577 37.3426 28.2295 37.388C28.0013 37.4334 27.7647 37.4101 27.5498 37.3211C27.3348 37.232 27.1511 37.0812 27.0218 36.8878C26.8926 36.6943 26.8236 36.4669 26.8236 36.2342C26.8236 35.9222 26.9475 35.623 27.1681 35.4024C27.3888 35.1818 27.688 35.0578 28 35.0578V35.0578Z" fill="white"/>
</g>
<defs>
<clipPath id="clip0_16070_81274">
<rect width="28.2333" height="28.2333" fill="white" transform="translate(13.8833 13.8828)"/>
</clipPath>
</defs>
</svg>
