<svg width="18" height="18" viewBox="0 0 18 18" fill="none" xmlns="http://www.w3.org/2000/svg">
  <path d="M18.0003 2.13001C18.0085 1.62406 17.8157 1.1355 17.4642 0.771483C17.1127 0.40747 16.6312 0.197729 16.1253 0.188263H1.87525C1.36932 0.197729 0.887797 0.40747 0.536297 0.771483C0.184798 1.1355 -0.0079778 1.62406 0.000253148 2.13001V12.5633C0.000253148 13.16 0.237306 13.7323 0.659263 14.1543C1.08122 14.5762 1.65352 14.8133 2.25025 14.8133H7.68775C7.73748 14.8133 7.78517 14.833 7.82034 14.8682C7.8555 14.9033 7.87525 14.951 7.87525 15.0008V16.1258C7.87525 16.1755 7.8555 16.2232 7.82034 16.2583C7.78517 16.2935 7.73748 16.3133 7.68775 16.3133H3.75025C3.55134 16.3133 3.36058 16.3923 3.21992 16.5329C3.07927 16.6736 3.00025 16.8643 3.00025 17.0633C3.00025 17.2622 3.07927 17.4529 3.21992 17.5936C3.36058 17.7342 3.55134 17.8133 3.75025 17.8133H14.2503C14.4492 17.8133 14.6399 17.7342 14.7806 17.5936C14.9212 17.4529 15.0003 17.2622 15.0003 17.0633C15.0003 16.8643 14.9212 16.6736 14.7806 16.5329C14.6399 16.3923 14.4492 16.3133 14.2503 16.3133H9.56275C9.51303 16.3133 9.46533 16.2935 9.43017 16.2583C9.39501 16.2232 9.37525 16.1755 9.37525 16.1258V15C9.37525 14.9503 9.39501 14.9026 9.43017 14.8674C9.46533 14.8323 9.51303 14.8125 9.56275 14.8125H15.7503C16.347 14.8125 16.9193 14.5755 17.3412 14.1535C17.7632 13.7315 18.0003 13.1592 18.0003 12.5625V2.13001ZM1.50025 2.13001C1.49234 2.02191 1.52721 1.91503 1.59736 1.8324C1.6675 1.74977 1.7673 1.69801 1.87525 1.68826H16.1253C16.2332 1.69801 16.333 1.74977 16.4032 1.8324C16.4733 1.91503 16.5082 2.02191 16.5003 2.13001V11.0633C16.5003 11.1627 16.4607 11.2581 16.3904 11.3284C16.3201 11.3988 16.2247 11.4383 16.1253 11.4383H1.87525C1.7758 11.4383 1.68041 11.3988 1.61009 11.3284C1.53976 11.2581 1.50025 11.1627 1.50025 11.0633V2.13001Z" fill="#B6C7DF"/>
  <path d="M6.97463 8.517C6.97463 8.60261 6.99735 8.6867 7.04047 8.76066C7.0836 8.83462 7.14558 8.89582 7.22009 8.93799C7.2946 8.98017 7.37897 9.00181 7.46458 9.00071C7.55019 8.99961 7.63397 8.97582 7.70738 8.93175L12.1399 6.88425C12.2115 6.84126 12.2707 6.78047 12.3119 6.70779C12.353 6.63511 12.3746 6.55301 12.3746 6.4695C12.3746 6.38598 12.353 6.30389 12.3119 6.23121C12.2707 6.15853 12.2115 6.09773 12.1399 6.05475L7.70738 4.00725C7.6338 3.96279 7.54969 3.93878 7.46373 3.93769C7.37777 3.9366 7.29307 3.95848 7.21839 4.00105C7.14371 4.04363 7.08174 4.10537 7.03889 4.1799C6.99604 4.25442 6.97386 4.33903 6.97463 4.425V8.517Z" fill="#B6C7DF"/>
</svg>
