<svg width="20" height="20" viewBox="0 0 20 20" fill="none" xmlns="http://www.w3.org/2000/svg">
<g>
<path d="M10.6258 9.58334C10.5706 9.58334 10.5176 9.60529 10.4785 9.64436C10.4394 9.68343 10.4175 9.73642 10.4175 9.79167V11.25C10.4175 11.8025 10.198 12.3324 9.80731 12.7231C9.4166 13.1138 8.8867 13.3333 8.33417 13.3333C7.78163 13.3333 7.25173 13.1138 6.86103 12.7231C6.47033 12.3324 6.25083 11.8025 6.25083 11.25V9.58334C6.25216 8.47868 6.69157 7.41964 7.47268 6.63852C8.2538 5.85741 9.31284 5.418 10.4175 5.41667H13.9592C14.0144 5.41667 14.0674 5.39472 14.1065 5.35565C14.1455 5.31658 14.1675 5.26359 14.1675 5.20834V4.58334C14.1675 4.14131 13.9919 3.71739 13.6793 3.40483C13.3668 3.09227 12.9429 2.91667 12.5008 2.91667H1.66667C1.22464 2.91667 0.800716 3.09227 0.488155 3.40483C0.175595 3.71739 0 4.14131 0 4.58334L0 15.4167C0 15.8587 0.175595 16.2826 0.488155 16.5952C0.800716 16.9077 1.22464 17.0833 1.66667 17.0833H12.5C12.942 17.0833 13.3659 16.9077 13.6785 16.5952C13.9911 16.2826 14.1667 15.8587 14.1667 15.4167V9.79167C14.1667 9.73642 14.1447 9.68343 14.1056 9.64436C14.0666 9.60529 14.0136 9.58334 13.9583 9.58334H10.6258Z" fill="#B2C7E1"/>
<path d="M19.7567 6.90917L16.84 3.99251C16.7234 3.87561 16.5747 3.79599 16.4128 3.76373C16.2509 3.73148 16.083 3.74806 15.9305 3.81136C15.778 3.87466 15.6478 3.98183 15.5563 4.11927C15.4648 4.25671 15.4162 4.41824 15.4167 4.58334V6.45834C15.4167 6.51359 15.3947 6.56658 15.3556 6.60565C15.3166 6.64473 15.2636 6.66667 15.2083 6.66667H10.4167C9.64312 6.66667 8.90125 6.97396 8.35427 7.52095C7.80729 8.06793 7.5 8.80979 7.5 9.58334V11.25C7.5 11.471 7.5878 11.683 7.74408 11.8393C7.90036 11.9955 8.11232 12.0833 8.33333 12.0833C8.55435 12.0833 8.76631 11.9955 8.92259 11.8393C9.07887 11.683 9.16667 11.471 9.16667 11.25V9.58334C9.16667 9.25182 9.29836 8.93388 9.53278 8.69946C9.7672 8.46504 10.0851 8.33334 10.4167 8.33334H15.2083C15.2636 8.33334 15.3166 8.35529 15.3556 8.39436C15.3947 8.43343 15.4167 8.48642 15.4167 8.54167V10.4167C15.4167 10.5815 15.4656 10.7425 15.5572 10.8796C15.6487 11.0166 15.7789 11.1233 15.9311 11.1864C16.0834 11.2495 16.2509 11.266 16.4125 11.2338C16.5742 11.2017 16.7226 11.1223 16.8392 11.0058L19.7558 8.08917C19.8335 8.01182 19.8951 7.9199 19.9372 7.81869C19.9793 7.71748 20.001 7.60896 20.0011 7.49935C20.0011 7.38973 19.9796 7.28118 19.9377 7.17991C19.8957 7.07864 19.8342 6.98664 19.7567 6.90917Z" fill="#B2C7E1"/>
</g>
<defs>
<clipPath>
<rect width="20" height="20" fill="white"/>
</clipPath>
</defs>
</svg>
