<svg width="62" height="62" viewBox="0 0 62 62" fill="none" xmlns="http://www.w3.org/2000/svg">
<path d="M21.9583 2.57558H6.45829C3.60482 2.57558 1.29163 4.88878 1.29163 7.74225V23.2423C1.29163 26.0957 3.60482 28.4089 6.45829 28.4089H21.9583C24.8118 28.4089 27.125 26.0957 27.125 23.2423V7.74225C27.125 4.88878 24.8118 2.57558 21.9583 2.57558Z" fill="#C6D2E1"/>
<path d="M21.9583 33.5756H6.45829C3.60482 33.5756 1.29163 35.8888 1.29163 38.7423V54.2423C1.29163 57.0957 3.60482 59.4089 6.45829 59.4089H21.9583C24.8118 59.4089 27.125 57.0957 27.125 54.2423V38.7423C27.125 35.8888 24.8118 33.5756 21.9583 33.5756Z" fill="#C6D2E1"/>
<path d="M35.5129 7.75H58.7629C59.2768 7.75 59.7696 7.54587 60.133 7.18252C60.4963 6.81917 60.7004 6.32636 60.7004 5.8125C60.7004 5.29864 60.4963 4.80583 60.133 4.44248C59.7696 4.07913 59.2768 3.875 58.7629 3.875H35.5129C34.9991 3.875 34.5063 4.07913 34.1429 4.44248C33.7796 4.80583 33.5754 5.29864 33.5754 5.8125C33.5754 6.32636 33.7796 6.81917 34.1429 7.18252C34.5063 7.54587 34.9991 7.75 35.5129 7.75Z" fill="#C6D2E1"/>
<path d="M58.7709 11.625H35.5209C35.007 11.625 34.5142 11.8291 34.1509 12.1925C33.7875 12.5558 33.5834 13.0486 33.5834 13.5625C33.5834 14.0764 33.7875 14.5692 34.1509 14.9325C34.5142 15.2959 35.007 15.5 35.5209 15.5H58.7709C59.2847 15.5 59.7775 15.2959 60.1409 14.9325C60.5042 14.5692 60.7084 14.0764 60.7084 13.5625C60.7084 13.0486 60.5042 12.5558 60.1409 12.1925C59.7775 11.8291 59.2847 11.625 58.7709 11.625Z" fill="#C6D2E1"/>
<path d="M58.7709 19.375H35.5209C35.007 19.375 34.5142 19.5791 34.1509 19.9425C33.7875 20.3058 33.5834 20.7986 33.5834 21.3125C33.5834 21.8264 33.7875 22.3192 34.1509 22.6825C34.5142 23.0459 35.007 23.25 35.5209 23.25H58.7709C59.2847 23.25 59.7775 23.0459 60.1409 22.6825C60.5042 22.3192 60.7084 21.8264 60.7084 21.3125C60.7084 20.7986 60.5042 20.3058 60.1409 19.9425C59.7775 19.5791 59.2847 19.375 58.7709 19.375Z" fill="#C6D2E1"/>
<path d="M58.7709 37.4583H35.5209C35.007 37.4583 34.5142 37.6625 34.1509 38.0258C33.7875 38.3892 33.5834 38.882 33.5834 39.3958C33.5834 39.9097 33.7875 40.4025 34.1509 40.7659C34.5142 41.1292 35.007 41.3333 35.5209 41.3333H58.7709C59.2847 41.3333 59.7775 41.1292 60.1409 40.7659C60.5042 40.4025 60.7084 39.9097 60.7084 39.3958C60.7084 38.882 60.5042 38.3892 60.1409 38.0258C59.7775 37.6625 59.2847 37.4583 58.7709 37.4583Z" fill="#C6D2E1"/>
<path d="M58.7709 45.2083H35.5209C35.007 45.2083 34.5142 45.4125 34.1509 45.7758C33.7875 46.1392 33.5834 46.632 33.5834 47.1458C33.5834 47.6597 33.7875 48.1525 34.1509 48.5159C34.5142 48.8792 35.007 49.0833 35.5209 49.0833H58.7709C59.2847 49.0833 59.7775 48.8792 60.1409 48.5159C60.5042 48.1525 60.7084 47.6597 60.7084 47.1458C60.7084 46.632 60.5042 46.1392 60.1409 45.7758C59.7775 45.4125 59.2847 45.2083 58.7709 45.2083Z" fill="#C6D2E1"/>
<path d="M58.7709 52.9583H35.5209C35.007 52.9583 34.5142 53.1625 34.1509 53.5258C33.7875 53.8892 33.5834 54.382 33.5834 54.8958C33.5834 55.4097 33.7875 55.9025 34.1509 56.2659C34.5142 56.6292 35.007 56.8333 35.5209 56.8333H58.7709C59.2847 56.8333 59.7775 56.6292 60.1409 56.2659C60.5042 55.9025 60.7084 55.4097 60.7084 54.8958C60.7084 54.382 60.5042 53.8892 60.1409 53.5258C59.7775 53.1625 59.2847 52.9583 58.7709 52.9583Z" fill="#C6D2E1"/>
</svg>
