<svg width="18" height="19" viewBox="0 0 18 19" fill="none" xmlns="http://www.w3.org/2000/svg">
<g clip-path="url(#clip0)">
<path d="M9.25875 4.13287C9.18901 4.06638 9.09635 4.0293 9 4.0293C8.90365 4.0293 8.81099 4.06638 8.74125 4.13287L2.74125 9.86062C2.7046 9.89556 2.6754 9.93756 2.65542 9.9841C2.63544 10.0306 2.62509 10.0807 2.625 10.1314V17.5624C2.625 17.7613 2.70402 17.952 2.84467 18.0927C2.98532 18.2334 3.17609 18.3124 3.375 18.3124H14.625C14.8239 18.3124 15.0147 18.2334 15.1553 18.0927C15.296 17.952 15.375 17.7613 15.375 17.5624V10.1314C15.3749 10.0807 15.3646 10.0306 15.3446 9.9841C15.3246 9.93756 15.2954 9.89556 15.2587 9.86062L9.25875 4.13287ZM12.75 13.1456C12.75 13.2562 12.7061 13.3623 12.6279 13.4405C12.5497 13.5187 12.4436 13.5626 12.333 13.5626H10.6252C10.5258 13.5626 10.4304 13.6021 10.3601 13.6725C10.2898 13.7428 10.2502 13.8382 10.2502 13.9376V15.6499C10.2502 15.7046 10.2395 15.7588 10.2185 15.8093C10.1975 15.8599 10.1668 15.9058 10.1281 15.9445C10.0893 15.9831 10.0434 16.0138 9.99277 16.0346C9.94218 16.0555 9.88798 16.0662 9.83325 16.0661H8.16675C8.11202 16.0662 8.05782 16.0555 8.00723 16.0346C7.95664 16.0138 7.91066 15.9831 7.87193 15.9445C7.8332 15.9058 7.80247 15.8599 7.78151 15.8093C7.76054 15.7588 7.74975 15.7046 7.74975 15.6499V13.9376C7.74975 13.8382 7.71024 13.7428 7.63991 13.6725C7.56959 13.6021 7.47421 13.5626 7.37475 13.5626H5.667C5.5564 13.5626 5.45034 13.5187 5.37214 13.4405C5.29393 13.3623 5.25 13.2562 5.25 13.1456V11.4791C5.25 11.4244 5.26079 11.3702 5.28176 11.3197C5.30272 11.2691 5.33345 11.2232 5.37218 11.1845C5.41091 11.1459 5.45689 11.1152 5.50748 11.0943C5.55807 11.0735 5.61227 11.0628 5.667 11.0629H7.37475C7.47421 11.0629 7.56959 11.0234 7.63991 10.953C7.71024 10.8827 7.74975 10.7873 7.74975 10.6879V8.97937C7.74975 8.86877 7.79368 8.76271 7.87189 8.6845C7.95009 8.6063 8.05615 8.56237 8.16675 8.56237H9.83325C9.88801 8.56237 9.94224 8.57315 9.99283 8.59411C10.0434 8.61507 10.0894 8.64578 10.1281 8.6845C10.1668 8.72323 10.1976 8.7692 10.2185 8.81979C10.2395 8.87038 10.2502 8.92461 10.2502 8.97937V10.6879C10.2502 10.7873 10.2898 10.8827 10.3601 10.953C10.4304 11.0234 10.5258 11.0629 10.6252 11.0629H12.333C12.3877 11.0628 12.4419 11.0735 12.4925 11.0943C12.5431 11.1152 12.5891 11.1459 12.6278 11.1845C12.6666 11.2232 12.6973 11.2691 12.7182 11.3197C12.7392 11.3702 12.75 11.4244 12.75 11.4791V13.1456Z" fill="#B3C1E1"/>
<path d="M17.7677 8.77013L9.51773 0.895131C9.37825 0.762164 9.19294 0.687988 9.00023 0.687988C8.80753 0.687988 8.62222 0.762164 8.48273 0.895131L0.232734 8.77013C0.0936744 8.90849 0.0143559 9.09582 0.0117833 9.29197C0.00921076 9.48811 0.0835889 9.67746 0.218972 9.81942C0.354356 9.96138 0.539968 10.0446 0.736017 10.0514C0.932065 10.0581 1.12294 9.98773 1.26773 9.85538L8.74148 2.72213C8.81123 2.65565 8.90388 2.61856 9.00023 2.61856C9.09659 2.61856 9.18924 2.65565 9.25898 2.72213L16.7327 9.85538C16.8775 9.98773 17.0684 10.0581 17.2645 10.0514C17.4605 10.0446 17.6461 9.96138 17.7815 9.81942C17.9169 9.67746 17.9913 9.48811 17.9887 9.29197C17.9861 9.09582 17.9068 8.90849 17.7677 8.77013Z" fill="#B3C1E1"/>
</g>
<defs>
<clipPath id="clip0">
<rect width="18" height="18" fill="white" transform="translate(0 0.5)"/>
</clipPath>
</defs>
</svg>
