<svg width="20" height="20" viewBox="0 0 20 20" fill="none" xmlns="http://www.w3.org/2000/svg">
<g clip-path="url(#clip0_1_5)">
<path d="M15.9924 8.01521H7.0038V5.11889C7.0038 3.62079 8.00254 2.32244 9.40076 2.02282C11.2984 1.7232 12.9962 3.12143 12.9962 5.01902C12.9962 5.61826 13.4956 6.01775 13.9949 6.01775C14.4943 6.01775 14.9937 5.61826 14.9937 5.01902C14.9937 2.1227 12.4968 -0.274261 9.50063 0.0253585C6.90393 0.324978 5.00634 2.62206 5.00634 5.21876V8.01521H4.00761C3.50824 8.01521 3.00888 8.41471 3.00888 9.01395V19.0013C3.00888 19.5006 3.50824 20 4.00761 20H15.9924C16.5916 20 16.9911 19.5006 16.9911 19.0013V9.01395C16.9911 8.41471 16.5916 8.01521 15.9924 8.01521ZM10.9987 14.7067V16.0051C10.9987 16.6043 10.5992 17.0038 10 17.0038C9.40076 17.0038 9.00127 16.6043 9.00127 16.0051V14.7067C8.40203 14.3072 8.00254 13.708 8.00254 13.0089C8.00254 11.7105 9.20102 10.8117 10.4994 11.1113C11.1985 11.311 11.7977 11.9103 11.9975 12.6094C12.1972 13.5082 11.6978 14.3072 10.9987 14.7067Z" fill="#BFC7D5"/>
</g>
<defs>
<clipPath id="clip0_1_5">
<rect width="20" height="20" fill="white"/>
</clipPath>
</defs>
</svg>
