<svg width="16" height="16" viewBox="0 0 16 16" fill="none" xmlns="http://www.w3.org/2000/svg">
<g clip-path="url(#clip0_13108_69711)">
<path d="M15.8 1.14648L3.45264 13.4905C3.71957 13.6206 4.01236 13.6889 4.3093 13.6905H6.42397C6.51155 13.6902 6.5983 13.7074 6.67921 13.7409C6.76012 13.7745 6.83357 13.8237 6.8953 13.8858L8.0413 15.0312C8.34901 15.341 8.71491 15.5869 9.11797 15.7549C9.52103 15.9228 9.95332 16.0095 10.39 16.0098C10.7541 16.0095 11.1157 15.9498 11.4606 15.8332C12.0435 15.642 12.5614 15.2917 12.9557 14.8218C13.35 14.3519 13.605 13.7811 13.692 13.1738L15.9446 2.47382C16.0522 2.02801 16.001 1.55866 15.8 1.14648Z" fill="#107969"/>
<path d="M13.5466 0.0516358L2.87264 2.3003C2.25793 2.38475 1.679 2.6391 1.201 3.03472C0.723006 3.43033 0.364917 3.95151 0.167042 4.5396C-0.0308322 5.12768 -0.0606379 5.75931 0.08098 6.36342C0.222598 6.96752 0.530018 7.5201 0.968638 7.95897L2.11397 9.1043C2.17596 9.16627 2.22512 9.23986 2.25864 9.32085C2.29216 9.40184 2.30937 9.48865 2.3093 9.5763V11.691C2.31084 11.9879 2.3792 12.2807 2.5093 12.5476L14.8546 0.200302C14.449 0.00094982 13.9867 -0.0515891 13.5466 0.0516358Z" fill="#107969"/>
</g>
<defs>
<clipPath id="clip0_13108_69711">
<rect width="16" height="16" fill="white"/>
</clipPath>
</defs>
</svg>
