<svg width="18" height="18" viewBox="0 0 18 18" fill="none" xmlns="http://www.w3.org/2000/svg">
<path d="M17.8912 0.150033C17.8383 0.0961302 17.7703 0.0594838 17.6961 0.0448961C17.622 0.0303085 17.5452 0.0384601 17.4757 0.0682828L0.22573 7.49253C0.161009 7.52062 0.105522 7.56639 0.0656455 7.62459C0.0257688 7.68279 0.00311953 7.75106 0.000299713 7.82156C-0.0025201 7.89205 0.014604 7.96191 0.0497046 8.02311C0.0848052 8.08431 0.136458 8.13437 0.19873 8.16753L5.20123 10.8158C5.23342 10.8339 5.27027 10.8421 5.30712 10.8393C5.34397 10.8365 5.37916 10.8228 5.40823 10.8L13.1257 4.57503C13.1617 4.54526 13.2075 4.52996 13.2541 4.53215C13.3007 4.53434 13.3449 4.55385 13.3779 4.58686C13.4109 4.61988 13.4304 4.66402 13.4326 4.71066C13.4348 4.7573 13.4195 4.80307 13.3897 4.83903L7.16473 12.5565C7.14164 12.5851 7.12747 12.6198 7.12401 12.6563C7.12054 12.6929 7.12792 12.7297 7.14523 12.762L9.79348 17.7645C9.82538 17.8248 9.87311 17.8752 9.93152 17.9103C9.98992 17.9455 10.0568 17.9641 10.125 17.964H10.1392C10.2097 17.9613 10.278 17.9387 10.3362 17.8989C10.3945 17.8591 10.4403 17.8037 10.4685 17.739L17.9685 0.564033C17.9985 0.495223 18.0072 0.418976 17.9935 0.345164C17.9797 0.271353 17.9441 0.203375 17.8912 0.150033Z" fill="#C7D7EB"/>
</svg>
