<svg width="25" height="25" viewBox="0 0 25 25" fill="none" xmlns="http://www.w3.org/2000/svg">
<g clip-path="url(#clip0_18617_79148)">
<path d="M18.2292 6.25099H22.2917C22.3433 6.25108 22.3937 6.23586 22.4366 6.20725C22.4795 6.17864 22.513 6.13794 22.5327 6.0903C22.5525 6.04265 22.5576 5.99022 22.5475 5.93964C22.5374 5.88906 22.5126 5.84262 22.4761 5.8062L17.1115 0.4437C17.0752 0.40731 17.0289 0.382474 16.9785 0.37232C16.9282 0.362166 16.8759 0.367149 16.8283 0.386639C16.7808 0.40613 16.7401 0.439258 16.7113 0.481851C16.6825 0.524443 16.667 0.574596 16.6667 0.625991V4.68849C16.6667 5.10289 16.8313 5.50032 17.1243 5.79335C17.4174 6.08637 17.8148 6.25099 18.2292 6.25099Z" fill="#8B96A6"/>
<path d="M12.449 14.3972C12.3396 14.3493 12.1094 14.3472 12.1094 14.568V18.7108C12.1109 18.7505 12.122 18.7892 12.1417 18.8237C12.1615 18.8582 12.1892 18.8875 12.2227 18.9089C12.2561 18.9304 12.2942 18.9435 12.3338 18.9471C12.3734 18.9507 12.4132 18.9446 12.45 18.9295C12.8908 18.7369 13.2659 18.42 13.5293 18.0175C13.7927 17.615 13.933 17.1444 13.933 16.6634C13.933 16.1823 13.7927 15.7117 13.5293 15.3092C13.2659 14.9067 12.8908 14.5898 12.45 14.3972H12.449Z" fill="#8B96A6"/>
<path d="M7.81252 14.1914H7.16356C7.09394 14.1914 7.02717 14.2191 6.97795 14.2683C6.92872 14.3175 6.90106 14.3843 6.90106 14.4539V15.7518C6.90106 15.8214 6.92872 15.8882 6.97795 15.9374C7.02717 15.9867 7.09394 16.0143 7.16356 16.0143H7.81252C8.05425 16.0143 8.28609 15.9183 8.45702 15.7474C8.62795 15.5764 8.72398 15.3446 8.72398 15.1029C8.72398 14.8611 8.62795 14.6293 8.45702 14.4584C8.28609 14.2874 8.05425 14.1914 7.81252 14.1914Z" fill="#8B96A6"/>
<path d="M22.6562 7.29167H18.2291C17.5385 7.29167 16.8761 7.0173 16.3877 6.52892C15.8993 6.04055 15.625 5.37817 15.625 4.6875V0.258333C15.6244 0.189628 15.5968 0.123924 15.548 0.0755362C15.4992 0.0271483 15.4333 -2.19854e-06 15.3646 1.33527e-10L4.16665 1.33527e-10C3.61411 1.33527e-10 3.08421 0.219493 2.69351 0.610194C2.30281 1.0009 2.08331 1.5308 2.08331 2.08333V22.9167C2.08331 23.4692 2.30281 23.9991 2.69351 24.3898C3.08421 24.7805 3.61411 25 4.16665 25H20.8333C21.3858 25 21.9158 24.7805 22.3065 24.3898C22.6972 23.9991 22.9166 23.4692 22.9166 22.9167V7.55C22.9161 7.48129 22.8884 7.41559 22.8396 7.3672C22.7909 7.31881 22.7249 7.29166 22.6562 7.29167ZM7.81248 17.3156H7.16352C7.0939 17.3156 7.02713 17.3433 6.97791 17.3925C6.92868 17.4417 6.90102 17.5085 6.90102 17.5781V19.7917C6.90102 19.9643 6.83243 20.1299 6.71034 20.252C6.58824 20.3741 6.42265 20.4427 6.24998 20.4427C6.07731 20.4427 5.91172 20.3741 5.78962 20.252C5.66753 20.1299 5.59894 19.9643 5.59894 19.7917V13.5417C5.59866 13.456 5.6153 13.3711 5.6479 13.2919C5.68049 13.2127 5.7284 13.1406 5.78889 13.08C5.84937 13.0193 5.92123 12.9711 6.00036 12.9383C6.07948 12.9054 6.16431 12.8885 6.24998 12.8885H7.81248C8.39955 12.8885 8.96257 13.1218 9.37769 13.5369C9.79281 13.952 10.026 14.515 10.026 15.1021C10.026 15.6892 9.79281 16.2522 9.37769 16.6673C8.96257 17.0824 8.39955 17.3156 7.81248 17.3156ZM11.4583 20.4406C11.286 20.4406 11.1207 20.3723 10.9987 20.2507C10.8767 20.129 10.8078 19.964 10.8073 19.7917V13.5417C10.807 13.456 10.8236 13.3711 10.8562 13.2919C10.8888 13.2127 10.9367 13.1406 10.9972 13.08C11.0577 13.0193 11.1296 12.9711 11.2087 12.9383C11.2878 12.9054 11.3726 12.8885 11.4583 12.8885C12.4598 12.8885 13.4202 13.2864 14.1284 13.9945C14.8365 14.7027 15.2344 15.6631 15.2344 16.6646C15.2344 17.6661 14.8365 18.6265 14.1284 19.3346C13.4202 20.0428 12.4598 20.4406 11.4583 20.4406ZM19.7916 14.1906H17.7083C17.6047 14.1906 17.5054 14.2318 17.4321 14.305C17.3588 14.3783 17.3177 14.4776 17.3177 14.5812V15.751C17.3177 15.8207 17.3453 15.8874 17.3946 15.9367C17.4438 15.9859 17.5106 16.0135 17.5802 16.0135H18.75C18.9226 16.0135 19.0882 16.0821 19.2103 16.2042C19.3324 16.3263 19.401 16.4919 19.401 16.6646C19.401 16.8372 19.3324 17.0028 19.2103 17.1249C19.0882 17.247 18.9226 17.3156 18.75 17.3156H17.5802C17.5106 17.3156 17.4438 17.3433 17.3946 17.3925C17.3453 17.4417 17.3177 17.5085 17.3177 17.5781V19.7917C17.3177 19.9643 17.2491 20.1299 17.127 20.252C17.0049 20.3741 16.8393 20.4427 16.6666 20.4427C16.494 20.4427 16.3284 20.3741 16.2063 20.252C16.0842 20.1299 16.0156 19.9643 16.0156 19.7917V14.5833C16.0156 14.1342 16.1939 13.7034 16.5113 13.3857C16.8286 13.0679 17.2592 12.8891 17.7083 12.8885H19.7916C19.9643 12.8885 20.1299 12.9571 20.252 13.0792C20.3741 13.2013 20.4427 13.3669 20.4427 13.5396C20.4427 13.7122 20.3741 13.8778 20.252 13.9999C20.1299 14.122 19.9643 14.1906 19.7916 14.1906Z" fill="#8B96A6"/>
</g>
<defs>
<clipPath id="clip0_18617_79148">
<rect width="25" height="25" fill="white"/>
</clipPath>
</defs>
</svg>
