<svg width="20" height="24" viewBox="0 0 20 24" fill="none" xmlns="http://www.w3.org/2000/svg">
  <path d="M14.8703 6.35806H18.4814C18.5273 6.35814 18.5721 6.34459 18.6103 6.31913C18.6484 6.29368 18.6781 6.25746 18.6957 6.21506C18.7132 6.17267 18.7178 6.12601 18.7089 6.08101C18.6999 6.036 18.6778 5.99468 18.6453 5.96227L13.8768 1.19055C13.8446 1.15817 13.8034 1.13607 13.7587 1.12703C13.7139 1.118 13.6674 1.12243 13.6251 1.13978C13.5829 1.15712 13.5467 1.1866 13.5211 1.2245C13.4955 1.2624 13.4817 1.30703 13.4814 1.35276V4.9677C13.4814 5.33644 13.6278 5.69009 13.8882 5.95083C14.1487 6.21157 14.502 6.35806 14.8703 6.35806Z" fill="#DD533C"/>
  <path d="M9.73203 13.6083C9.63481 13.5657 9.43018 13.5638 9.43018 13.7603V17.4466C9.43154 17.482 9.44141 17.5165 9.45894 17.5472C9.47647 17.5779 9.50115 17.6039 9.53087 17.623C9.5606 17.6421 9.59449 17.6537 9.62967 17.6569C9.66485 17.6601 9.70029 17.6548 9.73295 17.6413C10.1248 17.47 10.4582 17.1879 10.6923 16.8298C10.9265 16.4716 11.0512 16.0529 11.0512 15.6248C11.0512 15.1968 10.9265 14.778 10.6923 14.4199C10.4582 14.0617 10.1248 13.7797 9.73295 13.6083H9.73203Z" fill="#DD533C"/>
  <path d="M5.61097 13.4238H5.03411C4.97223 13.4238 4.91288 13.4484 4.86912 13.4922C4.82536 13.536 4.80078 13.5955 4.80078 13.6574V14.8123C4.80078 14.8743 4.82536 14.9337 4.86912 14.9775C4.91288 15.0213 4.97223 15.0459 5.03411 15.0459H5.61097C5.82584 15.0459 6.03192 14.9605 6.18385 14.8084C6.33579 14.6563 6.42115 14.45 6.42115 14.2349C6.42115 14.0198 6.33579 13.8135 6.18385 13.6614C6.03192 13.5093 5.82584 13.4238 5.61097 13.4238Z" fill="#DD533C"/>
  <path d="M18.8056 7.28495H14.8704C14.2565 7.28495 13.6677 7.04081 13.2336 6.60624C12.7995 6.17166 12.5556 5.58226 12.5556 4.96768V1.02647C12.5551 0.965337 12.5305 0.906872 12.4871 0.863815C12.4438 0.820758 12.3852 0.796598 12.3241 0.7966H2.37041C1.87927 0.7966 1.40824 0.991912 1.06095 1.33957C0.71366 1.68723 0.518555 2.15875 0.518555 2.65041V21.1886C0.518555 21.6802 0.71366 22.1517 1.06095 22.4994C1.40824 22.8471 1.87927 23.0424 2.37041 23.0424H17.1852C17.6764 23.0424 18.1474 22.8471 18.4947 22.4994C18.842 22.1517 19.0371 21.6802 19.0371 21.1886V7.51482C19.0366 7.45369 19.012 7.39522 18.9686 7.35216C18.9253 7.30911 18.8667 7.28495 18.8056 7.28495ZM5.61115 16.2046H5.0343C4.97241 16.2046 4.91306 16.2292 4.8693 16.273C4.82555 16.3168 4.80096 16.3762 4.80096 16.4382V18.4078C4.80096 18.5615 4.73999 18.7088 4.63146 18.8175C4.52294 18.9261 4.37574 18.9871 4.22226 18.9871C4.06878 18.9871 3.92158 18.9261 3.81305 18.8175C3.70453 18.7088 3.64355 18.5615 3.64355 18.4078V12.8464C3.64331 12.7702 3.6581 12.6946 3.68707 12.6241C3.71605 12.5536 3.75864 12.4895 3.8124 12.4356C3.86616 12.3816 3.93004 12.3387 4.00037 12.3095C4.0707 12.2803 4.14611 12.2652 4.22226 12.2652H5.61115C6.13299 12.2652 6.63345 12.4727 7.00245 12.8421C7.37144 13.2115 7.57874 13.7125 7.57874 14.2349C7.57874 14.7573 7.37144 15.2583 7.00245 15.6277C6.63345 15.9971 6.13299 16.2046 5.61115 16.2046ZM8.85189 18.9853C8.69873 18.9853 8.55181 18.9245 8.44334 18.8163C8.33486 18.708 8.27368 18.5612 8.27319 18.4078V12.8464C8.27294 12.7702 8.28773 12.6946 8.3167 12.6241C8.34568 12.5536 8.38827 12.4895 8.44203 12.4356C8.49579 12.3816 8.55967 12.3387 8.63 12.3095C8.70033 12.2803 8.77574 12.2652 8.85189 12.2652C9.74208 12.2652 10.5958 12.6192 11.2253 13.2494C11.8547 13.8795 12.2084 14.7341 12.2084 15.6253C12.2084 16.5164 11.8547 17.371 11.2253 18.0012C10.5958 18.6313 9.74208 18.9853 8.85189 18.9853ZM16.2593 13.4239H14.4074C14.3154 13.4239 14.227 13.4605 14.1619 13.5257C14.0968 13.5908 14.0602 13.6793 14.0602 13.7714V14.8124C14.0602 14.8743 14.0848 14.9337 14.1286 14.9775C14.1723 15.0213 14.2317 15.0459 14.2936 15.0459H15.3334C15.4869 15.0459 15.634 15.107 15.7426 15.2156C15.8511 15.3243 15.9121 15.4716 15.9121 15.6253C15.9121 15.7789 15.8511 15.9263 15.7426 16.0349C15.634 16.1435 15.4869 16.2046 15.3334 16.2046H14.2936C14.2317 16.2046 14.1723 16.2292 14.1286 16.273C14.0848 16.3168 14.0602 16.3762 14.0602 16.4382V18.4078C14.0602 18.5615 13.9993 18.7088 13.8907 18.8175C13.7822 18.9261 13.635 18.9871 13.4815 18.9871C13.328 18.9871 13.1808 18.9261 13.0723 18.8175C12.9638 18.7088 12.9028 18.5615 12.9028 18.4078V13.7733C12.9028 13.3736 13.0613 12.9903 13.3434 12.7076C13.6255 12.4248 14.0082 12.2657 14.4074 12.2652H16.2593C16.4128 12.2652 16.56 12.3263 16.6685 12.4349C16.777 12.5435 16.838 12.6909 16.838 12.8445C16.838 12.9982 16.777 13.1455 16.6685 13.2542C16.56 13.3628 16.4128 13.4239 16.2593 13.4239Z" fill="#DD533C"/>
</svg>
