<svg width="20" height="20" viewBox="0 0 20 20" fill="none" xmlns="http://www.w3.org/2000/svg">
<g>
<path d="M0.976667 15.9326C0.351502 16.5576 0.000188791 17.4053 0 18.2893L0 20.0001H1.71083C2.59482 20 3.44252 19.6486 4.0675 19.0235L15.1867 7.90431L12.0958 4.81348L0.976667 15.9326Z" fill="#0E0E0E"/>
<path d="M19.2873 0.712554C19.0843 0.509417 18.8434 0.348267 18.5781 0.238318C18.3129 0.12837 18.0286 0.0717773 17.7414 0.0717773C17.4543 0.0717773 17.17 0.12837 16.9047 0.238318C16.6395 0.348267 16.3985 0.509417 16.1956 0.712554L13.2739 3.63505L16.3648 6.72589L19.2873 3.80422C19.4904 3.60129 19.6515 3.36032 19.7615 3.09508C19.8714 2.82983 19.928 2.54552 19.928 2.25839C19.928 1.97126 19.8714 1.68694 19.7615 1.4217C19.6515 1.15645 19.4904 0.91548 19.2873 0.712554Z" fill="#0E0E0E"/>
</g>
<defs>
<clipPath id="clip0">
<rect width="20" height="20" fill="white"/>
</clipPath>
</defs>
</svg>
