<svg width="18" height="19" viewBox="0 0 18 19" fill="none" xmlns="http://www.w3.org/2000/svg">
<g clip-path="url(#clip0)">
<path d="M16.8869 13.2606L14.7359 12.3059C14.7029 12.2909 14.6749 12.2667 14.6552 12.2363C14.6355 12.2058 14.625 12.1704 14.6249 12.1341V11.2769C14.6249 11.2521 14.6297 11.2277 14.6393 11.2049C14.6488 11.1821 14.6628 11.1614 14.6804 11.1441C15.0744 10.6775 15.2824 10.082 15.2647 9.4716C15.2662 9.44618 15.2729 9.42132 15.2842 9.39852C15.2955 9.37571 15.3113 9.35542 15.3307 9.33885C15.4667 9.20108 15.5727 9.03669 15.6421 8.85601C15.7116 8.67532 15.7429 8.48223 15.7342 8.28885C15.7454 8.01547 15.6614 7.74667 15.4964 7.52836C15.4739 7.50099 15.4596 7.46782 15.4551 7.43265C15.4505 7.39749 15.456 7.36177 15.4709 7.3296C15.6612 6.9251 15.7027 6.46641 15.5879 6.03435C15.3224 4.95135 13.9177 4.5501 12.7777 4.6401C12.2765 4.5998 11.7721 4.65062 11.2889 4.7901C11.2573 4.79968 11.2287 4.8175 11.2061 4.84175C11.1836 4.866 11.1679 4.8958 11.1607 4.9281C11.1359 5.0391 11.1089 5.1456 11.0857 5.24685C11.0738 5.29013 11.0781 5.33623 11.0977 5.3766C11.2621 5.72805 11.3449 6.11213 11.3399 6.5001C11.35 7.04847 11.1763 7.58443 10.8464 8.0226C10.8267 8.04765 10.8138 8.07736 10.8089 8.10886C10.7313 8.63141 10.553 9.13394 10.2839 9.5886C10.2629 9.62379 10.254 9.66487 10.2584 9.7056C10.2859 10.0031 10.3543 10.2953 10.4617 10.5741C10.4711 10.5977 10.4853 10.6192 10.5034 10.6371C10.5214 10.6551 10.543 10.6691 10.5667 10.6784L12.2587 11.3489C12.9586 11.6238 13.559 12.1039 13.9813 12.7261C14.4035 13.3483 14.6279 14.0836 14.6249 14.8356V17.0001C14.625 17.056 14.622 17.1118 14.6159 17.1674C14.613 17.1936 14.6156 17.2201 14.6236 17.2453C14.6317 17.2704 14.645 17.2936 14.6626 17.3132C14.6803 17.3328 14.7019 17.3485 14.726 17.3592C14.7502 17.3698 14.7763 17.3753 14.8027 17.3751H17.6249C17.7244 17.3751 17.8198 17.3356 17.8901 17.2653C17.9604 17.1949 17.9999 17.0996 17.9999 17.0001V14.9751C18.0002 14.6123 17.8952 14.2572 17.6976 13.9528C17.5001 13.6485 17.2185 13.4081 16.8869 13.2606Z" fill="#B3C1E1"/>
<path d="M13.5 14.8355C13.5019 14.3088 13.3446 13.7939 13.0487 13.3583C12.7527 12.9226 12.332 12.5866 11.8418 12.3942L8.74352 11.1665C8.70856 11.1528 8.67855 11.1288 8.65741 11.0978C8.63627 11.0667 8.62498 11.0301 8.62502 10.9925V9.83C8.62499 9.79961 8.63234 9.76967 8.64645 9.74276C8.66056 9.71584 8.681 9.69276 8.70602 9.6755C9.02407 9.43448 9.28238 9.12349 9.46095 8.76662C9.63952 8.40974 9.73355 8.01655 9.73577 7.6175C9.73791 7.59084 9.7457 7.56495 9.75864 7.54154C9.77157 7.51814 9.78934 7.49775 9.81077 7.48175C9.94926 7.36034 10.0578 7.20855 10.1279 7.03825C10.1981 6.86794 10.2279 6.68373 10.215 6.5C10.232 6.17137 10.1213 5.84888 9.90602 5.6C9.88257 5.5757 9.86609 5.54554 9.8583 5.51269C9.85052 5.47983 9.85172 5.44549 9.86177 5.41325C10.1519 4.6553 10.2388 3.83465 10.1138 3.03275C9.85427 1.994 8.44202 1.625 7.31252 1.625C6.34352 1.625 5.16752 1.8965 4.68752 2.63C4.67067 2.65575 4.64779 2.677 4.62086 2.6919C4.59394 2.7068 4.56378 2.7149 4.53302 2.7155C4.38405 2.7102 4.23565 2.73639 4.0975 2.79235C3.95935 2.84831 3.83455 2.93278 3.73127 3.04025C3.19652 3.617 3.46352 4.73 3.65627 5.411C3.66503 5.44309 3.66514 5.47693 3.65658 5.50908C3.64802 5.54122 3.63109 5.57052 3.60752 5.594C3.54589 5.65585 3.49359 5.72634 3.45227 5.80325C3.33948 6.01799 3.282 6.25746 3.28502 6.5C3.27217 6.68373 3.30197 6.86794 3.3721 7.03825C3.44222 7.20855 3.55077 7.36034 3.68927 7.48175C3.71069 7.49775 3.72846 7.51814 3.74139 7.54154C3.75433 7.56495 3.76212 7.59084 3.76427 7.6175C3.76648 8.01655 3.86051 8.40974 4.03908 8.76662C4.21765 9.12349 4.47596 9.43448 4.79402 9.6755C4.81889 9.6929 4.83923 9.71601 4.85332 9.74289C4.86742 9.76977 4.87486 9.79965 4.87502 9.83V10.9932C4.87505 11.0308 4.86376 11.0675 4.84262 11.0985C4.82148 11.1296 4.79147 11.1535 4.75652 11.1672L1.65452 12.4025C1.16524 12.5952 0.745531 12.9311 0.450327 13.3663C0.155122 13.8015 -0.00182875 14.3156 1.60785e-05 14.8415V17C1.60785e-05 17.0995 0.0395249 17.1948 0.109851 17.2652C0.180177 17.3355 0.27556 17.375 0.375016 17.375H13.125C13.2245 17.375 13.3199 17.3355 13.3902 17.2652C13.4605 17.1948 13.5 17.0995 13.5 17V14.8355Z" fill="#B3C1E1"/>
</g>
<defs>
<clipPath id="clip0">
<rect width="18" height="18" fill="white" transform="translate(0 0.5)"/>
</clipPath>
</defs>
</svg>
