<svg width="18" height="19" viewBox="0 0 18 19" fill="none" xmlns="http://www.w3.org/2000/svg">
<g clip-path="url(#clip0)">
<path d="M10.467 2.06444C12.1551 2.40261 13.6759 3.31022 14.775 4.63544C14.8374 4.71276 14.9145 4.77692 15.0019 4.82418C15.0893 4.87144 15.1852 4.90087 15.2841 4.91075C15.3829 4.92063 15.4828 4.91077 15.5778 4.88174C15.6728 4.85271 15.7611 4.80509 15.8376 4.74165C15.9141 4.6782 15.9771 4.6002 16.0232 4.51216C16.0693 4.42413 16.0974 4.32782 16.1059 4.22883C16.1144 4.12984 16.1032 4.03015 16.0729 3.93553C16.0426 3.84092 15.9937 3.75327 15.9292 3.67769C14.61 2.08747 12.7847 0.998498 10.7587 0.592938C10.5636 0.55425 10.3611 0.594662 10.1958 0.705285C10.0304 0.815908 9.91581 0.98768 9.87712 1.18281C9.83843 1.37795 9.87884 1.58046 9.98946 1.74579C10.1001 1.91113 10.2719 2.02575 10.467 2.06444Z" fill="#B3C1E1"/>
<path d="M1.50016 9.45938C1.495 9.26245 1.41421 9.07506 1.27456 8.93611C1.13491 8.79716 0.947115 8.71731 0.750156 8.71313C0.551894 8.71413 0.362091 8.79358 0.222249 8.93413C0.0824064 9.07467 0.00390377 9.26487 0.00390625 9.46313C0.015662 11.5291 0.736628 13.5284 2.04616 15.1264C2.10854 15.203 2.18544 15.2664 2.27242 15.3132C2.35941 15.36 2.45478 15.3891 2.55306 15.3989C2.65133 15.4087 2.75058 15.3991 2.8451 15.3704C2.93962 15.3418 3.02755 15.2947 3.10385 15.232C3.18014 15.1693 3.2433 15.0921 3.2897 15.0049C3.33609 14.9178 3.36481 14.8223 3.3742 14.7239C3.38359 14.6256 3.37346 14.5264 3.34441 14.432C3.31536 14.3376 3.26795 14.2499 3.20491 14.1739C2.11319 12.8442 1.51136 11.1798 1.50016 9.45938Z" fill="#B3C1E1"/>
<path d="M17.9039 8.10497C17.892 8.00551 17.8602 7.90945 17.8106 7.82246C17.7609 7.73547 17.6943 7.65931 17.6147 7.59847C17.5351 7.53764 17.4442 7.49337 17.3472 7.46827C17.2502 7.44316 17.1492 7.43774 17.0501 7.45232C16.951 7.4669 16.8558 7.50119 16.7702 7.55316C16.6845 7.60512 16.6102 7.67372 16.5515 7.7549C16.4928 7.83607 16.451 7.92818 16.4284 8.02579C16.4059 8.1234 16.4032 8.22453 16.4204 8.32321C16.4734 8.68807 16.5 9.05628 16.4999 9.42496C16.4984 11.1455 15.9064 12.8134 14.8229 14.15C14.6974 14.3043 14.6383 14.5022 14.6587 14.7001C14.6791 14.898 14.7773 15.0797 14.9317 15.2052C15.086 15.3307 15.2839 15.3898 15.4818 15.3694C15.6797 15.349 15.8614 15.2508 15.9869 15.0965C16.7728 14.1274 17.3489 13.0058 17.6789 11.8026C18.0089 10.5994 18.0855 9.34081 17.9039 8.10647V8.10497Z" fill="#B3C1E1"/>
<path d="M11.5277 16.4848C9.90505 17.0597 8.13492 17.0642 6.50941 16.4975C6.41648 16.4648 6.31803 16.4508 6.21966 16.4561C6.12129 16.4615 6.02494 16.4861 5.93611 16.5287C5.84728 16.5713 5.76771 16.631 5.70194 16.7043C5.63617 16.7777 5.58548 16.8632 5.55279 16.9562C5.52009 17.0491 5.50601 17.1475 5.51136 17.2459C5.51671 17.3443 5.54139 17.4406 5.58397 17.5294C5.62656 17.6183 5.68623 17.6979 5.75957 17.7636C5.83291 17.8294 5.91848 17.8801 6.01141 17.9128C7.96143 18.5961 10.0867 18.5906 12.0332 17.897C12.2199 17.8296 12.3722 17.6908 12.4568 17.5112C12.5414 17.3316 12.5514 17.1258 12.4845 16.9389C12.4175 16.752 12.2793 16.5992 12.0999 16.5141C11.9206 16.429 11.7148 16.4184 11.5277 16.4848Z" fill="#B3C1E1"/>
<path d="M1.53692 5.82062C1.62137 5.87145 1.715 5.90513 1.81247 5.91974C1.90993 5.93436 2.00933 5.92962 2.10496 5.9058C2.2006 5.88198 2.2906 5.83954 2.36982 5.78091C2.44905 5.72229 2.51594 5.64862 2.56667 5.56412C3.45431 4.08819 4.821 2.96106 6.43892 2.37062C6.6259 2.3025 6.77816 2.16288 6.8622 1.9825C6.94624 1.80211 6.95518 1.59573 6.88705 1.40875C6.81892 1.22177 6.67931 1.06951 6.49892 0.985475C6.31853 0.901435 6.11215 0.892496 5.92517 0.960623C3.98474 1.66952 2.34557 3.02152 1.28042 4.79162C1.17802 4.9621 1.14751 5.16627 1.19561 5.35923C1.24371 5.5522 1.36648 5.71816 1.53692 5.82062Z" fill="#B3C1E1"/>
<path d="M11.625 9.04614C12.6605 9.04614 13.5 8.20668 13.5 7.17114C13.5 6.13561 12.6605 5.29614 11.625 5.29614C10.5895 5.29614 9.75 6.13561 9.75 7.17114C9.75 8.20668 10.5895 9.04614 11.625 9.04614Z" fill="#B3C1E1"/>
<path d="M11.6251 9.60865C10.9883 9.60758 10.3678 9.8102 9.85433 10.1869C9.81471 10.216 9.7881 10.2595 9.78024 10.3081C9.77239 10.3566 9.78391 10.4063 9.81233 10.4464C10.2252 11.0286 10.4624 11.7171 10.4956 12.4301C10.4981 12.4782 10.5189 12.5235 10.5538 12.5567C10.5887 12.5899 10.6349 12.6085 10.6831 12.6086H14.4331C14.4587 12.6086 14.484 12.6033 14.5075 12.5931C14.5309 12.583 14.5521 12.5681 14.5696 12.5494C14.5873 12.5307 14.6009 12.5084 14.6095 12.4842C14.6182 12.4599 14.6217 12.4341 14.6198 12.4084C14.569 11.6489 14.2314 10.937 13.6753 10.4172C13.1192 9.89731 12.3863 9.60828 11.6251 9.60865Z" fill="#B3C1E1"/>
<path d="M6.75007 9.60864C5.98897 9.60867 5.25634 9.89798 4.70057 10.418C4.14479 10.9379 3.80743 11.6497 3.75682 12.4091C3.75499 12.4347 3.75851 12.4604 3.76716 12.4846C3.77581 12.5087 3.7894 12.5308 3.80707 12.5494C3.82457 12.5681 3.84572 12.5829 3.86919 12.5931C3.89267 12.6033 3.91798 12.6086 3.94357 12.6086H9.55657C9.58216 12.6086 9.60747 12.6033 9.63095 12.5931C9.65442 12.5829 9.67556 12.5681 9.69307 12.5494C9.71075 12.5307 9.72435 12.5084 9.733 12.4842C9.74165 12.4599 9.74517 12.4341 9.74332 12.4084C9.69252 11.6491 9.35508 10.9375 8.79933 10.4177C8.24358 9.89786 7.51104 9.60866 6.75007 9.60864Z" fill="#B3C1E1"/>
<path d="M7.42478 8.9202C7.86082 8.74913 8.21724 8.42135 8.42414 8.00112C8.63105 7.5809 8.67351 7.09854 8.54322 6.64862C8.41292 6.19871 8.11926 5.81369 7.71982 5.56907C7.32037 5.32444 6.84395 5.23784 6.38397 5.32626C5.92399 5.41468 5.51363 5.67173 5.23335 6.04702C4.95306 6.42231 4.82307 6.88876 4.86887 7.35492C4.91466 7.82107 5.13294 8.25331 5.48089 8.56688C5.82885 8.88045 6.28139 9.05274 6.74978 9.04995C6.98085 9.04867 7.2097 9.00468 7.42478 8.9202Z" fill="#B3C1E1"/>
</g>
<defs>
<clipPath id="clip0">
<rect width="18" height="18" fill="white" transform="translate(0 0.5)"/>
</clipPath>
</defs>
</svg>
