<svg width="20" height="21" viewBox="0 0 20 21" fill="none" xmlns="http://www.w3.org/2000/svg">
<g clip-path="url(#clip0_31686_22933)">
<path d="M9.16667 9.23325V15.8999C9.16667 16.1209 9.07887 16.3329 8.92259 16.4892C8.76631 16.6455 8.55435 16.7333 8.33333 16.7333H2.5C2.27899 16.7333 2.06702 16.6455 1.91074 16.4892C1.75446 16.3329 1.66667 16.1209 1.66667 15.8999V6.74992C1.66667 6.5289 1.75446 6.31694 1.91074 6.16066C2.06702 6.00438 2.27899 5.91659 2.5 5.91659H7.70833C7.76359 5.91659 7.81658 5.89464 7.85565 5.85557C7.89472 5.8165 7.91667 5.76351 7.91667 5.70825V4.04159C7.91667 3.98633 7.89472 3.93334 7.85565 3.89427C7.81658 3.8552 7.76359 3.83325 7.70833 3.83325H2.08333C1.5308 3.83325 1.0009 4.05275 0.610194 4.44345C0.219493 4.83415 0 5.36405 0 5.91659L0 18.4166C0 18.6902 0.053887 18.9611 0.158584 19.2138C0.263282 19.4666 0.416739 19.6963 0.610194 19.8897C0.80365 20.0832 1.03331 20.2366 1.28608 20.3413C1.53884 20.446 1.80975 20.4999 2.08333 20.4999H8.75C9.02359 20.4999 9.2945 20.446 9.54726 20.3413C9.80002 20.2366 10.0297 20.0832 10.2231 19.8897C10.4166 19.6963 10.5701 19.4666 10.6747 19.2138C10.7794 18.9611 10.8333 18.6902 10.8333 18.4166V9.44992C10.8312 9.39612 10.8083 9.34525 10.7694 9.30796C10.7306 9.27068 10.6788 9.24988 10.625 9.24992C10.2241 9.25082 9.82618 9.18027 9.45 9.04158C9.41876 9.02722 9.38435 9.02114 9.35008 9.02395C9.3158 9.02676 9.28284 9.03836 9.25436 9.05763C9.22588 9.07689 9.20284 9.10318 9.18748 9.13394C9.17212 9.1647 9.16495 9.19891 9.16667 9.23325Z" fill="#8C94A6"/>
<path d="M18.75 0.5H10.4167C10.0852 0.5 9.76722 0.631696 9.5328 0.866116C9.29838 1.10054 9.16669 1.41848 9.16669 1.75V6.75C9.16669 7.08152 9.29838 7.39946 9.5328 7.63388C9.76722 7.8683 10.0852 8 10.4167 8H12.5V9.49167C12.4995 9.57393 12.5234 9.65449 12.5686 9.72321C12.6139 9.79192 12.6784 9.84571 12.7542 9.87779C12.8299 9.90987 12.9135 9.91881 12.9943 9.90349C13.0751 9.88816 13.1496 9.84925 13.2084 9.79167L15 8H18.75C19.0815 8 19.3995 7.8683 19.6339 7.63388C19.8683 7.39946 20 7.08152 20 6.75V1.75C20 1.41848 19.8683 1.10054 19.6339 0.866116C19.3995 0.631696 19.0815 0.5 18.75 0.5ZM11.0417 4.04167C11.0417 3.87685 11.0906 3.71573 11.1821 3.57869C11.2737 3.44165 11.4038 3.33484 11.5561 3.27177C11.7084 3.20869 11.8759 3.19219 12.0376 3.22435C12.1992 3.2565 12.3477 3.33587 12.4643 3.45241C12.5808 3.56895 12.6602 3.71744 12.6923 3.87909C12.7245 4.04074 12.708 4.2083 12.6449 4.36057C12.5818 4.51284 12.475 4.64299 12.338 4.73456C12.201 4.82613 12.0398 4.875 11.875 4.875C11.654 4.875 11.442 4.7872 11.2858 4.63092C11.1295 4.47464 11.0417 4.26268 11.0417 4.04167ZM13.9584 4.04167C13.9584 3.87685 14.0072 3.71573 14.0988 3.57869C14.1904 3.44165 14.3205 3.33484 14.4728 3.27177C14.6251 3.20869 14.7926 3.19219 14.9543 3.22435C15.1159 3.2565 15.2644 3.33587 15.3809 3.45241C15.4975 3.56895 15.5769 3.71744 15.609 3.87909C15.6412 4.04074 15.6247 4.2083 15.5616 4.36057C15.4985 4.51284 15.3917 4.64299 15.2547 4.73456C15.1176 4.82613 14.9565 4.875 14.7917 4.875C14.5707 4.875 14.3587 4.7872 14.2024 4.63092C14.0462 4.47464 13.9584 4.26268 13.9584 4.04167ZM17.7084 4.875C17.5435 4.875 17.3824 4.82613 17.2454 4.73456C17.1083 4.64299 17.0015 4.51284 16.9385 4.36057C16.8754 4.2083 16.8589 4.04074 16.891 3.87909C16.9232 3.71744 17.0026 3.56895 17.1191 3.45241C17.2356 3.33587 17.3841 3.2565 17.5458 3.22435C17.7074 3.19219 17.875 3.20869 18.0273 3.27177C18.1795 3.33484 18.3097 3.44165 18.4012 3.57869C18.4928 3.71573 18.5417 3.87685 18.5417 4.04167C18.5417 4.26268 18.4539 4.47464 18.2976 4.63092C18.1413 4.7872 17.9294 4.875 17.7084 4.875Z" fill="#8C94A6"/>
</g>
<defs>
<clipPath id="clip0_31686_22933">
<rect width="20" height="20" fill="white" transform="translate(0 0.5)"/>
</clipPath>
</defs>
</svg>
