<svg width="22" height="22" viewBox="0 0 22 22" fill="none" xmlns="http://www.w3.org/2000/svg">
  <g clip-path="url(#clip0)">
    <path d="M16.0417 8.7083C17.0356 8.70891 18.0187 8.9139 18.9301 9.31055C18.965 9.32535 19.003 9.3313 19.0408 9.32786C19.0785 9.32443 19.1149 9.31171 19.1465 9.29084C19.1782 9.26998 19.2042 9.24161 19.2223 9.20827C19.2403 9.17492 19.2498 9.13763 19.25 9.09971V1.60413C19.25 1.57507 19.2413 1.54667 19.2249 1.52264C19.2086 1.49861 19.1854 1.48005 19.1583 1.46938C19.1318 1.45847 19.1026 1.45561 19.0744 1.46115C19.0462 1.46669 19.0202 1.48039 18.9998 1.50055L11.1833 9.31696C10.7697 9.72962 10.2093 9.96137 9.625 9.96137C9.04072 9.96137 8.4803 9.72962 8.06667 9.31696L0.248417 1.50055C0.227982 1.48027 0.201998 1.4665 0.173743 1.46097C0.145489 1.45544 0.11623 1.4584 0.0896573 1.46948C0.0630845 1.48056 0.0403884 1.49926 0.0244323 1.52322C0.00847609 1.54719 -2.54036e-05 1.57534 2.62229e-07 1.60413V11.2291C-0.000120239 11.4398 0.0412905 11.6485 0.121865 11.8432C0.202439 12.0378 0.320596 12.2147 0.469581 12.3637C0.618566 12.5127 0.795455 12.6309 0.990136 12.7114C1.18482 12.792 1.39347 12.8334 1.60417 12.8333H9.31608C9.35829 12.8332 9.39967 12.8215 9.4357 12.7995C9.47174 12.7775 9.50107 12.7461 9.5205 12.7086C10.134 11.5063 11.0675 10.4965 12.2181 9.7907C13.3687 9.08487 14.6918 8.71032 16.0417 8.7083Z" fill="#C766EA"/>
    <path d="M8.9155 8.46633C9.10356 8.65436 9.35861 8.75999 9.62454 8.75999C9.89048 8.75999 10.1455 8.65436 10.3336 8.46633L18.1023 0.697583C18.155 0.645038 18.1919 0.578876 18.2091 0.506507C18.2263 0.434137 18.2229 0.358419 18.1995 0.287833C18.1115 0.02475 17.8649 0 17.6449 0H1.60325C1.38325 0 1.13575 0.02475 1.05325 0.287833C1.02933 0.357952 1.02523 0.433313 1.04141 0.505611C1.05758 0.57791 1.0934 0.644341 1.14492 0.697583L8.9155 8.46633Z" fill="#C766EA"/>
    <path d="M16.0417 10.0833C14.8632 10.0833 13.7112 10.4328 12.7314 11.0875C11.7516 11.7422 10.9879 12.6727 10.5369 13.7615C10.0859 14.8502 9.96792 16.0483 10.1978 17.2041C10.4277 18.3599 10.9952 19.4215 11.8285 20.2548C12.6618 21.0881 13.7235 21.6556 14.8793 21.8855C16.0351 22.1154 17.2331 21.9974 18.3218 21.5464C19.4106 21.0955 20.3411 20.3318 20.9958 19.3519C21.6505 18.3721 22 17.2201 22 16.0416C21.9981 14.462 21.3697 12.9476 20.2527 11.8306C19.1357 10.7136 17.6213 10.0853 16.0417 10.0833ZM16.7292 18.3333C16.7292 18.5156 16.6567 18.6905 16.5278 18.8194C16.3989 18.9484 16.224 19.0208 16.0417 19.0208C15.8593 19.0208 15.6845 18.9484 15.5555 18.8194C15.4266 18.6905 15.3542 18.5156 15.3542 18.3333V16.9583C15.3542 16.8975 15.33 16.8392 15.287 16.7963C15.2441 16.7533 15.1858 16.7291 15.125 16.7291H13.75C13.5677 16.7291 13.3928 16.6567 13.2639 16.5278C13.1349 16.3988 13.0625 16.224 13.0625 16.0416C13.0625 15.8593 13.1349 15.6844 13.2639 15.5555C13.3928 15.4266 13.5677 15.3541 13.75 15.3541H15.125C15.1858 15.3541 15.2441 15.33 15.287 15.287C15.33 15.244 15.3542 15.1858 15.3542 15.125V13.75C15.3542 13.5676 15.4266 13.3928 15.5555 13.2638C15.6845 13.1349 15.8593 13.0625 16.0417 13.0625C16.224 13.0625 16.3989 13.1349 16.5278 13.2638C16.6567 13.3928 16.7292 13.5676 16.7292 13.75V15.125C16.7292 15.1858 16.7533 15.244 16.7963 15.287C16.8393 15.33 16.8976 15.3541 16.9583 15.3541H18.3333C18.5157 15.3541 18.6905 15.4266 18.8195 15.5555C18.9484 15.6844 19.0208 15.8593 19.0208 16.0416C19.0208 16.224 18.9484 16.3988 18.8195 16.5278C18.6905 16.6567 18.5157 16.7291 18.3333 16.7291H16.9583C16.8976 16.7291 16.8393 16.7533 16.7963 16.7963C16.7533 16.8392 16.7292 16.8975 16.7292 16.9583V18.3333Z" fill="#C766EA"/>
  </g>
  <defs>
    <clipPath id="clip0">
      <rect width="22" height="22" fill="white"/>
    </clipPath>
  </defs>
</svg>
