<svg width="24" height="24" viewBox="0 0 24 24" fill="none" xmlns="http://www.w3.org/2000/svg">
<g>
<path d="M12 0C9.62663 0 7.30655 0.703788 5.33316 2.02236C3.35977 3.34094 1.8217 5.21509 0.913451 7.4078C0.00519943 9.60051 -0.232441 12.0133 0.230582 14.3411C0.693605 16.6689 1.83649 18.8071 3.51472 20.4853C5.19295 22.1635 7.33115 23.3064 9.65892 23.7694C11.9867 24.2324 14.3995 23.9948 16.5922 23.0866C18.7849 22.1783 20.6591 20.6402 21.9776 18.6668C23.2962 16.6935 24 14.3734 24 12C23.9966 8.81846 22.7312 5.76821 20.4815 3.51852C18.2318 1.26883 15.1815 0.00344108 12 0V0ZM12 21.43C10.1349 21.4302 8.31159 20.8773 6.76071 19.8412C5.20982 18.8052 4.001 17.3325 3.28711 15.6094C2.57322 13.8863 2.38633 11.9902 2.75008 10.1609C3.11382 8.3316 4.01187 6.65125 5.33063 5.33234C6.6494 4.01343 8.32967 3.11521 10.1589 2.75127C11.9882 2.38733 13.8843 2.57402 15.6075 3.28772C17.3306 4.00143 18.8035 5.21009 19.8397 6.76087C20.8759 8.31165 21.429 10.1349 21.429 12C21.4261 14.4998 20.4318 16.8964 18.6641 18.6641C16.8965 20.4317 14.4998 21.4261 12 21.429V21.43Z" fill="#C866EA"/>
<path d="M16.6092 10.712L10.6832 7.74901C10.451 7.61629 10.1872 7.54865 9.91976 7.55319C9.65229 7.55774 9.39099 7.6343 9.16336 7.77483C8.93574 7.91535 8.75021 8.11464 8.6263 8.35172C8.50238 8.5888 8.44467 8.85489 8.45924 9.12201V14.876C8.44866 15.1422 8.50766 15.4065 8.63042 15.6429C8.75317 15.8793 8.93544 16.0796 9.15924 16.224C9.3874 16.3646 9.65026 16.4387 9.91824 16.438C10.183 16.4351 10.4436 16.3708 10.6792 16.25L16.6052 13.287C16.8628 13.1843 17.0837 13.0068 17.2393 12.7772C17.3949 12.5477 17.4781 12.2768 17.4781 11.9995C17.4781 11.7222 17.3949 11.4513 17.2393 11.2218C17.0837 10.9922 16.8628 10.8147 16.6052 10.712H16.6092Z" fill="#C866EA"/>
</g>
<defs>
<clipPath>
<rect width="24" height="24" fill="white"/>
</clipPath>
</defs>
</svg>
