<svg width="21" height="21" viewBox="0 0 21 21" fill="none" xmlns="http://www.w3.org/2000/svg">
<g clip-path="url(#clip0)">
<path d="M8.54788 12.8424C8.61947 12.8836 8.70063 12.9053 8.78325 12.9053C8.86587 12.9053 8.94703 12.8836 9.01863 12.8424L14.1995 9.8814C14.2717 9.84015 14.3317 9.78055 14.3734 9.70864C14.4152 9.63672 14.4372 9.55505 14.4372 9.4719C14.4372 9.38875 14.4152 9.30708 14.3734 9.23517C14.3317 9.16325 14.2717 9.10365 14.1995 9.0624L9.01863 6.10315C8.94684 6.06232 8.86561 6.04101 8.78303 6.04136C8.70045 6.0417 8.6194 6.06368 8.54796 6.10511C8.47652 6.14654 8.41719 6.20597 8.37587 6.27748C8.33456 6.34898 8.31271 6.43007 8.3125 6.51265V12.4338C8.31242 12.5166 8.33413 12.5979 8.37545 12.6696C8.41677 12.7413 8.47623 12.8009 8.54788 12.8424Z" fill="#C4C7D1"/>
<path d="M21.001 1.53123C21.001 1.18313 20.8627 0.849291 20.6166 0.603149C20.3704 0.357008 20.0366 0.218727 19.6885 0.218727H1.31348C0.982314 0.219712 0.663758 0.345851 0.42169 0.571853C0.179622 0.797856 0.0319366 1.10701 0.00824722 1.43734C-0.0154421 1.76766 0.0866155 2.09473 0.293957 2.35296C0.501298 2.61119 0.798593 2.7815 1.12623 2.82973C1.17833 2.83731 1.22595 2.86343 1.26035 2.90329C1.29475 2.94315 1.31361 2.99408 1.31348 3.04673V15.7719C1.31333 15.8222 1.29586 15.871 1.26399 15.9101C1.23213 15.9491 1.18782 15.976 1.13848 15.9862C0.925831 16.0294 0.73681 16.1501 0.608113 16.3248C0.479416 16.4995 0.420227 16.7158 0.442034 16.9317C0.463841 17.1476 0.56509 17.3476 0.726125 17.4931C0.88716 17.6385 1.09649 17.7189 1.31348 17.7187H9.62598C9.65474 17.7186 9.68324 17.7242 9.70983 17.7351C9.73642 17.7461 9.76058 17.7622 9.78092 17.7825C9.80126 17.8029 9.81736 17.827 9.82832 17.8536C9.83927 17.8802 9.84485 17.9087 9.84473 17.9375V18.2122C9.8441 18.2467 9.83528 18.2806 9.819 18.311C9.80273 18.3414 9.77946 18.3676 9.75111 18.3872C9.52177 18.5469 9.34937 18.7756 9.259 19.04C9.16864 19.3044 9.16503 19.5908 9.24869 19.8574C9.33235 20.124 9.49893 20.357 9.72416 20.5223C9.9494 20.6877 10.2215 20.7769 10.501 20.7769C10.7804 20.7769 11.0526 20.6877 11.2778 20.5223C11.503 20.357 11.6696 20.124 11.7533 19.8574C11.8369 19.5908 11.8333 19.3044 11.743 19.04C11.6526 18.7756 11.4802 18.5469 11.2509 18.3872C11.2225 18.3676 11.1992 18.3414 11.183 18.311C11.1667 18.2806 11.1579 18.2467 11.1572 18.2122V17.9375C11.1571 17.9087 11.1627 17.8802 11.1736 17.8536C11.1846 17.827 11.2007 17.8029 11.221 17.7825C11.2414 17.7622 11.2655 17.7461 11.2921 17.7351C11.3187 17.7242 11.3472 17.7186 11.376 17.7187H19.6885C19.9055 17.7189 20.1148 17.6385 20.2758 17.4931C20.4369 17.3476 20.5381 17.1476 20.5599 16.9317C20.5817 16.7158 20.5225 16.4995 20.3939 16.3248C20.2652 16.1501 20.0761 16.0294 19.8635 15.9862C19.814 15.9763 19.7695 15.9495 19.7376 15.9104C19.7057 15.8713 19.6883 15.8223 19.6885 15.7719V3.04673C19.6885 2.99413 19.7075 2.94329 19.7418 2.90347C19.7762 2.86365 19.8237 2.83748 19.8757 2.82973C20.1881 2.78471 20.4737 2.62867 20.6804 2.3902C20.887 2.15173 21.0008 1.84678 21.001 1.53123ZM17.9385 15.75C17.9385 15.808 17.9154 15.8636 17.8744 15.9047C17.8334 15.9457 17.7778 15.9687 17.7197 15.9687H3.28223C3.22422 15.9687 3.16858 15.9457 3.12755 15.9047C3.08653 15.8636 3.06348 15.808 3.06348 15.75V3.06248C3.06337 3.03372 3.06895 3.00522 3.0799 2.97863C3.09085 2.95204 3.10696 2.92788 3.1273 2.90754C3.14763 2.8872 3.17179 2.87109 3.19838 2.86014C3.22498 2.84919 3.25347 2.84361 3.28223 2.84373H17.7197C17.7485 2.84361 17.777 2.84919 17.8036 2.86014C17.8302 2.87109 17.8543 2.8872 17.8747 2.90754C17.895 2.92788 17.9111 2.95204 17.9221 2.97863C17.933 3.00522 17.9386 3.03372 17.9385 3.06248V15.75Z" fill="#C4C7D1"/>
</g>
<defs>
<clipPath id="clip0">
<rect width="21" height="21" fill="white"/>
</clipPath>
</defs>
</svg>
