<svg width="18" height="18" viewBox="0 0 18 18" fill="none" xmlns="http://www.w3.org/2000/svg">
<g>
<path d="M7.32675 11.0078C7.38811 11.0432 7.45769 11.0618 7.5285 11.0618C7.59931 11.0618 7.66889 11.0432 7.73025 11.0078L12.171 8.46982C12.2329 8.43446 12.2843 8.38337 12.3201 8.32173C12.3559 8.26009 12.3747 8.19009 12.3747 8.11882C12.3747 8.04755 12.3559 7.97754 12.3201 7.9159C12.2843 7.85426 12.2329 7.80317 12.171 7.76782L7.73025 5.23132C7.66872 5.19632 7.5991 5.17805 7.52831 5.17835C7.45753 5.17864 7.38806 5.19749 7.32682 5.233C7.26559 5.26851 7.21473 5.31945 7.17932 5.38074C7.14391 5.44203 7.12518 5.51153 7.125 5.58232V10.6576C7.12493 10.7285 7.14354 10.7982 7.17896 10.8597C7.21437 10.9212 7.26534 10.9723 7.32675 11.0078Z" fill="#2F3850"/>
<path d="M18.0006 1.3125C18.0006 1.01413 17.882 0.727983 17.6711 0.517005C17.4601 0.306026 17.1739 0.1875 16.8756 0.1875H1.12556C0.841704 0.188344 0.568657 0.296463 0.361169 0.49018C0.153682 0.683896 0.0270952 0.948888 0.00679003 1.23202C-0.0135151 1.51515 0.0739629 1.7955 0.251684 2.01684C0.429405 2.23818 0.68423 2.38416 0.965064 2.4255C1.00972 2.432 1.05054 2.45439 1.08002 2.48855C1.1095 2.52272 1.12567 2.56637 1.12556 2.6115V13.5187C1.12543 13.5619 1.11046 13.6038 1.08314 13.6372C1.05583 13.6707 1.01785 13.6937 0.975564 13.7025C0.793291 13.7395 0.631272 13.8429 0.520961 13.9927C0.410649 14.1424 0.359915 14.3278 0.378607 14.5129C0.397299 14.6979 0.484084 14.8694 0.622114 14.9941C0.760144 15.1188 0.939571 15.1877 1.12556 15.1875H8.25056C8.27521 15.1874 8.29964 15.1922 8.32243 15.2016C8.34523 15.211 8.36594 15.2248 8.38337 15.2422C8.4008 15.2596 8.41461 15.2803 8.42399 15.3031C8.43338 15.3259 8.43816 15.3503 8.43806 15.375V15.6105C8.43752 15.6401 8.42996 15.6691 8.41601 15.6952C8.40206 15.7212 8.38211 15.7436 8.35781 15.7605C8.16124 15.8973 8.01347 16.0934 7.93601 16.32C7.85856 16.5466 7.85546 16.7921 7.92717 17.0206C7.99888 17.2492 8.14166 17.4488 8.33472 17.5906C8.52778 17.7324 8.76105 17.8088 9.00056 17.8088C9.24008 17.8088 9.47335 17.7324 9.66641 17.5906C9.85947 17.4488 10.0022 17.2492 10.074 17.0206C10.1457 16.7921 10.1426 16.5466 10.0651 16.32C9.98766 16.0934 9.83989 15.8973 9.64331 15.7605C9.61901 15.7436 9.59907 15.7212 9.58512 15.6952C9.57117 15.6691 9.56361 15.6401 9.56306 15.6105V15.375C9.56296 15.3503 9.56775 15.3259 9.57713 15.3031C9.58652 15.2803 9.60033 15.2596 9.61776 15.2422C9.63519 15.2248 9.6559 15.211 9.67869 15.2016C9.70149 15.1922 9.72591 15.1874 9.75056 15.1875H16.8756C17.0616 15.1877 17.241 15.1188 17.379 14.9941C17.517 14.8694 17.6038 14.6979 17.6225 14.5129C17.6412 14.3278 17.5905 14.1424 17.4802 13.9927C17.3699 13.8429 17.2078 13.7395 17.0256 13.7025C16.9831 13.694 16.945 13.671 16.9176 13.6375C16.8903 13.604 16.8754 13.562 16.8756 13.5187V2.6115C16.8756 2.56641 16.8918 2.52284 16.9213 2.48871C16.9507 2.45458 16.9915 2.43215 17.0361 2.4255C17.3038 2.38691 17.5486 2.25317 17.7258 2.04876C17.9029 1.84436 18.0004 1.58298 18.0006 1.3125ZM15.3756 13.5C15.3756 13.5497 15.3558 13.5974 15.3206 13.6326C15.2855 13.6677 15.2378 13.6875 15.1881 13.6875H2.81306C2.76334 13.6875 2.71564 13.6677 2.68048 13.6326C2.64532 13.5974 2.62556 13.5497 2.62556 13.5V2.625C2.62546 2.60035 2.63025 2.57592 2.63963 2.55313C2.64902 2.53034 2.66283 2.50963 2.68026 2.4922C2.69769 2.47477 2.7184 2.46096 2.74119 2.45157C2.76399 2.44218 2.78841 2.4374 2.81306 2.4375H15.1881C15.2127 2.4374 15.2371 2.44218 15.2599 2.45157C15.2827 2.46096 15.3034 2.47477 15.3209 2.4922C15.3383 2.50963 15.3521 2.53034 15.3615 2.55313C15.3709 2.57592 15.3757 2.60035 15.3756 2.625V13.5Z" fill="#2F3850"/>
</g>
<defs>
<clipPath>
<rect width="18" height="18" fill="white"/>
</clipPath>
</defs>
</svg>
