<svg width="24" height="24" viewBox="0 0 24 24" fill="none" xmlns="http://www.w3.org/2000/svg">
<path fill-rule="evenodd" clip-rule="evenodd" d="M12.6952 4.36C13.1619 4.84001 13.1619 5.61824 12.6952 6.09825L7.51257 11.4284C7.04585 11.9084 6.28914 11.9084 5.82242 11.4284C5.3557 10.9484 5.3557 10.1701 5.82242 9.69014L11.0051 4.36C11.4718 3.88 12.2285 3.88 12.6952 4.36Z" fill="#8C94A6"/>
<path fill-rule="evenodd" clip-rule="evenodd" d="M18.1783 11.561C17.7116 12.041 16.9548 12.041 16.4881 11.561L11.1761 6.09794C10.7094 5.61794 10.5384 4.84001 11.0051 4.36C11.4718 3.88 12.2285 3.88 12.6952 4.36L18.1783 9.82278C18.645 10.3028 18.645 11.081 18.1783 11.561Z" fill="#8C94A6"/>
<path fill-rule="evenodd" clip-rule="evenodd" d="M11.8504 20C11.1904 20 10.6553 19.4497 10.6553 18.7709L10.6553 5.22913C10.6553 4.5503 11.1904 4 11.8504 4C12.5104 4 13.0455 4.55029 13.0455 5.22912L13.0455 18.7709C13.0455 19.4497 12.5104 20 11.8504 20Z" fill="#8C94A6"/>
</svg>
