<svg width="40" height="40" viewBox="0 0 40 40" fill="none" xmlns="http://www.w3.org/2000/svg">
<rect width="40" height="40" rx="8" fill="#F2A576"/>
<g clip-path="url(#clip0_21614_82626)">
<path d="M20 10C14.479 10 10 14.4734 10 19.9947C10 25.5214 14.479 30 20 30C25.524 30 29.9992 25.5214 29.9992 19.9947C29.9993 14.4734 25.524 10 20 10ZM20.7126 25.559C20.4804 25.7657 20.2112 25.8696 19.9063 25.8696C19.5908 25.8696 19.3156 25.7676 19.0807 25.5631C18.8455 25.3591 18.7276 25.0734 18.7276 24.7063C18.7276 24.3807 18.8417 24.1066 19.0691 23.8845C19.2965 23.6624 19.5754 23.5514 19.9063 23.5514C20.2319 23.5514 20.506 23.6624 20.7285 23.8845C20.9506 24.1066 21.062 24.3807 21.062 24.7063C21.0616 25.0681 20.9452 25.3524 20.7126 25.559ZM23.6086 18.3794C23.4302 18.7103 23.2183 18.9956 22.9725 19.2362C22.7274 19.4767 22.2866 19.881 21.6503 20.4495C21.4749 20.6099 21.3338 20.7506 21.228 20.8718C21.1222 20.9935 21.0431 21.1045 20.9916 21.2054C20.9396 21.3062 20.8997 21.4072 20.8715 21.508C20.8432 21.6085 20.8007 21.7859 20.7431 22.0392C20.6452 22.5768 20.3377 22.8455 19.8208 22.8455C19.552 22.8455 19.3261 22.7578 19.142 22.582C18.9587 22.4062 18.8672 22.1453 18.8672 21.799C18.8672 21.365 18.9346 20.9889 19.069 20.6708C19.2027 20.3527 19.3815 20.0738 19.6036 19.8332C19.8261 19.5927 20.1257 19.3073 20.5033 18.9764C20.8342 18.6869 21.0733 18.4686 21.2204 18.3214C21.368 18.1738 21.4919 18.0097 21.5924 17.829C21.6936 17.6479 21.7433 17.4518 21.7433 17.2398C21.7433 16.8261 21.5901 16.4775 21.2822 16.1933C20.9747 15.9091 20.5779 15.7668 20.0919 15.7668C19.5231 15.7668 19.1044 15.9102 18.8357 16.1971C18.5669 16.4839 18.3399 16.9063 18.1535 17.4646C17.9774 18.0489 17.6438 18.3409 17.1533 18.3409C16.8638 18.3409 16.6195 18.2389 16.4203 18.0349C16.2216 17.8308 16.1222 17.6099 16.1222 17.372C16.1222 16.8811 16.2799 16.3834 16.595 15.8793C16.9105 15.3753 17.3705 14.9578 17.9755 14.6272C18.58 14.2963 19.2859 14.1307 20.0919 14.1307C20.8414 14.1307 21.5028 14.2692 22.0765 14.5459C22.6502 14.8222 23.0937 15.1983 23.4065 15.6741C23.719 16.1496 23.8755 16.6665 23.8755 17.2247C23.8763 17.6634 23.7871 18.0485 23.6086 18.3794Z" fill="white"/>
</g>
<defs>
<clipPath id="clip0_21614_82626">
<rect width="20" height="20" fill="white" transform="translate(10 10)"/>
</clipPath>
</defs>
</svg>
