<svg width="32" height="32" viewBox="0 0 32 32" fill="none" xmlns="http://www.w3.org/2000/svg">
  <rect width="32" height="32" rx="5" fill="#E9F1FB"/>
  <path d="M23 9.33333C23 8.97971 22.8595 8.64057 22.6095 8.39052C22.3594 8.14048 22.0203 8 21.6667 8H10.3333C9.97971 8 9.64057 8.14048 9.39052 8.39052C9.14048 8.64057 9 8.97971 9 9.33333V22.7767C9 23.1009 9.1287 23.4118 9.35783 23.6412C9.58697 23.8706 9.89778 23.9996 10.222 24H21.6667C22.0203 24 22.3594 23.8595 22.6095 23.6095C22.8595 23.3594 23 23.0203 23 22.6667V9.33333ZM10.3333 9.66667C10.3333 9.57826 10.3685 9.49348 10.431 9.43096C10.4935 9.36845 10.5783 9.33333 10.6667 9.33333H21.3333C21.4217 9.33333 21.5065 9.36845 21.569 9.43096C21.6315 9.49348 21.6667 9.57826 21.6667 9.66667V10.4833C21.6667 10.5143 21.658 10.5447 21.6418 10.571C21.6256 10.5974 21.6023 10.6187 21.5747 10.6327L20.108 11.366C19.7744 11.5309 19.4937 11.786 19.2978 12.1024C19.102 12.4188 18.9988 12.7839 19 13.156V22.4987C19 22.5429 18.9824 22.5853 18.9512 22.6165C18.9199 22.6478 18.8775 22.6653 18.8333 22.6653H10.6667C10.5783 22.6653 10.4935 22.6302 10.431 22.5677C10.3685 22.5052 10.3333 22.4204 10.3333 22.332V9.66667ZM20.3333 13.1573C20.3329 13.0335 20.3673 12.912 20.4324 12.8066C20.4976 12.7013 20.591 12.6163 20.702 12.5613L21.4253 12.2C21.4508 12.1873 21.479 12.1812 21.5075 12.1825C21.5359 12.1838 21.5635 12.1923 21.5877 12.2073C21.6119 12.2222 21.6318 12.2432 21.6457 12.268C21.6595 12.2929 21.6667 12.3209 21.6667 12.3493V14.4827C21.6667 14.5136 21.658 14.544 21.6418 14.5704C21.6256 14.5967 21.6023 14.6181 21.5747 14.632L20.5747 15.132C20.5492 15.1447 20.521 15.1508 20.4925 15.1495C20.4641 15.1482 20.4365 15.1397 20.4123 15.1247C20.3881 15.1098 20.3682 15.0888 20.3543 15.064C20.3405 15.0391 20.3333 15.0111 20.3333 14.9827V13.1573ZM21.6667 18.818C21.6667 18.849 21.658 18.8793 21.6418 18.9057C21.6256 18.9321 21.6023 18.9534 21.5747 18.9673L20.5747 19.4673C20.5492 19.4801 20.521 19.4861 20.4925 19.4848C20.4641 19.4836 20.4365 19.475 20.4123 19.4601C20.3881 19.4451 20.3682 19.4242 20.3543 19.3993C20.3405 19.3744 20.3333 19.3464 20.3333 19.318V16.8513C20.3334 16.8204 20.3421 16.7901 20.3583 16.7637C20.3745 16.7374 20.3977 16.716 20.4253 16.702L21.4253 16.202C21.4508 16.1893 21.479 16.1832 21.5075 16.1845C21.5359 16.1858 21.5635 16.1943 21.5877 16.2093C21.6119 16.2242 21.6318 16.2452 21.6457 16.27C21.6595 16.2949 21.6667 16.3229 21.6667 16.3513V18.818ZM20.3333 21.182C20.3334 21.1511 20.3421 21.1207 20.3583 21.0944C20.3745 21.068 20.3977 21.0467 20.4253 21.0327L21.4253 20.5327C21.4508 20.5199 21.479 20.5139 21.5075 20.5152C21.5359 20.5164 21.5635 20.525 21.5877 20.5399C21.6119 20.5549 21.6318 20.5758 21.6457 20.6007C21.6595 20.6256 21.6667 20.6536 21.6667 20.682V22.3333C21.6667 22.4217 21.6315 22.5065 21.569 22.569C21.5065 22.6315 21.4217 22.6667 21.3333 22.6667H20.5C20.4558 22.6667 20.4134 22.6491 20.3821 22.6179C20.3509 22.5866 20.3333 22.5442 20.3333 22.5V21.182Z" fill="#8C94A6"/>
</svg>
