<svg width="10" height="11" viewBox="0 0 10 11" fill="none" xmlns="http://www.w3.org/2000/svg">
<g>
<path d="M5 0.5C4.0111 0.5 3.0444 0.793245 2.22215 1.34265C1.39991 1.89206 0.759043 2.67295 0.380605 3.58658C0.00216643 4.50021 -0.0968503 5.50555 0.0960758 6.47545C0.289002 7.44536 0.765206 8.33627 1.46447 9.03553C2.16373 9.7348 3.05465 10.211 4.02455 10.4039C4.99446 10.5969 5.99979 10.4978 6.91342 10.1194C7.82705 9.74096 8.60794 9.1001 9.15735 8.27785C9.70676 7.45561 10 6.48891 10 5.5C9.99857 4.17436 9.47132 2.90342 8.53395 1.96605C7.59658 1.02868 6.32564 0.501434 5 0.5V0.5ZM5 8.41667C4.87639 8.41667 4.75555 8.38001 4.65277 8.31134C4.54999 8.24266 4.46988 8.14505 4.42258 8.03084C4.37527 7.91664 4.3629 7.79097 4.38701 7.66974C4.41113 7.5485 4.47065 7.43713 4.55806 7.34973C4.64547 7.26232 4.75683 7.20279 4.87807 7.17868C4.99931 7.15456 5.12498 7.16694 5.23918 7.21424C5.35338 7.26155 5.45099 7.34166 5.51967 7.44444C5.58835 7.54722 5.625 7.66805 5.625 7.79167C5.625 7.95743 5.55915 8.1164 5.44194 8.23361C5.32473 8.35082 5.16576 8.41667 5 8.41667ZM5.66667 5.88333C5.59233 5.91578 5.52908 5.96921 5.48467 6.03708C5.44026 6.10495 5.41663 6.18431 5.41667 6.26542C5.41667 6.37592 5.37277 6.4819 5.29463 6.56004C5.21649 6.63819 5.11051 6.68208 5 6.68208C4.8895 6.68208 4.78351 6.63819 4.70537 6.56004C4.62723 6.4819 4.58334 6.37592 4.58334 6.26542C4.5833 6.02216 4.65424 5.78418 4.78746 5.58065C4.92068 5.37712 5.11039 5.21689 5.33334 5.11958C5.47105 5.05948 5.58995 4.96326 5.67746 4.84111C5.76496 4.71895 5.8178 4.57541 5.8304 4.42568C5.843 4.27595 5.81488 4.1256 5.74901 3.99055C5.68315 3.85549 5.582 3.74075 5.45626 3.65849C5.33052 3.57622 5.18488 3.52948 5.03475 3.52321C4.88462 3.51695 4.73559 3.55139 4.60344 3.6229C4.47128 3.6944 4.36092 3.80031 4.28403 3.92941C4.20714 4.05851 4.16659 4.20599 4.16667 4.35625C4.16667 4.46676 4.12277 4.57274 4.04463 4.65088C3.96649 4.72902 3.86051 4.77292 3.75 4.77292C3.6395 4.77292 3.53351 4.72902 3.45537 4.65088C3.37723 4.57274 3.33334 4.46676 3.33334 4.35625C3.33333 4.05577 3.41456 3.76087 3.56843 3.50277C3.7223 3.24467 3.94309 3.03297 4.20742 2.89008C4.47175 2.74718 4.7698 2.67841 5.07002 2.69103C5.37024 2.70365 5.66146 2.7972 5.91286 2.96178C6.16427 3.12636 6.3665 3.35585 6.49816 3.62595C6.62982 3.89606 6.68601 4.19673 6.66078 4.49616C6.63556 4.79558 6.52985 5.08261 6.35485 5.32688C6.17985 5.57115 5.94207 5.76356 5.66667 5.88375V5.88333Z" fill="#C866EA"/>
</g>
<defs>
<clipPath>
<rect width="10" height="10" fill="white" transform="translate(0 0.5)"/>
</clipPath>
</defs>
</svg>
