<svg width="18" height="19" viewBox="0 0 18 19" fill="none" xmlns="http://www.w3.org/2000/svg">
<path fill-rule="evenodd" clip-rule="evenodd" d="M9 0.5C4.02944 0.5 0 4.52944 0 9.5C0 14.4706 4.02944 18.5 9 18.5C13.9706 18.5 18 14.4706 18 9.5C17.9946 4.53166 13.9683 0.505374 9 0.5ZM9 14.75C8.37868 14.75 7.875 14.2463 7.875 13.625C7.875 13.0037 8.37868 12.5 9 12.5C9.62132 12.5 10.125 13.0037 10.125 13.625C10.125 14.2463 9.62132 14.75 9 14.75ZM9.74999 10.8777C9.74985 10.5794 9.92655 10.3093 10.2 10.19V10.1907C11.5732 9.5914 12.2937 8.07074 11.8878 6.62843C11.4819 5.18613 10.074 4.26448 8.58973 4.46938C7.10547 4.67428 5.99997 5.9429 5.99999 7.44124C5.99999 7.85545 6.33578 8.19124 6.74999 8.19124C7.16421 8.19124 7.49999 7.85545 7.49999 7.44124C7.49961 6.69197 8.05217 6.05734 8.79437 5.95463C9.53656 5.85192 10.2407 6.31264 10.4438 7.03385C10.6469 7.75506 10.2867 8.51553 9.59999 8.81524C8.77992 9.17315 8.24986 9.98297 8.24999 10.8777C8.24999 11.292 8.58578 11.6277 8.99999 11.6277C9.41421 11.6277 9.74999 11.292 9.74999 10.8777Z" fill="#BE4745"/>
</svg>
