<svg width="18" height="18" viewBox="0 0 18 18" fill="none" xmlns="http://www.w3.org/2000/svg">
<path d="M16 3.50003C15.7904 3.49649 15.5824 3.53774 15.39 3.62103C15.3454 3.64037 15.3074 3.67237 15.2807 3.71306C15.254 3.75376 15.2399 3.80138 15.24 3.85003V6.37003C15.24 6.50264 15.1873 6.62981 15.0936 6.72358C14.9998 6.81735 14.8726 6.87003 14.74 6.87003C14.6074 6.87003 14.4802 6.81735 14.3864 6.72358C14.2927 6.62981 14.24 6.50264 14.24 6.37003V3.13203C14.2104 2.69028 14.0143 2.27621 13.6914 1.97333C13.3685 1.67046 12.9427 1.50131 12.5 1.50003C12.2904 1.49649 12.0824 1.53774 11.89 1.62103C11.8454 1.64037 11.8074 1.67237 11.7807 1.71306C11.754 1.75376 11.7399 1.80138 11.74 1.85003V5.87003C11.74 6.00264 11.6873 6.12981 11.5936 6.22358C11.4998 6.31735 11.3726 6.37003 11.24 6.37003C11.1074 6.37003 10.9802 6.31735 10.8864 6.22358C10.7927 6.12981 10.74 6.00264 10.74 5.87003V2.13203C10.7104 1.69028 10.5143 1.27621 10.1914 0.973333C9.8685 0.670455 9.44273 0.501313 9 0.500027C8.79037 0.496489 8.58241 0.537741 8.39 0.621027C8.34536 0.64037 8.30736 0.672366 8.28071 0.713063C8.25405 0.753761 8.2399 0.801376 8.24 0.850027V5.37003C8.24 5.50264 8.18732 5.62981 8.09355 5.72358C7.99979 5.81735 7.87261 5.87003 7.74 5.87003C7.60739 5.87003 7.48022 5.81735 7.38645 5.72358C7.29268 5.62981 7.24 5.50264 7.24 5.37003V3.13203C7.20937 2.68015 7.00445 2.25782 6.66845 1.95412C6.33245 1.65042 5.89163 1.48908 5.43896 1.50412C4.9863 1.51917 4.55717 1.70943 4.24207 2.03477C3.92698 2.36011 3.75055 2.79511 3.75 3.24803L3.74 10.227C3.74 10.3596 3.68732 10.4868 3.59355 10.5806C3.49979 10.6743 3.37261 10.727 3.24 10.727C3.10739 10.727 2.98021 10.6743 2.88645 10.5806C2.79268 10.4868 2.74 10.3596 2.74 10.227V5.74803C2.74 5.68172 2.71366 5.61813 2.66678 5.57125C2.61989 5.52437 2.5563 5.49803 2.49 5.49803H2C1.53603 5.49856 1.09122 5.6831 0.763148 6.01117C0.435074 6.33925 0.250529 6.78406 0.25 7.24803V11.248C0.25 13.36 3.378 17.498 7.16 17.498H12.5C13.8919 17.4964 15.2263 16.9428 16.2106 15.9586C17.1948 14.9744 17.7484 13.6399 17.75 12.248V5.24803C17.7489 4.78441 17.5642 4.34011 17.2361 4.01247C16.9081 3.68482 16.4636 3.50055 16 3.50003Z" fill="#9BA1B4"/>
</svg>
