<svg width="32" height="32" viewBox="0 0 32 32" fill="none" xmlns="http://www.w3.org/2000/svg">
  <rect width="32" height="32" rx="5" fill="#E9F1FB"/>
  <path d="M23 17.3333H20.6667C20.4899 17.3333 20.3203 17.4035 20.1953 17.5285C20.0702 17.6535 20 17.8231 20 17.9999C20 18.1767 19.9298 18.3463 19.8047 18.4713C19.6797 18.5963 19.5101 18.6666 19.3333 18.6666H12.6667C12.4899 18.6666 12.3203 18.5963 12.1953 18.4713C12.0702 18.3463 12 18.1767 12 17.9999C12 17.8231 11.9298 17.6535 11.8047 17.5285C11.6797 17.4035 11.5101 17.3333 11.3333 17.3333H9C8.73478 17.3333 8.48043 17.4386 8.29289 17.6261C8.10536 17.8137 8 18.068 8 18.3333V22.6666C8 23.0202 8.14048 23.3593 8.39052 23.6094C8.64057 23.8594 8.97971 23.9999 9.33333 23.9999H22.6667C23.0203 23.9999 23.3594 23.8594 23.6095 23.6094C23.8595 23.3593 24 23.0202 24 22.6666V18.3333C24 18.068 23.8946 17.8137 23.7071 17.6261C23.5196 17.4386 23.2652 17.3333 23 17.3333Z" fill="#8C94A6"/>
  <path d="M14.3337 16C14.1568 16 13.9873 16.0702 13.8623 16.1953C13.7372 16.3203 13.667 16.4899 13.667 16.6667C13.667 16.8435 13.7372 17.013 13.8623 17.1381C13.9873 17.2631 14.1568 17.3333 14.3337 17.3333H17.667C17.8438 17.3333 18.0134 17.2631 18.1384 17.1381C18.2634 17.013 18.3337 16.8435 18.3337 16.6667C18.3337 16.4899 18.2634 16.3203 18.1384 16.1953C18.0134 16.0702 17.8438 16 17.667 16H14.3337Z" fill="#8C94A6"/>
  <path d="M9.66667 15.3333C9.84348 15.3333 10.013 15.263 10.1381 15.138C10.2631 15.013 10.3333 14.8434 10.3333 14.6666H21.6667C21.6667 14.8434 21.7369 15.013 21.8619 15.138C21.987 15.263 22.1565 15.3333 22.3333 15.3333C22.5101 15.3333 22.6797 15.263 22.8047 15.138C22.9298 15.013 23 14.8434 23 14.6666C23 14.313 22.8595 13.9738 22.6095 13.7238C22.3594 13.4737 22.0203 13.3333 21.6667 13.3333H10.3333C9.97971 13.3333 9.64057 13.4737 9.39052 13.7238C9.14048 13.9738 9 14.313 9 14.6666C9 14.8434 9.07024 15.013 9.19526 15.138C9.32029 15.263 9.48986 15.3333 9.66667 15.3333Z" fill="#8C94A6"/>
  <path d="M9.66667 10C9.84348 10 10.013 9.92976 10.1381 9.80474C10.2631 9.67971 10.3333 9.51014 10.3333 9.33333H21.6667C21.6667 9.51014 21.7369 9.67971 21.8619 9.80474C21.987 9.92976 22.1565 10 22.3333 10C22.5101 10 22.6797 9.92976 22.8047 9.80474C22.9298 9.67971 23 9.51014 23 9.33333C23 8.97971 22.8595 8.64057 22.6095 8.39052C22.3594 8.14048 22.0203 8 21.6667 8H10.3333C9.97971 8 9.64057 8.14048 9.39052 8.39052C9.14048 8.64057 9 8.97971 9 9.33333C9 9.51014 9.07024 9.67971 9.19526 9.80474C9.32029 9.92976 9.48986 10 9.66667 10Z" fill="#8C94A6"/>
</svg>
