<svg width="18" height="18" viewBox="0 0 18 18" fill="none" xmlns="http://www.w3.org/2000/svg">
<path d="M9.30474 11.1788C9.21359 11.2163 9.13073 11.2715 9.06092 11.3411C8.99111 11.4107 8.9357 11.4934 8.89788 11.5844C8.86005 11.6755 8.84055 11.7731 8.84048 11.8717C8.84042 11.9703 8.85979 12.0679 8.89749 12.159C8.95427 12.2961 8.96911 12.4469 8.94014 12.5924C8.91117 12.738 8.83969 12.8716 8.73474 12.9765L6.61374 15.0983C6.33245 15.3795 5.95099 15.5374 5.55324 15.5374C5.1555 15.5374 4.77403 15.3795 4.49274 15.0983L2.90124 13.5075C2.76189 13.3682 2.65135 13.2028 2.57593 13.0208C2.50051 12.8388 2.46169 12.6437 2.46169 12.4466C2.46169 12.2496 2.50051 12.0545 2.57593 11.8725C2.65135 11.6904 2.76189 11.525 2.90124 11.3858L5.02524 9.26475C5.13088 9.16075 5.26464 9.08993 5.41003 9.06102C5.55542 9.0321 5.7061 9.04634 5.84349 9.102C6.02739 9.17789 6.23389 9.17761 6.41759 9.10124C6.60128 9.02486 6.74711 8.87865 6.82299 8.69475C6.89888 8.51086 6.8986 8.30435 6.82223 8.12066C6.74585 7.93697 6.59964 7.79114 6.41574 7.71525C6.00405 7.54869 5.55262 7.50623 5.1171 7.59313C4.68157 7.68002 4.28099 7.89246 3.96474 8.20425L1.84074 10.3253C1.2792 10.8884 0.963867 11.6513 0.963867 12.4466C0.963867 13.2419 1.2792 14.0048 1.84074 14.568L3.43224 16.1588C3.99482 16.7212 4.75775 17.0371 5.55324 17.0371C6.34873 17.0371 7.11166 16.7212 7.67424 16.1588L9.79599 14.0378C10.1102 13.7227 10.3241 13.3217 10.411 12.8853C10.4979 12.449 10.4538 11.9966 10.2842 11.5853C10.2082 11.4015 10.0623 11.2554 9.87866 11.1792C9.69498 11.103 9.48854 11.1028 9.30474 11.1788Z" fill="#2F3850"/>
<path d="M5.81725 12.1807C5.95894 12.3194 6.14928 12.397 6.3475 12.397C6.54572 12.397 6.73605 12.3194 6.87775 12.1807L12.712 6.34725C12.8486 6.2058 12.9242 6.01634 12.9225 5.8197C12.9208 5.62305 12.8419 5.43494 12.7029 5.29588C12.5638 5.15683 12.3757 5.07795 12.179 5.07624C11.9824 5.07453 11.7929 5.15013 11.6515 5.28675L5.81725 11.1202C5.67664 11.2609 5.59766 11.4516 5.59766 11.6505C5.59766 11.8494 5.67664 12.0401 5.81725 12.1807Z" fill="#2F3850"/>
<path d="M16.1596 3.4305L14.5689 1.83975C14.0057 1.27821 13.2428 0.962875 12.4475 0.962875C11.6522 0.962875 10.8893 1.27821 10.3261 1.83975L8.20438 3.96075C7.8902 4.27566 7.6762 4.67648 7.58932 5.11275C7.50244 5.54903 7.54656 6.00125 7.71613 6.4125C7.75376 6.50356 7.80895 6.58631 7.87855 6.65603C7.94816 6.72576 8.03082 6.78109 8.1218 6.81888C8.21279 6.85666 8.31033 6.87615 8.40886 6.87623C8.50738 6.87632 8.60495 6.857 8.69601 6.81938C8.78706 6.78175 8.86982 6.72656 8.93954 6.65696C9.00927 6.58735 9.0646 6.50469 9.10239 6.4137C9.14017 6.32271 9.15966 6.22517 9.15974 6.12665C9.15983 6.02813 9.14051 5.93056 9.10288 5.8395C9.04675 5.7028 9.03226 5.55257 9.06121 5.40766C9.09017 5.26276 9.16128 5.12963 9.26563 5.025L11.3866 2.904C11.5259 2.76465 11.6913 2.6541 11.8733 2.57868C12.0554 2.50326 12.2505 2.46445 12.4475 2.46445C12.6445 2.46445 12.8396 2.50326 13.0217 2.57868C13.2037 2.6541 13.3691 2.76465 13.5084 2.904L15.0991 4.49475C15.2385 4.63405 15.349 4.79943 15.4245 4.98146C15.4999 5.16349 15.5387 5.35859 15.5387 5.55562C15.5387 5.75266 15.4999 5.94776 15.4245 6.12979C15.349 6.31182 15.2385 6.4772 15.0991 6.6165L12.9751 8.73375C12.8694 8.83758 12.7356 8.90829 12.5903 8.9372C12.4449 8.96611 12.2943 8.95196 12.1569 8.8965C11.973 8.82042 11.7664 8.8205 11.5826 8.89673C11.3987 8.97297 11.2527 9.11911 11.1766 9.303C11.1006 9.48689 11.1006 9.69348 11.1769 9.87731C11.2531 10.0611 11.3992 10.2072 11.5831 10.2833C11.9948 10.451 12.4467 10.4942 12.8827 10.4074C13.3187 10.3206 13.7196 10.1076 14.0356 9.795L16.1566 7.674C16.7186 7.11107 17.0345 6.3483 17.0351 5.55287C17.0356 4.75744 16.7208 3.99422 16.1596 3.4305Z" fill="#2F3850"/>
</svg>
