<svg width="18" height="18" viewBox="0 0 18 18" fill="none" xmlns="http://www.w3.org/2000/svg">
<path d="M9.30376 11.1787C9.21261 11.2163 9.12976 11.2715 9.05994 11.3411C8.99013 11.4107 8.93473 11.4934 8.8969 11.5844C8.85908 11.6755 8.83957 11.7731 8.83951 11.8717C8.83944 11.9703 8.85881 12.0679 8.89651 12.159C8.95329 12.2961 8.96814 12.4469 8.93917 12.5924C8.91019 12.7379 8.83871 12.8716 8.73376 12.9765L6.61276 15.0982C6.33147 15.3794 5.95001 15.5374 5.55226 15.5374C5.15452 15.5374 4.77306 15.3794 4.49176 15.0982L2.90027 13.5075C2.76091 13.3682 2.65037 13.2028 2.57495 13.0208C2.49953 12.8388 2.46071 12.6436 2.46071 12.4466C2.46071 12.2496 2.49953 12.0545 2.57495 11.8724C2.65037 11.6904 2.76091 11.525 2.90027 11.3857L5.02426 9.26474C5.1299 9.16074 5.26366 9.08992 5.40905 9.061C5.55444 9.03208 5.70512 9.04633 5.84251 9.10199C6.02641 9.17787 6.23292 9.1776 6.41661 9.10122C6.6003 9.02485 6.74613 8.87863 6.82201 8.69474C6.8979 8.51084 6.89762 8.30434 6.82125 8.12064C6.74488 7.93695 6.59866 7.79112 6.41476 7.71524C6.00308 7.54867 5.55164 7.50622 5.11612 7.59311C4.68059 7.68 4.28002 7.89244 3.96376 8.20424L1.83977 10.3252C1.27822 10.8884 0.962891 11.6513 0.962891 12.4466C0.962891 13.2419 1.27822 14.0048 1.83977 14.568L3.43127 16.1587C3.99385 16.7212 4.75677 17.0371 5.55226 17.0371C6.34776 17.0371 7.11068 16.7212 7.67326 16.1587L9.79501 14.0377C10.1092 13.7227 10.3232 13.3217 10.41 12.8853C10.4969 12.4489 10.4528 11.9966 10.2833 11.5852C10.2073 11.4015 10.0614 11.2554 9.87769 11.1792C9.694 11.1029 9.48756 11.1028 9.30376 11.1787Z" fill="#C866EA"/>
<path d="M5.81725 12.1808C5.95894 12.3194 6.14928 12.397 6.3475 12.397C6.54572 12.397 6.73605 12.3194 6.87775 12.1808L12.712 6.34727C12.8486 6.20582 12.9242 6.01636 12.9225 5.81972C12.9208 5.62307 12.8419 5.43496 12.7029 5.2959C12.5638 5.15685 12.3757 5.07797 12.179 5.07626C11.9824 5.07455 11.7929 5.15015 11.6515 5.28677L5.81725 11.1203C5.67664 11.2609 5.59766 11.4516 5.59766 11.6505C5.59766 11.8494 5.67664 12.0401 5.81725 12.1808Z" fill="#C866EA"/>
<path d="M16.1587 3.43052L14.5679 1.83977C14.0047 1.27822 13.2418 0.962891 12.4465 0.962891C11.6512 0.962891 10.8884 1.27822 10.3252 1.83977L8.20341 3.96077C7.88922 4.27568 7.67522 4.6765 7.58834 5.11277C7.50146 5.54904 7.54558 6.00127 7.71516 6.41252C7.75278 6.50357 7.80797 6.58632 7.87758 6.65605C7.94718 6.72578 8.02984 6.78111 8.12083 6.81889C8.21182 6.85667 8.30936 6.87616 8.40788 6.87625C8.5064 6.87634 8.60398 6.85701 8.69503 6.81939C8.78609 6.78177 8.86884 6.72658 8.93857 6.65697C9.00829 6.58737 9.06363 6.50471 9.10141 6.41372C9.13919 6.32273 9.15868 6.22519 9.15877 6.12667C9.15885 6.02815 9.13953 5.93057 9.10191 5.83952C9.04578 5.70282 9.03128 5.55259 9.06024 5.40768C9.08919 5.26277 9.16031 5.12965 9.26466 5.02502L11.3857 2.90402C11.525 2.76466 11.6903 2.65412 11.8724 2.5787C12.0544 2.50328 12.2495 2.46446 12.4465 2.46446C12.6436 2.46446 12.8387 2.50328 13.0207 2.5787C13.2027 2.65412 13.3681 2.76466 13.5074 2.90402L15.0982 4.49477C15.2375 4.63406 15.3481 4.79945 15.4235 4.98147C15.4989 5.1635 15.5377 5.35861 15.5377 5.55564C15.5377 5.75267 15.4989 5.94778 15.4235 6.12981C15.3481 6.31183 15.2375 6.47722 15.0982 6.61652L12.9742 8.73377C12.8684 8.8376 12.7347 8.9083 12.5893 8.93721C12.444 8.96612 12.2933 8.95198 12.1559 8.89652C11.972 8.82043 11.7654 8.82052 11.5816 8.89675C11.3978 8.97298 11.2517 9.11912 11.1757 9.30302C11.0996 9.48691 11.0997 9.6935 11.1759 9.87733C11.2521 10.0612 11.3983 10.2072 11.5822 10.2833C11.9938 10.451 12.4457 10.4942 12.8817 10.4074C13.3177 10.3206 13.7186 10.1077 14.0347 9.79502L16.1557 7.67402C16.7176 7.11109 17.0335 6.34832 17.0341 5.55289C17.0347 4.75745 16.7198 3.99424 16.1587 3.43052Z" fill="#C866EA"/>
</svg>
