<svg width="78" height="78" viewBox="0 0 78 78" fill="none" xmlns="http://www.w3.org/2000/svg">
<path opacity="0.9" fill-rule="evenodd" clip-rule="evenodd" d="M40.4404 0.5C41.8211 0.5 42.9404 1.61929 42.9404 3L42.9404 18.8402C42.9404 20.2209 41.8211 21.3402 40.4404 21.3402C39.0597 21.3402 37.9404 20.2209 37.9404 18.8402L37.9404 3C37.9404 1.61929 39.0597 0.5 40.4404 0.5Z" fill="#107969"/>
<path opacity="0.6" fill-rule="evenodd" clip-rule="evenodd" d="M40.4404 56.6641C41.8211 56.6641 42.9404 57.7834 42.9404 59.1641L42.9404 75.0043C42.9404 76.385 41.8211 77.5043 40.4404 77.5043C39.0597 77.5043 37.9404 76.385 37.9404 75.0043L37.9404 59.1641C37.9404 57.7834 39.0597 56.6641 40.4404 56.6641Z" fill="#107969"/>
<path opacity="0.4" fill-rule="evenodd" clip-rule="evenodd" d="M0.5 37.5625C0.5 36.1818 1.61929 35.0625 3 35.0625L18.8402 35.0625C20.2209 35.0625 21.3402 36.1818 21.3402 37.5625C21.3402 38.9432 20.2209 40.0625 18.8402 40.0625L3 40.0625C1.61929 40.0625 0.5 38.9432 0.5 37.5625Z" fill="#107969"/>
<path opacity="0.8" fill-rule="evenodd" clip-rule="evenodd" d="M56.6602 37.5625C56.6602 36.1818 57.7794 35.0625 59.1602 35.0625L75.0004 35.0625C76.3811 35.0625 77.5004 36.1818 77.5004 37.5625C77.5004 38.9432 76.3811 40.0625 75.0004 40.0625L59.1602 40.0625C57.7794 40.0625 56.6602 38.9432 56.6602 37.5625Z" fill="#107969"/>
<path opacity="0.9" fill-rule="evenodd" clip-rule="evenodd" d="M66.9173 12.4666C67.8936 13.4429 67.8936 15.0258 66.9173 16.0021L55.8091 27.1103C54.8328 28.0866 53.2499 28.0866 52.2736 27.1103C51.2973 26.134 51.2973 24.5511 52.2736 23.5747L63.3818 12.4666C64.3581 11.4903 65.941 11.4903 66.9173 12.4666Z" fill="#107969"/>
<path opacity="0.5" fill-rule="evenodd" clip-rule="evenodd" d="M27.1136 52.2713C28.0899 53.2476 28.0899 54.8305 27.1136 55.8068L16.0054 66.915C15.0291 67.8913 13.4462 67.8913 12.4699 66.915C11.4936 65.9387 11.4936 64.3557 12.4699 63.3794L23.578 52.2713C24.5544 51.295 26.1373 51.295 27.1136 52.2713Z" fill="#107969"/>
<path opacity="0.2" fill-rule="evenodd" clip-rule="evenodd" d="M12.47 11.0725C13.4463 10.0961 15.0292 10.0961 16.0056 11.0725L27.1137 22.1806C28.09 23.1569 28.09 24.7398 27.1137 25.7161C26.1374 26.6924 24.5545 26.6924 23.5782 25.7161L12.47 14.608C11.4937 13.6317 11.4937 12.0488 12.47 11.0725Z" fill="#107969"/>
<path opacity="0.7" fill-rule="evenodd" clip-rule="evenodd" d="M52.2737 50.885C53.25 49.9086 54.833 49.9086 55.8093 50.885L66.9174 61.9931C67.8937 62.9694 67.8937 64.5523 66.9174 65.5286C65.9411 66.5049 64.3582 66.5049 63.3819 65.5286L52.2737 54.4205C51.2974 53.4442 51.2974 51.8613 52.2737 50.885Z" fill="#107969"/>
<path opacity="0.9" fill-rule="evenodd" clip-rule="evenodd" d="M40.4404 0.5C41.8211 0.5 42.9404 1.61929 42.9404 3L42.9404 18.8402C42.9404 20.2209 41.8211 21.3402 40.4404 21.3402C39.0597 21.3402 37.9404 20.2209 37.9404 18.8402L37.9404 3C37.9404 1.61929 39.0597 0.5 40.4404 0.5Z" fill="#107969"/>
<path opacity="0.6" fill-rule="evenodd" clip-rule="evenodd" d="M40.4404 56.6641C41.8211 56.6641 42.9404 57.7834 42.9404 59.1641L42.9404 75.0043C42.9404 76.385 41.8211 77.5043 40.4404 77.5043C39.0597 77.5043 37.9404 76.385 37.9404 75.0043L37.9404 59.1641C37.9404 57.7834 39.0597 56.6641 40.4404 56.6641Z" fill="#107969"/>
<path opacity="0.4" fill-rule="evenodd" clip-rule="evenodd" d="M0.5 37.5625C0.5 36.1818 1.61929 35.0625 3 35.0625L18.8402 35.0625C20.2209 35.0625 21.3402 36.1818 21.3402 37.5625C21.3402 38.9432 20.2209 40.0625 18.8402 40.0625L3 40.0625C1.61929 40.0625 0.5 38.9432 0.5 37.5625Z" fill="#107969"/>
<path opacity="0.8" fill-rule="evenodd" clip-rule="evenodd" d="M56.6602 37.5625C56.6602 36.1818 57.7794 35.0625 59.1602 35.0625L75.0004 35.0625C76.3811 35.0625 77.5004 36.1818 77.5004 37.5625C77.5004 38.9432 76.3811 40.0625 75.0004 40.0625L59.1602 40.0625C57.7794 40.0625 56.6602 38.9432 56.6602 37.5625Z" fill="#107969"/>
<path opacity="0.9" fill-rule="evenodd" clip-rule="evenodd" d="M66.9178 12.4666C67.8941 13.4429 67.8941 15.0258 66.9178 16.0021L55.8096 27.1103C54.8333 28.0866 53.2504 28.0866 52.2741 27.1103C51.2978 26.134 51.2978 24.5511 52.2741 23.5747L63.3822 12.4666C64.3586 11.4903 65.9415 11.4903 66.9178 12.4666Z" fill="#107969"/>
<path opacity="0.5" fill-rule="evenodd" clip-rule="evenodd" d="M27.1136 52.2713C28.0899 53.2476 28.0899 54.8305 27.1136 55.8068L16.0054 66.915C15.0291 67.8913 13.4462 67.8913 12.4699 66.915C11.4936 65.9387 11.4936 64.3557 12.4699 63.3794L23.578 52.2713C24.5544 51.295 26.1373 51.295 27.1136 52.2713Z" fill="#107969"/>
<path opacity="0.2" fill-rule="evenodd" clip-rule="evenodd" d="M12.47 11.0725C13.4463 10.0961 15.0292 10.0961 16.0056 11.0725L27.1137 22.1806C28.09 23.1569 28.09 24.7398 27.1137 25.7161C26.1374 26.6924 24.5545 26.6924 23.5782 25.7161L12.47 14.608C11.4937 13.6317 11.4937 12.0488 12.47 11.0725Z" fill="#107969"/>
<path opacity="0.7" fill-rule="evenodd" clip-rule="evenodd" d="M52.2737 50.8771C53.25 49.9008 54.833 49.9008 55.8093 50.8771L66.9174 61.9853C67.8937 62.9616 67.8937 64.5445 66.9174 65.5208C65.9411 66.4971 64.3582 66.4971 63.3819 65.5208L52.2737 54.4127C51.2974 53.4364 51.2974 51.8535 52.2737 50.8771Z" fill="#107969"/>
</svg>
