<svg width="25" height="25" viewBox="0 0 25 25" fill="none" xmlns="http://www.w3.org/2000/svg">
<path d="M12.0502 4.15806C12.2325 3.78246 12.7676 3.78246 12.9498 4.15806L14.8477 8.06878C15.0663 8.51928 15.4953 8.83098 15.9913 8.89969L20.2971 9.49619C20.7107 9.55348 20.876 10.0624 20.5751 10.3518L17.4423 13.3653C17.0814 13.7124 16.9175 14.2167 17.0055 14.7097L17.7687 18.9891C17.842 19.4001 17.4091 19.7146 17.0409 19.5179L13.2068 17.4696C12.7651 17.2336 12.2349 17.2336 11.7932 17.4696L7.95912 19.5179C7.59088 19.7146 7.15798 19.4001 7.23128 18.9891L7.99454 14.7097C8.08247 14.2167 7.9186 13.7124 7.55771 13.3653L4.42486 10.3518C4.12397 10.0624 4.28933 9.55348 4.70287 9.49619L9.00866 8.89969C9.50467 8.83098 9.93368 8.51928 10.1523 8.06878L12.0502 4.15806Z" stroke="#8C94A6"/>
</svg>
