<svg width="24" height="24" viewBox="0 0 24 24" fill="none" xmlns="http://www.w3.org/2000/svg">
<g id="star-icon">
<path id="Star 1" d="M11.5502 4.07212C11.7325 3.69652 12.2676 3.69652 12.4498 4.07212L14.2265 7.73304C14.4451 8.18354 14.8741 8.49523 15.3701 8.56395L19.4009 9.12234C19.8144 9.17963 19.9798 9.68854 19.6789 9.97796L16.7461 12.7989C16.3852 13.1461 16.2214 13.6504 16.3093 14.1434L17.0238 18.1494C17.0971 18.5604 16.6642 18.8749 16.296 18.6782L12.7068 16.7607C12.2651 16.5248 11.7349 16.5248 11.2932 16.7607L7.70403 18.6782C7.33579 18.8749 6.90289 18.5604 6.97619 18.1494L7.6907 14.1434C7.77862 13.6504 7.61475 13.1461 7.25386 12.7989L4.32114 9.97796C4.02025 9.68854 4.1856 9.17963 4.59914 9.12234L8.62989 8.56395C9.1259 8.49523 9.55491 8.18354 9.77354 7.73304L11.5502 4.07212Z" fill="#FFCC69" stroke="#FFCC69"/>
</g>
</svg>
