<svg width="17" height="17" viewBox="0 0 17 17" fill="none" xmlns="http://www.w3.org/2000/svg">
<path d="M8.05017 1.07212C8.23245 0.696522 8.76755 0.696524 8.94983 1.07212L10.7265 4.73304C10.9451 5.18354 11.3741 5.49523 11.8701 5.56395L15.9009 6.12234C16.3144 6.17963 16.4798 6.68854 16.1789 6.97796L13.2461 9.79893C12.8852 10.1461 12.7214 10.6504 12.8093 11.1434L13.5238 15.1494C13.5971 15.5604 13.1642 15.8749 12.796 15.6782L9.20681 13.7607C8.76514 13.5248 8.23486 13.5248 7.79319 13.7607L4.20403 15.6782C3.83579 15.8749 3.40289 15.5604 3.47619 15.1494L4.1907 11.1434C4.27862 10.6504 4.11475 10.1461 3.75386 9.79893L0.821137 6.97796C0.520247 6.68854 0.685603 6.17963 1.09914 6.12234L5.12989 5.56395C5.6259 5.49523 6.05491 5.18354 6.27354 4.73304L8.05017 1.07212Z" stroke="#8C94A6"/>
</svg>
