<svg width="18" height="17" viewBox="0 0 18 17" fill="none" xmlns="http://www.w3.org/2000/svg">
<path d="M8.55017 1.07212C8.73245 0.696522 9.26755 0.696524 9.44983 1.07212L11.2265 4.73304C11.4451 5.18354 11.8741 5.49523 12.3701 5.56395L16.4009 6.12234C16.8144 6.17963 16.9798 6.68854 16.6789 6.97796L13.7461 9.79893C13.3852 10.1461 13.2214 10.6504 13.3093 11.1434L14.0238 15.1494C14.0971 15.5604 13.6642 15.8749 13.296 15.6782L9.70681 13.7607C9.26514 13.5248 8.73486 13.5248 8.29319 13.7607L4.70403 15.6782C4.33579 15.8749 3.90289 15.5604 3.97619 15.1494L4.6907 11.1434C4.77862 10.6504 4.61475 10.1461 4.25386 9.79893L1.32114 6.97796C1.02025 6.68854 1.1856 6.17963 1.59914 6.12234L5.62989 5.56395C6.1259 5.49523 6.55491 5.18354 6.77354 4.73304L8.55017 1.07212Z" fill="#FFCC69" stroke="#FFCC69"/>
</svg>
