<svg width="24" height="24" viewBox="0 0 24 24" fill="none" xmlns="http://www.w3.org/2000/svg">
<g clip-path="url(#clip0)">
<path d="M12 0C9.62663 0 7.30655 0.703788 5.33316 2.02236C3.35977 3.34094 1.8217 5.21509 0.913451 7.4078C0.00519943 9.60051 -0.232441 12.0133 0.230582 14.3411C0.693605 16.6689 1.83649 18.8071 3.51472 20.4853C5.19295 22.1635 7.33115 23.3064 9.65892 23.7694C11.9867 24.2324 14.3995 23.9948 16.5922 23.0866C18.7849 22.1783 20.6591 20.6402 21.9776 18.6668C23.2962 16.6935 24 14.3734 24 12C23.9966 8.81846 22.7312 5.76821 20.4815 3.51852C18.2318 1.26883 15.1815 0.00344108 12 0V0ZM12 21.55C10.111 21.55 8.26433 20.9898 6.69365 19.9403C5.12297 18.8908 3.8988 17.3991 3.17594 15.6538C2.45307 13.9085 2.26399 11.9881 2.6326 10.1353C3.00121 8.28259 3.91095 6.58076 5.24678 5.24507C6.58261 3.90938 8.28453 2.99981 10.1373 2.6314C11.9901 2.26298 13.9105 2.45227 15.6557 3.17531C17.4009 3.89836 18.8925 5.12269 19.9419 6.69348C20.9912 8.26426 21.5512 10.1109 21.551 12C21.5478 14.532 20.5405 16.9594 18.75 18.7497C16.9595 20.54 14.532 21.5471 12 21.55Z" fill="#C866EA"/>
<path d="M14.939 8.081H9.06203C8.52079 8.081 8.08203 8.51976 8.08203 9.061V14.938C8.08203 15.4792 8.52079 15.918 9.06203 15.918H14.939C15.4803 15.918 15.919 15.4792 15.919 14.938V9.061C15.919 8.51976 15.4803 8.081 14.939 8.081Z" fill="#C866EA"/>
</g>
<defs>
<clipPath id="clip0">
<rect width="24" height="24" fill="white"/>
</clipPath>
</defs>
</svg>
