<svg width="56" height="75" viewBox="0 0 56 75" fill="none" xmlns="http://www.w3.org/2000/svg">
<g clip-path="url(#clip0_18208_79201)">
<path d="M31.8906 10.074C32.3843 11.9254 32.1241 13.8971 31.167 15.5572C30.2099 17.2172 28.6339 18.4303 26.7842 18.9306L26.5502 18.9933C26.5592 20.3454 26.1891 21.6729 25.4818 22.8252C24.7745 23.9775 23.7584 24.9085 22.5488 25.5126C21.3391 26.1167 19.9844 26.3696 18.6383 26.2427C17.2922 26.1158 16.0086 25.6142 14.9331 24.7947C13.8577 23.9752 13.0335 22.8707 12.554 21.6065C12.0745 20.3423 11.959 18.969 12.2205 17.6425C12.482 16.3159 13.11 15.0892 14.0334 14.1016C14.9568 13.1139 16.1385 12.4048 17.4445 12.0548L17.6785 11.9921C17.658 10.229 18.2829 8.51926 19.4355 7.18499C20.5882 5.85073 22.189 4.98404 23.9363 4.74821C25.6837 4.51239 27.457 4.9237 28.9221 5.90467C30.3872 6.88564 31.443 8.36853 31.8906 10.074Z" fill="#8CBD00"/>
<path d="M21.3844 26.7637C19.3659 27.2854 17.2235 26.9989 15.4131 25.965C13.6026 24.9312 12.2671 23.2317 11.6905 21.2282C11.114 19.2247 11.342 17.0753 12.3261 15.2373C13.3102 13.3994 14.9727 12.0179 16.9597 11.387C17.0612 9.93695 17.5561 8.54199 18.3913 7.35221C19.2264 6.16243 20.3701 5.22286 21.6993 4.63456C23.0286 4.04626 24.4931 3.83152 25.9353 4.01341C27.3774 4.19531 28.7428 4.76698 29.8843 5.6669C31.0258 6.56683 31.9004 7.76096 32.414 9.12084C32.9275 10.4807 33.0606 11.9549 32.7988 13.3847C32.5371 14.8146 31.8905 16.146 30.9285 17.2358C29.9665 18.3256 28.7257 19.1325 27.3394 19.5697C27.2696 20.634 26.9859 21.6732 26.5054 22.6254C26.0249 23.5775 25.3573 24.423 24.5426 25.1113C23.6318 25.8989 22.5507 26.4645 21.3844 26.7637ZM17.6904 12.7767L17.6402 12.7901C16.4737 13.1032 15.4182 13.737 14.5934 14.6195C13.7687 15.502 13.2078 16.5979 12.9743 17.783C12.7408 18.9681 12.8441 20.1949 13.2724 21.3243C13.7007 22.4536 14.4369 23.4404 15.3975 24.1726C16.3581 24.9049 17.5047 25.3532 18.7072 25.4669C19.9097 25.5806 21.12 25.3551 22.2009 24.8159C23.2817 24.2767 24.1898 23.4454 24.8222 22.4163C25.4546 21.3872 25.7859 20.2015 25.7787 18.9936C25.7777 18.8126 25.8397 18.6369 25.9542 18.4967C26.0686 18.3566 26.2284 18.2606 26.4059 18.2254L26.5814 18.1784C28.2371 17.7347 29.6488 16.6515 30.5059 15.167C31.363 13.6825 31.5952 11.9183 31.1516 10.2626C30.7079 8.60686 29.6247 7.19517 28.1402 6.3381C26.6557 5.48103 24.8915 5.24877 23.2358 5.69243C22.3087 5.93498 21.4492 6.38586 20.7227 7.01075C20.006 7.62092 19.4325 8.38139 19.0428 9.23817C18.6531 10.095 18.4569 11.027 18.468 11.9682C18.4722 12.1494 18.4108 12.326 18.2952 12.4656C18.1795 12.6052 18.0174 12.6984 17.8386 12.728L17.6904 12.7767Z" fill="#2F3850"/>
<path d="M40.151 32.4188L39.1948 28.8502C38.9609 28.09 39.0121 27.2707 39.3386 26.5455C39.535 26.1863 39.8074 25.8743 40.1368 25.6313C40.4662 25.3884 40.8447 25.2202 41.2458 25.1387C41.6402 25.0077 42.0576 24.9607 42.4712 25.0008C42.8848 25.0408 43.2855 25.167 43.6473 25.3713C44.0092 25.5756 44.3243 25.8534 44.5723 26.1868C44.8203 26.5202 44.9958 26.9018 45.0874 27.3071L49.4967 43.7629C49.8585 45.1355 50.0299 46.5514 50.0061 47.9707C49.8944 50.9863 50.1467 54.0044 50.7576 56.9597C51.0068 58.0889 51.3483 59.1957 51.7787 60.269C51.9518 60.75 51.9792 61.2713 51.8572 61.7677C51.7352 62.2641 51.4694 62.7134 51.0931 63.0593C49.7793 64.3071 47.2094 66.1154 42.4958 67.3784C37.4814 68.722 34.4521 68.1811 32.8786 67.5906C32.4903 67.4549 32.1398 67.2289 31.8561 66.9311C31.5723 66.6334 31.3633 66.2725 31.2463 65.8782C30.9488 64.928 30.5448 64.0146 30.042 63.1553C28.5879 60.804 28.8252 60.6867 25.7507 58.2052C23.3976 56.3097 21.3367 51.3262 19.4491 49.5299L10.6604 43.4738C9.3412 42.5285 8.5841 40.9399 10.0213 38.9156C11.4585 36.8913 13.2679 37.6605 14.2806 38.0968L23.8235 43.3238L17.3831 19.2879C17.172 18.4919 17.2829 17.6448 17.6918 16.93C17.9949 16.4078 18.4437 15.9852 18.9832 15.7141C19.5227 15.4429 20.1295 15.3349 20.7294 15.4032C21.3294 15.4715 21.8964 15.7131 22.3611 16.0986C22.8259 16.4841 23.1682 16.9966 23.3462 17.5736L28.1832 35.6256L23.3753 17.6823C23.3698 17.6451 23.36 17.6086 23.3462 17.5736L22.3766 13.9549C22.1634 13.1591 22.275 12.3113 22.6869 11.5979C23.0988 10.8844 23.7772 10.3638 24.5729 10.1506C25.3687 9.93742 26.2165 10.049 26.9299 10.4609C27.6434 10.8728 28.164 11.5513 28.3772 12.347L34.1838 34.0177L32.6902 28.4433C32.477 27.6476 32.5886 26.7998 33.0005 26.0863C33.4124 25.3729 34.0908 24.8523 34.8866 24.6391C35.6823 24.4259 36.5301 24.5375 37.2436 24.9494C37.957 25.3613 38.4776 26.0398 38.6908 26.8355L40.151 32.4188Z" fill="#86ACD1"/>
<path d="M42.7064 68.1632C37.6 69.5314 34.3992 69.0186 32.6166 68.3497C32.1112 68.1766 31.6556 67.883 31.2892 67.4942C30.9228 67.1054 30.6567 66.6332 30.5138 66.1184C30.2385 65.2351 29.8637 64.3859 29.3967 63.5872C29.1616 63.2113 28.9756 62.8849 28.8031 62.6087C27.952 61.1707 27.7531 60.8298 25.2723 58.8252C23.8764 57.6944 22.6401 55.6878 21.4551 53.7391C20.7557 52.4604 19.9207 51.2606 18.9645 50.1606L10.1848 44.1379C8.62574 43.0329 7.60055 40.9787 9.35767 38.5104C10.5406 36.8408 12.4334 36.4501 14.5447 37.443L22.5538 41.8269L16.5725 19.5043C16.3883 18.809 16.4007 18.0762 16.6083 17.3876C16.816 16.699 17.2108 16.0815 17.7487 15.604C18.2865 15.1265 18.9465 14.8077 19.6548 14.6831C20.3632 14.5585 21.0923 14.633 21.7608 14.8984L21.566 14.1713C21.2987 13.1738 21.4387 12.1111 21.955 11.2168C22.4713 10.3225 23.3217 9.66999 24.3191 9.40273C25.3166 9.13546 26.3793 9.27538 27.2736 9.79169C28.1679 10.308 28.8204 11.1584 29.0877 12.1558L32.5945 25.2435C33.1673 24.5064 33.9869 24.0008 34.9027 23.8196C35.8185 23.6384 36.7689 23.7938 37.5793 24.2572C38.1642 24.5994 38.652 25.0854 38.9966 25.6689C39.4556 25.1189 40.0555 24.7039 40.7321 24.4683C41.4087 24.2327 42.1365 24.1853 42.838 24.3313C43.5394 24.4773 44.1879 24.8111 44.7144 25.297C45.2408 25.783 45.6253 26.4028 45.8268 27.0903L50.2361 43.546C50.614 44.9867 50.795 46.4719 50.7742 47.9612C50.6613 50.9266 50.9122 53.8947 51.521 56.7991C51.7618 57.8886 52.09 58.9569 52.5024 59.9937C52.7443 60.6201 52.7912 61.305 52.6371 61.9585C52.4829 62.612 52.1348 63.2037 51.6385 63.6559C50.24 64.9891 47.5704 66.8599 42.7064 68.1632ZM11.8339 38.4918C11.3401 38.637 10.9163 38.9576 10.6423 39.3933C9.41208 41.1203 10.2026 42.1984 11.0951 42.855L19.8838 48.9111L19.9836 48.9828C21.0583 50.1857 21.9924 51.5071 22.7678 52.9216C23.8857 54.7539 25.049 56.6547 26.2361 57.6085C28.8319 59.7077 29.163 60.1744 30.1263 61.7973C30.2905 62.0758 30.4743 62.3938 30.6988 62.7636C31.2351 63.6652 31.664 64.6265 31.9768 65.6279L31.9992 65.7115C32.0803 65.9906 32.2278 66.2459 32.429 66.4556C32.6303 66.6653 32.8794 66.8231 33.1549 66.9156C34.4496 67.4017 37.3457 68.0141 42.31 66.6839C46.8565 65.4657 49.3128 63.7685 50.5726 62.5531C50.84 62.3188 51.0315 62.0102 51.1229 61.6667C51.2143 61.3232 51.2014 60.9602 51.0859 60.6241C50.634 59.5001 50.2782 58.3399 50.0222 57.1559C49.388 54.1452 49.1289 51.0675 49.251 47.9931C49.2669 46.6445 49.1024 45.2998 48.7619 43.9948L44.3347 27.4722C44.2712 27.1636 44.142 26.8722 43.9559 26.6179C43.7699 26.3636 43.5313 26.1522 43.2564 25.9982C42.9815 25.8442 42.6767 25.7511 42.3627 25.7252C42.0486 25.6993 41.7327 25.7413 41.4363 25.8482C41.1388 25.908 40.8581 26.0323 40.6138 26.2123C40.3696 26.3922 40.1677 26.6236 40.0224 26.8899C39.7795 27.4465 39.7497 28.073 39.9387 28.6501L40.886 32.1853C40.9121 32.283 40.9188 32.3848 40.9056 32.4851C40.8924 32.5854 40.8596 32.682 40.8091 32.7696C40.7585 32.8572 40.6912 32.9339 40.6109 32.9955C40.5307 33.0571 40.4391 33.1022 40.3415 33.1284C40.2438 33.1546 40.1419 33.1612 40.0416 33.148C39.9414 33.1348 39.8447 33.102 39.7571 33.0515C39.6696 33.0009 39.5928 32.9336 39.5312 32.8534C39.4697 32.7731 39.4245 32.6816 39.3983 32.5839L37.9137 27.0429C37.7533 26.4445 37.3618 25.9342 36.8252 25.6244C36.2886 25.3147 35.651 25.2307 35.0525 25.3911C34.4541 25.5514 33.9438 25.943 33.634 26.4795C33.3242 27.0161 33.2403 27.6537 33.4007 28.2522L34.8943 33.8266C34.9472 34.0238 34.9195 34.234 34.8174 34.4109C34.7153 34.5878 34.5471 34.7168 34.3498 34.7697C34.1526 34.8225 33.9424 34.7949 33.7655 34.6927C33.5886 34.5906 33.4596 34.4224 33.4067 34.2252L27.6 12.5544C27.4397 11.956 27.0482 11.4457 26.5116 11.136C25.975 10.8262 25.3374 10.7422 24.7389 10.9026C24.1405 11.0629 23.6302 11.4545 23.3204 11.991C23.0106 12.5276 22.9267 13.1652 23.0871 13.7637L24.0477 17.349C24.0644 17.3952 24.0772 17.4427 24.0858 17.4911L28.8937 35.4344C28.9237 35.6244 28.8822 35.8188 28.7774 35.98C28.6726 36.1413 28.5118 36.2581 28.326 36.3078C28.1403 36.3576 27.9426 36.3369 27.7712 36.2496C27.5998 36.1624 27.4668 36.0148 27.3977 35.8353L22.5607 17.7833C22.3606 17.2209 21.9528 16.7564 21.421 16.4852C20.8891 16.214 20.2737 16.1567 19.7009 16.3251C19.1282 16.4934 18.6416 16.8747 18.3411 17.3905C18.0407 17.9064 17.9491 18.5177 18.0852 19.099L24.5323 43.1599C24.5698 43.3049 24.5641 43.4576 24.5161 43.5994C24.4681 43.7413 24.3798 43.866 24.2619 43.9584C24.1441 44.0508 24.0019 44.1069 23.8528 44.1197C23.7036 44.1325 23.5539 44.1016 23.422 44.0307L13.8708 38.8059C13.2509 38.462 12.5286 38.3506 11.8339 38.4918Z" fill="#2F3850"/>
</g>
<defs>
<clipPath id="clip0_18208_79201">
<rect width="39.8088" height="66.8989" fill="white" transform="translate(0.116455 10.3047) rotate(-15)"/>
</clipPath>
</defs>
</svg>
