<svg width="18" height="18" viewBox="0 0 18 18" fill="none" xmlns="http://www.w3.org/2000/svg">
  <g clip-path="url(#clip0)">
    <path d="M17.1877 8.25H11.625C11.5255 8.25 11.4302 8.28951 11.3598 8.35983C11.2895 8.43016 11.25 8.52554 11.25 8.625V8.93775C11.25 9.551 11.0064 10.1391 10.5728 10.5728C10.1391 11.0064 9.551 11.25 8.93775 11.25H8.625C8.52554 11.25 8.43016 11.2895 8.35983 11.3598C8.28951 11.4302 8.25 11.5255 8.25 11.625V17.1877C8.25 17.4032 8.33558 17.6098 8.4879 17.7621C8.64023 17.9144 8.84683 18 9.06225 18H17.1877C17.2945 18 17.4003 17.9789 17.4989 17.938C17.5976 17.8971 17.6872 17.8372 17.7626 17.7616C17.8381 17.686 17.8979 17.5963 17.9386 17.4975C17.9793 17.3988 18.0002 17.293 18 17.1863V9.06075C17.9996 8.84559 17.9138 8.63937 17.7616 8.48737C17.6093 8.33537 17.4029 8.25 17.1877 8.25ZM15.573 16.65C15.5097 16.674 15.4426 16.6861 15.375 16.686C15.2608 16.6858 15.1494 16.6508 15.0556 16.5857C14.9618 16.5206 14.8901 16.4284 14.85 16.3215L14.4697 15.3075C14.4562 15.2719 14.4322 15.2412 14.4009 15.2195C14.3695 15.1978 14.3324 15.1861 14.2942 15.186H11.9572C11.9191 15.1861 11.882 15.1978 11.8506 15.2195C11.8193 15.2412 11.7953 15.2719 11.7817 15.3075L11.4 16.3215C11.3405 16.4508 11.2342 16.5527 11.1026 16.6067C10.9709 16.6608 10.8237 16.6629 10.6905 16.6127C10.5574 16.5624 10.4482 16.4636 10.385 16.3361C10.3218 16.2086 10.3093 16.0619 10.35 15.9255L12.249 10.8622C12.3161 10.6838 12.4361 10.53 12.5929 10.4214C12.7497 10.3129 12.9358 10.2548 13.1265 10.2548C13.3172 10.2548 13.5033 10.3129 13.6601 10.4214C13.8169 10.53 13.9369 10.6838 14.004 10.8622L15.3225 14.3775C15.3335 14.4019 15.343 14.427 15.351 14.4525L15.903 15.9247C15.9291 15.994 15.9412 16.0678 15.9387 16.1418C15.9363 16.2157 15.9192 16.2885 15.8886 16.3559C15.8579 16.4233 15.8142 16.4839 15.7601 16.5344C15.7059 16.5849 15.6424 16.6241 15.573 16.65Z" fill="#BFC7D5"/>
    <path d="M12.3443 13.8075C12.3336 13.8359 12.33 13.8664 12.3337 13.8965C12.3374 13.9266 12.3484 13.9553 12.3656 13.9802C12.3829 14.0052 12.4059 14.0255 12.4328 14.0396C12.4596 14.0537 12.4895 14.061 12.5198 14.061H13.7303C13.7606 14.061 13.7904 14.0537 13.8173 14.0396C13.8441 14.0255 13.8672 14.0052 13.8844 13.9802C13.9017 13.9553 13.9126 13.9266 13.9164 13.8965C13.9201 13.8664 13.9164 13.8359 13.9058 13.8075L13.3005 12.1943C13.2871 12.1586 13.2631 12.1278 13.2318 12.1061C13.2004 12.0844 13.1632 12.0728 13.125 12.0728C13.0869 12.0728 13.0497 12.0844 13.0183 12.1061C12.9869 12.1278 12.963 12.1586 12.9495 12.1943L12.3443 13.8075Z" fill="#BFC7D5"/>
    <path d="M5.83428 4.20528C5.84794 4.17662 5.85413 4.14497 5.85227 4.11327C5.85042 4.08158 5.84057 4.05086 5.82366 4.02399C5.80674 3.99712 5.7833 3.97497 5.75553 3.95959C5.72775 3.94421 5.69653 3.93611 5.66478 3.93604H4.08528C4.05353 3.93611 4.02231 3.94421 3.99453 3.95959C3.96675 3.97497 3.94332 3.99712 3.9264 4.02399C3.90948 4.05086 3.89964 4.08158 3.89778 4.11327C3.89593 4.14497 3.90212 4.17662 3.91578 4.20528C4.13441 4.65453 4.40855 5.07456 4.73178 5.45554C4.74931 5.47649 4.77122 5.49335 4.79597 5.50491C4.82072 5.51648 4.84771 5.52247 4.87503 5.52247C4.90235 5.52247 4.92934 5.51648 4.95409 5.50491C4.97884 5.49335 5.00075 5.47649 5.01828 5.45554C5.34151 5.07456 5.61565 4.65453 5.83428 4.20528Z" fill="#BFC7D5"/>
    <path d="M8.93775 9.75C9.04454 9.75 9.15029 9.72894 9.24893 9.68803C9.34758 9.64711 9.43719 9.58715 9.51263 9.51157C9.58807 9.43598 9.64787 9.34626 9.6886 9.24755C9.72933 9.14882 9.7502 9.04304 9.75 8.93625V0.81075C9.7496 0.595588 9.66385 0.389374 9.51157 0.237372C9.35929 0.0853698 9.15291 -3.66892e-07 8.93775 0L0.812251 0C0.597089 -3.66892e-07 0.390717 0.0853698 0.238434 0.237372C0.0861502 0.389374 0.00039873 0.595588 1.38517e-06 0.81075V8.93625C-0.000195831 9.04304 0.0206681 9.14882 0.0613992 9.24755C0.10213 9.34626 0.161929 9.43598 0.237373 9.51157C0.312817 9.58715 0.402425 9.64711 0.50107 9.68803C0.599715 9.72894 0.705459 9.75 0.812251 9.75H8.93775ZM8.043 8.025C8.01059 8.14422 7.93988 8.24949 7.84176 8.32457C7.74364 8.39965 7.62355 8.44038 7.5 8.4405C7.44937 8.4405 7.39895 8.43395 7.35 8.421C6.49508 8.18662 5.69325 7.78991 4.98825 7.2525C4.95585 7.22804 4.91635 7.21481 4.87575 7.21481C4.83515 7.21481 4.79566 7.22804 4.76325 7.2525C4.05745 7.78848 3.25512 8.18366 2.4 8.4165C2.35105 8.42945 2.30063 8.436 2.25 8.436C2.11305 8.43751 1.98026 8.38894 1.87661 8.29941C1.77296 8.20989 1.70558 8.08558 1.68715 7.94986C1.66873 7.81415 1.70052 7.67637 1.77654 7.56245C1.85257 7.44853 1.9676 7.36631 2.1 7.33125C2.73383 7.15902 3.33367 6.88003 3.87375 6.50625C3.89597 6.49141 3.9148 6.47205 3.92902 6.44943C3.94323 6.42682 3.95251 6.40145 3.95625 6.375C3.96031 6.34834 3.95852 6.32111 3.95101 6.29521C3.9435 6.26931 3.93044 6.24535 3.91275 6.225C3.36633 5.58343 2.93795 4.85009 2.6475 4.059C2.63459 4.02344 2.61119 3.99264 2.58038 3.97067C2.54958 3.94871 2.51283 3.93662 2.475 3.936H1.89825C1.74907 3.936 1.60599 3.87674 1.5005 3.77125C1.39501 3.66576 1.33575 3.52268 1.33575 3.3735C1.33575 3.22432 1.39501 3.08124 1.5005 2.97575C1.60599 2.87026 1.74907 2.811 1.89825 2.811H4.125C4.17473 2.811 4.22242 2.79125 4.25758 2.75608C4.29275 2.72092 4.3125 2.67323 4.3125 2.6235V1.8735C4.3125 1.72432 4.37176 1.58124 4.47725 1.47575C4.58274 1.37026 4.72582 1.311 4.875 1.311C5.02419 1.311 5.16726 1.37026 5.27275 1.47575C5.37824 1.58124 5.4375 1.72432 5.4375 1.8735V2.6235C5.4375 2.67323 5.45726 2.72092 5.49242 2.75608C5.52758 2.79125 5.57527 2.811 5.625 2.811H7.875C8.02419 2.811 8.16726 2.87026 8.27275 2.97575C8.37824 3.08124 8.4375 3.22432 8.4375 3.3735C8.4375 3.52268 8.37824 3.66576 8.27275 3.77125C8.16726 3.87674 8.02419 3.936 7.875 3.936H7.27875C7.24028 3.93585 7.20271 3.94759 7.17116 3.9696C7.13961 3.99162 7.11563 4.02284 7.1025 4.059C6.81205 4.85009 6.38367 5.58343 5.83725 6.225C5.82022 6.24495 5.80756 6.26825 5.8001 6.2934C5.79263 6.31855 5.79053 6.34499 5.79392 6.371C5.79732 6.39701 5.80613 6.42202 5.81979 6.44442C5.83346 6.46681 5.85167 6.48609 5.87325 6.501C6.41333 6.87478 7.01317 7.15377 7.647 7.326C7.71886 7.34518 7.78619 7.37843 7.84509 7.42384C7.90399 7.46924 7.95329 7.52589 7.99013 7.5905C8.02697 7.6551 8.05061 7.72638 8.05969 7.8002C8.06876 7.87401 8.06309 7.94889 8.043 8.0205V8.025Z" fill="#BFC7D5"/>
    <path d="M13.2346 4.01387C13.2869 4.06636 13.3536 4.10215 13.4263 4.11673C13.499 4.1313 13.5744 4.124 13.643 4.09575C13.7115 4.0675 13.7701 4.01956 13.8114 3.958C13.8528 3.89644 13.8749 3.82401 13.8751 3.74987V3.51737C13.875 3.48504 13.8834 3.45325 13.8993 3.42509C13.9152 3.39694 13.9381 3.37338 13.9658 3.3567C13.9935 3.34001 14.0251 3.33078 14.0574 3.32989C14.0897 3.329 14.1217 3.33649 14.1503 3.35162C14.6324 3.60605 15.036 3.98703 15.3179 4.45361C15.5998 4.9202 15.7492 5.45476 15.7501 5.99987C15.7501 6.19878 15.8291 6.38955 15.9697 6.5302C16.1104 6.67085 16.3011 6.74987 16.5001 6.74987C16.699 6.74987 16.8897 6.67085 17.0304 6.5302C17.171 6.38955 17.2501 6.19878 17.2501 5.99987C17.2489 5.0271 16.9326 4.0809 16.3485 3.30302C15.7644 2.52515 14.9439 1.9575 14.0101 1.68512C13.9711 1.67376 13.9369 1.65008 13.9126 1.61762C13.8882 1.58517 13.8751 1.54569 13.8751 1.50512V0.749872C13.875 0.675667 13.853 0.603134 13.8118 0.541454C13.7705 0.479773 13.7119 0.431718 13.6433 0.403372C13.5746 0.375622 13.4993 0.368576 13.4267 0.383102C13.3541 0.397629 13.2873 0.433093 13.2346 0.485122L11.7346 1.98512C11.6642 2.05545 11.6248 2.15081 11.6248 2.25025C11.6248 2.34968 11.6642 2.44505 11.7346 2.51537L13.2346 4.01387Z" fill="#BFC7D5"/>
    <path d="M1.5 10.5C1.30212 10.5 1.11226 10.5782 0.97178 10.7175C0.831299 10.8569 0.751583 11.0461 0.75 11.244V11.25C0.751135 12.2228 1.06746 13.169 1.65157 13.9469C2.23569 14.7247 3.05614 15.2924 3.99 15.5648C4.02895 15.5761 4.06316 15.5998 4.0875 15.6323C4.11184 15.6647 4.125 15.7042 4.125 15.7448V16.5C4.12487 16.5743 4.14679 16.6469 4.18798 16.7087C4.22918 16.7705 4.2878 16.8187 4.3564 16.8471C4.42501 16.8755 4.50051 16.883 4.57334 16.8684C4.64617 16.8539 4.71305 16.8181 4.7655 16.7655L6.2655 15.2655C6.3358 15.1952 6.37529 15.0998 6.37529 15.0004C6.37529 14.9009 6.3358 14.8056 6.2655 14.7352L4.7655 13.2352C4.7131 13.1827 4.64629 13.1469 4.57353 13.1324C4.50077 13.1178 4.42532 13.1252 4.35675 13.1535C4.28818 13.1819 4.22955 13.2299 4.1883 13.2916C4.14704 13.3533 4.12502 13.4258 4.125 13.5V13.7325C4.12496 13.7649 4.1166 13.7968 4.10071 13.825C4.08482 13.8532 4.06193 13.8769 4.03425 13.8937C4.00655 13.9105 3.97496 13.9197 3.9426 13.9205C3.91024 13.9213 3.87824 13.9136 3.84975 13.8983C3.36766 13.6438 2.964 13.2628 2.68215 12.7963C2.40029 12.3297 2.25089 11.7951 2.25 11.25C2.25 11.0511 2.17098 10.8603 2.03033 10.7197C1.88968 10.579 1.69891 10.5 1.5 10.5Z" fill="#BFC7D5"/>
  </g>
  <defs>
    <clipPath id="clip0">
      <rect width="18" height="18" fill="white"/>
    </clipPath>
  </defs>
</svg>
