<svg width="20" height="20" viewBox="0 0 20 20" fill="none" xmlns="http://www.w3.org/2000/svg">
<g>
<path d="M16.2502 6.25H3.75016C3.63966 6.25 3.53368 6.2939 3.45554 6.37204C3.37739 6.45018 3.3335 6.55616 3.3335 6.66667V18.3333C3.3335 18.7754 3.50909 19.1993 3.82165 19.5118C4.13421 19.8244 4.55814 20 5.00016 20H15.0002C15.4422 20 15.8661 19.8244 16.1787 19.5118C16.4912 19.1993 16.6668 18.7754 16.6668 18.3333V6.66667C16.6668 6.55616 16.6229 6.45018 16.5448 6.37204C16.4666 6.2939 16.3607 6.25 16.2502 6.25ZM8.54183 17.0833C8.54183 17.2491 8.47598 17.4081 8.35877 17.5253C8.24156 17.6425 8.08259 17.7083 7.91683 17.7083C7.75107 17.7083 7.5921 17.6425 7.47489 17.5253C7.35768 17.4081 7.29183 17.2491 7.29183 17.0833V9.58333C7.29183 9.41757 7.35768 9.2586 7.47489 9.14139C7.5921 9.02418 7.75107 8.95833 7.91683 8.95833C8.08259 8.95833 8.24156 9.02418 8.35877 9.14139C8.47598 9.2586 8.54183 9.41757 8.54183 9.58333V17.0833ZM12.7085 17.0833C12.7085 17.2491 12.6426 17.4081 12.5254 17.5253C12.4082 17.6425 12.2493 17.7083 12.0835 17.7083C11.9177 17.7083 11.7588 17.6425 11.6416 17.5253C11.5243 17.4081 11.4585 17.2491 11.4585 17.0833V9.58333C11.4585 9.41757 11.5243 9.2586 11.6416 9.14139C11.7588 9.02418 11.9177 8.95833 12.0835 8.95833C12.2493 8.95833 12.4082 9.02418 12.5254 9.14139C12.6426 9.2586 12.7085 9.41757 12.7085 9.58333V17.0833Z" fill="white"/>
<path d="M18.3335 3.33333H14.3752C14.3199 3.33333 14.2669 3.31138 14.2278 3.27231C14.1888 3.23324 14.1668 3.18025 14.1668 3.125V2.08333C14.1668 1.5308 13.9473 1.0009 13.5566 0.610194C13.1659 0.219493 12.636 0 12.0835 0L7.91683 0C7.36429 0 6.83439 0.219493 6.44369 0.610194C6.05299 1.0009 5.8335 1.5308 5.8335 2.08333V3.125C5.8335 3.18025 5.81155 3.23324 5.77248 3.27231C5.73341 3.31138 5.68042 3.33333 5.62516 3.33333H1.66683C1.44582 3.33333 1.23385 3.42113 1.07757 3.57741C0.921293 3.73369 0.833496 3.94565 0.833496 4.16667C0.833496 4.38768 0.921293 4.59964 1.07757 4.75592C1.23385 4.9122 1.44582 5 1.66683 5H18.3335C18.5545 5 18.7665 4.9122 18.9228 4.75592C19.079 4.59964 19.1668 4.38768 19.1668 4.16667C19.1668 3.94565 19.079 3.73369 18.9228 3.57741C18.7665 3.42113 18.5545 3.33333 18.3335 3.33333ZM7.50016 3.125V2.08333C7.50016 1.97283 7.54406 1.86685 7.6222 1.78871C7.70034 1.71057 7.80632 1.66667 7.91683 1.66667H12.0835C12.194 1.66667 12.3 1.71057 12.3781 1.78871C12.4563 1.86685 12.5002 1.97283 12.5002 2.08333V3.125C12.5002 3.18025 12.4782 3.23324 12.4391 3.27231C12.4001 3.31138 12.3471 3.33333 12.2918 3.33333H7.7085C7.65324 3.33333 7.60025 3.31138 7.56118 3.27231C7.52211 3.23324 7.50016 3.18025 7.50016 3.125Z" fill="white"/>
</g>
<defs>
<clipPath>
<rect width="20" height="20" fill="white"/>
</clipPath>
</defs>
</svg>
