<svg width="69" height="104" viewBox="0 0 69 104" fill="none" xmlns="http://www.w3.org/2000/svg">
<g clip-path="url(#clip0_18882_79169)">
<path d="M68.1931 59.9432L67.6187 101.438C67.609 102.121 67.3307 102.773 66.8442 103.253C66.3576 103.733 65.7017 104.002 65.0183 104.003H50.5356C50.1787 104.003 49.8256 103.929 49.4983 103.787C49.171 103.645 48.8765 103.437 48.6332 103.175C48.3899 102.914 48.203 102.606 48.0841 102.269C47.9652 101.933 47.9169 101.575 47.9422 101.219L48.9722 86.5295C49.0183 85.8653 48.8055 85.209 48.3783 84.6983C45.5248 81.2959 43.5674 77.2338 42.6846 72.8818L41.1831 65.4916L43.4734 40.8836L54.2352 40.3784C55.465 40.3205 56.6863 40.6092 57.76 41.2116C58.8337 41.8139 59.7167 42.7057 60.3083 43.7854L67.3901 56.6921C67.9333 57.6886 68.2099 58.8084 68.1931 59.9432Z" fill="#86ACD1"/>
<path d="M55.1728 61.0776L56.3623 53.5527L52.528 45.4534L46.1943 45.3984L55.1728 61.0776Z" fill="#507BA6"/>
<path d="M49.0428 77.2552L45.3344 65.4883H43.8276L49.0428 77.2552Z" fill="#507BA6"/>
<path d="M40.933 69.0879C40.7141 69.635 40.675 70.2375 40.8213 70.8082C40.9676 71.379 41.2916 71.8884 41.7466 72.2627L44.0777 74.1754C44.4094 74.4476 44.7997 74.639 45.218 74.7347C45.6362 74.8304 46.071 74.8277 46.488 74.7268C46.905 74.626 47.293 74.4297 47.6213 74.1535C47.9496 73.8772 48.2093 73.5285 48.3799 73.1349L48.4863 72.8885C48.7421 72.2975 48.7844 71.636 48.6058 71.0173C48.4273 70.3986 48.0391 69.8612 47.5078 69.4974L45.0704 67.8311C44.7277 67.5969 44.3369 67.4427 43.9267 67.3797C43.5165 67.3168 43.0974 67.3467 42.7003 67.4673C42.3032 67.588 41.9383 67.7962 41.6324 68.0767C41.3265 68.3572 41.0875 68.7027 40.933 69.0879Z" fill="#507BA6"/>
<path d="M39.5999 64.2245C39.3807 64.7715 39.3414 65.3741 39.4877 65.9449C39.634 66.5158 39.9583 67.0252 40.4135 67.3994L42.7499 69.3121C43.0816 69.5842 43.4719 69.7757 43.8901 69.8713C44.3084 69.967 44.7432 69.9643 45.1602 69.8635C45.5772 69.7626 45.9652 69.5663 46.2934 69.2901C46.6217 69.0138 46.8814 68.6652 47.0521 68.2715L47.1602 68.0251C47.4161 67.4342 47.4583 66.7726 47.2798 66.1539C47.1013 65.5352 46.7131 64.9978 46.1817 64.634L43.7443 62.9677C43.4015 62.7322 43.0101 62.5769 42.5991 62.5132C42.188 62.4495 41.768 62.4791 41.3699 62.5998C40.9719 62.7205 40.6062 62.9292 40.2997 63.2104C39.9933 63.4917 39.7541 63.8383 39.5999 64.2245Z" fill="#507BA6"/>
<path d="M39.5097 59.5176C39.2904 60.0643 39.2511 60.6667 39.3974 61.2372C39.5437 61.8078 39.868 62.3169 40.3233 62.6907L42.6526 64.6033C42.9842 64.8759 43.3746 65.0678 43.7929 65.1638C44.2113 65.2598 44.6462 65.2573 45.0635 65.1566C45.4808 65.0559 45.8689 64.8597 46.1975 64.5834C46.526 64.3072 46.7859 63.9584 46.9566 63.5646L47.063 63.3164C47.319 62.7257 47.3614 62.0644 47.1829 61.4459C47.0043 60.8274 46.6159 60.2904 46.0845 59.9271L43.6471 58.2608C43.3044 58.0266 42.9136 57.8724 42.5034 57.8094C42.0932 57.7465 41.6741 57.7764 41.277 57.897C40.8799 58.0177 40.515 58.2259 40.2091 58.5064C39.9032 58.7869 39.6642 59.1324 39.5097 59.5176Z" fill="#507BA6"/>
<path d="M20.6889 84.6983C20.2601 85.208 20.0471 85.865 20.0951 86.5294L21.1233 101.219C21.1483 101.575 21.0998 101.933 20.9809 102.269C20.8619 102.605 20.675 102.914 20.4317 103.175C20.1884 103.436 19.894 103.644 19.5669 103.786C19.2397 103.929 18.8867 104.002 18.5299 104.003H4.04725C3.36365 104.003 2.70753 103.733 2.22085 103.253C1.73417 102.773 1.45608 102.121 1.44676 101.437L0.874197 59.9431C0.858082 58.8078 1.13659 57.6877 1.68253 56.6921L8.7572 43.7854C9.34899 42.7058 10.232 41.8141 11.3057 41.2118C12.3794 40.6095 13.6006 40.3207 14.8303 40.3783L25.5921 40.8835L27.8824 65.4915L26.3827 72.8817C25.4989 77.2334 23.5417 81.2953 20.6889 84.6983Z" fill="#86ACD1"/>
<path d="M25.8659 46.6808L23.3398 46.7783L25.5929 40.8789L25.8659 46.6808Z" fill="#86ACD1"/>
<path d="M25.8659 46.6808L23.3398 46.7783L25.5929 40.8789L25.8659 46.6808Z" fill="#86ACD1"/>
<path d="M13.8929 61.0776L12.7017 53.5527L16.5377 45.4534L22.8714 45.3984L13.8929 61.0776Z" fill="#507BA6"/>
<path d="M20.0205 77.2552L23.7289 65.4883H25.2374L20.0205 77.2552Z" fill="#507BA6"/>
<path d="M28.1327 69.0832C28.3528 69.6293 28.3935 70.2313 28.2488 70.802C28.1041 71.3728 27.7816 71.8827 27.3279 72.258L24.9986 74.1707C24.6669 74.4428 24.2766 74.6343 23.8583 74.73C23.4401 74.8257 23.0053 74.823 22.5883 74.7221C22.1713 74.6212 21.7833 74.425 21.455 74.1487C21.1268 73.8725 20.8671 73.5238 20.6964 73.1301L20.5883 72.8837C20.3326 72.2926 20.2906 71.6309 20.4695 71.0122C20.6483 70.3934 21.0369 69.8562 21.5685 69.4927L24.0042 67.8264C24.3466 67.5939 24.7367 67.441 25.1459 67.379C25.5551 67.3169 25.9729 67.3473 26.3689 67.4678C26.7648 67.5884 27.1287 67.796 27.4339 68.0755C27.7391 68.355 27.9779 68.6993 28.1327 69.0832Z" fill="#507BA6"/>
<path d="M29.4659 64.2305C29.6851 64.7775 29.7243 65.3801 29.578 65.9509C29.4318 66.5218 29.1075 67.0312 28.6523 67.4053L26.323 69.3181C25.9913 69.5902 25.601 69.7816 25.1827 69.8773C24.7645 69.973 24.3297 69.9703 23.9127 69.8695C23.4957 69.7686 23.1077 69.5723 22.7794 69.2961C22.4511 69.0198 22.1914 68.6712 22.0208 68.2775L21.9144 68.0311C21.6582 67.4399 21.6161 66.7778 21.7954 66.1589C21.9746 65.54 22.364 65.0029 22.8965 64.64L25.3339 62.9737C25.6763 62.7402 26.0667 62.5865 26.4764 62.524C26.886 62.4614 27.3045 62.4915 27.701 62.6121C28.0975 62.7327 28.4619 62.9407 28.7673 63.2208C29.0728 63.5009 29.3115 63.8459 29.4659 64.2305Z" fill="#507BA6"/>
<path d="M29.5564 59.5176C29.7757 60.0643 29.815 60.6666 29.6687 61.2372C29.5224 61.8078 29.1981 62.3169 28.7428 62.6906L26.4135 64.6033C26.0821 64.8759 25.6918 65.0677 25.2736 65.1638C24.8553 65.2598 24.4205 65.2573 24.0034 65.1566C23.5863 65.0559 23.1982 64.8597 22.8699 64.5834C22.5415 64.3071 22.2818 63.9583 22.1113 63.5646L22.0049 63.3164C21.7485 62.7258 21.7059 62.0643 21.8845 61.4457C22.0631 60.8271 22.4517 60.2901 22.9834 59.9271L25.4208 58.2608C25.7633 58.0266 26.154 57.8724 26.5641 57.8094C26.9742 57.7465 27.3932 57.7764 27.7901 57.8971C28.1871 58.0177 28.5519 58.2259 28.8576 58.5064C29.1633 58.7869 29.4021 59.1325 29.5564 59.5176Z" fill="#507BA6"/>
<path d="M47.0592 0H22.1286C20.1138 0 18.4805 1.63332 18.4805 3.64813V59.3042C18.4805 61.319 20.1138 62.9524 22.1286 62.9524H47.0592C49.074 62.9524 50.7074 61.319 50.7074 59.3042V3.64813C50.7074 1.63332 49.074 0 47.0592 0Z" fill="#2F3850"/>
<path d="M49.3159 55.2409V4.73438L19.8739 4.73438L19.8739 55.2409H49.3159Z" fill="white"/>
<path d="M37.5399 2.54644H31.6494C31.5888 2.54125 31.5323 2.5135 31.4912 2.4687C31.4501 2.4239 31.4272 2.36529 31.4272 2.30447C31.4272 2.24365 31.4501 2.18504 31.4912 2.14024C31.5323 2.09543 31.5888 2.06769 31.6494 2.0625H37.5399C37.6005 2.06769 37.657 2.09543 37.6981 2.14024C37.7392 2.18504 37.762 2.24365 37.762 2.30447C37.762 2.36529 37.7392 2.4239 37.6981 2.4687C37.657 2.5135 37.6005 2.54125 37.5399 2.54644Z" fill="#808080"/>
<path d="M35.2429 61.6577C36.6164 61.6577 37.7299 60.5442 37.7299 59.1706C37.7299 57.7971 36.6164 56.6836 35.2429 56.6836C33.8693 56.6836 32.7559 57.7971 32.7559 59.1706C32.7559 60.5442 33.8693 61.6577 35.2429 61.6577Z" fill="#808080"/>
<path d="M13.8643 61.1336L21.7189 47.4256C22.2691 46.6412 23.0966 46.095 24.0342 45.8975C24.9718 45.7001 25.9494 45.8661 26.7692 46.362C27.5685 46.8461 28.1602 47.6091 28.43 48.5039C28.6997 49.3986 28.6284 50.3615 28.2299 51.2067L18.9536 80.647L13.8926 76.5149L13.8643 61.1336Z" fill="#86ACD1"/>
<path d="M26.8983 51.7376C25.5281 51.8847 22.8584 50.6953 21.9668 49.5483C22.16 48.7382 23.8104 44.8685 26.4392 46.0332C29.396 47.3414 26.8983 51.7376 26.8983 51.7376Z" fill="#B7D5F3"/>
<path d="M55.2016 61.1331L47.3488 47.4252C46.798 46.6409 45.9701 46.095 45.0324 45.8976C44.0946 45.7001 43.1169 45.866 42.2967 46.3616C41.498 46.8462 40.9068 47.6093 40.6371 48.5037C40.3674 49.3982 40.4383 50.3609 40.836 51.2063L50.1141 80.643L55.1733 76.5109L55.2016 61.1331Z" fill="#86ACD1"/>
<path d="M42.1669 51.7376C43.5372 51.8847 46.2086 50.6953 47.0985 49.5483C46.907 48.7382 45.2567 44.8685 42.6261 46.0332C39.671 47.3414 42.1669 51.7376 42.1669 51.7376Z" fill="#B7D5F3"/>
</g>
<defs>
<clipPath id="clip0_18882_79169">
<rect width="67.3184" height="104" fill="white" transform="translate(0.874512)"/>
</clipPath>
</defs>
</svg>
