<svg width="87" height="104" viewBox="0 0 87 104" fill="none" xmlns="http://www.w3.org/2000/svg">
<g clip-path="url(#clip0_18882_79193)">
<g style="mix-blend-mode:multiply" opacity="0.2">
<g style="mix-blend-mode:multiply" opacity="0.2">
<path d="M46.4812 30.0092L44.665 31.0609C44.0211 31.4316 43.2564 31.5318 42.5387 31.3396C41.821 31.1474 41.2088 30.6785 40.8362 30.0356C40.4657 29.3915 40.3657 28.6267 40.5582 27.9089C40.7507 27.1912 41.22 26.5791 41.8632 26.2068L43.6794 25.1551C44.3235 24.7845 45.0883 24.6846 45.806 24.8771C46.5238 25.0696 47.1359 25.5389 47.5082 26.182C47.8782 26.826 47.9778 27.5904 47.7854 28.3078C47.5929 29.0251 47.1239 29.6369 46.4812 30.0092Z" fill="#212529"/>
</g>
<g style="mix-blend-mode:multiply" opacity="0.2">
<path d="M46.4812 38.1342L44.665 39.1859C44.0211 39.5566 43.2564 39.6568 42.5387 39.4646C41.821 39.2724 41.2088 38.8035 40.8362 38.1606C40.4657 37.5165 40.3657 36.7516 40.5582 36.0339C40.7507 35.3162 41.22 34.704 41.8632 34.3318L43.6794 33.2801C44.3235 32.9095 45.0883 32.8096 45.806 33.0021C46.5238 33.1946 47.1359 33.6639 47.5082 34.307C47.8782 34.951 47.9778 35.7154 47.7854 36.4328C47.5929 37.1501 47.1239 37.7619 46.4812 38.1342Z" fill="#212529"/>
</g>
</g>
<path d="M11.7139 18.0219C11.7139 18.0219 13.9808 13.9356 11.8691 13.4122C11.3325 13.2784 10.0628 15.4331 9.18115 17.2013L11.7139 18.0219Z" fill="#F5E0CD"/>
<path d="M39.9588 50.7812L24.7476 63.2649L12.2788 60.5472L22.02 61.9308C23.6758 62.1652 25.357 61.7343 26.6958 60.7321L39.9588 50.7812Z" fill="#E5C1A2"/>
<path d="M48.8146 17.4299C48.8149 17.8405 48.7216 18.2459 48.542 18.6152C48.3623 18.9845 48.101 19.3081 47.7777 19.5614L30.3228 33.214L37.5313 44.8374L43.7739 41.3157L46.5031 45.7356L24.7538 63.5835L24.8149 89.6867C24.8166 90.0781 24.741 90.4659 24.5924 90.828C24.4439 91.1901 24.2252 91.5193 23.9491 91.7967C23.673 92.074 23.3448 92.2941 22.9833 92.4443C22.6219 92.5945 22.2344 92.6718 21.843 92.6718H3.2108C2.80447 92.6726 2.40229 92.59 2.02912 92.4292C1.65594 92.2684 1.3197 92.0329 1.04117 91.737C0.762647 91.4411 0.547754 91.0913 0.409764 90.7091C0.271775 90.3269 0.213621 89.9205 0.238905 89.515L1.73972 64.518C1.94761 61.0638 1.86698 57.5983 1.49866 54.1576L0.263674 42.6002C0.0963089 41.0489 0.226314 39.4799 0.646721 37.9772L4.40122 24.5129C4.58512 23.8583 4.87999 23.2401 5.27298 22.6852L11.8541 13.4062C12.4671 13.6317 13.0284 13.9784 13.5044 14.4257C13.9803 14.873 14.3613 15.4117 14.6244 16.0095C14.8874 16.6073 15.0273 17.2521 15.0356 17.9052C15.0438 18.5583 14.9203 19.2064 14.6724 19.8107L11.8145 26.7732V26.9119L11.6642 36.1L44.6556 15.1415C45.065 14.8803 45.5371 14.7342 46.0225 14.7184C46.5078 14.7027 46.9885 14.8179 47.4139 15.052C47.8394 15.2861 48.1939 15.6304 48.4404 16.0488C48.6869 16.4672 48.8161 16.9443 48.8146 17.4299Z" fill="#86ACD1"/>
<path d="M11.7139 18.0219C11.7139 18.0219 13.9808 13.9356 11.8691 13.4122C11.3325 13.2784 10.0628 15.4331 9.18115 17.2013L11.7139 18.0219Z" fill="#B7D5F3"/>
<path d="M41.6393 0H18.4189C16.5423 0 15.021 1.52128 15.021 3.39787V55.2361C15.021 57.1127 16.5423 58.6339 18.4189 58.6339H41.6393C43.5159 58.6339 45.0372 57.1127 45.0372 55.2361V3.39787C45.0372 1.52128 43.5159 0 41.6393 0Z" fill="#2F3850"/>
<path d="M43.7632 51.5106V4.46875L16.3408 4.46875L16.3408 51.5106H43.7632Z" fill="white"/>
<path d="M32.8069 2.48198H27.3138C27.2574 2.47715 27.2048 2.45132 27.1665 2.40959C27.1282 2.36786 27.1069 2.31327 27.1069 2.25662C27.1069 2.19997 27.1282 2.14538 27.1665 2.10364C27.2048 2.06191 27.2574 2.03609 27.3138 2.03125H32.8069C32.8633 2.03609 32.9159 2.06191 32.9542 2.10364C32.9925 2.14538 33.0138 2.19997 33.0138 2.25662C33.0138 2.31327 32.9925 2.36786 32.9542 2.40959C32.9159 2.45132 32.8633 2.47715 32.8069 2.48198Z" fill="#808080"/>
<path d="M30.6421 57.4454C31.9214 57.4454 32.9585 56.4083 32.9585 55.1289C32.9585 53.8496 31.9214 52.8125 30.6421 52.8125C29.3628 52.8125 28.3257 53.8496 28.3257 55.1289C28.3257 56.4083 29.3628 57.4454 30.6421 57.4454Z" fill="#808080"/>
<path d="M48.6257 26.589C48.9958 27.233 49.0954 27.9974 48.903 28.7147C48.7105 29.4321 48.2415 30.0439 47.5988 30.4161L45.7826 31.4679C45.1387 31.8385 44.374 31.9388 43.6563 31.7466C42.9386 31.5544 42.3264 31.0854 41.9538 30.4426C41.5832 29.7986 41.4829 29.034 41.6751 28.3162C41.8673 27.5985 42.3363 26.9863 42.9791 26.6138L44.7953 25.562C45.4396 25.191 46.2048 25.0907 46.9229 25.2833C47.6411 25.4758 48.2535 25.9454 48.6257 26.589Z" fill="#86ACD1"/>
<path d="M43.5745 26.8125C44.3405 27.4151 45.4484 29.337 45.6218 30.3573C45.3081 30.6727 43.4193 31.8168 42.3279 29.928C41.0995 27.8064 43.5745 26.8125 43.5745 26.8125Z" fill="#B7D5F3"/>
<path d="M48.6257 34.3078C48.9958 34.9517 49.0954 35.7161 48.903 36.4335C48.7105 37.1508 48.2415 37.7626 47.5988 38.1349L45.7826 39.1866C45.1387 39.5573 44.374 39.6575 43.6563 39.4653C42.9386 39.2731 42.3264 38.8042 41.9538 38.1613C41.5832 37.5174 41.4829 36.7527 41.6751 36.035C41.8673 35.3173 42.3363 34.705 42.9791 34.3325L44.7953 33.2808C45.4396 32.9097 46.2048 32.8095 46.9229 33.002C47.6411 33.1945 48.2535 33.6641 48.6257 34.3078Z" fill="#86ACD1"/>
<path d="M43.7818 34.9375C44.5496 35.5401 45.6558 37.462 45.8291 38.4823C45.5154 38.796 43.6266 39.9402 42.527 38.053C41.3069 35.9298 43.7818 34.9375 43.7818 34.9375Z" fill="#B7D5F3"/>
<path d="M48.6257 41.619C48.9963 42.2632 49.0963 43.028 48.9037 43.7457C48.7112 44.4635 48.242 45.0756 47.5988 45.4478L45.7826 46.4979C45.1387 46.8686 44.374 46.9688 43.6563 46.7766C42.9386 46.5844 42.3264 46.1154 41.9538 45.4726C41.5832 44.8286 41.4829 44.064 41.6751 43.3463C41.8673 42.6285 42.3363 42.0163 42.9791 41.6438L44.7953 40.5937C45.4394 40.2225 46.2044 40.122 46.9226 40.3142C47.6407 40.5064 48.2532 40.9757 48.6257 41.619Z" fill="#86ACD1"/>
<path d="M43.7818 41.8438C44.5496 42.4464 45.6558 44.3682 45.8291 45.3886C45.5154 45.7023 43.6266 46.8464 42.527 44.9593C41.3069 42.836 43.7818 41.8438 43.7818 41.8438Z" fill="#B7D5F3"/>
<path d="M84.8295 94.487L71.8291 103.541C71.1954 103.986 70.4134 104.165 69.6493 104.042C68.8853 103.919 68.1995 103.502 67.7378 102.881L55.766 86.7848C55.0634 85.8384 54.031 85.1902 52.8733 84.9687L44.0567 83.278C40.9562 82.7259 38.0536 81.3736 35.6363 79.3551L22.8836 68.3739C22.7288 68.2422 22.6018 68.0811 22.5096 67.9C22.4175 67.7188 22.3622 67.5212 22.3468 67.3186C22.3315 67.116 22.3564 66.9123 22.4202 66.7194C22.484 66.5265 22.5854 66.3481 22.7184 66.1945C23.4855 65.3137 24.5419 64.7358 25.6973 64.5648C26.8527 64.3937 28.0312 64.6409 29.0205 65.2617C31.5235 66.8351 34.5829 68.7652 35.496 69.3778C35.7148 69.5163 35.9499 69.6272 36.196 69.708C37.5284 70.1851 39.8069 70.4675 40.7645 70.5434C40.1503 69.6518 26.4317 49.7616 21.8401 43.1012C21.3893 42.5085 21.1924 41.761 21.2927 41.0232C21.393 40.2853 21.7823 39.6176 22.375 39.1668C22.9677 38.7159 23.7152 38.519 24.4531 38.6194C25.1909 38.7197 25.8587 39.109 26.3095 39.7017L41.0039 57.3036L40.7414 56.7521L31.5169 43.3786C31.0663 42.7859 30.8697 42.0385 30.9701 41.3008C31.0706 40.5631 31.46 39.8955 32.0527 39.4449C32.6454 38.9944 33.3928 38.7977 34.1305 38.8982C34.8682 38.9986 35.5357 39.388 35.9863 39.9807L47.1343 53.3328L45.7738 50.5541C45.4412 49.8859 45.3547 49.1219 45.5295 48.3962C45.7042 47.6706 46.129 47.0297 46.7293 46.5861C47.3295 46.1425 48.0669 45.9246 48.8118 45.9705C49.5568 46.0165 50.2618 46.3235 50.8029 46.8376L53.7566 50.2255L52.8849 48.6603C52.5522 48.0651 52.458 47.3657 52.6211 46.7036C52.7843 46.0415 53.1926 45.4661 53.7638 45.0935C54.3349 44.7209 55.0261 44.579 55.6979 44.6965C56.3696 44.814 56.9716 45.1821 57.3824 45.7264L66.2106 57.5446C67.1463 58.7992 67.8616 60.204 68.3256 61.6987L71.21 70.9875C71.4854 71.8759 71.9182 72.7075 72.4879 73.4427L85.4817 90.2207C85.7296 90.5395 85.91 90.9056 86.0117 91.2965C86.1135 91.6874 86.1345 92.0949 86.0734 92.4942C86.0124 92.8934 85.8706 93.2761 85.6568 93.6187C85.4429 93.9614 85.1614 94.2568 84.8295 94.487Z" fill="#86ACD1"/>
<path d="M40.816 70.2943L42.2673 72.3779L36.2476 69.4688C37.5783 69.9393 39.8568 70.2216 40.816 70.2943Z" fill="#507BA6"/>
<path d="M26.5658 41.4683C26.1993 42.3649 24.5713 43.5966 23.5625 43.7435C23.1234 43.3423 21.2725 40.9697 22.8708 39.7562C24.6688 38.3891 26.5658 41.4683 26.5658 41.4683Z" fill="#B7D5F3"/>
<path d="M36.4672 41.874C36.1023 42.7705 34.4728 44.0022 33.4656 44.1508C33.0264 43.748 31.1739 41.377 32.7738 40.1619C34.5718 38.7964 36.4672 41.874 36.4672 41.874Z" fill="#B7D5F3"/>
<path d="M22.2112 66.9509C21.7539 67.7385 23.296 68.9437 25.3482 70.5552C25.8435 70.0929 26.9993 68.0901 27.0108 67.3917C27.0125 67.3917 23.2877 65.077 22.2112 66.9509Z" fill="#B7D5F3"/>
</g>
<defs>
<clipPath id="clip0_18882_79193">
<rect width="85.9325" height="104" fill="white" transform="translate(0.192871)"/>
</clipPath>
</defs>
</svg>
