<svg width="18" height="18" viewBox="0 0 18 18" fill="none" xmlns="http://www.w3.org/2000/svg">
<g clip-path="url(#clip0)">
<path d="M9.95473 8.89958C9.91873 8.88736 9.8873 8.86449 9.8646 8.834C9.84189 8.8035 9.829 8.76683 9.82761 8.72885C9.82623 8.69086 9.83643 8.65335 9.85685 8.62129C9.87728 8.58923 9.90696 8.56413 9.94197 8.54933C10.4528 8.33214 10.8729 7.94513 11.1311 7.45379C11.3893 6.96245 11.4698 6.39698 11.359 5.85309C11.2482 5.30921 10.9528 4.82032 10.5229 4.46919C10.093 4.11807 9.55504 3.92627 8.99998 3.92627C8.44491 3.92627 7.9069 4.11807 7.47701 4.46919C7.04713 4.82032 6.75177 5.30921 6.64095 5.85309C6.53013 6.39698 6.61064 6.96245 6.86887 7.45379C7.12709 7.94513 7.54717 8.33214 8.05798 8.54933C8.09299 8.56413 8.12267 8.58923 8.1431 8.62129C8.16352 8.65335 8.17372 8.69086 8.17234 8.72885C8.17095 8.76683 8.15806 8.8035 8.13535 8.834C8.11265 8.86449 8.08122 8.88736 8.04523 8.89958C7.46008 9.09949 6.95202 9.47724 6.59205 9.98001C6.23208 10.4828 6.03819 11.0855 6.03748 11.7038V13.9261C6.03748 14.0242 6.07641 14.1183 6.14573 14.1878C6.21505 14.2573 6.30909 14.2964 6.40723 14.2966H7.06873C7.11529 14.2964 7.16018 14.3139 7.1944 14.3455C7.22861 14.3771 7.24963 14.4204 7.25322 14.4668L7.52023 17.6611C7.52795 17.7536 7.57018 17.8398 7.63854 17.9026C7.70691 17.9654 7.79639 18.0002 7.88923 18.0001H10.1107C10.2036 18.0002 10.293 17.9654 10.3614 17.9026C10.4298 17.8398 10.472 17.7536 10.4797 17.6611L10.7467 14.4668C10.7503 14.4204 10.7713 14.3771 10.8056 14.3455C10.8398 14.3139 10.8847 14.2964 10.9312 14.2966H11.5927C11.6909 14.2964 11.7849 14.2573 11.8542 14.1878C11.9235 14.1183 11.9625 14.0242 11.9625 13.9261V11.7038C11.9618 11.0855 11.7679 10.4828 11.4079 9.98001C11.0479 9.47724 10.5399 9.09949 9.95473 8.89958Z" fill="#BDC7D6"/>
<path d="M3.4725 4.22668C3.43769 4.21408 3.40739 4.19147 3.38542 4.16168C3.36344 4.1319 3.35077 4.09627 3.34901 4.0593C3.34724 4.02233 3.35646 3.98566 3.3755 3.95392C3.39454 3.92217 3.42255 3.89678 3.456 3.88093C3.87589 3.68468 4.2163 3.3511 4.42102 2.93527C4.62575 2.51944 4.68254 2.04623 4.58202 1.59377C4.4815 1.14131 4.22969 0.73666 3.86816 0.44663C3.50662 0.1566 3.05699 -0.00146484 2.5935 -0.00146484C2.13001 -0.00146484 1.68038 0.1566 1.31884 0.44663C0.957311 0.73666 0.705497 1.14131 0.60498 1.59377C0.504462 2.04623 0.561253 2.51944 0.765975 2.93527C0.970697 3.3511 1.31111 3.68468 1.731 3.88093C1.76447 3.89671 1.79253 3.92204 1.81163 3.95374C1.83073 3.98544 1.84002 4.02208 1.83834 4.05905C1.83665 4.09602 1.82407 4.13166 1.80216 4.16149C1.78026 4.19132 1.75002 4.214 1.71525 4.22668C1.21359 4.4078 0.779848 4.73897 0.47297 5.1752C0.166093 5.61144 0.000956184 6.13157 0 6.66492L0 7.77717C0.00116792 7.87507 0.0405776 7.96864 0.109808 8.03787C0.179039 8.1071 0.2726 8.14651 0.3705 8.14767H0.98475C1.03024 8.14758 1.07416 8.1643 1.10807 8.19462C1.14199 8.22493 1.16351 8.26671 1.1685 8.31192L1.4835 11.1522C1.49365 11.2427 1.53681 11.3264 1.60475 11.3871C1.67268 11.4479 1.76062 11.4814 1.85175 11.4814H3.333C3.42413 11.4814 3.51207 11.4479 3.58 11.3871C3.64794 11.3264 3.6911 11.2427 3.70125 11.1522L4.017 8.31192C4.02199 8.26671 4.04351 8.22493 4.07743 8.19462C4.11134 8.1643 4.15526 8.14758 4.20075 8.14767H4.81425C4.91251 8.14767 5.00675 8.10864 5.07623 8.03916C5.14572 7.96968 5.18475 7.87544 5.18475 7.77717V6.66417C5.18419 6.13123 5.01955 5.61138 4.7132 5.17528C4.40685 4.73917 3.97366 4.40797 3.4725 4.22668Z" fill="#BDC7D6"/>
<path d="M16.287 4.22716C16.2522 4.21449 16.222 4.19181 16.2001 4.16198C16.1782 4.13215 16.1656 4.09651 16.1639 4.05954C16.1622 4.02257 16.1715 3.98593 16.1906 3.95423C16.2097 3.92253 16.2378 3.8972 16.2713 3.88141C16.6911 3.68516 17.0316 3.35159 17.2363 2.93576C17.441 2.51993 17.4978 2.04672 17.3973 1.59426C17.2968 1.1418 17.0449 0.737148 16.6834 0.447118C16.3219 0.157088 15.8722 -0.000976562 15.4088 -0.000976562C14.9453 -0.000976562 14.4956 0.157088 14.1341 0.447118C13.7726 0.737148 13.5208 1.1418 13.4202 1.59426C13.3197 2.04672 13.3765 2.51993 13.5812 2.93576C13.786 3.35159 14.1264 3.68516 14.5463 3.88141C14.5798 3.89723 14.6078 3.92263 14.6269 3.95441C14.646 3.98618 14.6553 4.02289 14.6535 4.05991C14.6521 4.09689 14.6396 4.13258 14.6176 4.16239C14.5957 4.1922 14.5654 4.21476 14.5305 4.22716C14.0291 4.40847 13.5958 4.73976 13.2893 5.176C12.9828 5.61224 12.8181 6.13227 12.8175 6.66541V7.77766C12.8187 7.87556 12.8581 7.96912 12.9273 8.03835C12.9965 8.10759 13.0901 8.147 13.188 8.14816H13.8C13.8456 8.14789 13.8897 8.16452 13.9238 8.19485C13.9579 8.22519 13.9795 8.26707 13.9845 8.31241L14.2995 11.1527C14.3097 11.2432 14.3528 11.3269 14.4208 11.3876C14.4887 11.4484 14.5766 11.4819 14.6678 11.4819H16.149C16.2401 11.4819 16.3281 11.4484 16.396 11.3876C16.4639 11.3269 16.5071 11.2432 16.5173 11.1527L16.833 8.31241C16.838 8.2672 16.8595 8.22542 16.8934 8.19511C16.9273 8.16479 16.9713 8.14807 17.0168 8.14816H17.6303C17.7284 8.14796 17.8224 8.10884 17.8918 8.03938C17.9611 7.96992 18 7.8758 18 7.77766V6.66466C17.9994 6.13163 17.8346 5.61171 17.5281 5.1756C17.2217 4.73949 16.7883 4.40833 16.287 4.22716Z" fill="#BDC7D6"/>
<path d="M9.95473 8.89958C9.91873 8.88736 9.8873 8.86449 9.8646 8.834C9.84189 8.8035 9.829 8.76683 9.82761 8.72885C9.82623 8.69086 9.83643 8.65335 9.85685 8.62129C9.87728 8.58923 9.90696 8.56413 9.94197 8.54933C10.4528 8.33214 10.8729 7.94513 11.1311 7.45379C11.3893 6.96245 11.4698 6.39698 11.359 5.85309C11.2482 5.30921 10.9528 4.82032 10.5229 4.46919C10.093 4.11807 9.55504 3.92627 8.99998 3.92627C8.44491 3.92627 7.9069 4.11807 7.47701 4.46919C7.04713 4.82032 6.75177 5.30921 6.64095 5.85309C6.53013 6.39698 6.61064 6.96245 6.86887 7.45379C7.12709 7.94513 7.54717 8.33214 8.05798 8.54933C8.09299 8.56413 8.12267 8.58923 8.1431 8.62129C8.16352 8.65335 8.17372 8.69086 8.17234 8.72885C8.17095 8.76683 8.15806 8.8035 8.13535 8.834C8.11265 8.86449 8.08122 8.88736 8.04523 8.89958C7.46008 9.09949 6.95202 9.47724 6.59205 9.98001C6.23208 10.4828 6.03819 11.0855 6.03748 11.7038V13.9261C6.03748 14.0242 6.07641 14.1183 6.14573 14.1878C6.21505 14.2573 6.30909 14.2964 6.40723 14.2966H7.06873C7.11529 14.2964 7.16018 14.3139 7.1944 14.3455C7.22861 14.3771 7.24963 14.4204 7.25322 14.4668L7.52023 17.6611C7.52795 17.7536 7.57018 17.8398 7.63854 17.9026C7.70691 17.9654 7.79639 18.0002 7.88923 18.0001H10.1107C10.2036 18.0002 10.293 17.9654 10.3614 17.9026C10.4298 17.8398 10.472 17.7536 10.4797 17.6611L10.7467 14.4668C10.7503 14.4204 10.7713 14.3771 10.8056 14.3455C10.8398 14.3139 10.8847 14.2964 10.9312 14.2966H11.5927C11.6909 14.2964 11.7849 14.2573 11.8542 14.1878C11.9235 14.1183 11.9625 14.0242 11.9625 13.9261V11.7038C11.9618 11.0855 11.7679 10.4828 11.4079 9.98001C11.0479 9.47724 10.5399 9.09949 9.95473 8.89958Z" fill="#BDC7D6"/>
<path d="M3.4725 4.22668C3.43769 4.21408 3.40739 4.19147 3.38542 4.16168C3.36344 4.1319 3.35077 4.09627 3.34901 4.0593C3.34724 4.02233 3.35646 3.98566 3.3755 3.95392C3.39454 3.92217 3.42255 3.89678 3.456 3.88093C3.87589 3.68468 4.2163 3.3511 4.42102 2.93527C4.62575 2.51944 4.68254 2.04623 4.58202 1.59377C4.4815 1.14131 4.22969 0.73666 3.86816 0.44663C3.50662 0.1566 3.05699 -0.00146484 2.5935 -0.00146484C2.13001 -0.00146484 1.68038 0.1566 1.31884 0.44663C0.957311 0.73666 0.705497 1.14131 0.60498 1.59377C0.504462 2.04623 0.561253 2.51944 0.765975 2.93527C0.970697 3.3511 1.31111 3.68468 1.731 3.88093C1.76447 3.89671 1.79253 3.92204 1.81163 3.95374C1.83073 3.98544 1.84002 4.02208 1.83834 4.05905C1.83665 4.09602 1.82407 4.13166 1.80216 4.16149C1.78026 4.19132 1.75002 4.214 1.71525 4.22668C1.21359 4.4078 0.779848 4.73897 0.47297 5.1752C0.166093 5.61144 0.000956184 6.13157 0 6.66492L0 7.77717C0.00116792 7.87507 0.0405776 7.96864 0.109808 8.03787C0.179039 8.1071 0.2726 8.14651 0.3705 8.14767H0.98475C1.03024 8.14758 1.07416 8.1643 1.10807 8.19462C1.14199 8.22493 1.16351 8.26671 1.1685 8.31192L1.4835 11.1522C1.49365 11.2427 1.53681 11.3264 1.60475 11.3871C1.67268 11.4479 1.76062 11.4814 1.85175 11.4814H3.333C3.42413 11.4814 3.51207 11.4479 3.58 11.3871C3.64794 11.3264 3.6911 11.2427 3.70125 11.1522L4.017 8.31192C4.02199 8.26671 4.04351 8.22493 4.07743 8.19462C4.11134 8.1643 4.15526 8.14758 4.20075 8.14767H4.81425C4.91251 8.14767 5.00675 8.10864 5.07623 8.03916C5.14572 7.96968 5.18475 7.87544 5.18475 7.77717V6.66417C5.18419 6.13123 5.01955 5.61138 4.7132 5.17528C4.40685 4.73917 3.97366 4.40797 3.4725 4.22668Z" fill="#BDC7D6"/>
<path d="M16.287 4.22716C16.2522 4.21449 16.222 4.19181 16.2001 4.16198C16.1782 4.13215 16.1656 4.09651 16.1639 4.05954C16.1622 4.02257 16.1715 3.98593 16.1906 3.95423C16.2097 3.92253 16.2378 3.8972 16.2713 3.88141C16.6911 3.68516 17.0316 3.35159 17.2363 2.93576C17.441 2.51993 17.4978 2.04672 17.3973 1.59426C17.2968 1.1418 17.0449 0.737148 16.6834 0.447118C16.3219 0.157088 15.8722 -0.000976562 15.4088 -0.000976562C14.9453 -0.000976562 14.4956 0.157088 14.1341 0.447118C13.7726 0.737148 13.5208 1.1418 13.4202 1.59426C13.3197 2.04672 13.3765 2.51993 13.5812 2.93576C13.786 3.35159 14.1264 3.68516 14.5463 3.88141C14.5798 3.89723 14.6078 3.92263 14.6269 3.95441C14.646 3.98618 14.6553 4.02289 14.6535 4.05991C14.6521 4.09689 14.6396 4.13258 14.6176 4.16239C14.5957 4.1922 14.5654 4.21476 14.5305 4.22716C14.0291 4.40847 13.5958 4.73976 13.2893 5.176C12.9828 5.61224 12.8181 6.13227 12.8175 6.66541V7.77766C12.8187 7.87556 12.8581 7.96912 12.9273 8.03835C12.9965 8.10759 13.0901 8.147 13.188 8.14816H13.8C13.8456 8.14789 13.8897 8.16452 13.9238 8.19485C13.9579 8.22519 13.9795 8.26707 13.9845 8.31241L14.2995 11.1527C14.3097 11.2432 14.3528 11.3269 14.4208 11.3876C14.4887 11.4484 14.5766 11.4819 14.6678 11.4819H16.149C16.2401 11.4819 16.3281 11.4484 16.396 11.3876C16.4639 11.3269 16.5071 11.2432 16.5173 11.1527L16.833 8.31241C16.838 8.2672 16.8595 8.22542 16.8934 8.19511C16.9273 8.16479 16.9713 8.14807 17.0168 8.14816H17.6303C17.7284 8.14796 17.8224 8.10884 17.8918 8.03938C17.9611 7.96992 18 7.8758 18 7.77766V6.66466C17.9994 6.13163 17.8346 5.61171 17.5281 5.1756C17.2217 4.73949 16.7883 4.40833 16.287 4.22716Z" fill="#BDC7D6"/>
</g>
<defs>
<clipPath id="clip0">
<rect width="18" height="18" fill="white"/>
</clipPath>
</defs>
</svg>
