<svg width="22" height="22" viewBox="0 0 22 22" fill="none" xmlns="http://www.w3.org/2000/svg">
<g id="Frame">
<g id="user-single-neutral--close-geometric-human-person-single-up-user">
<path id="Union" fill-rule="evenodd" clip-rule="evenodd" d="M10.9992 1.25781C9.59632 1.25781 8.25093 1.81509 7.25897 2.80705C6.26701 3.79901 5.70973 5.1444 5.70973 6.54724C5.70973 7.95009 6.26701 9.29547 7.25897 10.2874C8.25093 11.2794 9.59632 11.8367 10.9992 11.8367C12.402 11.8367 13.7474 11.2794 14.7393 10.2874C15.7313 9.29547 16.2886 7.95009 16.2886 6.54724C16.2886 5.1444 15.7313 3.79901 14.7393 2.80705C13.7474 1.81509 12.402 1.25781 10.9992 1.25781ZM10.9992 12.9634C7.97316 12.9587 5.01405 13.8535 2.49773 15.5342C1.88487 15.9444 1.4763 16.485 1.30187 17.0962C1.12745 17.6997 1.19187 18.3204 1.43387 18.8641C1.91473 19.95 3.07916 20.7467 4.52802 20.7467H17.475C18.9192 20.7467 20.0867 19.95 20.5692 18.8641C20.808 18.3204 20.8756 17.6997 20.7012 17.0947C20.5236 16.4865 20.1182 15.9444 19.5037 15.5342C16.9867 13.8526 14.0263 12.9577 10.9992 12.9634Z" fill="#B0BAC9"/>
</g>
</g>
</svg>
