<svg width="14" height="15" viewBox="0 0 14 15" fill="none" xmlns="http://www.w3.org/2000/svg">
<path d="M13.382 11.0006C12.928 10.0926 11.482 9.55958 9.473 8.82258L9.073 8.67558C9.02514 8.65796 8.98384 8.62607 8.95468 8.58422C8.92553 8.54237 8.90993 8.49258 8.91 8.44158V7.60758C8.90996 7.57488 8.91639 7.54249 8.92892 7.51229C8.94145 7.48208 8.95983 7.45465 8.983 7.43158C9.39498 7.02403 9.66075 6.49177 9.739 5.91758C9.74491 5.87264 9.76288 5.83013 9.791 5.79458C9.91142 5.63356 9.99536 5.44828 10.037 5.25158C10.0937 5.04423 10.1063 4.82731 10.0741 4.61479C10.0419 4.40226 9.96557 4.19883 9.85 4.01758C9.84851 4.015 9.84772 4.01206 9.84772 4.00908C9.84772 4.0061 9.84851 4.00316 9.85 4.00058C10.2215 3.22845 10.3822 2.37185 10.316 1.51758C10.104 0.45658 8.736 0.0475795 7.526 0.0175795C7.07949 -0.0284973 6.62827 0.0162315 6.19949 0.149075C5.77072 0.281918 5.37325 0.500129 5.031 0.79058C4.99602 0.833522 4.94788 0.863746 4.894 0.87658C4.60059 0.939435 4.33986 1.10639 4.16 1.34658C3.97775 1.74165 3.88187 2.17106 3.87876 2.60614C3.87566 3.04121 3.9654 3.47194 4.142 3.86958C4.15129 3.90311 4.15351 3.9382 4.14852 3.97263C4.14353 4.00706 4.13143 4.04007 4.113 4.06958C3.91203 4.4279 3.85824 4.85033 3.963 5.24758C4.00464 5.44428 4.08858 5.62956 4.209 5.79058C4.23739 5.82597 4.25539 5.86856 4.261 5.91358C4.33885 6.48669 4.60352 7.01813 5.014 7.42558C5.03717 7.44865 5.05555 7.47608 5.06808 7.50629C5.08061 7.53649 5.08704 7.56888 5.087 7.60158V8.43458C5.08707 8.48558 5.07147 8.53537 5.04232 8.57722C5.01316 8.61907 4.97186 8.65096 4.924 8.66858L4.524 8.81658C2.518 9.55458 1.069 10.0866 0.617 10.9946C0.235876 11.7827 0.0256162 12.6425 0 13.5176C0 13.6502 0.052678 13.7774 0.146446 13.8711C0.240214 13.9649 0.367392 14.0176 0.5 14.0176H13.5C13.6326 14.0176 13.7598 13.9649 13.8536 13.8711C13.9473 13.7774 14 13.6502 14 13.5176C13.9732 12.6445 13.7627 11.7868 13.382 11.0006Z" fill="#BDC7D6"/>
</svg>
