<svg width="16" height="16" viewBox="0 0 16 16" fill="none" xmlns="http://www.w3.org/2000/svg">
<g clip-path="url(#clip0)">
<path d="M15.8467 13.714L9.18002 1.04732C9.06701 0.83217 8.89736 0.651998 8.68939 0.526275C8.48142 0.400552 8.24304 0.33406 8.00002 0.333984C7.757 0.33406 7.51862 0.400552 7.31065 0.526275C7.10268 0.651998 6.93302 0.83217 6.82002 1.04732L0.153352 13.714C0.0423485 13.9202 -0.0123959 14.152 -0.0053741 14.386C0.00164773 14.6201 0.0701882 14.8482 0.193352 15.0473C0.314841 15.2392 0.483327 15.3969 0.682835 15.5054C0.882343 15.6139 1.10626 15.6696 1.33335 15.6673H14.6667C14.8962 15.6672 15.1218 15.6079 15.3216 15.4951C15.5215 15.3823 15.6889 15.2198 15.8075 15.0234C15.9262 14.827 15.9921 14.6032 15.999 14.3738C16.0059 14.1444 15.9534 13.9172 15.8467 13.714ZM7.33335 5.66732C7.33335 5.49051 7.40359 5.32094 7.52861 5.19591C7.65364 5.07089 7.82321 5.00065 8.00002 5.00065C8.17683 5.00065 8.3464 5.07089 8.47142 5.19591C8.59645 5.32094 8.66669 5.49051 8.66669 5.66732V9.66732C8.66669 9.84413 8.59645 10.0137 8.47142 10.1387C8.3464 10.2637 8.17683 10.334 8.00002 10.334C7.82321 10.334 7.65364 10.2637 7.52861 10.1387C7.40359 10.0137 7.33335 9.84413 7.33335 9.66732V5.66732ZM8.03335 13.334C7.77078 13.3325 7.5189 13.2297 7.33015 13.0472C7.14139 12.8647 7.03031 12.6164 7.02002 12.354C7.01556 12.2222 7.03757 12.0908 7.08473 11.9677C7.1319 11.8446 7.20327 11.7321 7.29463 11.637C7.38599 11.542 7.49548 11.4661 7.61664 11.4141C7.7378 11.362 7.86816 11.3348 8.00002 11.334C8.2626 11.3355 8.51447 11.4382 8.70322 11.6208C8.89198 11.8033 9.00306 12.0516 9.01335 12.314C9.01781 12.4458 8.9958 12.5771 8.94864 12.7003C8.90147 12.8234 8.8301 12.9358 8.73874 13.0309C8.64738 13.126 8.53789 13.2018 8.41673 13.2539C8.29558 13.3059 8.16521 13.3332 8.03335 13.334Z" fill="#FFC50D"/>
</g>
<defs>
<clipPath id="clip0">
<rect width="16" height="16" fill="white"/>
</clipPath>
</defs>
</svg>
