<svg width="20" height="20" viewBox="0 0 20 20" fill="none" xmlns="http://www.w3.org/2000/svg">
<path d="M1.66667 3.3875C1.55616 3.3875 1.45018 3.4314 1.37204 3.50954C1.2939 3.58768 1.25 3.69366 1.25 3.80417V14.6375C1.25 14.748 1.2939 14.854 1.37204 14.9321C1.45018 15.0103 1.55616 15.0542 1.66667 15.0542H3.54167C3.59692 15.0542 3.64991 15.0322 3.68898 14.9931C3.72805 14.9541 3.75 14.9011 3.75 14.8458V3.59583C3.75011 3.56844 3.7448 3.5413 3.73437 3.51598C3.72394 3.49065 3.70859 3.46764 3.68923 3.44827C3.66986 3.4289 3.64685 3.41356 3.62152 3.40313C3.5962 3.3927 3.56906 3.38739 3.54167 3.3875H1.66667Z" fill="#C4C8D1"/>
<path d="M18.3333 3.3875H16.4583C16.4309 3.38739 16.4038 3.3927 16.3785 3.40313C16.3532 3.41356 16.3301 3.4289 16.3108 3.44827C16.2914 3.46764 16.2761 3.49065 16.2656 3.51598C16.2552 3.5413 16.2499 3.56844 16.25 3.59583V13.3333C16.2499 13.3757 16.2628 13.4172 16.2869 13.452C16.311 13.4869 16.3453 13.5135 16.385 13.5283L16.9008 13.7217C17.0969 13.7947 17.2713 13.916 17.4081 14.0744C17.5449 14.2327 17.6395 14.4229 17.6833 14.6275C17.6985 14.6996 17.7063 14.773 17.7067 14.8467C17.7071 14.9017 17.7292 14.9544 17.7682 14.9932C17.8072 15.032 17.86 15.0539 17.915 15.0542H18.3333C18.4438 15.0542 18.5498 15.0103 18.628 14.9321C18.7061 14.854 18.75 14.748 18.75 14.6375V3.80417C18.75 3.69366 18.7061 3.58768 18.628 3.50954C18.5498 3.4314 18.4438 3.3875 18.3333 3.3875Z" fill="#C4C8D1"/>
<path d="M4.58301 15.4708C4.58301 15.6918 4.67081 15.9038 4.82709 16.0601C4.98337 16.2164 5.19533 16.3042 5.41634 16.3042H12.5622C12.5959 16.3042 12.629 16.296 12.6589 16.2804C12.6887 16.2647 12.7143 16.2421 12.7335 16.2144C12.7526 16.1867 12.7648 16.1548 12.7689 16.1214C12.7731 16.0879 12.769 16.054 12.7572 16.0225L12.0413 14.1125C11.9562 13.8876 11.9377 13.643 11.9882 13.4079C12.0386 13.1728 12.1557 12.9572 12.3256 12.787C12.4954 12.6168 12.7108 12.4992 12.9458 12.4483C13.1808 12.3974 13.4255 12.4153 13.6505 12.5L15.1347 13.0567C15.1662 13.0683 15.2001 13.0722 15.2334 13.068C15.2668 13.0638 15.2986 13.0516 15.3262 13.0324C15.3539 13.0133 15.3765 12.9878 15.3922 12.9581C15.4079 12.9283 15.4161 12.8953 15.4163 12.8617V2.97083C15.4163 2.74982 15.3285 2.53785 15.1723 2.38157C15.016 2.22529 14.804 2.1375 14.583 2.1375H5.41634C5.19533 2.1375 4.98337 2.22529 4.82709 2.38157C4.67081 2.53785 4.58301 2.74982 4.58301 2.97083V15.4708ZM10.833 10.2625H7.08301C6.91725 10.2625 6.75828 10.1966 6.64107 10.0794C6.52386 9.96223 6.45801 9.80326 6.45801 9.6375C6.45801 9.47174 6.52386 9.31276 6.64107 9.19555C6.75828 9.07834 6.91725 9.0125 7.08301 9.0125H10.833C10.9988 9.0125 11.1577 9.07834 11.2749 9.19555C11.3922 9.31276 11.458 9.47174 11.458 9.6375C11.458 9.80326 11.3922 9.96223 11.2749 10.0794C11.1577 10.1966 10.9988 10.2625 10.833 10.2625ZM12.9163 6.5125H7.08301C6.91725 6.5125 6.75828 6.44665 6.64107 6.32944C6.52386 6.21223 6.45801 6.05326 6.45801 5.8875C6.45801 5.72174 6.52386 5.56277 6.64107 5.44555C6.75828 5.32834 6.91725 5.2625 7.08301 5.2625H12.9163C13.0821 5.2625 13.2411 5.32834 13.3583 5.44555C13.4755 5.56277 13.5413 5.72174 13.5413 5.8875C13.5413 6.05326 13.4755 6.21223 13.3583 6.32944C13.2411 6.44665 13.0821 6.5125 12.9163 6.5125Z" fill="#C4C8D1"/>
<path d="M16.3258 15.9167C16.3064 15.8973 16.291 15.8743 16.2805 15.849C16.27 15.8237 16.2646 15.7966 16.2646 15.7692C16.2646 15.7418 16.27 15.7146 16.2805 15.6893C16.291 15.664 16.3064 15.641 16.3258 15.6217L16.7566 15.1917C16.8059 15.1424 16.8421 15.0815 16.8618 15.0146C16.8815 14.9476 16.8841 14.8769 16.8694 14.8087C16.8546 14.7405 16.823 14.6771 16.7773 14.6244C16.7317 14.5716 16.6736 14.5311 16.6083 14.5067L13.3583 13.2875C13.2833 13.2593 13.2018 13.2533 13.1236 13.2702C13.0453 13.2872 12.9736 13.3263 12.917 13.3829C12.8603 13.4395 12.8212 13.5112 12.8043 13.5895C12.7874 13.6677 12.7934 13.7492 12.8216 13.8242L14.0408 17.0742C14.0653 17.1393 14.1057 17.1973 14.1584 17.2428C14.2111 17.2883 14.2744 17.3199 14.3424 17.3346C14.4105 17.3494 14.4811 17.3469 14.548 17.3273C14.6148 17.3077 14.6756 17.2717 14.7249 17.2225L15.1474 16.8C15.1865 16.7611 15.2394 16.7392 15.2945 16.7392C15.3496 16.7392 15.4025 16.7611 15.4416 16.8L16.3258 17.6842C16.3834 17.7438 16.4524 17.7914 16.5287 17.8241C16.605 17.8569 16.687 17.8741 16.77 17.8747C16.853 17.8754 16.9352 17.8596 17.012 17.8281C17.0888 17.7966 17.1586 17.7502 17.2173 17.6915C17.2759 17.6328 17.3223 17.563 17.3537 17.4862C17.3851 17.4093 17.4008 17.327 17.4001 17.244C17.3993 17.161 17.382 17.079 17.3492 17.0028C17.3165 16.9266 17.2688 16.8576 17.2091 16.8L16.3258 15.9167Z" fill="#C4C8D1"/>
</svg>
