<svg width="36" height="36" viewBox="0 0 36 36" fill="none" xmlns="http://www.w3.org/2000/svg">
<rect width="36" height="36" rx="5" fill="#E9F1FB"/>
<path fill-rule="evenodd" clip-rule="evenodd" d="M24.1601 21.9022L27.5313 25.2734C28.1532 25.8977 28.1532 26.9075 27.5313 27.5318C26.9017 28.1448 25.8985 28.1448 25.2689 27.5318L21.8977 24.1606C18.3054 26.5828 13.4606 25.8786 10.7065 22.534C7.95236 19.1894 8.19068 14.2996 11.257 11.2387C14.3234 8.17777 19.2136 7.94809 22.5533 10.7081C25.8931 13.4682 26.5886 18.3142 24.1601 21.9022ZM24 17.2046C24 13.449 20.9556 10.4046 17.2 10.4046C13.4463 10.409 10.4044 13.4509 10.4 17.2046C10.4 20.9601 13.4445 24.0046 17.2 24.0046C20.9556 24.0046 24 20.9601 24 17.2046Z" fill="#9DA6BC"/>
<path d="M14.4016 18.0055H16.4016V20.0055C16.4016 20.4473 16.7597 20.8055 17.2016 20.8055C17.6434 20.8055 18.0016 20.4473 18.0016 20.0055V18.0055H20.0016C20.4434 18.0055 20.8016 17.6473 20.8016 17.2055C20.8016 16.7636 20.4434 16.4055 20.0016 16.4055H18.0016V14.4055C18.0016 13.9636 17.6434 13.6055 17.2016 13.6055C16.7597 13.6055 16.4016 13.9636 16.4016 14.4055V16.4055H14.4016C13.9597 16.4055 13.6016 16.7636 13.6016 17.2055C13.6016 17.6473 13.9597 18.0055 14.4016 18.0055Z" fill="#9DA6BC"/>
</svg>
