<svg width="36" height="36" viewBox="0 0 36 36" fill="none" xmlns="http://www.w3.org/2000/svg">
<rect width="36" height="36" rx="5" fill="#E9F1FB"/>
<path fill-rule="evenodd" clip-rule="evenodd" d="M23.9982 21.9006L27.5099 25.2718C28.1577 25.8962 28.1577 26.9059 27.5099 27.5302C26.8548 28.1449 25.8083 28.1449 25.1532 27.5302L21.6415 24.1598C17.9033 26.5794 12.862 25.876 9.9958 22.5351C7.12963 19.1941 7.37701 14.3094 10.5672 11.2511C13.7575 8.19277 18.8461 7.96221 22.3222 10.7185C25.7983 13.4747 26.5238 18.3154 23.9982 21.9006ZM23.8314 17.1998C23.8314 13.4443 20.6601 10.3998 16.7481 10.3998C12.838 10.4042 9.66936 13.4461 9.66477 17.1998C9.66477 20.9554 12.8361 23.9998 16.7481 23.9998C20.6601 23.9998 23.8314 20.9554 23.8314 17.1998Z" fill="#9DA6BC"/>
<path d="M13.8333 18.0004H19.6667C20.1269 18.0004 20.5 17.6422 20.5 17.2004C20.5 16.7586 20.1269 16.4004 19.6667 16.4004H13.8333C13.3731 16.4004 13 16.7586 13 17.2004C13 17.6422 13.3731 18.0004 13.8333 18.0004Z" fill="#9DA6BC"/>
</svg>
