<svg width="20" height="20" viewBox="0 0 20 20" fill="none" xmlns="http://www.w3.org/2000/svg">
<path d="M16.6667 15.8333V8.33333C16.6667 8.11232 16.5789 7.90036 16.4226 7.74408C16.2663 7.5878 16.0543 7.5 15.8333 7.5H0.833333C0.61232 7.5 0.400358 7.5878 0.244078 7.74408C0.0877974 7.90036 0 8.11232 0 8.33333L0 15.8333C0 16.0543 0.0877974 16.2663 0.244078 16.4226C0.400358 16.5789 0.61232 16.6667 0.833333 16.6667H15.8333C16.0543 16.6667 16.2663 16.5789 16.4226 16.4226C16.5789 16.2663 16.6667 16.0543 16.6667 15.8333ZM5.41667 14.0667C5.54346 14.0827 5.66003 14.1445 5.74453 14.2404C5.82903 14.3363 5.87565 14.4597 5.87565 14.5875C5.87565 14.7153 5.82903 14.8387 5.74453 14.9346C5.66003 15.0305 5.54346 15.0923 5.41667 15.1083C4.64293 15.0677 3.91429 14.7317 3.38099 14.1696C2.84769 13.6076 2.55038 12.8623 2.55038 12.0875C2.55038 11.3127 2.84769 10.5674 3.38099 10.0054C3.91429 9.44332 4.64293 9.10732 5.41667 9.06667C5.54346 9.08274 5.66003 9.14451 5.74453 9.24039C5.82903 9.33628 5.87565 9.45969 5.87565 9.5875C5.87565 9.71531 5.82903 9.83872 5.74453 9.93461C5.66003 10.0305 5.54346 10.0923 5.41667 10.1083C5.14596 10.0908 4.87452 10.1289 4.61914 10.2204C4.36376 10.3119 4.12987 10.4548 3.93194 10.6404C3.734 10.8259 3.57622 11.05 3.46835 11.2989C3.36049 11.5478 3.30484 11.8162 3.30484 12.0875C3.30484 12.3588 3.36049 12.6272 3.46835 12.8761C3.57622 13.125 3.734 13.3491 3.93194 13.5346C4.12987 13.7201 4.36376 13.8631 4.61914 13.9546C4.87452 14.0461 5.14596 14.0842 5.41667 14.0667V14.0667ZM7.85833 11.1417L9.39167 12.1583C9.67482 12.3524 9.88885 12.6316 10.0027 12.9554C10.1166 13.2793 10.1245 13.631 10.0252 13.9596C9.92585 14.2882 9.7245 14.5766 9.45029 14.7832C9.17609 14.9897 8.84325 15.1036 8.5 15.1083H7.08333C6.95654 15.0923 6.83997 15.0305 6.75547 14.9346C6.67097 14.8387 6.62435 14.7153 6.62435 14.5875C6.62435 14.4597 6.67097 14.3363 6.75547 14.2404C6.83997 14.1445 6.95654 14.0827 7.08333 14.0667H8.5C8.62211 14.0665 8.7409 14.0269 8.83869 13.9538C8.93648 13.8807 9.00803 13.7779 9.04269 13.6608C9.07735 13.5438 9.07326 13.4186 9.03103 13.304C8.9888 13.1895 8.91069 13.0916 8.80833 13.025L7.275 12.0083C7.05618 11.8597 6.87717 11.6597 6.75367 11.4258C6.63018 11.1918 6.56596 10.9312 6.56667 10.6667C6.56667 10.2423 6.73524 9.83535 7.0353 9.5353C7.33535 9.23524 7.74232 9.06667 8.16667 9.06667H9.58333C9.71012 9.08274 9.8267 9.14451 9.9112 9.24039C9.9957 9.33628 10.0423 9.45969 10.0423 9.5875C10.0423 9.71531 9.9957 9.83872 9.9112 9.93461C9.8267 10.0305 9.71012 10.0923 9.58333 10.1083H8.16667C8.01781 10.1083 7.87492 10.1669 7.76889 10.2713C7.66286 10.3758 7.60219 10.5178 7.6 10.6667C7.60081 10.761 7.6248 10.8536 7.66985 10.9364C7.7149 11.0193 7.77963 11.0897 7.85833 11.1417ZM14.2667 10.8333C14.2661 12.2989 13.7926 13.7251 12.9167 14.9C12.8676 14.9639 12.8046 15.0158 12.7323 15.0514C12.6601 15.0871 12.5806 15.1056 12.5 15.1056C12.4194 15.1056 12.3399 15.0871 12.2677 15.0514C12.1954 15.0158 12.1324 14.9639 12.0833 14.9C11.2074 13.7251 10.7339 12.2989 10.7333 10.8333V9.58333C10.7333 9.4463 10.7878 9.31489 10.8847 9.218C10.9816 9.1211 11.113 9.06667 11.25 9.06667C11.387 9.06667 11.5184 9.1211 11.6153 9.218C11.7122 9.31489 11.7667 9.4463 11.7667 9.58333V10.8333C11.7662 11.6986 11.9598 12.5529 12.3333 13.3333C12.3518 13.3591 12.3762 13.3802 12.4045 13.3947C12.4328 13.4092 12.4641 13.4167 12.4958 13.4167C12.5276 13.4167 12.5589 13.4092 12.5872 13.3947C12.6154 13.3802 12.6398 13.3591 12.6583 13.3333C13.0372 12.5544 13.2338 11.6995 13.2333 10.8333V9.58333C13.2333 9.4463 13.2878 9.31489 13.3847 9.218C13.4816 9.1211 13.613 9.06667 13.75 9.06667C13.887 9.06667 14.0184 9.1211 14.1153 9.218C14.2122 9.31489 14.2667 9.4463 14.2667 9.58333V10.8333Z" fill="#107969"/>
<path d="M19.7585 4.75833L15.2418 0.241667C15.0866 0.0877132 14.8771 0.000920518 14.6585 0L5.00016 0C4.55814 0 4.13421 0.175595 3.82165 0.488155C3.50909 0.800716 3.3335 1.22464 3.3335 1.66667V6.45833C3.3335 6.51359 3.35545 6.56658 3.39452 6.60565C3.43359 6.64472 3.48658 6.66667 3.54183 6.66667H4.79183C4.84708 6.66667 4.90007 6.64472 4.93914 6.60565C4.97821 6.56658 5.00016 6.51359 5.00016 6.45833V2.08333C5.00016 1.97283 5.04406 1.86685 5.1222 1.78871C5.20034 1.71057 5.30632 1.66667 5.41683 1.66667H13.9585C14.0137 1.66667 14.0667 1.68862 14.1058 1.72769C14.1449 1.76676 14.1668 1.81975 14.1668 1.875V4.16667C14.1668 4.60869 14.3424 5.03262 14.655 5.34518C14.9675 5.65774 15.3915 5.83333 15.8335 5.83333H18.1252C18.1804 5.83333 18.2334 5.85528 18.2725 5.89435C18.3115 5.93342 18.3335 5.98641 18.3335 6.04167V17.9167C18.3335 18.0272 18.2896 18.1332 18.2115 18.2113C18.1333 18.2894 18.0273 18.3333 17.9168 18.3333H5.2085C5.15324 18.3333 5.10025 18.3114 5.06118 18.2723C5.02211 18.2332 5.00016 18.1803 5.00016 18.125V17.7083C5.00016 17.6531 4.97821 17.6001 4.93914 17.561C4.90007 17.5219 4.84708 17.5 4.79183 17.5H3.54183C3.48658 17.5 3.43359 17.5219 3.39452 17.561C3.35545 17.6001 3.3335 17.6531 3.3335 17.7083V18.3333C3.3335 18.7754 3.50909 19.1993 3.82165 19.5118C4.13421 19.8244 4.55814 20 5.00016 20H18.3335C18.7755 20 19.1994 19.8244 19.512 19.5118C19.8246 19.1993 20.0002 18.7754 20.0002 18.3333V5.34167C19.9992 5.12305 19.9124 4.91355 19.7585 4.75833V4.75833Z" fill="#107969"/>
</svg>
