<svg width="20" height="20" viewBox="0 0 20 20" fill="none" xmlns="http://www.w3.org/2000/svg">
<path d="M2.87507 10.2748C2.79173 10.2331 2.6084 10.2331 2.6084 10.4081V13.7415C2.61047 13.7723 2.61966 13.8022 2.63524 13.8289C2.65082 13.8556 2.67238 13.8783 2.69822 13.8953C2.72405 13.9122 2.75347 13.923 2.78415 13.9266C2.81484 13.9303 2.84595 13.9268 2.87507 13.9165C3.22995 13.76 3.5312 13.503 3.74152 13.1772C3.95184 12.8513 4.06201 12.4709 4.0584 12.0831C4.05926 11.6991 3.94766 11.3232 3.73738 11.0019C3.52709 10.6805 3.22732 10.4278 2.87507 10.2748V10.2748Z" fill="#107969"/>
<path d="M7.49994 10.0996C7.30612 10.1018 7.12084 10.1797 6.98378 10.3168C6.84672 10.4539 6.76877 10.6391 6.7666 10.8329V13.3329C6.78587 13.5129 6.87099 13.6794 7.0056 13.8003C7.14021 13.9213 7.31479 13.9882 7.49577 13.9882C7.67674 13.9882 7.85133 13.9213 7.98594 13.8003C8.12055 13.6794 8.20567 13.5129 8.22493 13.3329V10.8329C8.22495 10.6399 8.14883 10.4546 8.0131 10.3173C7.87737 10.18 7.69298 10.1018 7.49994 10.0996Z" fill="#107969"/>
<path d="M15 15.8333V8.33333C15 8.11232 14.9122 7.90036 14.7559 7.74408C14.5996 7.5878 14.3877 7.5 14.1667 7.5H0.833333C0.61232 7.5 0.400358 7.5878 0.244078 7.74408C0.0877974 7.90036 0 8.11232 0 8.33333L0 15.8333C0 16.0543 0.0877974 16.2663 0.244078 16.4226C0.400358 16.5789 0.61232 16.6667 0.833333 16.6667H14.1667C14.3877 16.6667 14.5996 16.5789 14.7559 16.4226C14.9122 16.2663 15 16.0543 15 15.8333ZM2.08333 15.1C1.9463 15.1 1.81489 15.0456 1.71799 14.9487C1.6211 14.8518 1.56667 14.7204 1.56667 14.5833V9.58333C1.56665 9.44553 1.62082 9.31324 1.71748 9.21502C1.81414 9.1168 1.94554 9.06052 2.08333 9.05833C2.85707 9.09899 3.58571 9.43498 4.11901 9.99704C4.65231 10.5591 4.94962 11.3044 4.94962 12.0792C4.94962 12.854 4.65231 13.5992 4.11901 14.1613C3.58571 14.7234 2.85707 15.0593 2.08333 15.1V15.1ZM9.26667 13.3333C9.23587 13.782 9.03592 14.2022 8.70721 14.5092C8.3785 14.8161 7.94555 14.9868 7.49583 14.9868C7.04611 14.9868 6.61316 14.8161 6.28445 14.5092C5.95575 14.2022 5.7558 13.782 5.725 13.3333V10.8333C5.70834 10.5906 5.74177 10.347 5.82321 10.1177C5.90466 9.88837 6.03239 9.67826 6.19846 9.50041C6.36452 9.32255 6.56539 9.18073 6.78857 9.08378C7.01176 8.98682 7.2525 8.93678 7.49583 8.93678C7.73917 8.93678 7.97991 8.98682 8.20309 9.08378C8.42628 9.18073 8.62714 9.32255 8.79321 9.50041C8.95928 9.67826 9.087 9.88837 9.16845 10.1177C9.2499 10.347 9.28333 10.5906 9.26667 10.8333V13.3333ZM12.9167 14.0583C13.0435 14.0744 13.16 14.1362 13.2445 14.2321C13.329 14.3279 13.3757 14.4514 13.3757 14.5792C13.3757 14.707 13.329 14.8304 13.2445 14.9263C13.16 15.0222 13.0435 15.0839 12.9167 15.1C12.5066 15.1215 12.0965 15.0594 11.7112 14.9173C11.326 14.7752 10.9737 14.5562 10.6758 14.2736C10.378 13.9909 10.1407 13.6506 9.97865 13.2734C9.81655 12.8961 9.73295 12.4898 9.73295 12.0792C9.73295 11.6686 9.81655 11.2622 9.97865 10.885C10.1407 10.5077 10.378 10.1674 10.6758 9.88477C10.9737 9.60214 11.326 9.38312 11.7112 9.24103C12.0965 9.09895 12.5066 9.03679 12.9167 9.05833C13.0435 9.0744 13.16 9.13617 13.2445 9.23206C13.329 9.32794 13.3757 9.45136 13.3757 9.57917C13.3757 9.70697 13.329 9.83039 13.2445 9.92628C13.16 10.0222 13.0435 10.0839 12.9167 10.1C12.646 10.0824 12.3745 10.1206 12.1191 10.2121C11.8638 10.3036 11.6299 10.4465 11.4319 10.632C11.234 10.8175 11.0762 11.0417 10.9684 11.2906C10.8605 11.5395 10.8048 11.8079 10.8048 12.0792C10.8048 12.3504 10.8605 12.6188 10.9684 12.8678C11.0762 13.1167 11.234 13.3408 11.4319 13.5263C11.6299 13.7118 11.8638 13.8547 12.1191 13.9463C12.3745 14.0378 12.646 14.0759 12.9167 14.0583V14.0583Z" fill="#107969"/>
<path d="M19.7585 4.75833L15.2418 0.241667C15.0866 0.0877132 14.8771 0.000920518 14.6585 0L5.00016 0C4.55814 0 4.13421 0.175595 3.82165 0.488155C3.50909 0.800716 3.3335 1.22464 3.3335 1.66667V6.45833C3.3335 6.51359 3.35545 6.56658 3.39452 6.60565C3.43359 6.64472 3.48658 6.66667 3.54183 6.66667H4.79183C4.84708 6.66667 4.90007 6.64472 4.93914 6.60565C4.97821 6.56658 5.00016 6.51359 5.00016 6.45833V2.08333C5.00016 1.97283 5.04406 1.86685 5.1222 1.78871C5.20034 1.71057 5.30632 1.66667 5.41683 1.66667H13.9585C14.0137 1.66667 14.0667 1.68862 14.1058 1.72769C14.1449 1.76676 14.1668 1.81975 14.1668 1.875V4.16667C14.1668 4.60869 14.3424 5.03262 14.655 5.34518C14.9675 5.65774 15.3915 5.83333 15.8335 5.83333H18.1252C18.1804 5.83333 18.2334 5.85528 18.2725 5.89435C18.3115 5.93342 18.3335 5.98641 18.3335 6.04167V17.9167C18.3335 18.0272 18.2896 18.1332 18.2115 18.2113C18.1333 18.2894 18.0273 18.3333 17.9168 18.3333H5.2085C5.15324 18.3333 5.10025 18.3114 5.06118 18.2723C5.02211 18.2332 5.00016 18.1803 5.00016 18.125V17.7083C5.00016 17.6531 4.97821 17.6001 4.93914 17.561C4.90007 17.5219 4.84708 17.5 4.79183 17.5H3.54183C3.48658 17.5 3.43359 17.5219 3.39452 17.561C3.35545 17.6001 3.3335 17.6531 3.3335 17.7083V18.3333C3.3335 18.7754 3.50909 19.1993 3.82165 19.5118C4.13421 19.8244 4.55814 20 5.00016 20H18.3335C18.7755 20 19.1994 19.8244 19.512 19.5118C19.8246 19.1993 20.0002 18.7754 20.0002 18.3333V5.34167C19.9992 5.12305 19.9124 4.91355 19.7585 4.75833V4.75833Z" fill="#107969"/>
</svg>
