<svg width="20" height="20" viewBox="0 0 20 20" fill="none" xmlns="http://www.w3.org/2000/svg">
<path d="M19.7585 4.75833L15.2418 0.241667C15.0866 0.0877132 14.8771 0.000920518 14.6585 0L5.00016 0C4.55814 0 4.13421 0.175595 3.82165 0.488155C3.50909 0.800716 3.3335 1.22464 3.3335 1.66667V6.45833C3.3335 6.51359 3.35545 6.56658 3.39452 6.60565C3.43359 6.64472 3.48658 6.66667 3.54183 6.66667H4.79183C4.84708 6.66667 4.90007 6.64472 4.93914 6.60565C4.97821 6.56658 5.00016 6.51359 5.00016 6.45833V2.08333C5.00016 1.97283 5.04406 1.86685 5.1222 1.78871C5.20034 1.71057 5.30632 1.66667 5.41683 1.66667H13.9585C14.0137 1.66667 14.0667 1.68862 14.1058 1.72769C14.1449 1.76676 14.1668 1.81975 14.1668 1.875V4.16667C14.1668 4.60869 14.3424 5.03262 14.655 5.34518C14.9675 5.65774 15.3915 5.83333 15.8335 5.83333H18.1252C18.1804 5.83333 18.2334 5.85528 18.2725 5.89435C18.3115 5.93342 18.3335 5.98641 18.3335 6.04167V17.9167C18.3335 18.0272 18.2896 18.1332 18.2115 18.2113C18.1333 18.2894 18.0273 18.3333 17.9168 18.3333H5.2085C5.15324 18.3333 5.10025 18.3114 5.06118 18.2723C5.02211 18.2332 5.00016 18.1803 5.00016 18.125V17.7083C5.00016 17.6531 4.97821 17.6001 4.93914 17.561C4.90007 17.5219 4.84708 17.5 4.79183 17.5H3.54183C3.48658 17.5 3.43359 17.5219 3.39452 17.561C3.35545 17.6001 3.3335 17.6531 3.3335 17.7083V18.3333C3.3335 18.7754 3.50909 19.1993 3.82165 19.5118C4.13421 19.8244 4.55814 20 5.00016 20H18.3335C18.7755 20 19.1994 19.8244 19.512 19.5118C19.8246 19.1993 20.0002 18.7754 20.0002 18.3333V5.34167C19.9992 5.12305 19.9124 4.91355 19.7585 4.75833V4.75833Z" fill="#107969"/>
<path d="M7.49993 10.0996H6.98327C6.9258 10.0996 6.8707 10.1224 6.83006 10.1631C6.78943 10.2037 6.7666 10.2588 6.7666 10.3163V11.3496C6.7666 11.4071 6.78943 11.4622 6.83006 11.5028C6.8707 11.5434 6.9258 11.5663 6.98327 11.5663H7.49993C7.69443 11.5663 7.88095 11.489 8.01848 11.3515C8.15601 11.214 8.23327 11.0274 8.23327 10.8329C8.23327 10.6385 8.15601 10.4519 8.01848 10.3144C7.88095 10.1769 7.69443 10.0996 7.49993 10.0996V10.0996Z" fill="#107969"/>
<path d="M15 15.8333V8.33333C15 8.11232 14.9122 7.90036 14.7559 7.74408C14.5996 7.5878 14.3877 7.5 14.1667 7.5H0.833333C0.61232 7.5 0.400358 7.5878 0.244078 7.74408C0.0877974 7.90036 0 8.11232 0 8.33333L0 15.8333C0 16.0543 0.0877974 16.2663 0.244078 16.4226C0.400358 16.5789 0.61232 16.6667 0.833333 16.6667H14.1667C14.3877 16.6667 14.5996 16.5789 14.7559 16.4226C14.9122 16.2663 15 16.0543 15 15.8333ZM5.1 13.3333C5.1 13.8019 4.91387 14.2512 4.58256 14.5826C4.25124 14.9139 3.80188 15.1 3.33333 15.1C2.86478 15.1 2.41543 14.9139 2.08411 14.5826C1.7528 14.2512 1.56667 13.8019 1.56667 13.3333C1.56667 13.1963 1.6211 13.0649 1.71799 12.968C1.81489 12.8711 1.9463 12.8167 2.08333 12.8167C2.22036 12.8167 2.35178 12.8711 2.44867 12.968C2.54557 13.0649 2.6 13.1963 2.6 13.3333C2.6 13.5278 2.67726 13.7144 2.81479 13.8519C2.95232 13.9894 3.13884 14.0667 3.33333 14.0667C3.52783 14.0667 3.71435 13.9894 3.85188 13.8519C3.9894 13.7144 4.06667 13.5278 4.06667 13.3333V9.58333C4.06667 9.4463 4.1211 9.31489 4.21799 9.218C4.31489 9.1211 4.4463 9.06667 4.58333 9.06667C4.72036 9.06667 4.85178 9.1211 4.94867 9.218C5.04557 9.31489 5.1 9.4463 5.1 9.58333V13.3333ZM7.39167 12.6H6.98333C6.92587 12.6 6.87076 12.6228 6.83013 12.6635C6.78949 12.7041 6.76667 12.7592 6.76667 12.8167V14.5833C6.76667 14.7204 6.71223 14.8518 6.61534 14.9487C6.51844 15.0456 6.38703 15.1 6.25 15.1C6.11297 15.1 5.98156 15.0456 5.88466 14.9487C5.78777 14.8518 5.73333 14.7204 5.73333 14.5833V9.58333C5.73333 9.4463 5.78777 9.31489 5.88466 9.218C5.98156 9.1211 6.11297 9.06667 6.25 9.06667H7.5C7.74757 9.0665 7.99241 9.11836 8.21864 9.2189C8.44488 9.31944 8.64745 9.4664 8.81324 9.65026C8.97903 9.83412 9.10432 10.0508 9.181 10.2862C9.25768 10.5216 9.28402 10.7704 9.25833 11.0167C9.19691 11.4642 8.97242 11.8733 8.62794 12.1655C8.28345 12.4577 7.84322 12.6124 7.39167 12.6V12.6ZM13.4333 11.25C13.4333 11.387 13.3789 11.5184 13.282 11.6153C13.1851 11.7122 13.0537 11.7667 12.9167 11.7667C12.7796 11.7667 12.6482 11.7122 12.5513 11.6153C12.4544 11.5184 12.4 11.387 12.4 11.25V10.8333C12.4 10.6388 12.3227 10.4523 12.1852 10.3148C12.0477 10.1773 11.8612 10.1 11.6667 10.1C11.4722 10.1 11.2856 10.1773 11.1481 10.3148C11.0106 10.4523 10.9333 10.6388 10.9333 10.8333V13.3333C10.9344 13.4955 10.9893 13.6527 11.0892 13.7804C11.1892 13.9081 11.3286 13.999 11.4858 14.039C11.6429 14.079 11.8089 14.0658 11.9577 14.0014C12.1065 13.9371 12.2298 13.8252 12.3083 13.6833C12.35 13.6083 12.4083 13.4333 12.2333 13.4333H12.0833C11.9463 13.4333 11.8149 13.3789 11.718 13.282C11.6211 13.1851 11.5667 13.0537 11.5667 12.9167C11.5667 12.7796 11.6211 12.6482 11.718 12.5513C11.8149 12.4544 11.9463 12.4 12.0833 12.4H12.9167C13.0537 12.4 13.1851 12.4544 13.282 12.5513C13.3789 12.6482 13.4333 12.7796 13.4333 12.9167V13.3333C13.4333 13.8019 13.2472 14.2512 12.9159 14.5826C12.5846 14.9139 12.1352 15.1 11.6667 15.1C11.1981 15.1 10.7488 14.9139 10.4174 14.5826C10.0861 14.2512 9.9 13.8019 9.9 13.3333V10.8333C9.9 10.3648 10.0861 9.91543 10.4174 9.58411C10.7488 9.2528 11.1981 9.06667 11.6667 9.06667C12.1352 9.06667 12.5846 9.2528 12.9159 9.58411C13.2472 9.91543 13.4333 10.3648 13.4333 10.8333V11.25Z" fill="#107969"/>
</svg>
