<svg width="48" height="40" viewBox="0 0 48 40" fill="none" xmlns="http://www.w3.org/2000/svg">
<g clip-path="url(#clip0_18826_82380)">
<path d="M46.7403 9.52002L37.7003 0.47998C37.3913 0.174302 36.9749 0.00198423 36.5403 0H17.2203C16.3352 0.00310056 15.4872 0.355246 14.8603 0.97998C14.5492 1.28912 14.3023 1.65688 14.1341 2.06195C13.9659 2.46702 13.8796 2.90142 13.8803 3.34003V12.92C13.8803 13.0314 13.9245 13.1382 14.0033 13.217C14.0821 13.2957 14.1889 13.34 14.3003 13.34H16.8003C16.9108 13.3343 17.0163 13.2921 17.1003 13.22C17.1769 13.1388 17.2198 13.0316 17.2203 12.92V4.15997C17.2191 4.05211 17.2398 3.94513 17.281 3.84546C17.3223 3.74579 17.3832 3.65552 17.4603 3.58002C17.5395 3.50238 17.6333 3.44116 17.7363 3.39996C17.8393 3.35877 17.9494 3.33844 18.0603 3.34003H35.1403C35.2519 3.34053 35.3591 3.38342 35.4403 3.46002C35.5124 3.54399 35.5546 3.64949 35.5603 3.76001V8.34003C35.5549 8.7775 35.6371 9.2116 35.8021 9.61682C35.967 10.022 36.2113 10.3902 36.5207 10.6996C36.8301 11.009 37.1982 11.2533 37.6035 11.4182C38.0087 11.5832 38.4428 11.6653 38.8803 11.66H43.4803C43.5838 11.6699 43.6817 11.7119 43.7603 11.78C43.8369 11.8612 43.8797 11.9684 43.8803 12.08V35.84C43.8803 36.0575 43.7939 36.266 43.6401 36.4198C43.4863 36.5736 43.2778 36.66 43.0603 36.66H17.6403C17.5289 36.66 17.422 36.6158 17.3433 36.537C17.2645 36.4582 17.2203 36.3514 17.2203 36.24V35.42C17.2203 35.3086 17.1761 35.2018 17.0973 35.123C17.0185 35.0442 16.9117 35 16.8003 35H14.2203C14.1087 35.0005 14.0015 35.0434 13.9203 35.12C13.8482 35.204 13.806 35.3095 13.8003 35.42V36.66C13.7997 37.0986 13.8859 37.533 14.0541 37.938C14.2223 38.3431 14.4691 38.7109 14.7803 39.02C15.4072 39.6448 16.2552 39.9969 17.1403 40H43.8003C44.6861 40 45.5356 39.6481 46.162 39.0217C46.7884 38.3954 47.1403 37.5458 47.1403 36.66V10.66C47.1383 10.2254 46.966 9.80893 46.6603 9.5L46.7403 9.52002Z" fill="#0F7A69"/>
<path d="M23.96 20.7394C23.6941 20.4756 23.3346 20.3276 22.96 20.3276C22.5854 20.3276 22.226 20.4756 21.96 20.7394C21.6882 21.0105 21.5307 21.3756 21.52 21.7594V26.7594C21.5626 27.12 21.7329 27.4535 22.0001 27.6994C22.2702 27.9401 22.6182 28.0751 22.98 28.0794C23.3426 28.0788 23.6919 27.9433 23.96 27.6994C24.2332 27.4581 24.4047 27.1222 24.44 26.7594V21.7594C24.4363 21.5652 24.3917 21.3739 24.309 21.1981C24.2262 21.0223 24.1073 20.866 23.96 20.7394ZM23.96 20.7394C23.6941 20.4756 23.3346 20.3276 22.96 20.3276C22.5854 20.3276 22.226 20.4756 21.96 20.7394C21.6882 21.0105 21.5307 21.3756 21.52 21.7594V26.7594C21.5626 27.12 21.7329 27.4535 22.0001 27.6994C22.2702 27.9401 22.6182 28.0751 22.98 28.0794C23.3426 28.0788 23.6919 27.9433 23.96 27.6994C24.2332 27.4581 24.4047 27.1222 24.44 26.7594V21.7594C24.4363 21.5652 24.3917 21.3739 24.309 21.1981C24.2262 21.0223 24.1073 20.866 23.96 20.7394ZM38.52 15.3594C38.3663 15.202 38.1828 15.0767 37.9802 14.9909C37.7776 14.9051 37.56 14.8604 37.34 14.8594H2.56006C2.34005 14.8604 2.12244 14.9051 1.91986 14.9909C1.71729 15.0767 1.53375 15.202 1.38001 15.3594C1.07311 15.6756 0.901036 16.0987 0.900026 16.5394V31.5394C0.897342 31.7581 0.938464 31.9752 1.02094 32.1778C1.10341 32.3804 1.22557 32.5645 1.38025 32.7192C1.53493 32.8739 1.71902 32.996 1.92163 33.0785C2.12425 33.161 2.34132 33.2021 2.56006 33.1994H37.34C37.5588 33.2021 37.7758 33.161 37.9785 33.0785C38.1811 32.996 38.3652 32.8739 38.5198 32.7192C38.6745 32.5645 38.7967 32.3804 38.8792 32.1778C38.9616 31.9752 39.0027 31.7581 39.0001 31.5394V16.5394C38.9991 16.0987 38.8269 15.6756 38.52 15.3594ZM10.22 26.5194C10.2566 27.0053 10.1925 27.4935 10.0317 27.9535C9.87093 28.4135 9.61689 28.8354 9.28552 29.1926C8.95415 29.5499 8.55257 29.8349 8.10596 30.0298C7.65935 30.2247 7.17729 30.3253 6.69 30.3253C6.20272 30.3253 5.72072 30.2247 5.27411 30.0298C4.8275 29.8349 4.42591 29.5499 4.09454 29.1926C3.76318 28.8354 3.50914 28.4135 3.34833 27.9535C3.18752 27.4935 3.12344 27.0053 3.16004 26.5194C3.16004 26.2489 3.26752 25.9894 3.4588 25.7982C3.65009 25.6069 3.90953 25.4994 4.18006 25.4994C4.31724 25.4971 4.45348 25.5224 4.58063 25.574C4.70778 25.6255 4.82322 25.7022 4.92005 25.7994C5.01667 25.8925 5.09317 26.0044 5.14478 26.1282C5.19638 26.2521 5.22198 26.3853 5.22003 26.5194C5.22233 26.9069 5.37256 27.2789 5.64002 27.5594C5.91491 27.8377 6.28886 27.9959 6.68006 27.9994C7.07096 27.9942 7.44439 27.8366 7.72083 27.5602C7.99727 27.2837 8.15486 26.9103 8.16004 26.5194V19.0194C8.16004 18.7489 8.26752 18.4894 8.4588 18.2982C8.65009 18.1069 8.90953 17.9994 9.18005 17.9994C9.31724 17.9971 9.45348 18.0224 9.58063 18.074C9.70778 18.1255 9.82322 18.2022 9.92004 18.2994C10.0167 18.3925 10.0932 18.5044 10.1448 18.6282C10.1964 18.7521 10.222 18.8853 10.22 19.0194V26.5194ZM17.34 29.1194C16.7398 29.718 15.9277 30.0558 15.08 30.0594H12.22C11.9692 30.02 11.7377 29.9008 11.5601 29.7194C11.3938 29.524 11.3025 29.2759 11.3025 29.0194C11.3025 28.7629 11.3938 28.5147 11.5601 28.3194C11.735 28.1376 11.969 28.0241 12.22 27.9994H15.0601C15.3575 27.9974 15.6432 27.8831 15.86 27.6794C16.0605 27.4588 16.1803 27.1768 16.2 26.8794C16.1841 26.6928 16.1369 26.5102 16.0601 26.3394C15.9608 26.1768 15.8319 26.0343 15.6801 25.9194L12.6 23.9194C12.035 23.5303 11.6072 22.9729 11.3774 22.3265C11.1476 21.6802 11.1275 20.9778 11.32 20.3194C11.5219 19.663 11.9284 19.0884 12.48 18.6794C13.0543 18.2443 13.7599 18.0185 14.48 18.0394H17.3001C17.555 18.0658 17.7905 18.1872 17.96 18.3794C18.0911 18.5214 18.18 18.6971 18.2167 18.8868C18.2535 19.0766 18.2366 19.2728 18.1681 19.4535C18.0996 19.6342 17.982 19.7922 17.8287 19.9098C17.6753 20.0274 17.4923 20.1 17.3001 20.1194H14.42C14.1752 20.115 13.9359 20.1924 13.7401 20.3394C13.5437 20.4934 13.3975 20.7022 13.32 20.9394C13.2504 21.1675 13.2504 21.4113 13.32 21.6394C13.4028 21.8743 13.5657 22.0726 13.78 22.1994L16.84 24.1994C17.2764 24.4951 17.6335 24.8934 17.88 25.3594C18.1247 25.829 18.2549 26.3499 18.26 26.8794C18.2565 27.7173 17.9265 28.5209 17.34 29.1194ZM26.46 26.7594C26.3992 27.6596 25.9989 28.5031 25.34 29.1194C24.688 29.7404 23.8205 30.0846 22.92 30.0794C22.0203 30.0804 21.1544 29.7369 20.5001 29.1194C19.8412 28.5031 19.4408 27.6596 19.38 26.7594V21.7594C19.3468 21.2773 19.4149 20.7936 19.58 20.3394C19.7433 19.8817 19.9947 19.4604 20.32 19.0994C20.6586 18.7405 21.067 18.4547 21.52 18.2594C22.1913 17.9657 22.9374 17.8888 23.6544 18.0394C24.3715 18.1899 25.0236 18.5605 25.52 19.0994C25.8521 19.4553 26.1044 19.8781 26.26 20.3394C26.4353 20.791 26.5038 21.277 26.46 21.7594V26.7594ZM34.8 29.0194C34.7973 29.257 34.7203 29.4877 34.58 29.6794C34.4327 29.8612 34.2284 29.988 34.0001 30.0394H33.78C33.5822 30.0383 33.3885 29.983 33.22 29.8794C33.0597 29.7827 32.9284 29.6445 32.84 29.4794L30.22 24.2994C30.1 24.0994 29.76 23.9994 29.76 24.2994V29.0194C29.7623 29.1566 29.737 29.2928 29.6854 29.42C29.6339 29.5471 29.5572 29.6626 29.46 29.7594C29.2654 29.9512 29.0032 30.0587 28.73 30.0587C28.4569 30.0587 28.1946 29.9512 28.0001 29.7594C27.9029 29.6626 27.8261 29.5471 27.7746 29.42C27.7231 29.2928 27.6977 29.1566 27.7 29.0194V19.0194C27.7029 18.788 27.78 18.5636 27.92 18.3794C28.0653 18.1913 28.2696 18.0575 28.5001 17.9994C28.7215 17.9302 28.9587 17.9302 29.1801 17.9994C29.3859 18.1059 29.5535 18.2736 29.66 18.4794L32.2401 23.6594C32.3601 23.8594 32.7 23.9194 32.7 23.6594V18.9394C32.6981 18.8052 32.7237 18.6721 32.7753 18.5483C32.8269 18.4244 32.9034 18.3124 33.0001 18.2194C33.0969 18.1222 33.2123 18.0455 33.3395 17.994C33.4666 17.9424 33.6029 17.917 33.7401 17.9194C34.0103 17.92 34.2692 18.0279 34.46 18.2194C34.5567 18.3124 34.6331 18.4244 34.6848 18.5483C34.7364 18.6721 34.762 18.8052 34.76 18.9394L34.8 29.0194ZM22.94 20.2994C22.7461 20.3 22.5544 20.3393 22.3758 20.4148C22.1972 20.4903 22.0355 20.6007 21.9 20.7394C21.6282 21.0105 21.4707 21.3756 21.46 21.7594V26.7594C21.5026 27.12 21.6729 27.4535 21.94 27.6994C22.2101 27.9401 22.5582 28.0751 22.92 28.0794C23.2826 28.0788 23.6319 27.9433 23.9 27.6994C24.1732 27.4581 24.3447 27.1222 24.38 26.7594V21.7594C24.3839 21.5696 24.3486 21.3811 24.2764 21.2056C24.2041 21.0301 24.0964 20.8714 23.96 20.7394C23.8276 20.6022 23.6692 20.4926 23.4941 20.4171C23.319 20.3415 23.1307 20.3015 22.94 20.2994Z" fill="#0F7A69"/>
</g>
<defs>
<clipPath id="clip0_18826_82380">
<rect width="48" height="40" fill="white"/>
</clipPath>
</defs>
</svg>
