<svg width="20" height="20" viewBox="0 0 20 20" fill="none" xmlns="http://www.w3.org/2000/svg">
<path d="M18.0915 4.75833L13.5748 0.241667C13.4196 0.0877132 13.2101 0.000920518 12.9915 0H3.33317C2.89114 0 2.46722 0.175595 2.15466 0.488155C1.8421 0.800716 1.6665 1.22464 1.6665 1.66667V18.3333C1.6665 18.7754 1.8421 19.1993 2.15466 19.5118C2.46722 19.8244 2.89114 20 3.33317 20H16.6665C17.1085 20 17.5325 19.8244 17.845 19.5118C18.1576 19.1993 18.3332 18.7754 18.3332 18.3333V5.34167C18.3322 5.12305 18.2455 4.91355 18.0915 4.75833V4.75833ZM16.6665 17.9167C16.6665 18.0272 16.6226 18.1332 16.5445 18.2113C16.4663 18.2894 16.3603 18.3333 16.2498 18.3333H3.74984C3.63933 18.3333 3.53335 18.2894 3.45521 18.2113C3.37707 18.1332 3.33317 18.0272 3.33317 17.9167V2.08333C3.33317 1.97283 3.37707 1.86685 3.45521 1.78871C3.53335 1.71057 3.63933 1.66667 3.74984 1.66667H12.2915C12.3468 1.66667 12.3997 1.68862 12.4388 1.72769C12.4779 1.76676 12.4998 1.81975 12.4998 1.875V4.16667C12.4998 4.60869 12.6754 5.03262 12.988 5.34518C13.3006 5.65774 13.7245 5.83333 14.1665 5.83333H16.4582C16.5134 5.83333 16.5664 5.85528 16.6055 5.89435C16.6446 5.93342 16.6665 5.98641 16.6665 6.04167V17.9167Z" fill="#107969"/>
<path d="M7.49984 8.75H5.83317C5.60305 8.75 5.4165 8.93655 5.4165 9.16667V10C5.4165 10.2301 5.60305 10.4167 5.83317 10.4167H7.49984C7.72996 10.4167 7.9165 10.2301 7.9165 10V9.16667C7.9165 8.93655 7.72996 8.75 7.49984 8.75Z" fill="#107969"/>
<path d="M7.49984 11.667H5.83317C5.60305 11.667 5.4165 11.8535 5.4165 12.0837V12.917C5.4165 13.1471 5.60305 13.3337 5.83317 13.3337H7.49984C7.72996 13.3337 7.9165 13.1471 7.9165 12.917V12.0837C7.9165 11.8535 7.72996 11.667 7.49984 11.667Z" fill="#107969"/>
<path d="M7.49984 14.583H5.83317C5.60305 14.583 5.4165 14.7696 5.4165 14.9997V15.833C5.4165 16.0631 5.60305 16.2497 5.83317 16.2497H7.49984C7.72996 16.2497 7.9165 16.0631 7.9165 15.833V14.9997C7.9165 14.7696 7.72996 14.583 7.49984 14.583Z" fill="#107969"/>
<path d="M14.1665 8.75H9.58317C9.35305 8.75 9.1665 8.93655 9.1665 9.16667V10C9.1665 10.2301 9.35305 10.4167 9.58317 10.4167H14.1665C14.3966 10.4167 14.5832 10.2301 14.5832 10V9.16667C14.5832 8.93655 14.3966 8.75 14.1665 8.75Z" fill="#107969"/>
<path d="M14.1665 11.667H9.58317C9.35305 11.667 9.1665 11.8535 9.1665 12.0837V12.917C9.1665 13.1471 9.35305 13.3337 9.58317 13.3337H14.1665C14.3966 13.3337 14.5832 13.1471 14.5832 12.917V12.0837C14.5832 11.8535 14.3966 11.667 14.1665 11.667Z" fill="#107969"/>
<path d="M14.1665 14.583H9.58317C9.35305 14.583 9.1665 14.7696 9.1665 14.9997V15.833C9.1665 16.0631 9.35305 16.2497 9.58317 16.2497H14.1665C14.3966 16.2497 14.5832 16.0631 14.5832 15.833V14.9997C14.5832 14.7696 14.3966 14.583 14.1665 14.583Z" fill="#107969"/>
</svg>
