<svg width="20" height="20" viewBox="0 0 20 20" fill="none" xmlns="http://www.w3.org/2000/svg">
<g clip-path="url(#clip0)">
<path d="M7.04266 10.268C6.95516 10.2296 6.771 10.228 6.771 10.4046V13.7196C6.77241 13.7513 6.78141 13.7822 6.79724 13.8097C6.81307 13.8372 6.83526 13.8605 6.86196 13.8776C6.88865 13.8948 6.91907 13.9053 6.95066 13.9082C6.98225 13.9112 7.01408 13.9065 7.0435 13.8946C7.39609 13.7404 7.69609 13.4868 7.90675 13.1647C8.11742 12.8426 8.22962 12.4661 8.22962 12.0813C8.22962 11.6965 8.11742 11.32 7.90675 10.9979C7.69609 10.6758 7.39609 10.4222 7.0435 10.268H7.04266Z" fill="#107969"/>
<path d="M3.33317 10.1025H2.814C2.75831 10.1025 2.70489 10.1247 2.66551 10.164C2.62613 10.2034 2.604 10.2568 2.604 10.3125V11.3509C2.604 11.4066 2.62613 11.46 2.66551 11.4994C2.70489 11.5387 2.75831 11.5609 2.814 11.5609H3.33317C3.52656 11.5609 3.71202 11.484 3.84877 11.3473C3.98551 11.2106 4.06234 11.0251 4.06234 10.8317C4.06234 10.6383 3.98551 10.4529 3.84877 10.3161C3.71202 10.1794 3.52656 10.1025 3.33317 10.1025V10.1025Z" fill="#107969"/>
<path d="M15 15.8333V8.33333C15 8.11232 14.9122 7.90036 14.7559 7.74408C14.5996 7.5878 14.3877 7.5 14.1667 7.5H0.833333C0.61232 7.5 0.400358 7.5878 0.244078 7.74408C0.0877974 7.90036 0 8.11232 0 8.33333L0 15.8333C0 16.0543 0.0877974 16.2663 0.244078 16.4226C0.400358 16.5789 0.61232 16.6667 0.833333 16.6667H14.1667C14.3877 16.6667 14.5996 16.5789 14.7559 16.4226C14.9122 16.2663 15 16.0543 15 15.8333ZM3.33333 12.6025H2.81417C2.78659 12.6025 2.75928 12.6079 2.7338 12.6185C2.70832 12.629 2.68517 12.6445 2.66567 12.664C2.64617 12.6835 2.63071 12.7067 2.62015 12.7321C2.6096 12.7576 2.60417 12.7849 2.60417 12.8125V14.5833C2.60417 14.7215 2.54929 14.8539 2.45162 14.9516C2.35394 15.0493 2.22147 15.1042 2.08333 15.1042C1.9452 15.1042 1.81272 15.0493 1.71505 14.9516C1.61737 14.8539 1.5625 14.7215 1.5625 14.5833V9.58333C1.5625 9.4452 1.61737 9.31272 1.71505 9.21505C1.81272 9.11737 1.9452 9.0625 2.08333 9.0625H3.33333C3.80299 9.0625 4.25341 9.24907 4.5855 9.58116C4.9176 9.91326 5.10417 10.3637 5.10417 10.8333C5.10417 11.303 4.9176 11.7534 4.5855 12.0855C4.25341 12.4176 3.80299 12.6042 3.33333 12.6042V12.6025ZM6.25 15.1025C6.11187 15.1025 5.97939 15.0476 5.88172 14.9499C5.78404 14.8523 5.72917 14.7198 5.72917 14.5817V9.58167C5.72917 9.44353 5.78404 9.31106 5.88172 9.21338C5.97939 9.11571 6.11187 9.06083 6.25 9.06083C7.05117 9.06083 7.81954 9.3791 8.38605 9.94561C8.95257 10.5121 9.27083 11.2805 9.27083 12.0817C9.27083 12.8828 8.95257 13.6512 8.38605 14.2177C7.81954 14.7842 7.05117 15.1025 6.25 15.1025V15.1025ZM12.9167 10.1025H11.25C11.1671 10.1025 11.0876 10.1354 11.029 10.194C10.9704 10.2526 10.9375 10.3321 10.9375 10.415V11.3508C10.9375 11.4065 10.9596 11.4599 10.999 11.4993C11.0384 11.5387 11.0918 11.5608 11.1475 11.5608H12.0833C12.2215 11.5608 12.3539 11.6157 12.4516 11.7134C12.5493 11.8111 12.6042 11.9435 12.6042 12.0817C12.6042 12.2198 12.5493 12.3523 12.4516 12.4499C12.3539 12.5476 12.2215 12.6025 12.0833 12.6025H11.1475C11.0918 12.6025 11.0384 12.6246 10.999 12.664C10.9596 12.7034 10.9375 12.7568 10.9375 12.8125V14.5833C10.9375 14.7215 10.8826 14.8539 10.785 14.9516C10.6873 15.0493 10.5548 15.1042 10.4167 15.1042C10.2785 15.1042 10.1461 15.0493 10.0484 14.9516C9.95071 14.8539 9.89583 14.7215 9.89583 14.5833V10.4167C9.89583 10.0574 10.0385 9.71276 10.2924 9.45854C10.5463 9.20432 10.8907 9.06127 11.25 9.06083H12.9167C13.0548 9.06083 13.1873 9.11571 13.285 9.21338C13.3826 9.31106 13.4375 9.44353 13.4375 9.58167C13.4375 9.7198 13.3826 9.85228 13.285 9.94995C13.1873 10.0476 13.0548 10.1025 12.9167 10.1025V10.1025Z" fill="#107969"/>
<path d="M19.756 4.75417L15.2443 0.242503C15.1667 0.165317 15.0747 0.104174 14.9735 0.0625655C14.8722 0.0209569 14.7638 -0.000301868 14.6543 3.23812e-06H5.00016C4.55814 3.23812e-06 4.13421 0.175598 3.82165 0.488159C3.50909 0.800719 3.3335 1.22464 3.3335 1.66667V6.45834C3.3335 6.51359 3.35545 6.56658 3.39452 6.60565C3.43359 6.64472 3.48658 6.66667 3.54183 6.66667H4.79183C4.81933 6.66667 4.84656 6.66123 4.87194 6.65065C4.89733 6.64008 4.92037 6.62458 4.93974 6.60506C4.9591 6.58554 4.97441 6.56238 4.98479 6.53691C4.99516 6.51144 5.00038 6.48417 5.00016 6.45667V2.08334C5.00016 1.97283 5.04406 1.86685 5.1222 1.78871C5.20034 1.71057 5.30632 1.66667 5.41683 1.66667H13.9585C14.0137 1.66667 14.0667 1.68862 14.1058 1.72769C14.1449 1.76676 14.1668 1.81975 14.1668 1.875V4.16667C14.1668 4.6087 14.3424 5.03262 14.655 5.34518C14.9675 5.65774 15.3915 5.83334 15.8335 5.83334H18.1252C18.1804 5.83334 18.2334 5.85529 18.2725 5.89436C18.3115 5.93343 18.3335 5.98642 18.3335 6.04167V17.9167C18.3335 18.0272 18.2896 18.1332 18.2115 18.2113C18.1333 18.2894 18.0273 18.3333 17.9168 18.3333H5.2085C5.15324 18.3333 5.10025 18.3114 5.06118 18.2723C5.02211 18.2332 5.00016 18.1803 5.00016 18.125V17.7083C5.00038 17.681 4.99517 17.6539 4.98483 17.6285C4.97449 17.6032 4.95923 17.5802 4.93993 17.5608C4.92063 17.5414 4.89767 17.5261 4.87239 17.5156C4.84711 17.5052 4.82001 17.4999 4.79266 17.5H3.54183C3.48658 17.5 3.43359 17.522 3.39452 17.561C3.35545 17.6001 3.3335 17.6531 3.3335 17.7083V18.3333C3.3335 18.7754 3.50909 19.1993 3.82165 19.5118C4.13421 19.8244 4.55814 20 5.00016 20H18.3335C18.7755 20 19.1994 19.8244 19.512 19.5118C19.8246 19.1993 20.0002 18.7754 20.0002 18.3333V5.34334C20.0001 5.12234 19.9123 4.91041 19.756 4.75417V4.75417Z" fill="#107969"/>
</g>
<defs>
<clipPath id="clip0">
<rect width="20" height="20" fill="white"/>
</clipPath>
</defs>
</svg>
