<svg width="20" height="20" viewBox="0 0 20 20" fill="none" xmlns="http://www.w3.org/2000/svg">
<path d="M20.0002 5.34167C19.9992 5.12305 19.9124 4.91355 19.7585 4.75833L15.2418 0.241667C15.0866 0.0877132 14.8771 0.000920518 14.6585 0L5.00016 0C4.55814 0 4.13421 0.175595 3.82165 0.488155C3.50909 0.800716 3.3335 1.22464 3.3335 1.66667V6.45833C3.3335 6.51359 3.35545 6.56658 3.39452 6.60565C3.43359 6.64472 3.48658 6.66667 3.54183 6.66667H4.79183C4.84708 6.66667 4.90007 6.64472 4.93914 6.60565C4.97821 6.56658 5.00016 6.51359 5.00016 6.45833V2.08333C5.00016 1.97283 5.04406 1.86685 5.1222 1.78871C5.20034 1.71057 5.30632 1.66667 5.41683 1.66667H13.9585C14.0137 1.66667 14.0667 1.68862 14.1058 1.72769C14.1449 1.76676 14.1668 1.81975 14.1668 1.875V4.16667C14.1668 4.60869 14.3424 5.03262 14.655 5.34518C14.9675 5.65774 15.3915 5.83333 15.8335 5.83333H18.1252C18.1804 5.83333 18.2334 5.85528 18.2725 5.89435C18.3115 5.93342 18.3335 5.98641 18.3335 6.04167V17.9167C18.3335 18.0272 18.2896 18.1332 18.2115 18.2113C18.1333 18.2894 18.0273 18.3333 17.9168 18.3333H5.2085C5.15324 18.3333 5.10025 18.3114 5.06118 18.2723C5.02211 18.2332 5.00016 18.1803 5.00016 18.125V17.7083C5.00016 17.6531 4.97821 17.6001 4.93914 17.561C4.90007 17.5219 4.84708 17.5 4.79183 17.5H3.54183C3.48658 17.5 3.43359 17.5219 3.39452 17.561C3.35545 17.6001 3.3335 17.6531 3.3335 17.7083V18.3333C3.3335 18.7754 3.50909 19.1993 3.82165 19.5118C4.13421 19.8244 4.55814 20 5.00016 20H18.3335C18.7755 20 19.1994 19.8244 19.512 19.5118C19.8246 19.1993 20.0002 18.7754 20.0002 18.3333V5.34167Z" fill="#107969"/>
<path d="M3.33343 10.0996H2.81676C2.7593 10.0996 2.70419 10.1224 2.66356 10.1631C2.62293 10.2037 2.6001 10.2588 2.6001 10.3163V11.3496C2.6001 11.4071 2.62293 11.4622 2.66356 11.5028C2.70419 11.5434 2.7593 11.5663 2.81676 11.5663H3.33343C3.52792 11.5663 3.71445 11.489 3.85198 11.3515C3.9895 11.214 4.06676 11.0274 4.06676 10.8329C4.06676 10.6385 3.9895 10.4519 3.85198 10.3144C3.71445 10.1769 3.52792 10.0996 3.33343 10.0996V10.0996Z" fill="#107969"/>
<path d="M14.1667 16.6667C14.3877 16.6667 14.5996 16.5789 14.7559 16.4226C14.9122 16.2663 15 16.0543 15 15.8333V8.33333C15 8.11232 14.9122 7.90036 14.7559 7.74408C14.5996 7.5878 14.3877 7.5 14.1667 7.5H0.833333C0.61232 7.5 0.400358 7.5878 0.244078 7.74408C0.0877974 7.90036 0 8.11232 0 8.33333L0 15.8333C0 16.0543 0.0877974 16.2663 0.244078 16.4226C0.400358 16.5789 0.61232 16.6667 0.833333 16.6667H14.1667ZM3.225 12.6H2.81667C2.7592 12.6 2.70409 12.6228 2.66346 12.6635C2.62283 12.7041 2.6 12.7592 2.6 12.8167V14.5833C2.6 14.7204 2.54557 14.8518 2.44867 14.9487C2.35178 15.0456 2.22036 15.1 2.08333 15.1C1.9463 15.1 1.81489 15.0456 1.71799 14.9487C1.6211 14.8518 1.56667 14.7204 1.56667 14.5833V9.58333C1.56667 9.4463 1.6211 9.31489 1.71799 9.218C1.81489 9.1211 1.9463 9.06667 2.08333 9.06667H3.33333C3.5809 9.0665 3.82574 9.11836 4.05197 9.2189C4.27821 9.31944 4.48079 9.4664 4.64658 9.65026C4.81236 9.83412 4.93766 10.0508 5.01433 10.2862C5.09101 10.5216 5.11736 10.7704 5.09167 11.0167C5.03024 11.4642 4.80575 11.8733 4.46127 12.1655C4.11678 12.4577 3.67655 12.6124 3.225 12.6V12.6ZM9.26667 14.5833C9.26781 14.7009 9.22879 14.8154 9.15606 14.9078C9.08333 15.0003 8.98124 15.0651 8.86667 15.0917H8.75C8.6539 15.0909 8.55981 15.0641 8.47766 15.0142C8.39552 14.9644 8.32838 14.8932 8.28333 14.8083L6.99167 12.225C6.93333 12.1167 6.76667 12.075 6.76667 12.225V14.5833C6.76667 14.7204 6.71223 14.8518 6.61534 14.9487C6.51844 15.0456 6.38703 15.1 6.25 15.1C6.11297 15.1 5.98156 15.0456 5.88466 14.9487C5.78777 14.8518 5.73333 14.7204 5.73333 14.5833V9.58333C5.73219 9.46573 5.77121 9.35125 5.84394 9.25883C5.91667 9.1664 6.01876 9.10155 6.13333 9.075C6.2473 9.04941 6.36655 9.06257 6.4722 9.11237C6.57786 9.16218 6.66388 9.2458 6.71667 9.35L8.00833 11.9417C8.06667 12.0417 8.23333 12.075 8.23333 11.9417V9.58333C8.23333 9.4463 8.28777 9.31489 8.38466 9.218C8.48156 9.1211 8.61297 9.06667 8.75 9.06667C8.88703 9.06667 9.01844 9.1211 9.11534 9.218C9.21223 9.31489 9.26667 9.4463 9.26667 9.58333V14.5833ZM13.4333 11.25C13.4333 11.387 13.3789 11.5184 13.282 11.6153C13.1851 11.7122 13.0537 11.7667 12.9167 11.7667C12.7796 11.7667 12.6482 11.7122 12.5513 11.6153C12.4544 11.5184 12.4 11.387 12.4 11.25V10.8333C12.4 10.6388 12.3227 10.4523 12.1852 10.3148C12.0477 10.1773 11.8612 10.1 11.6667 10.1C11.4722 10.1 11.2856 10.1773 11.1481 10.3148C11.0106 10.4523 10.9333 10.6388 10.9333 10.8333V13.3333C10.9355 13.5272 11.0135 13.7124 11.1505 13.8495C11.2876 13.9865 11.4728 14.0645 11.6667 14.0667C11.8101 14.067 11.9502 14.0242 12.0691 13.944C12.1879 13.8638 12.28 13.7498 12.3333 13.6167C12.3333 13.5667 12.3833 13.4333 12.2583 13.4333H12.0833C11.9463 13.4333 11.8149 13.3789 11.718 13.282C11.6211 13.1851 11.5667 13.0537 11.5667 12.9167C11.5667 12.7796 11.6211 12.6482 11.718 12.5513C11.8149 12.4544 11.9463 12.4 12.0833 12.4H12.9167C13.0537 12.4 13.1851 12.4544 13.282 12.5513C13.3789 12.6482 13.4333 12.7796 13.4333 12.9167V13.3333C13.4333 13.8019 13.2472 14.2512 12.9159 14.5826C12.5846 14.9139 12.1352 15.1 11.6667 15.1C11.1981 15.1 10.7488 14.9139 10.4174 14.5826C10.0861 14.2512 9.9 13.8019 9.9 13.3333V10.8333C9.9 10.3648 10.0861 9.91543 10.4174 9.58411C10.7488 9.2528 11.1981 9.06667 11.6667 9.06667C12.1352 9.06667 12.5846 9.2528 12.9159 9.58411C13.2472 9.91543 13.4333 10.3648 13.4333 10.8333V11.25Z" fill="#107969"/>
</svg>
