<svg width="20" height="20" viewBox="0 0 20 20" fill="none" xmlns="http://www.w3.org/2000/svg">
<path d="M19.7585 4.75833L15.2418 0.241667C15.0866 0.0877132 14.8771 0.000920518 14.6585 0L5.00016 0C4.55814 0 4.13421 0.175595 3.82165 0.488155C3.50909 0.800716 3.3335 1.22464 3.3335 1.66667V6.45833C3.3335 6.51359 3.35545 6.56658 3.39452 6.60565C3.43359 6.64472 3.48658 6.66667 3.54183 6.66667H4.79183C4.84708 6.66667 4.90007 6.64472 4.93914 6.60565C4.97821 6.56658 5.00016 6.51359 5.00016 6.45833V2.08333C5.00016 1.97283 5.04406 1.86685 5.1222 1.78871C5.20034 1.71057 5.30632 1.66667 5.41683 1.66667H13.9585C14.0137 1.66667 14.0667 1.68862 14.1058 1.72769C14.1449 1.76676 14.1668 1.81975 14.1668 1.875V4.16667C14.1668 4.60869 14.3424 5.03262 14.655 5.34518C14.9675 5.65774 15.3915 5.83333 15.8335 5.83333H18.1252C18.1804 5.83333 18.2334 5.85528 18.2725 5.89435C18.3115 5.93342 18.3335 5.98641 18.3335 6.04167V17.9167C18.3335 18.0272 18.2896 18.1332 18.2115 18.2113C18.1333 18.2894 18.0273 18.3333 17.9168 18.3333H5.2085C5.15324 18.3333 5.10025 18.3114 5.06118 18.2723C5.02211 18.2332 5.00016 18.1803 5.00016 18.125V17.7083C5.00016 17.6531 4.97821 17.6001 4.93914 17.561C4.90007 17.5219 4.84708 17.5 4.79183 17.5H3.54183C3.48658 17.5 3.43359 17.5219 3.39452 17.561C3.35545 17.6001 3.3335 17.6531 3.3335 17.7083V18.3333C3.3335 18.7754 3.50909 19.1993 3.82165 19.5118C4.13421 19.8244 4.55814 20 5.00016 20H18.3335C18.7755 20 19.1994 19.8244 19.512 19.5118C19.8246 19.1993 20.0002 18.7754 20.0002 18.3333V5.34167C19.9992 5.12305 19.9124 4.91355 19.7585 4.75833V4.75833Z" fill="#107969"/>
<path d="M15 15.8333V8.33333C15 8.11232 14.9122 7.90036 14.7559 7.74408C14.5996 7.5878 14.3877 7.5 14.1667 7.5H0.833333C0.61232 7.5 0.400358 7.5878 0.244078 7.74408C0.0877974 7.90036 0 8.11232 0 8.33333L0 15.8333C0 16.0543 0.0877974 16.2663 0.244078 16.4226C0.400358 16.5789 0.61232 16.6667 0.833333 16.6667H14.1667C14.3877 16.6667 14.5996 16.5789 14.7559 16.4226C14.9122 16.2663 15 16.0543 15 15.8333ZM4.58333 10.1H4.06667C4.01062 10.1 3.95673 10.1216 3.91633 10.1605C3.87593 10.1993 3.85216 10.2523 3.85 10.3083V14.5833C3.85 14.7204 3.79557 14.8518 3.69867 14.9487C3.60178 15.0456 3.47036 15.1 3.33333 15.1C3.1963 15.1 3.06489 15.0456 2.96799 14.9487C2.8711 14.8518 2.81667 14.7204 2.81667 14.5833V10.3083C2.81451 10.2523 2.79074 10.1993 2.75033 10.1605C2.70993 10.1216 2.65605 10.1 2.6 10.1H2.08333C1.95654 10.0839 1.83997 10.0222 1.75547 9.92628C1.67097 9.83039 1.62435 9.70697 1.62435 9.57917C1.62435 9.45136 1.67097 9.32794 1.75547 9.23206C1.83997 9.13617 1.95654 9.0744 2.08333 9.05833H4.58333C4.71012 9.0744 4.8267 9.13617 4.9112 9.23206C4.9957 9.32794 5.04232 9.45136 5.04232 9.57917C5.04232 9.70697 4.9957 9.83039 4.9112 9.92628C4.8267 10.0222 4.71012 10.0839 4.58333 10.1V10.1ZM9.21667 14.35C9.27767 14.4739 9.28739 14.6169 9.24371 14.7479C9.20003 14.8789 9.10648 14.9875 8.98333 15.05C8.90976 15.0823 8.83037 15.0994 8.75 15.1C8.65352 15.1011 8.55866 15.0751 8.47619 15.025C8.39371 14.9749 8.3269 14.9028 8.28333 14.8167C8.28333 14.8167 7.56667 13.3917 7.55 13.3333C7.53333 13.275 7.5 13.3333 7.45 13.3333L6.71667 14.8C6.6731 14.8861 6.60629 14.9583 6.52381 15.0083C6.44133 15.0584 6.34648 15.0844 6.25 15.0833C6.16963 15.0827 6.09024 15.0657 6.01667 15.0333C5.89352 14.9708 5.79997 14.8623 5.75629 14.7312C5.71261 14.6002 5.72233 14.4572 5.78333 14.3333L6.875 12.1583C6.88738 12.1294 6.89376 12.0982 6.89376 12.0667C6.89376 12.0352 6.88738 12.004 6.875 11.975L5.78333 9.81667C5.74316 9.75468 5.71653 9.68491 5.70516 9.61193C5.6938 9.53894 5.69796 9.46438 5.71739 9.39311C5.73681 9.32184 5.77105 9.25548 5.81788 9.19835C5.8647 9.14122 5.92306 9.09462 5.98913 9.06158C6.05519 9.02855 6.12749 9.00983 6.20128 9.00665C6.27508 9.00346 6.34872 9.01589 6.41739 9.04311C6.48605 9.07033 6.5482 9.11174 6.59978 9.16462C6.65135 9.2175 6.69118 9.28067 6.71667 9.35L7.44167 10.8333C7.44743 10.8438 7.45588 10.8524 7.46614 10.8585C7.4764 10.8645 7.48809 10.8677 7.5 10.8677C7.51191 10.8677 7.5236 10.8645 7.53386 10.8585C7.54412 10.8524 7.55257 10.8438 7.55833 10.8333C7.55833 10.7833 8.28333 9.375 8.28333 9.375C8.35356 9.26663 8.46127 9.18794 8.58586 9.15398C8.71046 9.12003 8.84319 9.13318 8.9587 9.19093C9.0742 9.24869 9.16437 9.34698 9.21196 9.46703C9.25955 9.58708 9.26123 9.72046 9.21667 9.84167L8.125 11.9917C8.11262 12.0206 8.10624 12.0518 8.10624 12.0833C8.10624 12.1148 8.11262 12.146 8.125 12.175L9.21667 14.35ZM12.9167 10.1H12.4C12.344 10.1 12.2901 10.1216 12.2497 10.1605C12.2093 10.1993 12.1855 10.2523 12.1833 10.3083V14.5833C12.1833 14.7204 12.1289 14.8518 12.032 14.9487C11.9351 15.0456 11.8037 15.1 11.6667 15.1C11.5296 15.1 11.3982 15.0456 11.3013 14.9487C11.2044 14.8518 11.15 14.7204 11.15 14.5833V10.3083C11.1478 10.2523 11.1241 10.1993 11.0837 10.1605C11.0433 10.1216 10.9894 10.1 10.9333 10.1H10.4167C10.2899 10.0839 10.1733 10.0222 10.0888 9.92628C10.0043 9.83039 9.95768 9.70697 9.95768 9.57917C9.95768 9.45136 10.0043 9.32794 10.0888 9.23206C10.1733 9.13617 10.2899 9.0744 10.4167 9.05833H12.9167C13.0435 9.0744 13.16 9.13617 13.2445 9.23206C13.329 9.32794 13.3757 9.45136 13.3757 9.57917C13.3757 9.70697 13.329 9.83039 13.2445 9.92628C13.16 10.0222 13.0435 10.0839 12.9167 10.1V10.1Z" fill="#107969"/>
</svg>
