<svg width="20" height="20" viewBox="0 0 20 20" fill="none" xmlns="http://www.w3.org/2000/svg">
<path d="M15 15.8333V8.33333C15 8.11232 14.9122 7.90036 14.7559 7.74408C14.5996 7.5878 14.3877 7.5 14.1667 7.5H0.833333C0.61232 7.5 0.400358 7.5878 0.244078 7.74408C0.0877974 7.90036 0 8.11232 0 8.33333L0 15.8333C0 16.0543 0.0877974 16.2663 0.244078 16.4226C0.400358 16.5789 0.61232 16.6667 0.833333 16.6667H14.1667C14.3877 16.6667 14.5996 16.5789 14.7559 16.4226C14.9122 16.2663 15 16.0543 15 15.8333ZM5.05 14.35C5.111 14.4739 5.12072 14.6169 5.07704 14.7479C5.03337 14.8789 4.93982 14.9875 4.81667 15.05C4.74309 15.0823 4.6637 15.0994 4.58333 15.1C4.48685 15.1011 4.392 15.0751 4.30952 15.025C4.22704 14.9749 4.16024 14.9028 4.11667 14.8167L3.38333 13.3333C3.33333 13.3333 3.33333 13.3333 3.28333 13.3333L2.55 14.8C2.50643 14.8861 2.43962 14.9583 2.35715 15.0083C2.27467 15.0584 2.17982 15.0844 2.08333 15.0833C2.00297 15.0827 1.92357 15.0657 1.85 15.0333C1.72685 14.9708 1.6333 14.8623 1.58962 14.7312C1.54595 14.6002 1.55566 14.4572 1.61667 14.3333L2.70833 12.1583C2.72071 12.1294 2.72709 12.0982 2.72709 12.0667C2.72709 12.0352 2.72071 12.004 2.70833 11.975L1.61667 9.81667C1.57211 9.69546 1.57378 9.56208 1.62137 9.44203C1.66896 9.32198 1.75913 9.22369 1.87463 9.16593C1.99014 9.10818 2.12288 9.09503 2.24747 9.12898C2.37206 9.16294 2.47977 9.24163 2.55 9.35L3.275 10.8333C3.28077 10.8438 3.28922 10.8524 3.29947 10.8585C3.30973 10.8645 3.32142 10.8677 3.33333 10.8677C3.34524 10.8677 3.35693 10.8645 3.36719 10.8585C3.37745 10.8524 3.3859 10.8438 3.39167 10.8333C3.39167 10.7833 4.11667 9.375 4.11667 9.375C4.1869 9.26663 4.2946 9.18794 4.4192 9.15398C4.54379 9.12003 4.67653 9.13318 4.79203 9.19093C4.90754 9.24869 4.9977 9.34698 5.0453 9.46703C5.09289 9.58708 5.09456 9.72046 5.05 9.84167L3.95833 11.9917C3.94595 12.0206 3.93957 12.0518 3.93957 12.0833C3.93957 12.1148 3.94595 12.146 3.95833 12.175L5.05 14.35ZM8.75 15.1H7.08333C6.72529 15.1 6.38191 14.9578 6.12874 14.7046C5.87556 14.4514 5.73333 14.108 5.73333 13.75V9.58333C5.73333 9.51548 5.7467 9.4483 5.77266 9.38561C5.79863 9.32293 5.83668 9.26597 5.88466 9.218C5.93264 9.17002 5.9896 9.13196 6.05228 9.106C6.11497 9.08003 6.18215 9.06667 6.25 9.06667C6.31785 9.06667 6.38503 9.08003 6.44772 9.106C6.5104 9.13196 6.56736 9.17002 6.61534 9.218C6.66332 9.26597 6.70137 9.32293 6.72734 9.38561C6.7533 9.4483 6.76667 9.51548 6.76667 9.58333V13.75C6.76665 13.7912 6.77489 13.832 6.79091 13.87C6.80692 13.9079 6.83038 13.9423 6.8599 13.971C6.88942 13.9998 6.9244 14.0223 6.96278 14.0373C7.00115 14.0523 7.04215 14.0594 7.08333 14.0583H8.75C8.87679 14.0744 8.99337 14.1362 9.07787 14.2321C9.16237 14.3279 9.20899 14.4514 9.20899 14.5792C9.20899 14.707 9.16237 14.8304 9.07787 14.9263C8.99337 15.0222 8.87679 15.0839 8.75 15.1V15.1ZM11.1917 11.1417L12.725 12.1583C12.9438 12.307 13.1228 12.507 13.2463 12.7409C13.3698 12.9748 13.434 13.2355 13.4333 13.5C13.4333 13.9243 13.2648 14.3313 12.9647 14.6314C12.6646 14.9314 12.2577 15.1 11.8333 15.1H10.4167C10.2899 15.0839 10.1733 15.0222 10.0888 14.9263C10.0043 14.8304 9.95768 14.707 9.95768 14.5792C9.95768 14.4514 10.0043 14.3279 10.0888 14.2321C10.1733 14.1362 10.2899 14.0744 10.4167 14.0583H11.8333C11.9822 14.0584 12.1251 13.9998 12.2311 13.8953C12.3371 13.7908 12.3978 13.6488 12.4 13.5C12.3992 13.4057 12.3752 13.3131 12.3301 13.2302C12.2851 13.1474 12.2204 13.0769 12.1417 13.025L10.6083 12C10.3233 11.8078 10.1074 11.5292 9.99228 11.2053C9.87714 10.8814 9.86882 10.5291 9.96855 10.2001C10.0683 9.8711 10.2708 9.58271 10.5464 9.37723C10.822 9.17175 11.1562 9.05998 11.5 9.05833H12.9167C13.0435 9.0744 13.16 9.13617 13.2445 9.23206C13.329 9.32794 13.3757 9.45136 13.3757 9.57917C13.3757 9.70697 13.329 9.83039 13.2445 9.92628C13.16 10.0222 13.0435 10.0839 12.9167 10.1H11.5C11.3779 10.1001 11.2591 10.1397 11.1613 10.2129C11.0635 10.286 10.992 10.3887 10.9573 10.5058C10.9227 10.6229 10.9267 10.7481 10.969 10.8626C11.0112 10.9772 11.0893 11.0751 11.1917 11.1417V11.1417Z" fill="#107969"/>
<path d="M19.7585 4.75833L15.2418 0.241667C15.0866 0.0877132 14.8771 0.000920518 14.6585 0L5.00016 0C4.55814 0 4.13421 0.175595 3.82165 0.488155C3.50909 0.800716 3.3335 1.22464 3.3335 1.66667V6.45833C3.3335 6.51359 3.35545 6.56658 3.39452 6.60565C3.43359 6.64472 3.48658 6.66667 3.54183 6.66667H4.79183C4.84708 6.66667 4.90007 6.64472 4.93914 6.60565C4.97821 6.56658 5.00016 6.51359 5.00016 6.45833V2.08333C5.00016 1.97283 5.04406 1.86685 5.1222 1.78871C5.20034 1.71057 5.30632 1.66667 5.41683 1.66667H13.9585C14.0137 1.66667 14.0667 1.68862 14.1058 1.72769C14.1449 1.76676 14.1668 1.81975 14.1668 1.875V4.16667C14.1668 4.60869 14.3424 5.03262 14.655 5.34518C14.9675 5.65774 15.3915 5.83333 15.8335 5.83333H18.1252C18.1804 5.83333 18.2334 5.85528 18.2725 5.89435C18.3115 5.93342 18.3335 5.98641 18.3335 6.04167V17.9167C18.3335 18.0272 18.2896 18.1332 18.2115 18.2113C18.1333 18.2894 18.0273 18.3333 17.9168 18.3333H5.2085C5.15324 18.3333 5.10025 18.3114 5.06118 18.2723C5.02211 18.2332 5.00016 18.1803 5.00016 18.125V17.7083C5.00016 17.6531 4.97821 17.6001 4.93914 17.561C4.90007 17.5219 4.84708 17.5 4.79183 17.5H3.54183C3.48658 17.5 3.43359 17.5219 3.39452 17.561C3.35545 17.6001 3.3335 17.6531 3.3335 17.7083V18.3333C3.3335 18.7754 3.50909 19.1993 3.82165 19.5118C4.13421 19.8244 4.55814 20 5.00016 20H18.3335C18.7755 20 19.1994 19.8244 19.512 19.5118C19.8246 19.1993 20.0002 18.7754 20.0002 18.3333V5.34167C19.9992 5.12305 19.9124 4.91355 19.7585 4.75833V4.75833Z" fill="#107969"/>
</svg>
